<svg version="1.2" xmlns="http://www.w3.org/2000/svg" viewBox="0 0 800 800" width="800" height="800">
	<title>Categorization-ai</title>
	<style>
		.s0 { fill: #ffe8ad } 
		.s1 { fill: none;stroke: #000000;stroke-linecap: round;stroke-linejoin: round;stroke-width: 5.2 } 
		.s2 { fill: #ffffff } 
		.s3 { fill: #ffd740 } 
		.s4 { fill: #fc6140 } 
		.s5 { fill: #00bbd6 } 
	</style>
	<g id="Layer 1">
		<g id="&lt;Group&gt;">
			<path id="&lt;Path&gt;" class="s0" d="m331.3 559h-185c-18.6 0-33.6-15-33.6-33.6v-398.4c0-18.5 15-33.5 33.6-33.5h185c18.5 0 33.5 15 33.5 33.5v398.4c0 18.6-15 33.6-33.5 33.6z"/>
			<path id="&lt;Path&gt;" class="s1" d="m331.3 559h-185c-18.6 0-33.6-15-33.6-33.6v-398.4c0-18.5 15-33.5 33.6-33.5h185c18.5 0 33.5 15 33.5 33.5v398.4c0 18.6-15 33.6-33.5 33.6z"/>
			<path id="&lt;Path&gt;" class="s2" d="m314.3 428.6c0 41.7-33.8 75.5-75.5 75.5-41.7 0-75.6-33.8-75.6-75.5 0-41.7 33.9-75.5 75.6-75.5 41.7 0 75.5 33.8 75.5 75.5z"/>
			<path id="&lt;Path&gt;" class="s2" d="m314.3 221.2c0 41.7-33.8 75.5-75.5 75.5-41.7 0-75.6-33.8-75.6-75.5 0-41.7 33.9-75.6 75.6-75.6 41.7 0 75.5 33.9 75.5 75.6z"/>
			<path id="&lt;Path&gt;" class="s1" d="m314.3 221.2c0 41.7-33.8 75.5-75.5 75.5-41.7 0-75.6-33.8-75.6-75.5 0-41.7 33.9-75.6 75.6-75.6 41.7 0 75.5 33.9 75.5 75.6z"/>
			<path id="&lt;Path&gt;" class="s1" d="m314.3 428.6c0 41.7-33.8 75.5-75.5 75.5-41.7 0-75.6-33.8-75.6-75.5 0-41.7 33.9-75.5 75.6-75.5 41.7 0 75.5 33.8 75.5 75.5z"/>
			<path id="&lt;Path&gt;" class="s3" d="m188.2 559h101.1v77.7h-101.1z"/>
			<path id="&lt;Path&gt;" class="s1" d="m188.2 559h101.1v77.7h-101.1z"/>
			<path id="&lt;Path&gt;" class="s4" d="m112.7 706.5c0-38.5 31.3-69.8 69.8-69.8h112.5c38.5 0 69.8 31.3 69.8 69.8h-252.1z"/>
			<path id="&lt;Path&gt;" class="s1" d="m112.7 706.5c0-38.5 31.3-69.8 69.8-69.8h112.5c38.5 0 69.8 31.3 69.8 69.8h-252.1z"/>
			<path id="&lt;Path&gt;" class="s3" d="m687.3 706.5h-228.2v-228.2h228.2z"/>
			<path id="&lt;Path&gt;" class="s1" d="m687.3 706.5h-228.2v-228.2h228.2z"/>
			<path id="&lt;Path&gt;" class="s5" d="m650.6 669.8h-154.8v-154.8h154.8z"/>
			<path id="&lt;Path&gt;" class="s1" d="m650.6 669.8h-154.8v-154.8h154.8z"/>
			<path id="&lt;Path&gt;" class="s1" d="m188.2 559h101.1v77.7h-101.1z"/>
			<path id="&lt;Path&gt;" class="s1" d="m650.6 478.3v-60.4"/>
			<path id="&lt;Path&gt;" class="s1" d="m674.4 394.1c0 13.1-10.7 23.8-23.8 23.8-13.2 0-23.8-10.7-23.8-23.8 0-13.1 10.6-23.8 23.8-23.8 13.1 0 23.8 10.7 23.8 23.8z"/>
			<path id="&lt;Path&gt;" class="s1" d="m573.2 478.3v-60.4"/>
			<path id="&lt;Path&gt;" class="s4" d="m674.4 394.1c0 13.1-10.7 23.8-23.8 23.8-13.2 0-23.8-10.7-23.8-23.8 0-13.1 10.6-23.8 23.8-23.8 13.1 0 23.8 10.7 23.8 23.8z"/>
			<path id="&lt;Path&gt;" class="s4" d="m597 394.1c0 13.1-10.7 23.8-23.8 23.8-13.2 0-23.8-10.7-23.8-23.8 0-13.1 10.6-23.8 23.8-23.8 13.1 0 23.8 10.7 23.8 23.8z"/>
			<path id="&lt;Path&gt;" class="s4" d="m519.6 394.1c0 13.1-10.7 23.8-23.8 23.8-13.2 0-23.8-10.7-23.8-23.8 0-13.1 10.6-23.8 23.8-23.8 13.1 0 23.8 10.7 23.8 23.8z"/>
			<path id="&lt;Path&gt;" class="s1" d="m597 394.1c0 13.1-10.7 23.8-23.8 23.8-13.2 0-23.8-10.7-23.8-23.8 0-13.1 10.6-23.8 23.8-23.8 13.1 0 23.8 10.7 23.8 23.8z"/>
			<path id="&lt;Path&gt;" class="s1" d="m495.8 478.3v-60.4"/>
			<path id="&lt;Path&gt;" class="s1" d="m519.6 394.1c0 13.1-10.7 23.8-23.8 23.8-13.2 0-23.8-10.7-23.8-23.8 0-13.1 10.6-23.8 23.8-23.8 13.1 0 23.8 10.7 23.8 23.8z"/>
		</g>
	</g>
</svg>