<svg version="1.2" xmlns="http://www.w3.org/2000/svg" viewBox="0 0 800 800" width="800" height="800">
	<title>Content is reviewed 247365-ai</title>
	<style>
		.s0 { fill: #fff8e1 } 
		.s1 { fill: none;stroke: #000000;stroke-linecap: round;stroke-linejoin: round;stroke-width: 5.2 } 
		.s2 { fill: #fc6140 } 
		.s3 { fill: #ffe8ad } 
		.s4 { fill: #00bbd6 } 
		.s5 { fill: #ffd740 } 
	</style>
	<g id="Layer 1">
		<g id="&lt;Group&gt;">
			<g id="&lt;Group&gt;">
				<path id="&lt;Path&gt;" class="s0" d="m751.9 400c0 194.4-157.5 351.9-351.9 351.9-194.4 0-351.9-157.5-351.9-351.9 0-194.4 157.5-351.9 351.9-351.9 194.4 0 351.9 157.5 351.9 351.9z"/>
				<path id="&lt;Path&gt;" class="s1" d="m751.9 400c0 194.4-157.5 351.9-351.9 351.9-194.4 0-351.9-157.5-351.9-351.9 0-194.4 157.5-351.9 351.9-351.9 194.4 0 351.9 157.5 351.9 351.9z"/>
			</g>
			<path id="&lt;Path&gt;" class="s2" d="m305.9 467.1h-157.7l78.9-187.8z"/>
			<path id="&lt;Path&gt;" class="s3" d="m488.8 368h157.7l-78.8 187.8z"/>
			<path id="&lt;Path&gt;" class="s4" d="m515.4 244c0 49.3-39.9 89.2-89.2 89.2-49.2 0-89.1-39.9-89.1-89.2 0-49.2 39.9-89.1 89.1-89.1 49.3 0 89.2 39.9 89.2 89.1z"/>
			<path id="&lt;Path&gt;" class="s5" d="m453.8 570.3l-74.8 74.8-74.9-74.8 74.9-74.9z"/>
		</g>
	</g>
</svg>