<svg version="1.2" xmlns="http://www.w3.org/2000/svg" viewBox="0 0 800 800" width="800" height="800">
	<title>Counterfeits-ai</title>
	<style>
		.s0 { fill: #fc6140 } 
		.s1 { fill: none;stroke: #000000;stroke-linecap: round;stroke-linejoin: round;stroke-width: 5.2 } 
		.s2 { fill: #ffd740 } 
		.s3 { fill: #00bbd6 } 
		.s4 { fill: #ffe8ad } 
		.s5 { fill: #000000 } 
	</style>
	<g id="Layer 1">
		<g id="&lt;Group&gt;">
			<path id="&lt;Path&gt;" class="s0" d="m431.3 166.6c0 19.7-15.9 35.7-35.7 35.7-19.7 0-35.7-16-35.7-35.7 0-19.8 16-35.8 35.7-35.8 19.8 0 35.7 16 35.7 35.8z"/>
			<path id="&lt;Path&gt;" class="s1" d="m431.3 166.6c0 19.7-15.9 35.7-35.7 35.7-19.7 0-35.7-16-35.7-35.7 0-19.8 16-35.8 35.7-35.8 19.8 0 35.7 16 35.7 35.8z"/>
			<path id="&lt;Path&gt;" class="s0" d="m359.9 536.4v-55.8c0-19.7 16-35.7 35.7-35.7 19.8 0 35.7 16 35.7 35.7v55.8"/>
			<path id="&lt;Path&gt;" class="s1" d="m395.6 202.3v242.6"/>
			<path id="&lt;Path&gt;" class="s1" d="m359.9 536.4v-55.8c0-19.7 16-35.7 35.7-35.7 19.8 0 35.7 16 35.7 35.7v55.8"/>
			<path id="&lt;Path&gt;" class="s1" d="m489.5 537.7h-187.8"/>
			<path id="&lt;Path&gt;" class="s1" d="m446.1 117.2c0 0-50.7-33.8-102.8 0"/>
			<g id="&lt;Group&gt;">
				<path id="&lt;Path&gt;" class="s1" d="m556.2 210.4l60.5-85.4 60.8 85.4"/>
				<path id="&lt;Path&gt;" class="s1" d="m116.4 210.4l59.5-85.4 61.8 85.4"/>
			</g>
			<g id="&lt;Group&gt;">
				<g id="&lt;Group&gt;">
					<path id="&lt;Path&gt;" class="s2" d="m723 268c0 57.3-46.4 103.7-103.6 103.7-57.3 0-103.7-46.4-103.7-103.7z"/>
					<path id="&lt;Path&gt;" class="s2" d="m275.5 268c0 57.3-46.4 103.7-103.6 103.7-57.2 0-103.6-46.4-103.6-103.7z"/>
				</g>
			</g>
			<path id="&lt;Path&gt;" class="s1" d="m175.9 125c0 0 93.1-59.4 219.7-59.4 126.6 0 221.1 59.4 221.1 59.4"/>
			<path id="&lt;Path&gt;" class="s3" d="m538.8 635.4v-149.6c0-12 9.7-21.7 21.7-21.7h149.6c11.9 0 21.6 9.7 21.6 21.7v149.6c0 11.9-9.7 21.6-21.6 21.6h-149.6c-12 0-21.7-9.7-21.7-21.6z"/>
			<g id="&lt;Group&gt;">
				<path id="&lt;Path&gt;" class="s1" d="m723 268c0 57.3-46.4 103.7-103.6 103.7-57.3 0-103.7-46.4-103.7-103.7z"/>
				<path id="&lt;Path&gt;" class="s1" d="m275.5 268c0 57.3-46.4 103.7-103.6 103.7-57.2 0-103.6-46.4-103.6-103.7z"/>
			</g>
			<path id="&lt;Path&gt;" class="s1" d="m538.8 635.4v-149.6c0-12 9.7-21.7 21.7-21.7h149.6c11.9 0 21.6 9.7 21.6 21.7v149.6c0 11.9-9.7 21.6-21.6 21.6h-149.6c-12 0-21.7-9.7-21.7-21.6z"/>
			<path id="&lt;Path&gt;" class="s4" d="m68.3 712.8v-149.6c0-12 9.7-21.7 21.6-21.7h149.6c12 0 21.7 9.7 21.7 21.7v149.6c0 11.9-9.7 21.6-21.7 21.6h-149.6c-11.9 0-21.6-9.7-21.6-21.6z"/>
			<path id="&lt;Path&gt;" class="s1" d="m68.3 712.8v-149.6c0-12 9.7-21.7 21.6-21.7h149.6c12 0 21.7 9.7 21.7 21.7v149.6c0 11.9-9.7 21.6-21.7 21.6h-149.6c-11.9 0-21.6-9.7-21.6-21.6z"/>
			<path id="&lt;Path&gt;" class="s5" d="m694.3 508.2c0 8.1-6.6 14.8-14.8 14.8-8.1 0-14.8-6.7-14.8-14.8 0-8.2 6.7-14.8 14.8-14.8 8.2 0 14.8 6.6 14.8 14.8z"/>
			<g id="&lt;Group&gt;">
				<path id="&lt;Path&gt;" class="s5" d="m219.1 612c0 8.2-6.6 14.8-14.8 14.8-8.2 0-14.8-6.6-14.8-14.8 0-8.2 6.6-14.8 14.8-14.8 8.2 0 14.8 6.6 14.8 14.8z"/>
				<path id="&lt;Path&gt;" class="s5" d="m179.6 612c0 8.2-6.7 14.8-14.9 14.8-8.1 0-14.8-6.6-14.8-14.8 0-8.2 6.7-14.8 14.8-14.8 8.2 0 14.9 6.6 14.9 14.8z"/>
				<path id="&lt;Path&gt;" class="s5" d="m140 612c0 8.2-6.7 14.8-14.8 14.8-8.2 0-14.8-6.6-14.8-14.8 0-8.2 6.6-14.8 14.8-14.8 8.1 0 14.8 6.6 14.8 14.8z"/>
				<path id="&lt;Path&gt;" class="s5" d="m219.1 665.1c0 8.2-6.6 14.8-14.8 14.8-8.2 0-14.8-6.6-14.8-14.8 0-8.2 6.6-14.8 14.8-14.8 8.2 0 14.8 6.6 14.8 14.8z"/>
				<path id="&lt;Path&gt;" class="s5" d="m179.6 665.1c0 8.2-6.7 14.8-14.9 14.8-8.1 0-14.8-6.6-14.8-14.8 0-8.2 6.7-14.8 14.8-14.8 8.2 0 14.9 6.6 14.9 14.8z"/>
				<path id="&lt;Path&gt;" class="s5" d="m140 665.1c0 8.2-6.7 14.8-14.8 14.8-8.2 0-14.8-6.6-14.8-14.8 0-8.2 6.6-14.8 14.8-14.8 8.1 0 14.8 6.6 14.8 14.8z"/>
			</g>
			<path id="&lt;Path&gt;" class="s5" d="m608.1 508.2c0 8.1-6.6 14.8-14.8 14.8-8.2 0-14.8-6.7-14.8-14.8 0-8.2 6.6-14.8 14.8-14.8 8.2 0 14.8 6.6 14.8 14.8z"/>
			<path id="&lt;Path&gt;" class="s5" d="m694.3 602.9c0 8.2-6.6 14.8-14.8 14.8-8.1 0-14.8-6.6-14.8-14.8 0-8.1 6.7-14.8 14.8-14.8 8.2 0 14.8 6.7 14.8 14.8z"/>
			<path id="&lt;Path&gt;" class="s5" d="m650.1 556.3c0 8.2-6.7 14.8-14.8 14.8-8.2 0-14.9-6.6-14.9-14.8 0-8.2 6.7-14.8 14.9-14.8 8.1 0 14.8 6.6 14.8 14.8z"/>
			<path id="&lt;Path&gt;" class="s5" d="m608.1 602.9c0 8.2-6.6 14.8-14.8 14.8-8.2 0-14.8-6.6-14.8-14.8 0-8.1 6.6-14.8 14.8-14.8 8.2 0 14.8 6.7 14.8 14.8z"/>
			<path id="&lt;Path&gt;" class="s1" d="m489.5 654.6h-187.8"/>
		</g>
	</g>
</svg>