<svg version="1.2" xmlns="http://www.w3.org/2000/svg" viewBox="0 0 800 800" width="800" height="800">
	<title>Cyberbullying-ai</title>
	<style>
		.s0 { fill: none;stroke: #000000;stroke-linecap: round;stroke-linejoin: round;stroke-width: 5.2 } 
		.s1 { fill: #fc6140 } 
		.s2 { fill: #ffe8ad } 
		.s3 { fill: #000000 } 
	</style>
	<g id="Layer 1">
		<g id="&lt;Group&gt;">
			<path id="&lt;Path&gt;" class="s0" d="m593.6 225.7l-65.3 42.3v-214.2h218.2v171.9z"/>
			<g id="&lt;Group&gt;">
				<path id="&lt;Path&gt;" class="s1" d="m394.6 580.5l57.7-46.9c0 0 94.1 26 121.1 49.9 27.1 23.9 44.2 162.7 44.2 162.7h-446.1c0 0 17.2-138.8 44.2-162.7 27-23.9 121.2-49.9 121.2-49.9z"/>
				<path id="&lt;Path&gt;" class="s2" d="m337.3 533.6v-28.2c0 0-42.1-21.3-44.7-68.8 0 0-21.4 0.9-20.9-27.6 0.5-28.6 16.3-32.7 16.3-32.7 0 0 5.8-59.9 28.4-86.5 9-10.7 23.3-18.3 37.2-23.6 25.6-9.9 54.5-9.9 80.1 0 13.9 5.3 28.2 12.9 37.2 23.6 22.6 26.6 28.4 86.5 28.4 86.5 0 0 15.8 4.1 16.3 32.7 0.5 28.5-20.9 27.6-20.9 27.6-2.6 47.5-44.7 68.8-44.7 68.8l2.3 28.2c0 0-52 43.3-55.2 44.2-3.2 1-4.5 0.4-9-2.5-4.5-2.9-50.8-41.7-50.8-41.7z"/>
				<path id="&lt;Path&gt;" class="s0" d="m394.6 580.5l57.7-46.9c0 0 94.1 26 121.1 49.9 27.1 23.9 44.2 162.7 44.2 162.7h-446.1c0 0 17.2-138.8 44.2-162.7 27-23.9 121.2-49.9 121.2-49.9z"/>
				<path id="&lt;Path&gt;" class="s0" d="m394.6 743.7v-122.5"/>
				<path id="&lt;Path&gt;" class="s0" d="m422.6 598.1l-28 23.1"/>
				<path id="&lt;Path&gt;" class="s0" d="m366.6 598.1l28 23.1"/>
				<g id="&lt;Group&gt;">
					<path id="&lt;Path&gt;" class="s3" d="m487.9 586.7c0 0 77.8 32.3 90 114.8h-90z"/>
					<path id="&lt;Path&gt;" class="s3" d="m301.2 701.5h-89.9c12.1-82.5 89.9-114.8 89.9-114.8z"/>
				</g>
				<path id="&lt;Path&gt;" class="s0" d="m337.3 533.6v-28.2c0 0-42.1-21.3-44.7-68.8 0 0-21.4 0.9-20.9-27.6 0.5-28.6 16.3-32.7 16.3-32.7 0 0 5.8-59.9 28.4-86.5 9-10.7 23.3-18.3 37.2-23.6 25.6-9.9 54.5-9.9 80.1 0 13.9 5.3 28.2 12.9 37.2 23.6 22.6 26.6 28.4 86.5 28.4 86.5 0 0 15.8 4.1 16.3 32.7 0.5 28.5-20.9 27.6-20.9 27.6-2.6 47.5-44.7 68.8-44.7 68.8l2.3 28.2"/>
				<path id="&lt;Path&gt;" class="s0" d="m487.9 325.7c0 0-28.9 22.1-73.8 14.9-45-7.3-60.1-31.9-111-27.6"/>
			</g>
			<path id="&lt;Path&gt;" class="s0" d="m684.6 103.8l-56 65.9-33.2-27.1"/>
			<path id="&lt;Path&gt;" class="s0" d="m53.5 225.7v-171.9h218.2v214.2l-65.3-42.3z"/>
			<path id="&lt;Path&gt;" class="s0" d="m195.1 103.8l-71.4 69.6"/>
			<path id="&lt;Path&gt;" class="s0" d="m123.7 103.8l71.4 69.6"/>
		</g>
	</g>
</svg>