<svg version="1.2" xmlns="http://www.w3.org/2000/svg" viewBox="0 0 800 800" width="800" height="800">
	<title>De-duplication-ai</title>
	<style>
		.s0 { fill: #ffe8ad } 
		.s1 { fill: none;stroke: #000000;stroke-linecap: round;stroke-linejoin: round;stroke-width: 5.2 } 
		.s2 { fill: #00bbd6 } 
		.s3 { fill: #fc6140 } 
	</style>
	<g id="Layer 1">
		<g id="&lt;Group&gt;">
			<path id="&lt;Path&gt;" class="s0" d="m450 652.9c0 0-16.4-45.7 15.8-74.7 32.3-29 55.3-54.6 65.2-117.8 9.8-63.2 5.9-92.1-9.2-95.4-6.3-1.4-12.6-3.2-17.8-4.8-7.7-2.4-12.9-9.5-12.9-17.6v-11.9c0-10.2 8.2-18.4 18.4-18.4h26.9c0 0-4.8-44.7-21.2-82.2-16.5-37.6-7.3-67.8 7.9-97.4 8.2-16.2 25.6-30.5 39.7-40.3 12.9-8.8 30-8.8 42.9 0 14.2 9.8 31.5 24.1 39.8 40.3 15.1 29.6 24.3 59.8 7.9 97.4-16.5 37.5-21.2 82.2-21.2 82.2h26.9c10.1 0 18.3 8.2 18.3 18.4v11.9c0 8.1-5.2 15.2-12.8 17.6-5.3 1.6-11.6 3.4-17.8 4.8-15.1 3.3-19.1 32.2-9.2 95.4 9.9 63.2 32.9 88.8 65.1 117.8 32.3 29 15.8 74.7 15.8 74.7"/>
			<path id="&lt;Path&gt;" class="s1" d="m450 652.9c0 0-16.4-45.7 15.8-74.7 32.3-29 55.3-54.6 65.2-117.8 9.8-63.2 5.9-92.1-9.2-95.4-6.3-1.4-12.6-3.2-17.8-4.8-7.7-2.4-12.9-9.5-12.9-17.6v-11.9c0-10.2 8.2-18.4 18.4-18.4h26.9c0 0-4.8-44.7-21.2-82.2-16.5-37.6-7.3-67.8 7.9-97.4 8.2-16.2 25.6-30.5 39.7-40.3 12.9-8.8 30-8.8 42.9 0 14.2 9.8 31.5 24.1 39.8 40.3 15.1 29.6 24.3 59.8 7.9 97.4-16.5 37.5-21.2 82.2-21.2 82.2h26.9c10.1 0 18.3 8.2 18.3 18.4v11.9c0 8.1-5.2 15.2-12.8 17.6-5.3 1.6-11.6 3.4-17.8 4.8-15.1 3.3-19.1 32.2-9.2 95.4 9.9 63.2 32.9 88.8 65.1 117.8 32.3 29 15.8 74.7 15.8 74.7"/>
			<g id="&lt;Group&gt;">
				<path id="&lt;Path&gt;" class="s0" d="m88.2 652.9c0 0 7.5-55.4 42.2-91.4 34.8-36 42.8-116.6 42.8-116.6h-42.5c0 0 9.7-38.5 35.7-49.6h98.6c26.1 11.1 35.7 49.6 35.7 49.6h-42.5c0 0 8.1 80.6 42.8 116.6 34.8 36 42.2 91.4 42.2 91.4"/>
			</g>
			<g id="&lt;Group&gt;">
				<path id="&lt;Path&gt;" class="s1" d="m88.2 652.9c0 0 7.5-55.4 42.2-91.4 34.8-36 42.8-116.6 42.8-116.6h-42.5c0 0 9.7-38.5 35.7-49.6h98.6c26.1 11.1 35.7 49.6 35.7 49.6h-42.5c0 0 8.1 80.6 42.8 116.6 34.8 36 42.2 91.4 42.2 91.4"/>
			</g>
			<path id="&lt;Path&gt;" class="s0" d="m280 353.2c0 35.5-28.8 64.3-64.3 64.3-35.5 0-64.3-28.8-64.3-64.3 0-35.5 28.8-64.3 64.3-64.3 35.5 0 64.3 28.8 64.3 64.3z"/>
			<path id="&lt;Path&gt;" class="s1" d="m280 353.2c0 35.5-28.8 64.3-64.3 64.3-35.5 0-64.3-28.8-64.3-64.3 0-35.5 28.8-64.3 64.3-64.3 35.5 0 64.3 28.8 64.3 64.3z"/>
			<path id="&lt;Path&gt;" class="s2" d="m51.7 683.5c0-16.9 13.8-30.6 30.7-30.6h266.6c17 0 30.7 13.7 30.7 30.6 0 17-13.7 30.7-30.7 30.7h-266.6c-16.9 0-30.7-13.7-30.7-30.7z"/>
			<path id="&lt;Path&gt;" class="s1" d="m51.7 683.5c0-16.9 13.8-30.6 30.7-30.6h266.6c17 0 30.7 13.7 30.7 30.6 0 17-13.7 30.7-30.7 30.7h-266.6c-16.9 0-30.7-13.7-30.7-30.7z"/>
			<path id="&lt;Path&gt;" class="s3" d="m420.3 683.5c0-16.9 13.7-30.6 30.7-30.6h266.6c16.9 0 30.7 13.7 30.7 30.6 0 17-13.8 30.7-30.7 30.7h-266.6c-17 0-30.7-13.7-30.7-30.7z"/>
			<path id="&lt;Path&gt;" class="s1" d="m420.3 683.5c0-16.9 13.7-30.6 30.7-30.6h266.6c16.9 0 30.7 13.7 30.7 30.6 0 17-13.8 30.7-30.7 30.7h-266.6c-17 0-30.7-13.7-30.7-30.7z"/>
		</g>
	</g>
</svg>