<svg version="1.2" xmlns="http://www.w3.org/2000/svg" viewBox="0 0 800 800" width="800" height="800">
	<title>Fraud-ai</title>
	<style>
		.s0 { fill: none;stroke: #000000;stroke-linecap: round;stroke-linejoin: round;stroke-width: 5.2 } 
		.s1 { fill: #00bbd6 } 
		.s2 { fill: #fc6140 } 
	</style>
	<g id="Layer 1">
		<g id="&lt;Group&gt;">
			<path id="&lt;Path&gt;" class="s0" d="m661.1 410.4v163.2h-164"/>
			<path id="&lt;Path&gt;" class="s0" d="m302.9 573.6h-164v-163.2"/>
			<path id="&lt;Path&gt;" class="s0" d="m138.9 218v-163.1h164"/>
			<path id="&lt;Path&gt;" class="s0" d="m497.1 54.9h164v163.1"/>
			<path id="&lt;Path&gt;" class="s1" d="m333.7 519.5c0 0 7.4-59-12.8-76.7-20.2-17.7-38.7-53-39.6-70.7 0 0-34.2-10.8-33.4-42 0.9-31.1 26.8-37.3 26.8-37.3 0 0-2-56.1 30.1-96.5 10.4-13.1 24.1-23 37.7-30.5 35.5-19.3 79-19.3 114.4 0 13.7 7.5 27.3 17.4 37.7 30.5 32.1 40.4 30.1 96.5 30.1 96.5 0 0 26 6.2 26.8 37.3 0.8 31.2-33.4 42-33.4 42-0.8 17.7-19.4 53-39.6 70.7-20.2 17.7-12.8 76.7-12.8 76.7"/>
			<path id="&lt;Path&gt;" class="s0" d="m192.1 285.4v-178.2h412.3v178.2"/>
			<path id="&lt;Path&gt;" class="s0" d="m604.4 341.3v178.2h-412.3v-178.2"/>
			<path id="&lt;Path&gt;" class="s0" d="m583.1 312.9h78"/>
			<path id="&lt;Path&gt;" class="s0" d="m138.9 312.9h71.8"/>
			<path id="&lt;Path&gt;" class="s0" d="m333.7 519.5c0 0 7.4-59-12.8-76.7-20.2-17.7-38.7-53-39.6-70.7 0 0-34.2-10.8-33.4-42 0.9-31.1 26.8-37.3 26.8-37.3 0 0-2-56.1 30.1-96.5 10.4-13.1 24.1-23 37.7-30.5 35.5-19.3 79-19.3 114.4 0 13.7 7.5 27.3 17.4 37.7 30.5 32.1 40.4 30.1 96.5 30.1 96.5 0 0 26 6.2 26.8 37.3 0.8 31.2-33.4 42-33.4 42-0.8 17.7-19.4 53-39.6 70.7-20.2 17.7-12.8 76.7-12.8 76.7"/>
			<path id="&lt;Path&gt;" class="s0" d="m509.4 220.4c0 0-77.8 32.8-122.9 11.6-45.1-21.2-91.2-21.7-91.2-21.7"/>
			<path id="&lt;Path&gt;" class="s0" d="m646.4 608.7l14.1 86.8c4.3 26-15.8 49.6-42.2 49.6h-106.3"/>
			<path id="&lt;Path&gt;" class="s0" d="m288 745.1h-106.3c-26.4 0-46.5-23.6-42.2-49.6l14.1-86.8"/>
			<path id="&lt;Path&gt;" class="s0" d="m399.7 745.1v-140.5"/>
			<g id="&lt;Group&gt;">
				<path id="&lt;Path&gt;" class="s0" d="m437.9 569.9l-38.2 35.8"/>
				<path id="&lt;Path&gt;" class="s0" d="m361.5 569.9l38.2 35.8"/>
			</g>
			<path id="&lt;Path&gt;" class="s2" d="m616.3 645.9l10 59.3c0.8 4.7-2.9 9-7.7 9h-66.3c-6.9 0-10.4-8.2-5.7-13.1l56.4-59.3c4.4-4.6 12.2-2.2 13.3 4.1z"/>
			<path id="&lt;Path&gt;" class="s2" d="m196.5 641.8l56.3 59.3c4.7 4.9 1.2 13.1-5.7 13.1h-66.3c-4.8 0-8.4-4.3-7.6-9l9.9-59.3c1.1-6.3 8.9-8.7 13.4-4.1z"/>
		</g>
	</g>
</svg>