<svg version="1.2" xmlns="http://www.w3.org/2000/svg" viewBox="0 0 800 800" width="800" height="800">
	<title>Image Quality-ai</title>
	<style>
		.s0 { fill: #fc6140 } 
		.s1 { fill: #ffe8ad } 
		.s2 { fill: none;stroke: #000000;stroke-linecap: round;stroke-linejoin: round;stroke-width: 5.2 } 
		.s3 { fill: #ffffff } 
		.s4 { fill: #00bbd6 } 
	</style>
	<g id="Layer 1">
		<g id="&lt;Group&gt;">
			<g id="&lt;Group&gt;">
				<path id="&lt;Path&gt;" class="s0" d="m515.9 594.5v59.5c0 13.1 5.1 25.8 14.6 34.8 9.6 9.1 25.1 17.7 48.9 17.7h-358.8c23.8 0 39.3-8.6 48.9-17.7 9.5-9 14.6-21.7 14.6-34.8v-59.5"/>
			</g>
			<path id="&lt;Path&gt;" class="s1" d="m68 93.5h664c22.3 0 40.4 18 40.4 40.3v416.8c0 22.3-18.1 40.3-40.4 40.3h-664c-22.3 0-40.4-18-40.4-40.3v-416.8c0-22.3 18.1-40.3 40.4-40.3z"/>
			<path id="&lt;Path&gt;" class="s2" d="m68 93.5h664c22.3 0 40.4 18 40.4 40.3v416.8c0 22.3-18.1 40.3-40.4 40.3h-664c-22.3 0-40.4-18-40.4-40.3v-416.8c0-22.3 18.1-40.3 40.4-40.3z"/>
			<g id="&lt;Group&gt;">
				<path id="&lt;Path&gt;" class="s2" d="m515.9 594.5v59.5c0 13.1 5.1 25.8 14.6 34.8 9.6 9.1 25.1 17.7 48.9 17.7h-358.8c23.8 0 39.3-8.6 48.9-17.7 9.5-9 14.6-21.7 14.6-34.8v-59.5"/>
			</g>
			<path id="&lt;Path&gt;" class="s3" d="m309.1 439.2h-117.8c-41.3 0-74.9-33.5-74.9-74.8 0-41.4 33.6-74.9 74.9-74.9h22.7v-4.5c0-20.4 16.5-36.9 36.9-36.9h58.2v-0.6c0-49.3 40-89.3 89.3-89.3h29.7c49.3 0 89.3 40 89.3 89.3h28.2c53 0 95.9 42.9 95.9 95.9 0 52.9-42.9 95.8-95.9 95.8h-42.5"/>
			<path id="&lt;Path&gt;" class="s4" d="m503.1 439.2c0 53.6-43.4 97-97 97-53.6 0-97-43.4-97-97 0-53.6 43.4-97 97-97 53.6 0 97 43.4 97 97z"/>
			<path id="&lt;Path&gt;" class="s2" d="m503.1 439.2c0 53.6-43.4 97-97 97-53.6 0-97-43.4-97-97 0-53.6 43.4-97 97-97 53.6 0 97 43.4 97 97z"/>
			<path id="&lt;Path&gt;" class="s2" d="m309.1 439.2h-117.8c-41.3 0-74.9-33.5-74.9-74.8 0-41.4 33.6-74.9 74.9-74.9h22.7v-4.5c0-20.4 16.5-36.9 36.9-36.9h58.2v-0.6c0-49.3 40-89.3 89.3-89.3h29.7c49.3 0 89.3 40 89.3 89.3h28.2c53 0 95.9 42.9 95.9 95.9 0 52.9-42.9 95.8-95.9 95.8h-42.5"/>
			<path id="&lt;Path&gt;" class="s2" d="m374.5 421.2l-17.6 11.1c4.5-25.4 22.1-42.6 45-48.7 22.9-6.2 64.3 12.7 61.4 55.6-2.9 43-52.8 54.9-52.8 54.9"/>
			<path id="&lt;Path&gt;" class="s2" d="m342.9 416.4l14 15.9"/>
		</g>
	</g>
</svg>