<svg version="1.2" xmlns="http://www.w3.org/2000/svg" viewBox="0 0 800 800" width="800" height="800">
	<title>Moderation Team - Training-ai</title>
	<style>
		.s0 { fill: #fff8e1 } 
		.s1 { fill: none;stroke: #000000;stroke-linecap: round;stroke-linejoin: round;stroke-width: 5.2 } 
		.s2 { fill: #fc6140 } 
		.s3 { fill: #ffe8ad } 
	</style>
	<g id="Layer 1">
		<g id="&lt;Group&gt;">
			<g id="&lt;Group&gt;">
				<path id="&lt;Path&gt;" class="s0" d="m751.9 400c0 194.4-157.5 351.9-351.9 351.9-194.4 0-351.9-157.5-351.9-351.9 0-194.4 157.5-351.9 351.9-351.9 194.4 0 351.9 157.5 351.9 351.9z"/>
				<path id="&lt;Path&gt;" class="s1" d="m751.9 400c0 194.4-157.5 351.9-351.9 351.9-194.4 0-351.9-157.5-351.9-351.9 0-194.4 157.5-351.9 351.9-351.9 194.4 0 351.9 157.5 351.9 351.9z"/>
			</g>
			<g id="&lt;Group&gt;">
				<path id="&lt;Path&gt;" class="s2" d="m652.7 540.8h-101.2-22.8-101.3c0 0 6-82.2 86.5-112h52.3c80.5 29.8 86.5 112 86.5 112z"/>
				<path id="&lt;Path&gt;" class="s1" d="m652.7 540.8h-101.2-22.8-101.3c0 0 6-82.2 86.5-112h52.3c80.5 29.8 86.5 112 86.5 112z"/>
				<path id="&lt;Path&gt;" class="s3" d="m602.4 379.9c0 33.7-27.3 61-61.1 61-33.7 0-61-27.3-61-61 0-33.7 27.3-61.1 61-61.1 33.8 0 61.1 27.4 61.1 61.1z"/>
				<path id="&lt;Path&gt;" class="s1" d="m602.4 379.9c0 33.7-27.3 61-61.1 61-33.7 0-61-27.3-61-61 0-33.7 27.3-61.1 61-61.1 33.8 0 61.1 27.4 61.1 61.1z"/>
			</g>
			<g id="&lt;Group&gt;">
				<path id="&lt;Path&gt;" class="s2" d="m516.3 540.8h-166.5-37.5-166.5c0 0 9.9-135.2 142.3-184.1h85.9c132.4 48.9 142.3 184.1 142.3 184.1z"/>
				<path id="&lt;Path&gt;" class="s1" d="m516.3 540.8h-166.5-37.5-166.5c0 0 9.9-135.2 142.3-184.1h85.9c132.4 48.9 142.3 184.1 142.3 184.1z"/>
				<path id="&lt;Path&gt;" class="s3" d="m433.6 276.2c0 55.4-45 100.4-100.4 100.4-55.5 0-100.4-45-100.4-100.4 0-55.5 44.9-100.4 100.4-100.4 55.4 0 100.4 44.9 100.4 100.4z"/>
				<path id="&lt;Path&gt;" class="s1" d="m433.6 276.2c0 55.4-45 100.4-100.4 100.4-55.5 0-100.4-45-100.4-100.4 0-55.5 44.9-100.4 100.4-100.4 55.4 0 100.4 44.9 100.4 100.4z"/>
			</g>
		</g>
	</g>
</svg>