<svg version="1.2" xmlns="http://www.w3.org/2000/svg" viewBox="0 0 800 800" width="800" height="800">
	<title>Nudity-ai</title>
	<style>
		.s0 { fill: #fc6140 } 
		.s1 { fill: #ffe8ad } 
		.s2 { fill: none;stroke: #000000;stroke-linecap: round;stroke-linejoin: round;stroke-width: 5.2 } 
		.s3 { fill: #ffd740 } 
	</style>
	<g id="Layer 1">
		<g id="&lt;Group&gt;">
			<path id="&lt;Path&gt;" class="s0" d="m481.1 199.7c33.4 0 39.7 26.3 39.7 26.3 0 0 0 101.9 0 126 0 24.1-39.7 26.8-55 59.1-15.3 32.3-6.7 57.6-17 87.6-10.3 30.1-48.8 37.3-48.8 37.3 0 0-38.5-7.2-48.8-37.3-10.3-30-1.7-55.3-17-87.6-15.3-32.3-55-35-55-59.1 0-24.1 0-126 0-126 0 0 6.3-26.3 39.7-26.3 33.4 0 81.1 0 81.1 0 0 0 47.7 0 81.1 0z"/>
			<path id="&lt;Path&gt;" class="s1" d="m493.9 321.2c-12.1-3.6-49.3-10.9-64.2-12.9-14.8-2.1-49.3-1.4-58.5-1.9-9.3-0.4-39.2 6-49.1 8.8-9.9 2.8-33.8 14.7-37.4 17-3.7 2.2-5.5 1.5-6-7.6-0.5-9-0.4-80.1 0-87.8 0.5-7.6 3.1-17.2 8.2-24.3 5-7.2 12.2-8.1 20.9-11.7 8.6-3.6 16.3-1.1 21.6-0.5 5.3 0.5 138.6-0.6 138.6-0.6 0 0 17.3 0.2 24.5 1.2 7.2 1 11.7 4.4 18.3 9.2 6.6 4.9 7.5 8 9.3 13.9 1.9 5.9 0.7 94.1 0.7 99.1 0 5.1-2.4 5.9-7.3 4.2 0 0-7.4-2.4-19.6-6.1z"/>
			<path id="&lt;Path&gt;" class="s2" d="m458 468.5c28.8 0 55.8 28.4 55.8 59.9 0 31.5 0 155 0 155"/>
			<path id="&lt;Path&gt;" class="s2" d="m286.9 683.4c0 0 0-123.5 0-155 0-31.5 26.9-59.9 55.8-59.9"/>
			<path id="&lt;Path&gt;" class="s2" d="m502.7 683.4h22.2c23.9 0 43.4 19.4 43.4 43.4h-109c0-24 19.4-43.4 43.4-43.4z"/>
			<path id="&lt;Path&gt;" class="s0" d="m502.7 683.4h22.2c23.9 0 43.4 19.4 43.4 43.4h-109c0-24 19.4-43.4 43.4-43.4z"/>
			<path id="&lt;Path&gt;" class="s0" d="m275.8 683.4h22.1c24 0 43.5 19.4 43.5 43.4h-109c0-24 19.4-43.4 43.4-43.4z"/>
			<path id="&lt;Path&gt;" class="s2" d="m275.8 683.4h22.1c24 0 43.5 19.4 43.5 43.4h-109c0-24 19.4-43.4 43.4-43.4z"/>
			<path id="&lt;Path&gt;" class="s0" d="m615.1 422.3c0 16.2-13.1 29.3-29.3 29.3-16.1 0-29.2-13.1-29.2-29.3 0-16.1 13.1-29.2 29.2-29.2 16.2 0 29.3 13.1 29.3 29.2z"/>
			<path id="&lt;Path&gt;" class="s2" d="m481.1 199.7c33.4 0 39.7 26.3 39.7 26.3 0 0 0 101.9 0 126 0 24.1-39.7 26.8-55 59.1-15.3 32.3-6.7 57.6-17 87.6-10.3 30.1-48.8 37.3-48.8 37.3 0 0-38.5-7.2-48.8-37.3-10.3-30-1.7-55.3-17-87.6-15.3-32.3-55-35-55-59.1 0-24.1 0-126 0-126 0 0 6.3-26.3 39.7-26.3 33.4 0 81.1 0 81.1 0 0 0 47.7 0 81.1 0z"/>
			<path id="&lt;Path&gt;" class="s2" d="m615.1 422.3c0 16.2-13.1 29.3-29.3 29.3-16.1 0-29.2-13.1-29.2-29.3 0-16.1 13.1-29.2 29.2-29.2 16.2 0 29.3 13.1 29.3 29.2z"/>
			<path id="&lt;Path&gt;" class="s2" d="m520.8 233.3h27.5c20.7 0 37.5 16.8 37.5 37.6v122.2"/>
			<path id="&lt;Path&gt;" class="s0" d="m214.2 393.1c16.1 0 29.2 13.1 29.2 29.2 0 16.2-13.1 29.3-29.2 29.3-16.2 0-29.3-13.1-29.3-29.3 0-16.1 13.1-29.2 29.3-29.2z"/>
			<path id="&lt;Path&gt;" class="s2" d="m214.2 393.1c16.1 0 29.2 13.1 29.2 29.2 0 16.2-13.1 29.3-29.2 29.3-16.2 0-29.3-13.1-29.3-29.3 0-16.1 13.1-29.2 29.3-29.2z"/>
			<g id="&lt;Group&gt;">
				<path id="&lt;Path&gt;" class="s3" d="m502.7 683.4h22.2c23.9 0 43.4 19.4 43.4 43.4h-109c0-24 19.4-43.4 43.4-43.4z"/>
			</g>
			<g id="&lt;Group&gt;">
				<path id="&lt;Path&gt;" class="s3" d="m275.8 683.4h22.1c24 0 43.5 19.4 43.5 43.4h-109c0-24 19.4-43.4 43.4-43.4z"/>
			</g>
			<path id="&lt;Path&gt;" class="s2" d="m502.7 683.4h22.2c23.9 0 43.4 19.4 43.4 43.4h-109c0-24 19.4-43.4 43.4-43.4z"/>
			<path id="&lt;Path&gt;" class="s2" d="m275.8 683.4h22.1c24 0 43.5 19.4 43.5 43.4h-109c0-24 19.4-43.4 43.4-43.4z"/>
			<path id="&lt;Path&gt;" class="s2" d="m214.2 393.1v-122.2c0-20.8 16.8-37.6 37.5-37.6h27.5"/>
			<path id="&lt;Path&gt;" class="s2" d="m398.7 73.2c45.5 0 82.4 36.9 82.4 82.4v44.1h-164.7v-44.1c0-45.5 36.8-82.4 82.3-82.4z"/>
			<path id="&lt;Path&gt;" class="s2" d="m398.7 73.2c45.5 0 82.4 36.9 82.4 82.4v44.1h-164.7v-44.1c0-45.5 36.8-82.4 82.3-82.4z"/>
			<path id="&lt;Path&gt;" class="s2" d="m400 123.4c13.3 0 24.2 10.8 24.2 24.2v52.1h-48.4v-52.1c0-13.4 10.9-24.2 24.2-24.2z"/>
			<path id="&lt;Path&gt;" class="s2" d="m520.8 329.9c0 0-148.9-57.9-241.6 5.8"/>
			<path id="&lt;Path&gt;" class="s2" d="m456.6 443.5h-113.2"/>
		</g>
	</g>
</svg>