<svg version="1.2" xmlns="http://www.w3.org/2000/svg" viewBox="0 0 1200 1200" width="1200" height="1200">
	<title>Access Control-ai</title>
	<style>
		.s0 { fill: #ffd740 } 
		.s1 { fill: #ffe8ad } 
		.s2 { fill: none;stroke: #000000;stroke-linecap: round;stroke-linejoin: round;stroke-width: 5.2 } 
	</style>
	<g id="Layer 1">
		<g id="&lt;Group&gt;">
			<path id="&lt;Path&gt;" class="s0" d="m883.8 565.6c140.7 24.2 171.6 173 110.3 280.7-61.3 107.6-115.4 108.3-190.1 87.9-72.8-19.9-159.6-89.2-147.2-176.5 19.3-135.2 127.6-209.2 227-192.1z"/>
			<path id="&lt;Path&gt;" class="s1" d="m404.1 421.7c140.8 24.2 171.6 173 110.3 280.7-61.3 107.6-115.4 108.3-190.1 87.9-72.8-19.9-159.6-89.2-147.2-176.5 19.3-135.2 127.6-209.2 227-192.1z"/>
			<g id="&lt;Group&gt;">
				<path id="&lt;Path&gt;" class="s2" d="m712.5 255.5c0 0 96.4 15.2 150.8 65.9 54.3 50.8 112.3 137 102.9 251.6-9.4 114.5-124 319.7-124 319.7"/>
				<path id="&lt;Path&gt;" class="s2" d="m271.7 644.7c0 0 52.9-20.3 92.8-88.4 39.9-68.1 29.7-129.8 83.4-198.6 53.6-68.9 168.2-95.7 168.2-95.7"/>
				<path id="&lt;Path&gt;" class="s2" d="m887.9 593.3c0 0-9.4 49.3-43.5 129.7-34.1 80.5-117.4 191.4-117.4 191.4"/>
				<path id="&lt;Path&gt;" class="s2" d="m684.2 401.2c0 0 73.2 8.7 105.1 45.6 27.1 31.5 32.6 92.8 7.3 191.4-25.4 98.6-166.8 280.6-166.8 280.6"/>
				<path id="&lt;Path&gt;" class="s2" d="m315.2 707.1c0 0 82.6-47.9 108-97.9 25.4-50 27.6-113.8 66-176.9 38.4-63 121.1-118.9 203-102.9 81.9 15.9 158.7 90.6 158.7 90.6"/>
				<path id="&lt;Path&gt;" class="s2" d="m605.2 413.5c0 0-34.1 18.1-52.9 51.5-18.9 33.3-35.6 105.8-65.3 170.3-29.7 64.5-139.2 134.9-139.2 134.9"/>
				<path id="&lt;Path&gt;" class="s2" d="m401.5 821.6c0 0 90.6-47.1 131.9-118.1 41.3-71.1 63.6-168.9 88-200.8 24.4-31.9 114.2-36 127.4 22.1 13.1 58.1-21.8 119.9-21.8 119.9"/>
				<path id="&lt;Path&gt;" class="s2" d="m668.8 545.1c0 0-25.1 94.7-41.6 129.7"/>
				<path id="&lt;Path&gt;" class="s2" d="m576.6 753.8c0 0-63.1 82.1-109.7 110.6"/>
				<path id="&lt;Path&gt;" class="s2" d="m683.2 728.8c0 0-63.8 111.7-138.8 172.2"/>
			</g>
		</g>
	</g>
</svg>