<svg version="1.2" xmlns="http://www.w3.org/2000/svg" viewBox="0 0 1200 1200" width="1200" height="1200">
	<title>Background Check and NDA-ai</title>
	<style>
		.s0 { fill: #00bbd6 } 
		.s1 { fill: none;stroke: #000000;stroke-linecap: round;stroke-linejoin: round;stroke-width: 5.2 } 
		.s2 { fill: #ffffff } 
		.s3 { fill: #fc6140 } 
		.s4 { fill: #ffe8ad } 
	</style>
	<g id="Layer 1">
		<g id="&lt;Group&gt;">
			<g id="&lt;Group&gt;">
				<path id="&lt;Path&gt;" class="s0" d="m1085.8 972.5h-165.9-37.4-165.8c0 0 9.8-134.7 141.8-183.4h85.5c131.9 48.7 141.8 183.4 141.8 183.4z"/>
				<path id="&lt;Path&gt;" class="s1" d="m1085.8 972.5h-165.9-37.4-165.8c0 0 9.8-134.7 141.8-183.4h85.5c131.9 48.7 141.8 183.4 141.8 183.4z"/>
				<path id="&lt;Path&gt;" class="s2" d="m1003.3 708.9c0 55.2-44.7 100-100 100-55.2 0-100-44.8-100-100 0-55.2 44.8-100 100-100 55.3 0 100 44.8 100 100z"/>
				<path id="&lt;Path&gt;" class="s1" d="m1003.3 708.9c0 55.2-44.7 100-100 100-55.2 0-100-44.8-100-100 0-55.2 44.8-100 100-100 55.3 0 100 44.8 100 100z"/>
			</g>
			<g id="&lt;Group&gt;">
				<path id="&lt;Path&gt;" class="s0" d="m483.3 972.5h-165.8-37.4-165.9c0 0 9.9-134.7 141.8-183.4h85.5c132 48.7 141.8 183.4 141.8 183.4z"/>
				<path id="&lt;Path&gt;" class="s1" d="m483.3 972.5h-165.8-37.4-165.9c0 0 9.9-134.7 141.8-183.4h85.5c132 48.7 141.8 183.4 141.8 183.4z"/>
				<path id="&lt;Path&gt;" class="s2" d="m400.9 708.9c0 55.2-44.8 100-100 100-55.2 0-100-44.8-100-100 0-55.2 44.8-100 100-100 55.2 0 100 44.8 100 100z"/>
				<path id="&lt;Path&gt;" class="s1" d="m400.9 708.9c0 55.2-44.8 100-100 100-55.2 0-100-44.8-100-100 0-55.2 44.8-100 100-100 55.2 0 100 44.8 100 100z"/>
			</g>
			<g id="&lt;Group&gt;">
				<path id="&lt;Path&gt;" class="s3" d="m808.1 1036.6h-184-41.5-184c0 0 11-149.4 157.3-203.5h94.9c146.4 54.1 157.3 203.5 157.3 203.5z"/>
				<path id="&lt;Path&gt;" class="s1" d="m808.1 1036.6h-184-41.5-184c0 0 11-149.4 157.3-203.5h94.9c146.4 54.1 157.3 203.5 157.3 203.5z"/>
				<path id="&lt;Path&gt;" class="s4" d="m716.7 744.2c0 61.3-49.7 110.9-111 110.9-61.2 0-110.9-49.6-110.9-110.9 0-61.3 49.7-110.9 110.9-110.9 61.3 0 111 49.6 111 110.9z"/>
				<path id="&lt;Path&gt;" class="s1" d="m716.7 744.2c0 61.3-49.7 110.9-111 110.9-61.2 0-110.9-49.6-110.9-110.9 0-61.3 49.7-110.9 110.9-110.9 61.3 0 111 49.6 111 110.9z"/>
			</g>
			<g id="&lt;Group&gt;">
				<path id="&lt;Path&gt;" class="s0" d="m146 538.7c0 0 75.3-205 280.2-326.6 109.5-65 244.9-65 354.4 0 204.9 121.6 280.1 326.6 280.1 326.6 0 0-122.4-64.3-211.2 14.4 0 0-95.5-62.7-167.7 2.8 0 0-34.5-25.5-78.4-24.6-43.9-0.9-78.4 24.6-78.4 24.6-72.3-65.5-167.8-2.8-167.8-2.8-88.7-78.7-211.2-14.4-211.2-14.4z"/>
				<path id="&lt;Path&gt;" class="s1" d="m146 538.7c0 0 75.3-205 280.2-326.6 109.5-65 244.9-65 354.4 0 204.9 121.6 280.1 326.6 280.1 326.6 0 0-122.4-64.3-211.2 14.4 0 0-95.5-62.7-167.7 2.8 0 0-34.5-25.5-78.4-24.6-43.9-0.9-78.4 24.6-78.4 24.6-72.3-65.5-167.8-2.8-167.8-2.8-88.7-78.7-211.2-14.4-211.2-14.4z"/>
				<path id="&lt;Path&gt;" class="s1" d="m849.5 553.1c0 0-4.7-243.1-246-389.5"/>
				<path id="&lt;Path&gt;" class="s1" d="m357.4 553.1c0 0 4.7-243.1 246-389.5"/>
				<path id="&lt;Path&gt;" class="s1" d="m681.8 555.9c0 0 10.8-228.4-78.3-392.3"/>
				<path id="&lt;Path&gt;" class="s1" d="m525.3 555.9c0 0-10.8-228.4 78.2-392.3"/>
			</g>
		</g>
	</g>
</svg>