<?xml version="1.0" encoding="UTF-8"?>
<svg width="1104px" height="587px" viewBox="0 0 1104 587" version="1.1" xmlns="http://www.w3.org/2000/svg" xmlns:xlink="http://www.w3.org/1999/xlink">
    <title>Group 15</title>
    <g id="Design" stroke="none" stroke-width="1" fill="none" fill-rule="evenodd">
        <g id="Partners_Insurance-Agents" transform="translate(-351.000000, -3604.000000)">
            <g id="How-it-Works" transform="translate(-6.000000, 3126.000000)">
                <g id="Group-15" transform="translate(358.000000, 479.000000)">
                    <path d="M1031.082,559.3482 L70.627,559.3482 L70.627,34.6082 C70.627,15.5732 86.201,0.0002 105.235,0.0002 L996.474,0.0002 C1015.508,0.0002 1031.082,15.5732 1031.082,34.6082 L1031.082,559.3482 Z" id="Fill-1" fill="#FFFFFF"></path>
                    <path d="M69.9443,541.1598 L69.6273,56.8158 C69.6273,56.2638 70.0743,55.8148 70.6273,55.8148 C71.1793,55.8148 71.6273,56.2628 71.6273,56.8148 L71.6273,56.8158 L71.3103,541.1598 C71.3103,541.5368 71.0043,541.8428 70.6273,541.8428 C70.2503,541.8428 69.9443,541.5368 69.9443,541.1598" id="Fill-3" fill="#3F3350"></path>
                    <path d="M70.6274,34.608 C70.6274,15.573 86.2014,0 105.2354,0 L996.4734,0 C1015.5074,0 1031.0824,15.573 1031.0824,34.608 L1031.0824,561.245" id="Stroke-5" stroke="#3F3350" stroke-width="2" stroke-linecap="round" stroke-linejoin="round"></path>
                    <path d="M0,559.3487 L1101.709,559.3487 L1101.709,560.5197 C1101.709,573.9787 1090.697,584.9917 1077.238,584.9917 L24.472,584.9917 C11.013,584.9917 0,573.9787 0,560.5197 L0,559.3487 Z" id="Fill-7" fill="#FFFFFF"></path>
                    <path d="M1041.1972,584.9913 L24.4712,584.9913 C11.0122,584.9913 0.0002,573.9793 0.0002,560.5203 L0.0002,559.3483 L1101.7092,559.3483 L1101.7092,560.5193 C1101.7092,573.9793 1090.6972,584.9913 1077.2382,584.9913" id="Stroke-9" stroke="#3F3350" stroke-width="2" stroke-linecap="round" stroke-linejoin="round"></path>
                    <line x1="1067.8437" y1="584.9913" x2="1065.4947" y2="584.9913" id="Stroke-11" stroke="#3F3350" stroke-width="2" stroke-linecap="round" stroke-linejoin="round"></line>
                    <path d="M427.6118,559.3482 L674.0978,559.3482 L674.0978,562.8672 C674.0978,566.9752 670.7358,570.3362 666.6278,570.3362 L435.0808,570.3362 C430.9728,570.3362 427.6118,566.9752 427.6118,562.8672 L427.6118,559.3482 Z" id="Fill-13" fill="#3F3350"></path>
                </g>
            </g>
        </g>
    </g>
</svg>