<svg version="1.2" xmlns="http://www.w3.org/2000/svg" viewBox="0 0 1200 1200" width="1200" height="1200">
	<title>Data Security-ai</title>
	<style>
		.s0 { fill: #ffd740 } 
		.s1 { fill: #fc6140 } 
		.s2 { fill: none;stroke: #000000;stroke-linecap: round;stroke-linejoin: round;stroke-width: 5.2 } 
		.s3 { fill: #fff8e1 } 
		.s4 { fill: #ffffff } 
	</style>
	<g id="Layer 1">
		<g id="&lt;Group&gt;">
			<g id="&lt;Group&gt;">
				<g id="&lt;Group&gt;">
					<path id="&lt;Path&gt;" class="s0" d="m226.2 440.6h747.6c8.4 0 15.2 6.8 15.2 15.2v385.7c0 8.4-6.8 15.2-15.2 15.2h-747.6c-8.4 0-15.2-6.8-15.2-15.2v-385.7c0-8.4 6.8-15.2 15.2-15.2z"/>
				</g>
				<path id="&lt;Path&gt;" class="s1" d="m179.9 856.7h840.2c9.1 0 16.4 7.4 16.4 16.5v60.4c0 23.5-19 42.6-42.5 42.6h-788c-23.5 0-42.5-19.1-42.5-42.6v-60.4c0-9.1 7.3-16.5 16.4-16.5z"/>
				<path id="&lt;Path&gt;" class="s2" d="m179.9 856.7h840.2c9.1 0 16.4 7.4 16.4 16.5v60.4c0 23.5-19 42.6-42.5 42.6h-788c-23.5 0-42.5-19.1-42.5-42.6v-60.4c0-9.1 7.3-16.5 16.4-16.5z"/>
				<path id="&lt;Path&gt;" class="s3" d="m295.8 487.8h608.4c4.6 0 8.3 3.7 8.3 8.2v305.3c0 4.6-3.7 8.3-8.3 8.3h-608.4c-4.6 0-8.3-3.7-8.3-8.3v-305.3c0-4.5 3.7-8.2 8.3-8.2z"/>
				<path id="&lt;Path&gt;" class="s2" d="m226.2 440.6h747.6c8.4 0 15.2 6.8 15.2 15.2v385.7c0 8.4-6.8 15.2-15.2 15.2h-747.6c-8.4 0-15.2-6.8-15.2-15.2v-385.7c0-8.4 6.8-15.2 15.2-15.2z"/>
				<path id="&lt;Path&gt;" class="s4" d="m313.2 885.1v-28.4h573.6v28.4c0 10.2-8.3 18.5-18.5 18.5h-536.6c-10.2 0-18.5-8.3-18.5-18.5z"/>
				<path id="&lt;Path&gt;" class="s2" d="m313.2 885.1v-28.4h573.6v28.4c0 10.2-8.3 18.5-18.5 18.5h-536.6c-10.2 0-18.5-8.3-18.5-18.5z"/>
				<path id="&lt;Path&gt;" class="s2" d="m295.8 487.8h608.4c4.6 0 8.3 3.7 8.3 8.2v305.3c0 4.6-3.7 8.3-8.3 8.3h-608.4c-4.6 0-8.3-3.7-8.3-8.3v-305.3c0-4.5 3.7-8.2 8.3-8.2z"/>
			</g>
			<g id="&lt;Group&gt;">
				<path id="&lt;Path&gt;" class="s0" d="m835.1 291.8c0 0-16.7 262.5-235.1 426.3-218.4-163.8-235.1-426.3-235.1-426.3 96.1 17.7 235.1-68 235.1-68 0 0 139 85.7 235.1 68z"/>
				<path id="&lt;Path&gt;" class="s2" d="m835.1 291.8c0 0-16.7 262.5-235.1 426.3-218.4-163.8-235.1-426.3-235.1-426.3 96.1 17.7 235.1-68 235.1-68 0 0 139 85.7 235.1 68z"/>
				<path id="&lt;Path&gt;" class="s1" d="m600 667.7c-130.8-110.8-174.9-261.4-189.2-334.8 74-5.6 152.7-43.8 189.2-63.6 36.5 19.8 115.2 58 189.3 63.6-14.3 73.3-58.5 223.9-189.3 334.8z"/>
				<path id="&lt;Path&gt;" class="s2" d="m600 667.7c-130.8-110.8-174.9-261.4-189.2-334.8 74-5.6 152.7-43.8 189.2-63.6 36.5 19.8 115.2 58 189.3 63.6-14.3 73.3-58.5 223.9-189.3 334.8z"/>
			</g>
		</g>
	</g>
</svg>