<svg version="1.2" xmlns="http://www.w3.org/2000/svg" viewBox="0 0 1200 1200" width="1200" height="1200">
	<title>Employee Training-ai</title>
	<style>
		.s0 { fill: #00bbd6 } 
		.s1 { fill: none;stroke: #000000;stroke-linecap: round;stroke-linejoin: round;stroke-width: 5.2 } 
		.s2 { fill: #ffe8ad } 
		.s3 { fill: #fc6140 } 
	</style>
	<g id="Layer 1">
		<g id="&lt;Group&gt;">
			<g id="&lt;Group&gt;">
				<path id="&lt;Compound Path&gt;" class="s0" d="m962.6 685.3c-5.7 17.1-10.4 34-17 50-7.2 17.3-15.6 34.1-24.5 50.6-3.7 6.8-3.9 10.8 2 16.3 14 13.2 27.4 27 40.9 40.7 19.6 19.9 19.5 43-0.3 63.1-19.2 19.5-38.5 38.8-58 58-19.6 19.3-42.7 19.4-62.3 0.4-14-13.7-28-27.5-41.6-41.8-5.1-5.4-8.8-4.8-15.3-1.9-30.3 13.3-61 25.9-91.8 38.1-6.4 2.5-9.7 4.7-9.5 12.3 0.5 19.6 0.4 39.2 0.1 58.9-0.4 27.3-16.7 43.4-44.3 43.7q-41 0.3-82 0c-27.9-0.3-44.1-16.7-44.4-45-0.2-19.2-0.3-38.4 0.1-57.6 0.2-7.3-2.5-9.8-9.3-12.4-30.8-12.1-61.5-24.6-91.8-38.1-7.4-3.3-11.2-2.5-16.3 2.9-13.3 13.8-26.9 27.4-40.7 40.8-19.6 19.1-42.6 19-62.2-0.3q-29.7-29.1-58.9-58.8c-19.1-19.5-18.9-42.6 0.4-62.2 13.8-14 28-27.6 41.4-41.9 2.5-2.6 4.5-9 3-11.4-18.7-31.9-31.9-66-41.5-101.5-0.2-0.8-1-1.4-2-2.9-21.2 0-43 0.2-64.7 0-29.8-0.2-45.8-16.3-45.9-46-0.1-26.9-0.2-53.8 0-80.7 0.2-27.3 16.6-43.7 44-44.1 19.2-0.3 38.4-0.4 57.6 0.1 7.5 0.2 10.7-2.2 13.5-9.6 12-30.9 24.7-61.5 38.1-91.8 2.9-6.7 3-10.3-2.3-15.3-13.9-13.2-27.4-27-40.8-40.7-19.9-20.3-20-43.1-0.2-63.1 19.5-19.7 39.1-39.4 58.8-58.9 18.9-18.6 42.2-18.6 61.3-0.1 14.1 13.7 28 27.6 41.6 41.8 4.9 5.1 8.4 5.6 15.2 2.6 30.7-13.5 61.8-26.1 93-38.4 6.1-2.4 8.9-4.8 8.7-11.6-0.4-20.1-0.3-40.2 0-60.3 0.4-26.5 17-42.8 43.5-42.9 28.2-0.2 56.4-0.2 84.6 0 25 0.2 41.9 16.5 42.4 41.5 0.5 20.5 0.4 41 0 61.5-0.1 6.8 2.6 9.2 8.6 11.6 31.6 12.5 62.8 26 94.4 38.5 3.5 1.4 10 0.5 12.6-1.9 14.7-13.7 28.5-28.2 42.9-42.3 19-18.6 42.3-18.7 61.2-0.1q30.2 29.6 59.8 59.8c18.6 19 18.6 42 0 61.3-13.6 14.1-27.5 28-41.7 41.6-5.2 4.9-5.5 8.5-2.5 15.2 13.5 30.8 26.1 61.9 38.4 93.1 2.5 6.2 5.1 8.6 11.8 8.5 19.6-0.4 39.3-0.4 58.9-0.1 27.4 0.4 43.9 16.7 44.1 43.9q0.4 41.7 0 83.3c-0.2 26.5-16.7 43.1-43.1 43.5-22.6 0.4-45.2 0.1-68 0.1z"/>
			</g>
			<g id="&lt;Group&gt;">
				<path id="&lt;Compound Path&gt;" class="s1" d="m962.6 685.3c-5.7 17.1-10.4 34-17 50-7.2 17.3-15.6 34.1-24.5 50.6-3.7 6.8-3.9 10.8 2 16.3 14 13.2 27.4 27 40.9 40.7 19.6 19.9 19.5 43-0.3 63.1-19.2 19.5-38.5 38.8-58 58-19.6 19.3-42.7 19.4-62.3 0.4-14-13.7-28-27.5-41.6-41.8-5.1-5.4-8.8-4.8-15.3-1.9-30.3 13.3-61 25.9-91.8 38.1-6.4 2.5-9.7 4.7-9.5 12.3 0.5 19.6 0.4 39.2 0.1 58.9-0.4 27.3-16.7 43.4-44.3 43.7q-41 0.3-82 0c-27.9-0.3-44.1-16.7-44.4-45-0.2-19.2-0.3-38.4 0.1-57.6 0.2-7.3-2.5-9.8-9.3-12.4-30.8-12.1-61.5-24.6-91.8-38.1-7.4-3.3-11.2-2.5-16.3 2.9-13.3 13.8-26.9 27.4-40.7 40.8-19.6 19.1-42.6 19-62.2-0.3q-29.7-29.1-58.9-58.8c-19.1-19.5-18.9-42.6 0.4-62.2 13.8-14 28-27.6 41.4-41.9 2.5-2.6 4.5-9 3-11.4-18.7-31.9-31.9-66-41.5-101.5-0.2-0.8-1-1.4-2-2.9-21.2 0-43 0.2-64.7 0-29.8-0.2-45.8-16.3-45.9-46-0.1-26.9-0.2-53.8 0-80.7 0.2-27.3 16.6-43.7 44-44.1 19.2-0.3 38.4-0.4 57.6 0.1 7.5 0.2 10.7-2.2 13.5-9.6 12-30.9 24.7-61.5 38.1-91.8 2.9-6.7 3-10.3-2.3-15.3-13.9-13.2-27.4-27-40.8-40.7-19.9-20.3-20-43.1-0.2-63.1 19.5-19.7 39.1-39.4 58.8-58.9 18.9-18.6 42.2-18.6 61.3-0.1 14.1 13.7 28 27.6 41.6 41.8 4.9 5.1 8.4 5.6 15.2 2.6 30.7-13.5 61.8-26.1 93-38.4 6.1-2.4 8.9-4.8 8.7-11.6-0.4-20.1-0.3-40.2 0-60.3 0.4-26.5 17-42.8 43.5-42.9 28.2-0.2 56.4-0.2 84.6 0 25 0.2 41.9 16.5 42.4 41.5 0.5 20.5 0.4 41 0 61.5-0.1 6.8 2.6 9.2 8.6 11.6 31.6 12.5 62.8 26 94.4 38.5 3.5 1.4 10 0.5 12.6-1.9 14.7-13.7 28.5-28.2 42.9-42.3 19-18.6 42.3-18.7 61.2-0.1q30.2 29.6 59.8 59.8c18.6 19 18.6 42 0 61.3-13.6 14.1-27.5 28-41.7 41.6-5.2 4.9-5.5 8.5-2.5 15.2 13.5 30.8 26.1 61.9 38.4 93.1 2.5 6.2 5.1 8.6 11.8 8.5 19.6-0.4 39.3-0.4 58.9-0.1 27.4 0.4 43.9 16.7 44.1 43.9q0.4 41.7 0 83.3c-0.2 26.5-16.7 43.1-43.1 43.5-22.6 0.4-45.2 0.1-68 0.1z"/>
			</g>
			<path id="&lt;Path&gt;" class="s2" d="m883.2 600c0 156.4-126.8 283.2-283.2 283.2-156.4 0-283.2-126.8-283.2-283.2 0-156.4 126.8-283.2 283.2-283.2 156.4 0 283.2 126.8 283.2 283.2z"/>
			<path id="&lt;Path&gt;" class="s1" d="m883.2 600c0 156.4-126.8 283.2-283.2 283.2-156.4 0-283.2-126.8-283.2-283.2 0-156.4 126.8-283.2 283.2-283.2 156.4 0 283.2 126.8 283.2 283.2z"/>
			<path id="&lt;Path&gt;" class="s3" d="m600 799.2c-117.3-99.3-156.9-234.4-169.7-300.1 66.4-5 137-39.3 169.7-57.1 32.7 17.8 103.3 52.1 169.7 57.1-12.8 65.7-52.4 200.7-169.7 300.1z"/>
			<path id="&lt;Path&gt;" class="s1" d="m600 799.2c-117.3-99.3-156.9-234.4-169.7-300.1 66.4-5 137-39.3 169.7-57.1 32.7 17.8 103.3 52.1 169.7 57.1-12.8 65.7-52.4 200.7-169.7 300.1z"/>
		</g>
	</g>
</svg>