<svg version="1.2" xmlns="http://www.w3.org/2000/svg" viewBox="0 0 1200 1200" width="1200" height="1200">
	<title>Hardening Controls-ai</title>
	<style>
		.s0 { fill: #00bbd6 } 
		.s1 { fill: #fc6140 } 
		.s2 { fill: none;stroke: #000000;stroke-linecap: round;stroke-linejoin: round;stroke-width: 5.2 } 
		.s3 { fill: #ffffff } 
		.s4 { fill: #ffd740 } 
		.s5 { fill: #ffe8ad } 
	</style>
	<g id="Layer 1">
		<g id="&lt;Group&gt;">
			<path id="&lt;Path&gt;" class="s0" d="m863.2 917.3l-26.9 66.2h-42.2-25.7-42.3l-26.9-66.2"/>
			<path id="&lt;Path&gt;" class="s0" d="m500.8 917.3l-26.9 66.2h-42.3-25.7-42.2l-26.9-66.2"/>
			<path id="&lt;Path&gt;" class="s1" d="m959.8 917.3h-719.6c-24.4 0-44.2-19.8-44.2-44.2v-612.4c0-24.4 19.8-44.2 44.2-44.2h719.6c24.4 0 44.2 19.8 44.2 44.2v612.4c0 24.4-19.8 44.2-44.2 44.2z"/>
			<path id="&lt;Path&gt;" class="s2" d="m959.8 917.3h-719.6c-24.4 0-44.2-19.8-44.2-44.2v-612.4c0-24.4 19.8-44.2 44.2-44.2h719.6c24.4 0 44.2 19.8 44.2 44.2v612.4c0 24.4-19.8 44.2-44.2 44.2z"/>
			<path id="&lt;Path&gt;" class="s3" d="m267 811.5v-489.3c0-19.2 15.6-34.7 34.8-34.7h596.4c19.2 0 34.8 15.5 34.8 34.7v489.3c0 19.2-15.6 34.8-34.8 34.8h-596.4c-19.2 0-34.8-15.6-34.8-34.8z"/>
			<g id="&lt;Group&gt;">
				<path id="&lt;Path&gt;" class="s4" d="m443.5 433.7c0 24.7-20 44.7-44.6 44.7-24.7 0-44.7-20-44.7-44.7 0-24.7 20-44.7 44.7-44.7 24.6 0 44.6 20 44.6 44.7z"/>
				<path id="&lt;Path&gt;" class="s4" d="m587.4 433.7c0 24.7-20 44.7-44.6 44.7-24.7 0-44.7-20-44.7-44.7 0-24.7 20-44.7 44.7-44.7 24.6 0 44.6 20 44.6 44.7z"/>
				<path id="&lt;Path&gt;" class="s4" d="m731.3 433.7c0 24.7-20 44.7-44.6 44.7-24.7 0-44.7-20-44.7-44.7 0-24.7 20-44.7 44.7-44.7 24.6 0 44.6 20 44.6 44.7z"/>
				<g id="&lt;Group&gt;">
					<path id="&lt;Path&gt;" class="s4" d="m443.5 568.8c0 24.7-20 44.7-44.6 44.7-24.7 0-44.7-20-44.7-44.7 0-24.7 20-44.7 44.7-44.7 24.6 0 44.6 20 44.6 44.7z"/>
					<path id="&lt;Path&gt;" class="s4" d="m587.4 568.8c0 24.7-20 44.7-44.6 44.7-24.7 0-44.7-20-44.7-44.7 0-24.7 20-44.7 44.7-44.7 24.6 0 44.6 20 44.6 44.7z"/>
					<path id="&lt;Path&gt;" class="s4" d="m731.3 568.8c0 24.7-20 44.7-44.6 44.7-24.7 0-44.7-20-44.7-44.7 0-24.7 20-44.7 44.7-44.7 24.6 0 44.6 20 44.6 44.7z"/>
					<path id="&lt;Path&gt;" class="s4" d="m443.5 703.9c0 24.6-20 44.6-44.6 44.6-24.7 0-44.7-20-44.7-44.6 0-24.7 20-44.7 44.7-44.7 24.6 0 44.6 20 44.6 44.7z"/>
					<path id="&lt;Path&gt;" class="s4" d="m587.4 703.9c0 24.6-20 44.6-44.6 44.6-24.7 0-44.7-20-44.7-44.6 0-24.7 20-44.7 44.7-44.7 24.6 0 44.6 20 44.6 44.7z"/>
					<path id="&lt;Path&gt;" class="s4" d="m731.3 703.9c0 24.6-20 44.6-44.6 44.6-24.7 0-44.7-20-44.7-44.6 0-24.7 20-44.7 44.7-44.7 24.6 0 44.6 20 44.6 44.7z"/>
				</g>
			</g>
			<path id="&lt;Path&gt;" class="s0" d="m933 660.3c-51.6 0-93.4-41.8-93.4-93.4 0-51.6 41.8-93.5 93.4-93.5"/>
			<path id="&lt;Path&gt;" class="s5" d="m933 590.9h-32.6c-13.2 0-24-10.8-24-24 0-13.3 10.8-24 24-24h32.6"/>
			<path id="&lt;Path&gt;" class="s2" d="m267 811.5v-489.3c0-19.2 15.6-34.7 34.8-34.7h596.4c19.2 0 34.8 15.5 34.8 34.7v489.3c0 19.2-15.6 34.8-34.8 34.8h-596.4c-19.2 0-34.8-15.6-34.8-34.8z"/>
			<g id="&lt;Group&gt;">
				<path id="&lt;Path&gt;" class="s2" d="m443.5 433.7c0 24.7-20 44.7-44.6 44.7-24.7 0-44.7-20-44.7-44.7 0-24.7 20-44.7 44.7-44.7 24.6 0 44.6 20 44.6 44.7z"/>
				<path id="&lt;Path&gt;" class="s2" d="m587.4 433.7c0 24.7-20 44.7-44.6 44.7-24.7 0-44.7-20-44.7-44.7 0-24.7 20-44.7 44.7-44.7 24.6 0 44.6 20 44.6 44.7z"/>
				<path id="&lt;Path&gt;" class="s2" d="m731.3 433.7c0 24.7-20 44.7-44.6 44.7-24.7 0-44.7-20-44.7-44.7 0-24.7 20-44.7 44.7-44.7 24.6 0 44.6 20 44.6 44.7z"/>
				<g id="&lt;Group&gt;">
					<path id="&lt;Path&gt;" class="s2" d="m443.5 568.8c0 24.7-20 44.7-44.6 44.7-24.7 0-44.7-20-44.7-44.7 0-24.7 20-44.7 44.7-44.7 24.6 0 44.6 20 44.6 44.7z"/>
					<path id="&lt;Path&gt;" class="s2" d="m587.4 568.8c0 24.7-20 44.7-44.6 44.7-24.7 0-44.7-20-44.7-44.7 0-24.7 20-44.7 44.7-44.7 24.6 0 44.6 20 44.6 44.7z"/>
					<path id="&lt;Path&gt;" class="s2" d="m731.3 568.8c0 24.7-20 44.7-44.6 44.7-24.7 0-44.7-20-44.7-44.7 0-24.7 20-44.7 44.7-44.7 24.6 0 44.6 20 44.6 44.7z"/>
					<path id="&lt;Path&gt;" class="s2" d="m443.5 703.9c0 24.6-20 44.6-44.6 44.6-24.7 0-44.7-20-44.7-44.6 0-24.7 20-44.7 44.7-44.7 24.6 0 44.6 20 44.6 44.7z"/>
					<path id="&lt;Path&gt;" class="s2" d="m587.4 703.9c0 24.6-20 44.6-44.6 44.6-24.7 0-44.7-20-44.7-44.6 0-24.7 20-44.7 44.7-44.7 24.6 0 44.6 20 44.6 44.7z"/>
					<path id="&lt;Path&gt;" class="s2" d="m731.3 703.9c0 24.6-20 44.6-44.6 44.6-24.7 0-44.7-20-44.7-44.6 0-24.7 20-44.7 44.7-44.7 24.6 0 44.6 20 44.6 44.7z"/>
				</g>
			</g>
			<path id="&lt;Path&gt;" class="s2" d="m933 660.3c-51.6 0-93.4-41.8-93.4-93.4 0-51.6 41.8-93.5 93.4-93.5"/>
			<path id="&lt;Path&gt;" class="s2" d="m933 590.9h-32.6c-13.2 0-24-10.8-24-24 0-13.3 10.8-24 24-24h32.6"/>
			<path id="&lt;Path&gt;" class="s2" d="m863.2 917.3l-26.9 66.2h-42.2-25.7-42.3l-26.9-66.2"/>
			<path id="&lt;Path&gt;" class="s2" d="m500.8 917.3l-26.9 66.2h-42.3-25.7-42.2l-26.9-66.2"/>
		</g>
	</g>
</svg>