<svg version="1.2" xmlns="http://www.w3.org/2000/svg" viewBox="0 0 1200 1200" width="1200" height="1200">
	<title>Internet and Email Security-ai</title>
	<style>
		.s0 { fill: #ffd740 } 
		.s1 { fill: none;stroke: #000000;stroke-linecap: round;stroke-linejoin: round;stroke-width: 5.2 } 
		.s2 { fill: #fc6140 } 
		.s3 { fill: #ffffff } 
	</style>
	<g id="Layer 1">
		<g id="&lt;Group&gt;">
			<g id="&lt;Group&gt;">
				<path id="&lt;Path&gt;" class="s0" d="m996.8 297.6c0 0-28.2 443-396.8 719.5-368.6-276.5-396.8-719.5-396.8-719.5 162.3 29.9 396.8-114.7 396.8-114.7 0 0 234.5 144.6 396.8 114.7z"/>
				<path id="&lt;Path&gt;" class="s1" d="m996.8 297.6c0 0-28.2 443-396.8 719.5-368.6-276.5-396.8-719.5-396.8-719.5 162.3 29.9 396.8-114.7 396.8-114.7 0 0 234.5 144.6 396.8 114.7z"/>
				<path id="&lt;Path&gt;" class="s2" d="m600 932c-220.7-187-295.2-441.2-319.4-565 124.9-9.4 257.8-73.9 319.4-107.4 61.6 33.5 194.5 98 319.4 107.4-24.1 123.8-98.6 377.9-319.4 565z"/>
				<path id="&lt;Path&gt;" class="s1" d="m600 932c-220.7-187-295.2-441.2-319.4-565 124.9-9.4 257.8-73.9 319.4-107.4 61.6 33.5 194.5 98 319.4 107.4-24.1 123.8-98.6 377.9-319.4 565z"/>
			</g>
			<path id="&lt;Path&gt;" class="s3" d="m756.7 571.9c0 86.5-70.2 156.7-156.7 156.7-86.5 0-156.6-70.2-156.6-156.7 0-86.5 70.1-156.6 156.6-156.6 86.5 0 156.7 70.1 156.7 156.6z"/>
			<path id="&lt;Path&gt;" class="s1" d="m756.7 571.9c0 86.5-70.2 156.7-156.7 156.7-86.5 0-156.6-70.2-156.6-156.7 0-86.5 70.1-156.6 156.6-156.6 86.5 0 156.7 70.1 156.7 156.6z"/>
			<path id="&lt;Path&gt;" class="s0" d="m691.4 573.4c0 13.6-11 24.5-24.5 24.5h-47.6v47.6c0 13.5-11 24.5-24.5 24.5-13.5 0-24.5-11-24.5-24.5v-47.6h-47.6c-13.5 0-24.5-10.9-24.5-24.5 0-13.5 11-24.5 24.5-24.5h47.6v-47.5c0-13.6 11-24.6 24.5-24.6 13.5 0 24.5 11 24.5 24.6v47.5h47.6c13.5 0 24.5 11 24.5 24.5z"/>
			<path id="&lt;Path&gt;" class="s1" d="m691.4 573.4c0 13.6-11 24.5-24.5 24.5h-47.6v47.6c0 13.5-11 24.5-24.5 24.5-13.5 0-24.5-11-24.5-24.5v-47.6h-47.6c-13.5 0-24.5-10.9-24.5-24.5 0-13.5 11-24.5 24.5-24.5h47.6v-47.5c0-13.6 11-24.6 24.5-24.6 13.5 0 24.5 11 24.5 24.6v47.5h47.6c13.5 0 24.5 11 24.5 24.5z"/>
		</g>
	</g>
</svg>