<svg version="1.2" xmlns="http://www.w3.org/2000/svg" viewBox="0 0 1200 1200" width="1200" height="1200">
	<title>Network Security-ai</title>
	<style>
		.s0 { fill: none;stroke: #000000;stroke-linecap: round;stroke-linejoin: round;stroke-width: 5.2 } 
		.s1 { fill: #00bbd6 } 
		.s2 { fill: #ffffff } 
		.s3 { fill: #ffd740 } 
		.s4 { fill: #fc6140 } 
	</style>
	<g id="Layer 1">
		<g id="&lt;Group&gt;">
			<path id="&lt;Path&gt;" class="s0" d="m762.4 983.7h-323.3"/>
			<g id="&lt;Group&gt;">
				<path id="&lt;Path&gt;" class="s1" d="m896.5 856.2h-593c-21.7 0-39.3-17.6-39.3-39.3v-342.8c0-21.7 17.6-39.3 39.3-39.3h593c21.7 0 39.3 17.6 39.3 39.3v342.8c0 21.7-17.6 39.3-39.3 39.3z"/>
				<path id="&lt;Path&gt;" class="s0" d="m896.5 856.2h-593c-21.7 0-39.3-17.6-39.3-39.3v-342.8c0-21.7 17.6-39.3 39.3-39.3h593c21.7 0 39.3 17.6 39.3 39.3v342.8c0 21.7-17.6 39.3-39.3 39.3z"/>
				<path id="&lt;Path&gt;" class="s0" d="m935.8 654.4h-671.6"/>
				<path id="&lt;Path&gt;" class="s2" d="m876.2 550.2c0 26.4-21.4 47.8-47.8 47.8-26.4 0-47.8-21.4-47.8-47.8 0-26.4 21.4-47.8 47.8-47.8 26.4 0 47.8 21.4 47.8 47.8z"/>
				<path id="&lt;Path&gt;" class="s2" d="m727.3 550.2c0 26.4-21.4 47.8-47.8 47.8-26.4 0-47.8-21.4-47.8-47.8 0-26.4 21.4-47.8 47.8-47.8 26.4 0 47.8 21.4 47.8 47.8z"/>
				<path id="&lt;Path&gt;" class="s2" d="m876.2 749.2c0 26.4-21.4 47.8-47.8 47.8-26.4 0-47.8-21.4-47.8-47.8 0-26.4 21.4-47.8 47.8-47.8 26.4 0 47.8 21.4 47.8 47.8z"/>
				<path id="&lt;Path&gt;" class="s2" d="m727.3 749.2c0 26.4-21.4 47.8-47.8 47.8-26.4 0-47.8-21.4-47.8-47.8 0-26.4 21.4-47.8 47.8-47.8 26.4 0 47.8 21.4 47.8 47.8z"/>
				<path id="&lt;Path&gt;" class="s0" d="m876.2 550.2c0 26.4-21.4 47.8-47.8 47.8-26.4 0-47.8-21.4-47.8-47.8 0-26.4 21.4-47.8 47.8-47.8 26.4 0 47.8 21.4 47.8 47.8z"/>
				<path id="&lt;Path&gt;" class="s0" d="m727.3 550.2c0 26.4-21.4 47.8-47.8 47.8-26.4 0-47.8-21.4-47.8-47.8 0-26.4 21.4-47.8 47.8-47.8 26.4 0 47.8 21.4 47.8 47.8z"/>
				<path id="&lt;Path&gt;" class="s0" d="m876.2 749.2c0 26.4-21.4 47.8-47.8 47.8-26.4 0-47.8-21.4-47.8-47.8 0-26.4 21.4-47.8 47.8-47.8 26.4 0 47.8 21.4 47.8 47.8z"/>
				<path id="&lt;Path&gt;" class="s0" d="m727.3 749.2c0 26.4-21.4 47.8-47.8 47.8-26.4 0-47.8-21.4-47.8-47.8 0-26.4 21.4-47.8 47.8-47.8 26.4 0 47.8 21.4 47.8 47.8z"/>
				<path id="&lt;Path&gt;" class="s0" d="m316 508.7h192"/>
				<path id="&lt;Path&gt;" class="s0" d="m316 550.2h192"/>
				<path id="&lt;Path&gt;" class="s0" d="m316 591.6h192"/>
				<path id="&lt;Path&gt;" class="s0" d="m316 710.8h192"/>
				<path id="&lt;Path&gt;" class="s0" d="m316 752.3h192"/>
				<path id="&lt;Path&gt;" class="s3" d="m785.4 204.3c0 0-12.8 200.2-179.3 325.2-166.6-125-179.4-325.2-179.4-325.2 73.4 13.5 179.4-51.8 179.4-51.8 0 0 106 65.3 179.3 51.8z"/>
				<path id="&lt;Path&gt;" class="s0" d="m316 793.7h192"/>
				<path id="&lt;Path&gt;" class="s0" d="m785.4 204.3c0 0-12.8 200.2-179.3 325.2-166.6-125-179.4-325.2-179.4-325.2 73.4 13.5 179.4-51.8 179.4-51.8 0 0 106 65.3 179.3 51.8z"/>
				<path id="&lt;Path&gt;" class="s4" d="m606.1 491c-99.8-84.5-133.5-199.4-144.4-255.3 56.5-4.3 116.5-33.4 144.4-48.6 27.8 15.2 87.8 44.3 144.3 48.6-10.9 55.9-44.6 170.8-144.3 255.3z"/>
				<path id="&lt;Path&gt;" class="s0" d="m606.1 491c-99.8-84.5-133.5-199.4-144.4-255.3 56.5-4.3 116.5-33.4 144.4-48.6 27.8 15.2 87.8 44.3 144.3 48.6-10.9 55.9-44.6 170.8-144.3 255.3z"/>
				<path id="&lt;Path&gt;" class="s2" d="m584.8 334.5c-11.8-7.2-19.7-20.2-19.7-35.1 0-22.6 18.3-40.9 41-40.9 22.6 0 40.9 18.3 40.9 40.9 0 14.9-7.9 27.9-19.7 35.1v-0.1l9.2 90h-30.4-30.5l9.3-90z"/>
				<path id="&lt;Path&gt;" class="s0" d="m584.8 334.5c-11.8-7.2-19.7-20.2-19.7-35.1 0-22.6 18.3-40.9 41-40.9 22.6 0 40.9 18.3 40.9 40.9 0 14.9-7.9 27.9-19.7 35.1v-0.1l9.2 90h-30.4-30.5l9.3-90z"/>
			</g>
			<path id="&lt;Path&gt;" class="s0" d="m600 856.2v127.5"/>
			<path id="&lt;Path&gt;" class="s3" d="m663.8 983.7c0 35.2-28.6 63.8-63.8 63.8-35.2 0-63.8-28.6-63.8-63.8 0-35.2 28.6-63.8 63.8-63.8 35.2 0 63.8 28.6 63.8 63.8z"/>
			<path id="&lt;Path&gt;" class="s0" d="m663.8 983.7c0 35.2-28.6 63.8-63.8 63.8-35.2 0-63.8-28.6-63.8-63.8 0-35.2 28.6-63.8 63.8-63.8 35.2 0 63.8 28.6 63.8 63.8z"/>
			<path id="&lt;Path&gt;" class="s2" d="m638.6 983.7c0 21.3-17.3 38.6-38.6 38.6-21.3 0-38.6-17.3-38.6-38.6 0-21.3 17.3-38.6 38.6-38.6 21.3 0 38.6 17.3 38.6 38.6z"/>
			<path id="&lt;Path&gt;" class="s0" d="m638.6 983.7c0 21.3-17.3 38.6-38.6 38.6-21.3 0-38.6-17.3-38.6-38.6 0-21.3 17.3-38.6 38.6-38.6 21.3 0 38.6 17.3 38.6 38.6z"/>
		</g>
	</g>
</svg>