<svg version="1.2" xmlns="http://www.w3.org/2000/svg" viewBox="0 0 1400 1400" width="1400" height="1400">
	<title>Security-ai</title>
	<style>
		.s0 { fill: #fff8e1 } 
		.s1 { fill: #ffcf44 } 
		.s2 { fill: #fc6140 } 
		.s3 { fill: none;stroke: #000000;stroke-linecap: round;stroke-linejoin: round;stroke-width: 2.6 } 
		.s4 { fill: #ffd740 } 
		.s5 { fill: #ffffff } 
		.s6 { fill: #00bbd6 } 
		.s7 { fill: #362d46 } 
	</style>
	<g id="Layer 1">
		<g id="&lt;Group&gt;">
			<g id="&lt;Group&gt;">
				<path id="&lt;Path&gt;" class="s0" d="m743.3 1216.4c-421.1 163.1-555.9-391.9-439.8-717.5 116-325.7 279.6-370.1 479.5-334.2 207.3 37.1 482 167.3 490.3 413.2 12.9 380.8-267.5 536.8-530 638.5z"/>
				<g id="&lt;Group&gt;">
					<g id="&lt;Group&gt;">
						<path id="&lt;Path&gt;" class="s1" d="m231.4 636.7c-43.7-6.5-156.2-88.2-164.3-92.5-6-3.1-16-5.6-20.7-12.2-1.6-2.2-0.1-6-1-8.8-1.4-4.7 0.1-19.5 0-36.2-0.1-24.6-0.2-53.2 0-58.7 0.1-4.2 1.1-9.7 3.9-10.1 3.4-0.5 9.2 4.7 13.2 6.7 7.5 3.7 142.7 85.8 151.2 92.2 8.6 6.4 16.1 11.1 29 4.3 12.9-6.7 156.7-96.4 161.7-99.6 2.9-1.8 7.2-4.2 10.2-3 2.1 0.8 2.4 4.6 3 6.5 1.6 4.5-0.7 92.4-1.1 98.7-0.4 6.4-1.1 10.2-7.1 21.8 0 0-134.3 97.4-178 90.9z"/>
						<path id="&lt;Path&gt;" class="s2" d="m302 685.1c0 0-50.1 30-62 34.5-11.9 4.5-15.5 0.4-29.2-5.6-13.7-6-138.6-76.9-147.2-83.5-8.5-6.6-12.2-8.8-15.3-14.8-3.1-6-4.3-69.7-3.7-72.4 0.3-1.6-0.1-7.2 1.4-8.7 1.1-1.1 3.7 1.7 5.3 1.2 3.8-1 146.2 77.6 147.5 78.3 1.2 0.7 23.2 12.1 29 13.6 5.8 1.5 17.9-4.1 32-11.8 14-7.7 140.1-77 149.8-82.4 9.7-5.3 8 4.5 8 15 0 10.6 1.5 18.4 0 40.3-1.5 21.9-1.7 23.7-13.1 35.8z"/>
						<path id="&lt;Path&gt;" class="s0" d="m252.6 516.4c-5 3.9-12.3 8-24.9 7.6-12.7-0.4-35.5-19.5-38-21-2.6-1.6-128.5-78.1-132.9-81.9-1.7-1.5-7.1-2.4-7.3-3.9-0.3-2.5 4.5-6.3 5.9-7.4 2.9-2.4 4.7-4.2 14.2-8.7 9.6-4.6 126.1-70.7 126.1-70.7 0 0 19.8-12.6 31.1-16.4 11.2-3.7 14.7 2 24.4 5.9 9.7 3.8 142.2 81.4 157.9 90.8 10.5 6.3 2.2 6.5-4.4 12.5 0 0-147.1 89.3-152.1 93.2z"/>
						<g id="&lt;Group&gt;">
							<path id="&lt;Path&gt;" class="s3" d="m406.2 623.7l-161.9 94.5c-7.9 4.6-17.7 4.7-25.7 0.2l-161.4-90.5c-7.3-4.1-11.8-11.8-11.8-20.2v-178.9c0-8.3 4.5-16 11.7-20.1l164.9-93.2c7.1-4 15.8-4 22.9 0.1l161.2 93c7.1 4.2 11.5 11.8 11.5 20.1v175c0 8.2-4.3 15.8-11.4 20z"/>
							<path id="&lt;Path&gt;" class="s3" d="m414.6 417.2l-169.3 102.8c-8.4 5.3-19.2 5.3-27.6 0l-169.2-102.8"/>
							<path id="&lt;Path&gt;" class="s3" d="m417.6 529.1l-173.8 95.6c-7.7 4.2-16.9 4.3-24.6 0.2l-173.8-92.2"/>
						</g>
					</g>
					<g id="&lt;Group&gt;">
						<path id="&lt;Path&gt;" class="s1" d="m1124.6 551.8c-23.4-3.5-83.9-47.3-88.2-49.6-4.3-2.3-9.7-5.2-11.6-11.4-1.9-6.1-0.7-46-0.5-50.9 0.1-5 5.7-3.8 9.7-1.8 4 2 76.6 46.1 81.2 49.5 4.5 3.4 8.6 5.9 15.5 2.3 6.9-3.6 84.1-51.8 86.9-53.5 2.7-1.6 6.8-0.4 7.6 2 0.9 2.4-0.1 49.8-0.3 53.2-0.2 3.4-1.4 5.2-4.7 11.4 0 0-72.1 52.3-95.6 48.8z"/>
						<path id="&lt;Path&gt;" class="s2" d="m1162.6 578.6c0 0-27.5 14.4-33.9 16.8-6.4 2.5-7.7 1.2-15.1-2.1-7.4-3.2-74.5-41.3-79-44.8-4.6-3.5-6.6-4.7-8.3-7.9-1.7-3.3-2.3-37.5-2-39 0.3-1.4 1.6-3.4 3.6-4 2.1-0.5 78.5 41.7 79.2 42.1 0.7 0.3 12.5 6.5 15.6 7.3 3.1 0.8 9.7-2.2 17.2-6.3 7.5-4.2 75.2-41.4 80.4-44.3 5.2-2.9 4.4 2.4 4.4 8.1 0 5.6 0.8 9.9 0 21.6-0.9 11.8-1 12.7-7.1 19.2z"/>
						<path id="&lt;Path&gt;" class="s0" d="m1136 487.2c-2.7 2.1-6.6 4.3-13.4 4.1-6.7-0.2-19-10.5-20.4-11.3-1.3-0.8-68.9-41.9-71.3-44-2.4-2-1.1-4.5-0.8-6 0.4-1.6 1.8-2.5 7-4.9 5.1-2.5 67.3-38.3 67.3-38.3 0 0 10.7-4.9 16.7-6.9 6.1-2 8.2 0.2 13.4 2.2 5.2 2.1 79.7 41.8 84.8 45.9 5.1 4.2 1.8 2.9-0.2 7.5 0 0-80.4 49.6-83.1 51.7z"/>
						<g id="&lt;Group&gt;">
							<path id="&lt;Path&gt;" class="s3" d="m1218.5 544.8l-86.9 50.8c-4.3 2.4-9.5 2.5-13.8 0.1l-86.7-48.6c-3.9-2.2-6.3-6.3-6.3-10.8v-96.1c0-4.5 2.4-8.6 6.3-10.8l88.5-50.1c3.8-2.1 8.5-2.1 12.3 0.1l86.5 49.9c3.9 2.3 6.3 6.4 6.3 10.8v94c0 4.4-2.4 8.5-6.2 10.7z"/>
							<path id="&lt;Path&gt;" class="s3" d="m1223 433.9l-90.9 55.2c-4.5 2.9-10.3 2.9-14.8 0l-90.9-55.2"/>
							<path id="&lt;Path&gt;" class="s3" d="m1224.7 494l-93.4 51.4c-4.1 2.2-9.1 2.3-13.2 0.1l-93.3-49.5"/>
						</g>
					</g>
					<g id="&lt;Group&gt;">
						<path id="&lt;Path&gt;" class="s2" d="m1321.7 871.4c0 0 18.2 27-3.9 39.6-24.1 13.7-485.5 291.6-547.5 327.4-5.9 3.4-12.7 5.1-19.5 4.7-8.4-0.5-12.9 0.1-34.4-10.6-25-12.4-267-154.2-314.9-181.9-6.4-3.8-10.6-10.4-11.3-17.8-0.7-8.2 0.7-18.6 9.7-26.7"/>
						<path id="&lt;Path&gt;" class="s1" d="m988.5 675.7l328.5 191.3c9.7 5.6 9.6 19.6 0 25.2l-559.5 323.8c-4.5 2.5-10 2.6-14.5 0l-337.8-189.6c-9.8-5.5-9.9-19.7-0.1-25.3l568.8-325.5c4.5-2.6 10.1-2.5 14.6 0.1z"/>
						<g id="&lt;Group&gt;">
							<path id="&lt;Path&gt;" class="s4" d="m402.1 1003.4c-19.9 2.3-31.6-5.1-38-11.8-4.2-4.4-6.5-10.4-6.5-16.5v-434.8c0-29.3 15.9-39.1 15.9-39.1 0 0 527.9-309.4 552.9-322 11-5.6 21.3-2.5 29.5 2.6 10.9 6.9 17.2 19.1 17.3 31.9l2.8 461-5.1 2.7"/>
						</g>
						<path id="&lt;Path&gt;" class="s0" d="m937.6 1111.7l-108.9-74.1c-4.9-3.4-4.6-10.7 0.5-13.6l174.7-100.1c2.5-1.4 5.6-1.4 8.1 0l124.3 72.8"/>
						<path id="&lt;Path&gt;" class="s3" d="m988.5 675.7l328.5 191.3c9.7 5.6 9.6 19.6 0 25.2l-559.5 323.8c-4.5 2.5-10 2.6-14.5 0l-337.8-189.6c-9.8-5.5-9.9-19.7-0.1-25.3l568.8-325.5c4.5-2.6 10.1-2.5 14.6 0.1z"/>
						<path id="&lt;Path&gt;" class="s3" d="m1321.7 871.4c0 0 18.2 27-3.9 39.6-24.1 13.7-485.5 291.6-547.5 327.4-5.9 3.4-12.7 5.1-19.5 4.7-8.4-0.5-12.9 0.1-34.4-10.6-25-12.4-267-154.2-314.9-181.9-6.4-3.8-10.6-10.4-11.3-17.8-0.7-8.2 0.7-18.6 9.7-26.7"/>
						<path id="&lt;Path&gt;" class="s0" d="m971.6 708.1l159.8 93.7-507.8 302.7-166.7-95.1z"/>
						<path id="&lt;Path&gt;" class="s3" d="m971.6 708.1l159.8 93.7-507.8 302.7-166.7-95.1z"/>
						<path id="&lt;Path&gt;" class="s3" d="m402.1 1003.4c-19.9 2.3-31.6-5.1-38-11.8-4.2-4.4-6.5-10.4-6.5-16.5v-434.8c0-29.3 15.9-39.1 15.9-39.1 0 0 527.9-309.4 552.9-322 11-5.6 21.3-2.5 29.5 2.6 10.9 6.9 17.2 19.1 17.3 31.9l2.8 461-5.1 2.7"/>
						<path id="&lt;Path&gt;" class="s3" d="m379.4 1001.3c0 0 0-427.1 0-452.6 0-25.5 12.9-33.2 12.9-33.2 0 0 532.2-309 547-318.1 14.8-9.2 30.7 1.1 30.7 1.1"/>
						<path id="&lt;Path&gt;" class="s3" d="m385.3 522.6l-20.9-11"/>
						<path id="&lt;Path&gt;" class="s3" d="m937.6 1111.7l-108.9-74.1c-4.9-3.4-4.6-10.7 0.5-13.6l174.7-100.1c2.5-1.4 5.6-1.4 8.1 0l124.3 72.8"/>
						<path id="&lt;Path&gt;" class="s5" d="m941.8 256.9l-534.7 312.8v-35.6l534.7-307.7z"/>
						<path id="&lt;Path&gt;" class="s3" d="m941.8 256.9l-534.7 312.8v-35.6l534.7-307.7z"/>
						<path id="&lt;Path&gt;" class="s6" d="m941.8 256.9v403.1l-533.2 309.3-1-399.9z"/>
						<path id="&lt;Path&gt;" class="s3" d="m941.8 256.9v403.1l-533.2 309.3-1.5-399.6z"/>
					</g>
					<g id="&lt;Group&gt;">
						<path id="&lt;Path&gt;" class="s1" d="m1296.9 769.1c-13.6-2-48.8-27.5-51.3-28.8-2.5-1.4-5.7-3-6.7-6.6-1.1-3.6-0.4-26.8-0.3-29.6 0.1-2.9 3.3-2.2 5.6-1.1 2.3 1.2 44.5 26.8 47.2 28.8 2.6 2 5 3.5 9 1.4 4-2.2 48.9-30.2 50.5-31.1 1.6-1 4-0.3 4.4 1.1 0.5 1.4 0 29-0.2 30.9-0.1 2-0.8 3-2.7 6.7 0 0-41.9 30.3-55.5 28.3z"/>
						<path id="&lt;Path&gt;" class="s2" d="m1318.9 784.7c0 0-15.9 8.4-19.6 9.8-3.8 1.4-4.5 0.6-8.8-1.2-4.3-1.9-43.3-24.1-46-26.1-2.6-2.1-3.8-2.7-4.8-4.6-0.9-1.9-1.3-21.8-1.1-22.6 0.2-0.9 0.9-2 2.1-2.3 1.2-0.4 45.6 24.2 46 24.4 0.4 0.2 7.3 3.8 9.1 4.2 1.8 0.5 5.6-1.2 9.9-3.7 4.4-2.4 43.8-24 46.8-25.7 3-1.6 2.5 1.4 2.5 4.7 0 3.3 0.5 5.8 0 12.6-0.5 6.8-0.5 7.4-4.1 11.2z"/>
						<path id="&lt;Path&gt;" class="s0" d="m1303.5 731.6c-1.6 1.2-3.8 2.5-7.8 2.4-3.9-0.2-11-6.1-11.8-6.6-0.8-0.5-40.1-24.4-41.5-25.6-1.4-1.2-0.6-2.6-0.4-3.5 0.2-0.9 1-1.4 4-2.8 3-1.4 39.1-22.3 39.1-22.3 0 0 6.2-2.8 9.7-4 3.6-1.2 4.8 0.1 7.8 1.3 3 1.2 46.3 24.3 49.3 26.7 3 2.4 1.1 1.7-0.1 4.3 0 0-46.7 28.9-48.3 30.1z"/>
						<g id="&lt;Group&gt;">
							<path id="&lt;Path&gt;" class="s3" d="m1351.4 765.1l-50.5 29.5c-2.5 1.4-5.5 1.4-8 0l-50.4-28.2c-2.2-1.3-3.6-3.7-3.6-6.3v-55.9c0-2.6 1.3-5 3.6-6.2l51.5-29.1c2.2-1.3 4.9-1.2 7.1 0l50.3 29.1c2.2 1.2 3.6 3.6 3.6 6.2v54.6c0 2.6-1.4 5-3.6 6.3z"/>
							<path id="&lt;Path&gt;" class="s3" d="m1354.1 700.6l-52.9 32.1c-2.6 1.7-5.9 1.7-8.6 0l-52.8-32.1"/>
							<path id="&lt;Path&gt;" class="s3" d="m1355 735.5l-54.3 29.9c-2.3 1.3-5.2 1.3-7.6 0.1l-54.2-28.8"/>
						</g>
					</g>
					<g id="&lt;Group&gt;">
						<g id="&lt;Group&gt;">
							<path id="&lt;Path&gt;" class="s1" d="m343 1090.5l-50.5 29.5c-2.5 1.4-5.5 1.5-8 0.1l-50.4-28.3c-2.3-1.2-3.7-3.7-3.7-6.3v-55.8c0-2.6 1.4-5 3.7-6.3l51.4-29.1c2.2-1.2 5-1.2 7.2 0.1l50.3 29c2.2 1.3 3.6 3.7 3.6 6.2v54.7c0 2.5-1.4 4.9-3.6 6.2z"/>
							<path id="&lt;Path&gt;" class="s3" d="m343 1090.5l-50.5 29.5c-2.5 1.4-5.5 1.5-8 0.1l-50.4-28.3c-2.3-1.2-3.7-3.7-3.7-6.3v-55.8c0-2.6 1.4-5 3.7-6.3l51.4-29.1c2.2-1.2 5-1.2 7.2 0.1l50.3 29c2.2 1.3 3.6 3.7 3.6 6.2v54.7c0 2.5-1.4 4.9-3.6 6.2z"/>
							<path id="&lt;Path&gt;" class="s3" d="m345.5 1025.8l-52.7 32.4c-2.6 1.6-6 1.6-8.6 0l-52.8-32.1"/>
						</g>
						<path id="&lt;Path&gt;" class="s3" d="m288.5 1059.4v61.7"/>
					</g>
					<g id="&lt;Group&gt;">
						<g id="&lt;Group&gt;">
							<g id="&lt;Group&gt;">
								<path id="&lt;Path&gt;" class="s2" d="m1132.1 1182.4l-82.7 48.3c-4.1 2.3-9.1 2.4-13.2 0.1l-82.5-46.3c-3.7-2.1-6-6-6-10.3v-91.5c0-4.2 2.3-8.1 6-10.2l84.3-47.7c3.6-2 8.1-2 11.7 0.1l82.4 47.5c3.6 2.2 5.9 6.1 5.9 10.3v89.5c0 4.2-2.3 8-5.9 10.2z"/>
								<path id="&lt;Path&gt;" class="s3" d="m1132.1 1182.4l-82.7 48.3c-4.1 2.3-9.1 2.4-13.2 0.1l-82.5-46.3c-3.7-2.1-6-6-6-10.3v-91.5c0-4.2 2.3-8.1 6-10.2l84.3-47.7c3.6-2 8.1-2 11.7 0.1l82.4 47.5c3.6 2.2 5.9 6.1 5.9 10.3v89.5c0 4.2-2.3 8-5.9 10.2z"/>
								<path id="&lt;Path&gt;" class="s3" d="m1136.4 1076.8l-86.5 52.6c-4.3 2.7-9.8 2.7-14.1 0l-85.4-51.9"/>
							</g>
							<path id="&lt;Path&gt;" class="s3" d="m1042.8 1131.4v101.1"/>
						</g>
						<path id="&lt;Path&gt;" class="s1" d="m770.3 1086.6c-0.5-2.6-1-118.9-0.4-124.4 0.5-5.6 4.1-6.2 5.4-7.1 1.3-0.8 341.1-196.6 343.7-197.5 2.5-0.9 5.3-0.9 5.6 0.6 0.3 1.5-0.3 9.4-0.3 9.4v122.6l-349 197.9c0 0-4.5 1-5-1.5z"/>
						<path id="&lt;Path&gt;" class="s1" d="m769.8 1084.2c0 3.3-1 4-3.9 3.9-2.8-0.1-127.7-69.8-130.3-71.2-2.7-1.4-5.6-3-5.6-5.8 0-2.7 0-124.1 0-127.8 0-3.7 2.5-1.1 5.1-0.7 2.5 0.3 127.3 71.5 131.4 73.5 4 1.9 3.3 6.5 3.3 6.5v28.1c0 0 0 90.1 0 93.5z"/>
						<path id="&lt;Path&gt;" class="s7" d="m1090.6 729c0 0 30.9 23 31.5 23.4 0.6 0.5-0.4 3-3.4 5.4-2.9 2.5-6.7 4.1-6.7 4.1 0 0-334.8 191.1-337.3 192.9-2.5 1.8-3.8 3.1-6.5 2.2-2.7-0.8-133.6-75.4-134.2-76.7-0.6-1.4-2.6-3.2 0.5-5.1 3.1-1.9 27.2-17.8 27.2-17.8z"/>
						<path id="&lt;Path&gt;" class="s2" d="m770.2 917.5c0.4 1.8-2.1 2.4-3.3 2.4-1.3-0.1-131.5-72.3-133.6-73.5-2.1-1.2-3.3-4.5-3.3-4.5v-45.2c0 0 0-2.7 0-5.8 0-3.1 4-1.5 4.3-1.4 0.2 0.1 123.2 66.5 123.2 66.5 0 0 7.7 4.8 10.2 5.8 2.5 0.9 2.5 5.7 2.5 5.7v45.2c0 0-0.4 3 0 4.8z"/>
						<path id="&lt;Path&gt;" class="s2" d="m1111.3 660.3c7.3 1.8 8.1 5.2 8.9 9.8 0.8 4.6 0.6 45.7 0 46.3-0.6 0.6-0.1 2.5-3.1 4.3-2.9 1.7-9.8 5.7-9.8 5.7 0 0-331.5 192.3-333.7 193.6-2.3 1.3-3.8 1-3.8-3.1 0-4.1 0-58.8 0-58.8z"/>
						<path id="&lt;Path&gt;" class="s7" d="m780.9 856.3c0 0-5 3.7-8.7 5-3.7 1.3-5.9-0.6-6.4-0.8-0.5-0.3-123.4-66-123.4-66 0 0-7.2-3.9-9-5.8-1.7-1.9 1.3-4.5 1.3-4.5 0 0 317.5-183.6 319.7-184.4 2.2-0.8 8.3-4.4 14-5.5 5.6-1 36.7-1.1 36.7-1.1 0 0 11.7 6.6 12.9 7.4 1.2 0.7 96.5 57.2 98 58.8 1.5 1.5 1.5 2.5-0.2 4.9z"/>
						<path id="&lt;Path&gt;" class="s3" d="m1120.2 718.9l-350.4 203.3-139.8-77.6v-57.7l355.6-205.6 134.6 79.9z"/>
						<path id="&lt;Path&gt;" class="s3" d="m1120.2 661.2l-350.4 201.5-139.8-75.8"/>
						<path id="&lt;Path&gt;" class="s3" d="m769.8 922.2v-59.5"/>
						<path id="&lt;Path&gt;" class="s3" d="m1094.8 733.6l29.5 20.3v90.5"/>
						<path id="&lt;Path&gt;" class="s3" d="m1124.3 753.9l-354.5 204.1-139.8-80 28.4-17.7"/>
						<path id="&lt;Path&gt;" class="s3" d="m1077.3 916.5l-307.5 173.7-139.8-76.3v-135.9"/>
						<path id="&lt;Path&gt;" class="s3" d="m769.8 1090.2v-132.2"/>
						<path id="&lt;Path&gt;" class="s5" d="m978.9 681.5c-15-2.1-21.4-16.3-21.4-25.3 0-9.1 0-67.8 0-106.2 0-38.4-43.7-35.1-67.9-23.4-24.2 11.6-55.2 42.4-66.1 57.3-10.8 14.8-22.5 53.1-25 69-2.5 15.9-2.2 58.9-2.2 58.9 0 0 0 58.3 0 72.9 0 14.7-20 21.8-35.8 19.4-15.7-2.4-18.6-19.2-18.6-19.2 0 0 0-50.8 0-102.8 0-52 18.2-96.6 29.3-117.3 11.1-20.8 36.6-47.2 56.8-63.6 20.1-16.5 67.7-43.4 96.2-43.6 28.4-0.1 56.3 15.1 70.4 35.4 14 20.3 17.7 56.5 17.7 56.5v119c0 12-18.5 15.1-33.4 13z"/>
						<path id="&lt;Path&gt;" class="s3" d="m978.9 681.5c-15-2.1-21.4-16.3-21.4-25.3 0-9.1 0-67.8 0-106.2 0-38.4-43.7-35.1-67.9-23.4-24.2 11.6-55.2 42.4-66.1 57.3-10.8 14.8-22.5 53.1-25 69-2.5 15.9-2.2 58.9-2.2 58.9 0 0 0 58.3 0 72.9 0 14.7-20 21.8-35.8 19.4-15.7-2.4-18.6-19.2-18.6-19.2 0 0 0-50.8 0-102.8 0-52 18.2-96.6 29.3-117.3 11.1-20.8 36.6-47.2 56.8-63.6 20.1-16.5 67.7-43.4 96.2-43.6 28.4-0.1 56.3 15.1 70.4 35.4 14 20.3 17.7 56.5 17.7 56.5v119c0 12-18.5 15.1-33.4 13z"/>
						<g id="&lt;Group&gt;">
							<g id="&lt;Group&gt;">
								<path id="&lt;Path&gt;" class="s6" d="m1250.6 983.9l-82.7 48.3c-4.1 2.4-9.1 2.4-13.2 0.1l-82.5-46.2c-3.7-2.1-6-6-6-10.3v-91.5c0-4.2 2.3-8.2 6-10.3l84.3-47.6c3.6-2.1 8-2 11.7 0.1l82.4 47.5c3.6 2.1 5.9 6 5.9 10.2v89.5c0 4.2-2.3 8.1-5.9 10.2z"/>
								<path id="&lt;Path&gt;" class="s3" d="m1250.6 983.9l-82.7 48.3c-4.1 2.4-9.1 2.4-13.2 0.1l-82.5-46.2c-3.7-2.1-6-6-6-10.3v-91.5c0-4.2 2.3-8.2 6-10.3l84.3-47.6c3.6-2.1 8-2 11.7 0.1l82.4 47.5c3.6 2.1 5.9 6 5.9 10.2v89.5c0 4.2-2.3 8.1-5.9 10.2z"/>
								<path id="&lt;Path&gt;" class="s3" d="m1254.9 878.4l-86.5 52.5c-4.3 2.7-9.8 2.7-14.1 0l-85.4-51.9"/>
							</g>
							<path id="&lt;Path&gt;" class="s3" d="m1161.3 933v101"/>
						</g>
					</g>
				</g>
				<path id="&lt;Path&gt;" class="s6" d="m1044.9 301.1c0 2.6-2.2 4.8-4.9 4.8-2.7 0-4.8-2.2-4.8-4.8 0-2.7 2.1-4.9 4.8-4.9 2.7 0 4.9 2.2 4.9 4.9z"/>
				<path id="&lt;Path&gt;" class="s2" d="m494.5 380.2c0 5.2-4.2 9.4-9.4 9.4-5.2 0-9.4-4.2-9.4-9.4 0-5.2 4.2-9.4 9.4-9.4 5.2 0 9.4 4.2 9.4 9.4z"/>
				<g id="&lt;Group&gt;">
					<path id="&lt;Path&gt;" class="s4" d="m269.4 881.8c0 3.1-2.5 5.6-5.5 5.6-3.1 0-5.6-2.5-5.6-5.6 0-3.1 2.5-5.6 5.6-5.6 3 0 5.5 2.5 5.5 5.6z"/>
				</g>
				<g id="&lt;Group&gt;">
					<path id="&lt;Path&gt;" class="s4" d="m408.9 1121.1c0 3.1-2.5 5.6-5.5 5.6-3.1 0-5.6-2.5-5.6-5.6 0-3.1 2.5-5.6 5.6-5.6 3 0 5.5 2.5 5.5 5.6z"/>
				</g>
				<g id="&lt;Group&gt;">
					<path id="&lt;Path&gt;" class="s4" d="m1210.7 642.5c0 3.1-2.5 5.6-5.5 5.6-3.1 0-5.6-2.5-5.6-5.6 0-3 2.5-5.5 5.6-5.5 3 0 5.5 2.5 5.5 5.5z"/>
				</g>
			</g>
			<path id="&lt;Path&gt;" class="s3" d="m660.8 522.6l-178.7 104.6"/>
			<path id="&lt;Path&gt;" class="s3" d="m660.8 585.9l-178.7 104.5"/>
			<path id="&lt;Path&gt;" class="s3" d="m660.8 649.1l-178.7 104.6"/>
		</g>
	</g>
</svg>