<svg version="1.2" xmlns="http://www.w3.org/2000/svg" viewBox="0 0 1200 1200" width="1200" height="1200">
	<title>Security-ai</title>
	<style>
		.s0 { fill: #fc6140 } 
		.s1 { fill: #ffd740 } 
		.s2 { fill: none;stroke: #000000;stroke-linecap: round;stroke-linejoin: round;stroke-width: 5.2 } 
		.s3 { fill: #ffffff } 
	</style>
	<g id="Layer 1">
		<g id="&lt;Group&gt;">
			<g id="&lt;Group&gt;">
				<path id="&lt;Path&gt;" class="s0" d="m319.6 506.4h560.8v538.2h-560.8z"/>
				<path id="&lt;Path&gt;" class="s1" d="m407.2 506.4v-158.2c0-106.5 86.3-192.8 192.8-192.8 106.5 0 192.8 86.3 192.8 192.8v158.2h-68.6v-158.2c0-68.6-55.6-124.1-124.2-124.1-68.6 0-124.2 55.5-124.2 124.1v158.2z"/>
				<path id="&lt;Path&gt;" class="s2" d="m407.2 506.4v-158.2c0-106.5 86.3-192.8 192.8-192.8 106.5 0 192.8 86.3 192.8 192.8v158.2h-68.6v-158.2c0-68.6-55.6-124.1-124.2-124.1-68.6 0-124.2 55.5-124.2 124.1v158.2z"/>
				<path id="&lt;Path&gt;" class="s2" d="m319.6 506.4h560.8v538.2h-560.8z"/>
				<path id="&lt;Path&gt;" class="s3" d="m568.7 755.5c-21.8-13.3-36.4-37.3-36.4-64.7 0-41.8 33.9-75.7 75.7-75.7 41.8 0 75.7 33.9 75.7 75.7 0 27.4-14.6 51.4-36.5 64.7v-0.1l17 166.3h-56.2-56.2l17-166.3z"/>
				<path id="&lt;Path&gt;" class="s2" d="m568.7 755.5c-21.8-13.3-36.4-37.3-36.4-64.7 0-41.8 33.9-75.7 75.7-75.7 41.8 0 75.7 33.9 75.7 75.7 0 27.4-14.6 51.4-36.5 64.7v-0.1l17 166.3h-56.2-56.2l17-166.3z"/>
			</g>
		</g>
	</g>
</svg>