<svg version="1.2" xmlns="http://www.w3.org/2000/svg" viewBox="0 0 1400 1400" width="1400" height="1400">
	<title>Audio Moderation-ai</title>
	<style>
		.s0 { fill: #fff8e1 } 
		.s1 { fill: #ffffff } 
		.s2 { fill: none;stroke: #000000;stroke-linecap: round;stroke-linejoin: round;stroke-width: 2.6 } 
		.s3 { fill: #ffcf44 } 
		.s4 { fill: #ffe8ad } 
		.s5 { fill: #fc6140 } 
		.s6 { fill: #362d46 } 
		.s7 { fill: #bcebf1 } 
		.s8 { fill: #00bbd6 } 
	</style>
	<g id="Layer 1">
		<g id="&lt;Group&gt;">
			<path id="&lt;Path&gt;" class="s0" d="m918.9 104.8c478.9 20.9 373.4 617.9 121.7 885-251.7 267.2-469.5 297.5-608.7 120.6-138.2-175.8-397.3-368.2-300.5-610.9 149.7-375.7 488.9-407.8 787.5-394.7z"/>
			<g id="&lt;Group&gt;">
				<path id="&lt;Path&gt;" class="s1" d="m133 267.7h329.6v203.4c0 21-17 38.1-38.1 38.1h-253.4c-21 0-38.1-17.1-38.1-38.1z"/>
				<path id="&lt;Path&gt;" class="s2" d="m133 267.7h329.6v203.4c0 21-17 38.1-38.1 38.1h-253.4c-21 0-38.1-17.1-38.1-38.1z"/>
				<g id="&lt;Group&gt;">
					<path id="&lt;Path&gt;" class="s2" d="m413.5 293v190.9"/>
					<g id="&lt;Group&gt;">
						<path id="&lt;Path&gt;" class="s3" d="m439 354.7c0 14.1-11.4 25.5-25.5 25.5-14.1 0-25.5-11.4-25.5-25.5 0-14.1 11.4-25.5 25.5-25.5 14.1 0 25.5 11.4 25.5 25.5z"/>
						<path id="&lt;Path&gt;" class="s2" d="m439 354.7c0 14.1-11.4 25.5-25.5 25.5-14.1 0-25.5-11.4-25.5-25.5 0-14.1 11.4-25.5 25.5-25.5 14.1 0 25.5 11.4 25.5 25.5z"/>
						<path id="&lt;Path&gt;" class="s4" d="m424.2 354.7c0 5.9-4.8 10.7-10.7 10.7-5.9 0-10.7-4.8-10.7-10.7 0-5.9 4.8-10.7 10.7-10.7 5.9 0 10.7 4.8 10.7 10.7z"/>
						<path id="&lt;Path&gt;" class="s2" d="m424.2 354.7c0 5.9-4.8 10.7-10.7 10.7-5.9 0-10.7-4.8-10.7-10.7 0-5.9 4.8-10.7 10.7-10.7 5.9 0 10.7 4.8 10.7 10.7z"/>
					</g>
					<path id="&lt;Path&gt;" class="s2" d="m336.4 293v190.9"/>
					<g id="&lt;Group&gt;">
						<path id="&lt;Path&gt;" class="s3" d="m361.9 424.8c0 14.1-11.4 25.6-25.5 25.6-14.1 0-25.6-11.5-25.6-25.6 0-14.1 11.5-25.5 25.6-25.5 14.1 0 25.5 11.4 25.5 25.5z"/>
						<path id="&lt;Path&gt;" class="s2" d="m361.9 424.8c0 14.1-11.4 25.6-25.5 25.6-14.1 0-25.6-11.5-25.6-25.6 0-14.1 11.5-25.5 25.6-25.5 14.1 0 25.5 11.4 25.5 25.5z"/>
						<path id="&lt;Path&gt;" class="s4" d="m347.1 424.8c0 5.9-4.8 10.7-10.7 10.7-5.9 0-10.7-4.8-10.7-10.7 0-5.9 4.8-10.7 10.7-10.7 5.9 0 10.7 4.8 10.7 10.7z"/>
						<path id="&lt;Path&gt;" class="s2" d="m347.1 424.8c0 5.9-4.8 10.7-10.7 10.7-5.9 0-10.7-4.8-10.7-10.7 0-5.9 4.8-10.7 10.7-10.7 5.9 0 10.7 4.8 10.7 10.7z"/>
					</g>
					<path id="&lt;Path&gt;" class="s2" d="m259.2 293v190.9"/>
					<g id="&lt;Group&gt;">
						<path id="&lt;Path&gt;" class="s3" d="m284.8 389.8c0 14.1-11.5 25.5-25.6 25.5-14.1 0-25.5-11.4-25.5-25.5 0-14.1 11.4-25.6 25.5-25.6 14.1 0 25.6 11.5 25.6 25.6z"/>
						<path id="&lt;Path&gt;" class="s2" d="m284.8 389.8c0 14.1-11.5 25.5-25.6 25.5-14.1 0-25.5-11.4-25.5-25.5 0-14.1 11.4-25.6 25.5-25.6 14.1 0 25.6 11.5 25.6 25.6z"/>
						<path id="&lt;Path&gt;" class="s4" d="m269.9 389.8c0 5.9-4.7 10.7-10.7 10.7-5.9 0-10.7-4.8-10.7-10.7 0-6 4.8-10.7 10.7-10.7 6 0 10.7 4.7 10.7 10.7z"/>
						<path id="&lt;Path&gt;" class="s2" d="m269.9 389.8c0 5.9-4.7 10.7-10.7 10.7-5.9 0-10.7-4.8-10.7-10.7 0-6 4.8-10.7 10.7-10.7 6 0 10.7 4.7 10.7 10.7z"/>
					</g>
					<path id="&lt;Path&gt;" class="s2" d="m182.1 293v190.9"/>
					<g id="&lt;Group&gt;">
						<path id="&lt;Path&gt;" class="s3" d="m207.6 354.7c0 14.1-11.4 25.5-25.5 25.5-14.1 0-25.5-11.4-25.5-25.5 0-14.1 11.4-25.5 25.5-25.5 14.1 0 25.5 11.4 25.5 25.5z"/>
						<path id="&lt;Path&gt;" class="s2" d="m207.6 354.7c0 14.1-11.4 25.5-25.5 25.5-14.1 0-25.5-11.4-25.5-25.5 0-14.1 11.4-25.5 25.5-25.5 14.1 0 25.5 11.4 25.5 25.5z"/>
						<path id="&lt;Path&gt;" class="s4" d="m192.8 354.7c0 5.9-4.8 10.7-10.7 10.7-5.9 0-10.7-4.8-10.7-10.7 0-5.9 4.8-10.7 10.7-10.7 5.9 0 10.7 4.8 10.7 10.7z"/>
						<path id="&lt;Path&gt;" class="s2" d="m192.8 354.7c0 5.9-4.8 10.7-10.7 10.7-5.9 0-10.7-4.8-10.7-10.7 0-5.9 4.8-10.7 10.7-10.7 5.9 0 10.7 4.8 10.7 10.7z"/>
					</g>
				</g>
				<path id="&lt;Path&gt;" class="s5" d="m170.3 230.4h255c20.6 0 37.3 16.7 37.3 37.3h-329.6c0-20.6 16.7-37.3 37.3-37.3z"/>
				<path id="&lt;Path&gt;" class="s2" d="m170.3 230.4h255c20.6 0 37.3 16.7 37.3 37.3h-329.6c0-20.6 16.7-37.3 37.3-37.3z"/>
			</g>
			<path id="&lt;Path&gt;" class="s2" d="m137.2 1149.4c1-77.3 259.9-136.6 578.1-132.4 318.3 4.3 575.5 70.5 574.5 147.9-1.1 77.4-259.9 136.6-578.2 132.4-318.3-4.3-575.5-70.5-574.4-147.9z"/>
			<path id="&lt;Path&gt;" class="s6" d="m447.9 809.2c-0.1 3.1-2.1 2.2-2.1 2.2 0 0-63-18.2-64-19-1.1-0.8-1.2-2-0.9-2.4 0.3-0.3 64.5-15 65.6-15.1 1.1-0.1 1.6 2.2 1.6 3 0 0 0 28.2-0.2 31.3z"/>
			<path id="&lt;Path&gt;" class="s6" d="m634.8 811.7c-0.8-0.2-0.5-2-0.6-2.2 0-0.2 0.2-30.9 0.5-33.1 0.2-2.1 1.1-1.7 1.5-1.7 0.4 0.1 58.3 18.9 58.3 18.9 0 0 3.9 1 6.1 1.9 2.2 0.9 0.8 2.5 0.8 2.5l-62.6 13.3c0 0-3.1 0.7-4 0.4z"/>
			<path id="&lt;Path&gt;" class="s4" d="m536.4 848l-88.3-33.6v-209.6c0 0-0.4-28.2 0.1-31.3 0.5-3.1 3.3-1.7 4.4-0.9 1.2 0.8 6.4 3.4 13.4 7.7 6.9 4.4 23 9.5 31.6 11.7 8.6 2.2 30.9 3.3 37.3 3.3 6.5-0.1 20.5-0.8 22-1 1.5-0.3 15.2-0.8 22.3-1.7 7.2-0.9 27.5-4.6 32.2-5.8 4.7-1.2 7.2 1.8 9.5 5.6 2.3 3.8 13.5 33.7 13.5 33.7v189.5z"/>
			<path id="&lt;Path&gt;" class="s6" d="m556.9 999.8c0 0-176.8-63.4-177.4-65-0.6-1.5-0.6-4.7-0.6-4.7 0 0 4.4-1.7 4.9-1.9 0.5-0.2 11.7-5.4 12.1-5.6 0.4-0.1 286.8 11.2 286.8 11.2 0 0 18.5 5.8 22.7 6.9 4.2 1.2 3.2 3.4-0.3 6.3z"/>
			<path id="&lt;Path&gt;" class="s3" d="m527.8 1100.6c-0.2 0.4-0.7 2.3-1.6 2.1-0.9-0.1-148.3-45.8-149.3-46.4-1-0.5-1.4-2-1.5-2.2 0-0.2 0-115.3 0-115.3 0 0 0.1-4.4 0.4-5.8 0.3-1.4 2.2-0.7 2.2-0.7 0.1 0.1 147.5 44.5 147.5 44.5 0 0 1.1 0.3 2.1 0.6 1 0.3 0.6 2.9 0.6 2.9v118.6c0 0-0.2 1.3-0.4 1.7z"/>
			<path id="&lt;Path&gt;" class="s5" d="m710.4 1059.1c-0.1 1-1.4 2.6-2 2.7-0.6 0-179.1 40.9-179.1 40.9 0 0-0.9-0.4-1.1-0.8-0.2-0.3 0.2-122.3 0.2-122.3l1.1-2 177.6-35h2.8l0.1 3.5v110.4c0 0 0.4 1.6 0.4 2.6z"/>
			<path id="&lt;Path&gt;" class="s3" d="m528.6 957.6c-0.3 0.4 0.6 9.1-0.3 9-1-0.2-147.3-43.3-148.3-43.9-1-0.5-3.5-0.4-3.6-0.6 0-0.2 0-126.3 0-126.3 0 0-0.6-2.7-0.3-4 0.3-1.4 1.6-1.1 1.7-1.1 0.1 0.1 147.7 43.4 147.7 43.4 0 0 1.9 0.8 2.8 1 1 0.3 0.6 2.6 0.6 2.6v118.3c0 0-0.1 1.2-0.3 1.6z"/>
			<path id="&lt;Path&gt;" class="s5" d="m705.4 918c-0.1 1-0.6 12.1-1.2 12.1-0.6 0.1-174.7 35.9-174.7 35.9 0 0-1.1-6.9-1.3-7.2-0.2-0.3 0.2-122.4 0.2-122.4l1.1-1.3 175.1-37.5 0.5 2v3.7 110.5c0 0 0.3 3.2 0.3 4.2z"/>
			<path id="&lt;Path&gt;" class="s1" d="m593.3 308.2c0 0-12.3 2.6-16.8 6.5-4.5 3.9-8.5 14-10.3 20.2-1.8 6.3-3 20.6-3 20.6v185.5c0 0-0.2 31.1 0 34.5 0.2 3.4-0.2 3.7-2.2 4-2.1 0.2-22.4 2.1-29.1 1.9-6.7-0.1-23.6-2-24.9-2.3-1.3-0.3-2.2-2.6-2.2-2.6v-213.4c0 0 0-24.8 0.1-27.5 0-2.8 0.2-13.6 2.2-20.2 1.9-6.6 4.6-13.2 7.1-18.2 2.5-5.1 8.3-12.6 13.9-18.8 5.6-6.3 19.4-13.3 22-14.4 2.6-1.1 13.6-5 16.7-6 3-1 27.9-7.3 28.9-7.6 1.1-0.2 43.6-9.2 44.3-9.4 0.7-0.1 2.7 0.4 2.7 0.4 0 0 0.1 51.3 0 53.5-0.2 2.1-0.6 3.4-3.6 4.3z"/>
			<path id="&lt;Path&gt;" class="s4" d="m715.1 211c-3.6 1-4.8 0.2-8.3-0.4-3.5-0.6-140.3-41.5-142-42-1.7-0.5-2-1.6-0.8-2.6 1.1-1 167.4-37.6 169.4-38.1 2-0.4 3-0.3 5.3 0.1 2.4 0.4 142.2 43 143.5 43.4 1.3 0.5 0.8 2.1-1 2.5 0 0-162.5 36.1-166.1 37.1z"/>
			<path id="&lt;Path&gt;" class="s7" d="m728.8 277.1c0 29.7-6.7 40.4-17.8 48.2-11.1 7.7-68 13.4-80.9 26.2-12.8 12.8-13.1 77.5-13.1 77.5l-53.9-16.8-0.1-16.2c0 0 0-27.5 0-31.6 0-4.1 2-21.6 2.9-28.3 0.9-6.8 7-15.7 7.9-17.7 1-2 5.1-6 7.4-7.2 2.2-1.3 22.3-5.4 25.1-6.4 2.8-1 29.6-5.7 33.4-6.4 3.8-0.8 2-2.1 2.4-6.6 0.4-4.4 1-11.2 0.4-18.3-0.7-7.2 1.3-27.9-0.3-30.8-1.5-2.9-12.8-0.7-17.4 0.2-4.5 1-14.9 4-23.6 5.4-8.7 1.5-35.4 10.4-38.3 10.9-2.8 0.5-3.1 0.4-3.9 0-0.8-0.5 0.6-89.1 0.8-90.1 0.2-1.1 0.7-1.2 2.1-1.3 1.3-0.1 147.2 43.1 147.2 43.1 0 0 3.1 2.5 6.8 3 0 0 12.9 33.5 12.9 63.2z"/>
			<path id="&lt;Path&gt;" class="s8" d="m711 323.1c0 0 0.1-107.2 0.4-109.3 0.2-2.1 1.1-2.7 2.1-3.2 0.9-0.6 167.7-36.7 167.7-36.7 0 0 1.5-0.4 2.8-0.6 1.2-0.3 2.8 0.6 2.8 0.6l-0.4 115z"/>
			<path id="&lt;Path&gt;" class="s5" d="m614.1 531.1c0 1.9-1.3 3-2.2 2.8-0.9-0.3-44.2-14.3-46.2-15-2.1-0.6-2.7-1.5-2.7-2.6 0-1.2 0-100.9 0-103.7 0-2.8 1.4-2.4 1.8-2.3 0.4 0.1 43.5 14 45.8 14.8 2.4 0.8 3.2 1.2 3.5 3.5 0 0 0 100.6 0 102.5z"/>
			<path id="&lt;Path&gt;" class="s5" d="m711.9 764.5c0 0 0 1 0 3.7 0.1 2.7-1.6 2.3-1.6 2.3l-66.5-19.9c0 0-5.2-0.9-7.4-1.8-2.1-0.8-1.8-1.8-2-4-0.2-2.2 0-115.7 0-118 0-2.2 1.2-3.4 1.8-3.2 0.6 0.1 3.7 1.4 8.4 0.9 4.7-0.6 64-12.6 66-12.9 2-0.3 0.6 0 1.3 2.5z"/>
			<path id="&lt;Path&gt;" class="s6" d="m1024.7 774.5l16.7 6.2-3 2c0 0-170.2 37.3-170.4 37.5-0.2 0.2-4.2-0.6-4.2-0.6 0 0-150.2-48.1-150.7-48.3-0.5-0.1-1.2-2.6-1.2-2.8 0-0.3 0-155.3 0-155.3 0 0-0.3-2.3 2.3-2.9 2.7-0.5 155.6-32.3 155.6-32.3 0 0 1.2 0.2 1.4 1.1 0.1 1 0.7 30.7 0.7 30.7z"/>
			<path id="&lt;Path&gt;" class="s4" d="m1047.2 649.6c0 0 0.4 120.5 0.4 121.4 0 0.8-0.1 1.8-0.9 2-0.8 0.2-23.2 5-23.2 5 0 0-154.6 33.5-154.8 33.6-0.3 0-3.6 0.3-4.5 0-0.9-0.3-4.2-1.4-4.2-1.4l-139.3-44.3c0 0-1.1-1-1.1-2.4 0-1.4 0-2 0-2l0.2-120c0 0 0.7-0.4 2.3-0.3 1.5 0.2 1.5 0.2 1.5 0.2 0 0 139.2 42.2 139.4 42.3 0.3 0.1 0.2 0.2 2 0.3 1.7 0.2 4.1-0.2 5.6-0.5 1.5-0.2 172.1-35.5 173.7-35.8 1.6-0.3 2.9-0.5 2.9 1.9z"/>
			<path id="&lt;Path&gt;" class="s4" d="m874.5 682.7c0 0-1.4 0.5-4.1 0.8-2.7 0.2-4.4 0.9-6 0.4-1.5-0.5-133.7-40.4-133.7-40.4 0 0-1.8-0.5-5.1-1.8-3.3-1.4-2.9-2.3-2-2.5 0.9-0.2 166.4-38.6 166.4-38.6 0 0 1.8-0.4 2.8-0.7 0.9-0.4 1.5 0.3 1.7 0.4 0.3 0 147.5 45 147.5 45 0 0 3.8 1.2 2.3 2.4z"/>
			<path id="&lt;Path&gt;" class="s3" d="m710 1059v-114.9c0 0 1.3-1.7-0.9-2.3-2.2-0.7-21.3-5.8-21.3-5.8 0 0-0.7-1.9 0.9-2.2 1.6-0.3 15.3-3.2 15.3-3.2l1.1-1v-130.9c0 0-1.5-1.9-2.9-2.7-1.4-0.8-1.4-0.8-1.4-0.8l-64.4-20.1c0 0-1.6 0.7-2-3.4-0.4-4.2 0-22.7 0-22.7 0 0 0.4-1 1.8-0.6 1.5 0.4 2 0.6 2 0.6 0 0 223.7 70 223.9 70.1 0.2 0 4 2.8 3.9 3.5-0.1 0.6 0 2.1 0 2.1v280.8c0 0-1.3 1-1.8 0.9-0.6-0.1-3-1-3-1l-149.3-43.3-2-1z"/>
			<path id="&lt;Path&gt;" class="s4" d="m1044.3 1063.4c0 0 0 0.6 0 1.7 0 1.1-1.1 1.4-1.2 1.4-0.1 0-172.7 39.9-172.7 39.9 0 0-1.3 0.9-2.7 0.8-1.3-0.1-2-1.7-2-1.7v-283.1l1.7-2.5c0 0 173.7-37.6 175.2-37.6 1.6 0 1.7 0.4 1.7 1.1z"/>
			<path id="&lt;Path&gt;" class="s8" d="m1101.7 1070.9c5.5 4.6 11.7 1.5 11.7 5.2 0 3.7 0 45.7 0 49.3 0 3.6-1 10-2.5 12.4-1.4 2.5-6.2 6.8-7.9 8.1-1.7 1.4-10.6 3.1-14 3.9-3.4 0.8-11.2 3.1-11.2 3.1l-344.1 78.5c0 0-22.4 4.6-30.9 6-8.5 1.5-12.8 1.2-18.8 1.8-6 0.6-15.9 0.2-21.2-0.5-5.3-0.6-10.4-1.6-13-2.3-2.6-0.8-7.7-2.4-7.7-2.4 0 0-37-11.1-37.2-11.2-0.2-0.1-277.8-83.9-277.8-83.9 0 0-8-3.3-11.9-5-3.8-1.6-8.4-8.4-8.7-11.6-0.3-3.1 0.3-10.8 0.3-10.8v-50.1c0 0 1.1-0.7 2.3 0 1.3 0.8 3 1.3 3 1.3 0 0 120 27.3 159.6 38.7 39.7 11.5 72.6 21 131.3 14.3 58.8-6.7 229.9 8.6 279.5-0.6 49.5-9.1 219.2-44.2 219.2-44.2z"/>
			<path id="&lt;Path&gt;" class="s7" d="m1044.5 1046c1.6-2.1 0.9-2.6 3.4-2.2 2.4 0.5 52.9 16.5 55.2 17.5 2.3 0.9 8.2 2.1 9.2 5 0.9 2.9 0.6 7-1.1 9.7-1.7 2.7-6.4 5.6-9.2 6.4-2.9 0.8-13.9 3.6-13.9 3.6l-49.4 10.6-79.8 17.6-83.9 18.5-75.2 16.7c0 0-67.3 13.5-75.7 15.3-8.5 1.8-16.1 2.4-27.6 4.2-11.5 1.7-24.3 1.1-30.6 0.6-6.3-0.5-16.5-2.1-23-4.1-6.5-2-17.9-5.4-17.9-5.4l-122.6-36.9-183.4-56.8c0 0-9.8-4.8-10.7-6.1-0.9-1.3-3.2-8.7 3.5-11.1 6.8-2.4 16.3-5.4 16.3-5.4l47.3-10.7v22.9l150.6 46.6 3.6 0.7 177.6-41.6c0 0 6.5 1 8.2 1.5 1.7 0.5 146.9 42.8 146.9 42.8 0 0 3.7 1.7 8.7 0.6 5-1.1 8.1-1.8 8.1-1.8 0 0 161.2-37.8 161.7-37.9 0.4-0.1 3.5-0.7 3.5-3.8 0-3.1 0-6.3 0-6.3z"/>
			<g id="&lt;Group&gt;">
				<path id="&lt;Path&gt;" class="s2" d="m297.8 968.4c0 8.6-7 15.5-15.5 15.5-8.6 0-15.6-6.9-15.6-15.5 0-8.6 7-15.6 15.6-15.6 8.5 0 15.5 7 15.5 15.6z"/>
				<path id="&lt;Path&gt;" class="s2" d="m244.6 980.5c0 8.6-7 15.5-15.6 15.5-8.5 0-15.5-6.9-15.5-15.5 0-8.6 7-15.6 15.5-15.6 8.6 0 15.6 7 15.6 15.6z"/>
				<path id="&lt;Path&gt;" class="s2" d="m244.6 980.5v-74.5l53.2-12.5v74.9"/>
				<path id="&lt;Path&gt;" class="s2" d="m244.6 926.5l53.2-11.9"/>
			</g>
			<g id="&lt;Group&gt;">
				<path id="&lt;Path&gt;" class="s2" d="m1186.6 635.1c0 8.6-6.9 15.6-15.5 15.6-8.6 0-15.6-7-15.6-15.6 0-8.6 7-15.5 15.6-15.5 8.6 0 15.5 6.9 15.5 15.5z"/>
				<path id="&lt;Path&gt;" class="s2" d="m1133.4 647.2c0 8.6-7 15.5-15.5 15.5-8.6 0-15.6-6.9-15.6-15.5 0-8.6 7-15.6 15.6-15.6 8.5 0 15.5 7 15.5 15.6z"/>
				<path id="&lt;Path&gt;" class="s2" d="m1133.4 647.2v-74.5l53.2-12.5v74.9"/>
				<path id="&lt;Path&gt;" class="s2" d="m1133.4 593.2l53.2-11.8"/>
			</g>
			<path id="&lt;Path&gt;" class="s2" d="m1044.3 1042.7c0 0 26.8 8.6 55.4 17.4 17.5 5.4 15 12.5 10.4 17.2-3 3-6.8 5-11 5.9-37.8 8.4-314.3 69.6-365.9 80.1-33.8 6.9-56.5 7.2-69 6.5-6-0.4-11.9-1.5-17.7-3.3-43.7-13.3-310.1-94.4-327.5-100.2-19-6.5-12-15.3-5.6-18 6.4-2.6 62.5-15.5 62.5-15.5"/>
			<path id="&lt;Path&gt;" class="s2" d="m1113.4 1071.2c0 0 0 3.7 0 37.9 0 9.8-0.3 16.9-0.7 22-0.6 8.1-6.4 14.7-14.2 16.5-59.9 13.9-336.2 77.9-377.9 86.7-46.9 9.9-70.3 2.2-70.3 2.2 0 0-292.1-88.2-320-96.6-28-8.4-23.5-16.2-23.5-25.8 0-9.6 0-56.9 0-56.9"/>
			<path id="&lt;Path&gt;" class="s2" d="m710 1061.5l-181.8 41.7-152.8-47.3v-124.5l14.7-5.6-13.7-4.1v-130.6l71.7-16.7v-196.4c0-7 3.3-13.6 9.1-17.5 8.1-5.5 22.6-11.7 48-13.6"/>
			<path id="&lt;Path&gt;" class="s2" d="m376.4 791.1l152.5 44 176.2-38.2v133.5l-176.2 36.2-138.8-40.8"/>
			<path id="&lt;Path&gt;" class="s2" d="m711.9 610.8v160.2l153.8 49.2 178.6-38.8v284.6l-177.4 41.2-156.9-45.7v-119.4l-181.7 35.5-152.9-46.2"/>
			<path id="&lt;Path&gt;" class="s2" d="m893.2 599.9l154.4 47.1v125.8l-181.6 39.4-146.4-46.9v-125.1z"/>
			<path id="&lt;Path&gt;" class="s2" d="m719.6 640.2l146.4 44.2v127.8"/>
			<path id="&lt;Path&gt;" class="s2" d="m866 684.4l181.6-37.4"/>
			<path id="&lt;Path&gt;" class="s2" d="m865.7 820.2v287"/>
			<path id="&lt;Path&gt;" class="s2" d="m528.2 1103.2v-125.6"/>
			<path id="&lt;Path&gt;" class="s2" d="m528.9 966.6v-130.3"/>
			<path id="&lt;Path&gt;" class="s2" d="m705.1 796.9l-70.7-22.5"/>
			<path id="&lt;Path&gt;" class="s2" d="m634.4 812.2c0-28 0-189.2 0-189.2"/>
			<path id="&lt;Path&gt;" class="s2" d="m448.2 774.5c0 0 0 33 0 37.3"/>
			<path id="&lt;Path&gt;" class="s2" d="m613.4 586.2c-22.6 6.8-69.8 12.5-105.5 7.3-35.7-5.2-58.4-23.1-58.4-23.1"/>
			<path id="&lt;Path&gt;" class="s2" d="m563 561.6c0 0 4-0.4 10 4 4.8 3.5 1 11.4-7.1 13.3-12.1 2.8-42.4 3.5-55.1 1-9.3-1.9-17.1-3.9-17.7-8.7-0.9-7 12-9.2 12-9.2"/>
			<path id="&lt;Path&gt;" class="s2" d="m710 942.1l-25.3-7.5"/>
			<path id="&lt;Path&gt;" class="s2" d="m711.9 771l-77.5-23.2"/>
			<path id="&lt;Path&gt;" class="s2" d="m1044.3 781.4l-16.8-4.2"/>
			<path id="&lt;Path&gt;" class="s8" d="m643.4 624.5c-7.8 0-15-3-20.6-8.5-5.6-5.5-8.7-12.9-8.7-20.8v-230.2c0-13.8 9.9-25.9 23.5-28.6l298.8-60.8q2.9-0.6 5.8-0.6c16.2 0 29.3 13.2 29.3 29.3v228.7c0 13.8-9.8 25.9-23.3 28.7l-298.8 62.1q-3 0.7-6 0.7 0 0 0 0z"/>
			<path id="&lt;Path&gt;" class="s2" d="m643.4 624.5c-7.8 0-15-3-20.6-8.5-5.6-5.5-8.7-12.9-8.7-20.8v-230.2c0-13.8 9.9-25.9 23.5-28.6l298.8-60.8q2.9-0.6 5.8-0.6c16.2 0 29.3 13.2 29.3 29.3v228.7c0 13.8-9.8 25.9-23.3 28.7l-298.8 62.1q-3 0.7-6 0.7 0 0 0 0z"/>
			<path id="&lt;Path&gt;" class="s7" d="m955.5 304.3v228.7c0 6.3-4.4 11.7-10.6 13l-298.8 62.2c-8.2 1.7-16-4.6-16-13v-230.2c0-6.3 4.5-11.7 10.6-13l298.9-60.7c8.2-1.7 15.9 4.6 15.9 13z"/>
			<path id="&lt;Path&gt;" class="s2" d="m955.5 304.3v228.7c0 6.3-4.4 11.7-10.6 13l-298.8 62.2c-8.2 1.7-16-4.6-16-13v-230.2c0-6.3 4.5-11.7 10.6-13l298.9-60.7c8.2-1.7 15.9 4.6 15.9 13z"/>
			<path id="&lt;Path&gt;" class="s2" d="m613.4 426l-50.4-16.3"/>
			<path id="&lt;Path&gt;" class="s2" d="m613.4 534.3l-50.4-16.2"/>
			<path id="&lt;Path&gt;" class="s2" d="m711 211.4l-151.7-44.4 176.9-39.7 150.2 45.4z"/>
			<path id="&lt;Path&gt;" class="s2" d="m559.3 167v93.2"/>
			<path id="&lt;Path&gt;" class="s2" d="m711 211.4v108.7"/>
			<path id="&lt;Path&gt;" class="s2" d="m886.4 172.7v111.5"/>
			<path id="&lt;Path&gt;" class="s2" d="m505.2 578.3v-227.5c0 0 0-7.1 0-21.6 0-18.8 13.3-51.4 42.3-64.1 29-12.7 95-24.5 95-24.5 0 0 0 0 0 57.2 0 0-47.7 9.2-59.5 13.1-11.7 3.8-20 20.3-20 56.9 0 36.5 0 211.7 0 211.7"/>
			<path id="&lt;Path&gt;" class="s2" d="m913.3 439.1v49.9"/>
			<path id="&lt;Path&gt;" class="s2" d="m886.4 417.9v76.4"/>
			<path id="&lt;Path&gt;" class="s2" d="m859.5 452.3v47.4"/>
			<path id="&lt;Path&gt;" class="s2" d="m832.5 485.9v19.1"/>
			<path id="&lt;Path&gt;" class="s2" d="m805.6 409.4v101"/>
			<path id="&lt;Path&gt;" class="s2" d="m778.7 447.4v68.3"/>
			<path id="&lt;Path&gt;" class="s2" d="m751.8 442.1v79"/>
			<path id="&lt;Path&gt;" class="s2" d="m724.8 490.6v35.8"/>
			<path id="&lt;Path&gt;" class="s2" d="m697.9 455.8v75.9"/>
			<path id="&lt;Path&gt;" class="s2" d="m671 476v61.1"/>
			<path id="&lt;Path&gt;" class="s2" d="m692.8 377.6c-0.9-4.6 2.2-9.3 6.8-10.6 4.7-1.4 9.2 1.2 10.1 5.8 0.9 4.5-2.2 9.2-6.8 10.6-4.7 1.3-9.2-1.3-10.1-5.8z"/>
			<path id="&lt;Path&gt;" class="s2" d="m663.8 382.4c-0.9-4.5 2.2-9.2 6.8-10.6 4.7-1.3 9.2 1.3 10.1 5.8 0.9 4.6-2.2 9.3-6.8 10.6-4.7 1.4-9.2-1.2-10.1-5.8z"/>
			<path id="&lt;Path&gt;" class="s2" d="m871.6 604.9v-27.3"/>
			<path id="&lt;Path&gt;" class="s2" d="m673.4 1239.4v-69.4"/>
			<path id="&lt;Path&gt;" class="s2" d="m563 546.9c0 0 29.2 1.5 51.1 17.3"/>
			<path id="&lt;Path&gt;" class="s3" d="m1070 949.9c0 3.5-2.8 6.3-6.3 6.3-3.4 0-6.2-2.8-6.2-6.3 0-3.5 2.8-6.3 6.2-6.3 3.5 0 6.3 2.8 6.3 6.3z"/>
			<path id="&lt;Path&gt;" class="s3" d="m361.7 977.6c0 3.5-2.8 6.3-6.2 6.3-3.5 0-6.3-2.8-6.3-6.3 0-3.5 2.8-6.3 6.3-6.3 3.4 0 6.2 2.8 6.2 6.3z"/>
			<path id="&lt;Path&gt;" class="s3" d="m319.1 472c0 3.5-2.8 6.3-6.3 6.3-3.5 0-6.3-2.8-6.3-6.3 0-3.4 2.8-6.2 6.3-6.2 3.5 0 6.3 2.8 6.3 6.2z"/>
			<path id="&lt;Path&gt;" class="s3" d="m1144.2 499.7c0 3.4-2.8 6.2-6.2 6.2-3.5 0-6.3-2.8-6.3-6.2 0-3.5 2.8-6.3 6.3-6.3 3.4 0 6.2 2.8 6.2 6.3z"/>
			<path id="&lt;Path&gt;" class="s5" d="m395.9 694.7c0 5.9-4.8 10.7-10.7 10.7-5.9 0-10.7-4.8-10.7-10.7 0-5.9 4.8-10.7 10.7-10.7 5.9 0 10.7 4.8 10.7 10.7z"/>
		</g>
	</g>
</svg>