<svg version="1.2" xmlns="http://www.w3.org/2000/svg" viewBox="0 0 1400 1400" width="1400" height="1400">
	<title>Audio Sourcing (1)-ai</title>
	<style>
		.s0 { fill: #fff8e1 } 
		.s1 { fill: #ffffff } 
		.s2 { fill: #ffcf44 } 
		.s3 { fill: none;stroke: #000000;stroke-linecap: round;stroke-linejoin: round;stroke-width: 2.6 } 
		.s4 { fill: #fc6140 } 
		.s5 { fill: #ffe8ad } 
	</style>
	<g id="Layer 1">
		<g id="&lt;Group&gt;">
			<path id="&lt;Path&gt;" class="s0" d="m79.1 1086.2c0 0-93.7-160-57.4-341.5 36.2-181.4 286.5-159.7 519.8-274.9 233.3-115.2 454.1-53.4 687 88.1 232.9 141.5 0 528.3 0 528.3z"/>
			<g id="&lt;Group&gt;">
				<path id="&lt;Path&gt;" class="s1" d="m543.9 1048.2l31.3-70.9 11.5-11 88.6 3.6 29.7 68.2 0.9 5v2.8z"/>
				<path id="&lt;Path&gt;" class="s2" d="m242.6 458.4h768.8c22.4 0 40.6 18.2 40.6 40.6v435.7c0 22.4-18.2 40.6-40.6 40.6h-768.8c-22.4 0-40.6-18.2-40.6-40.6v-435.7c0-22.4 18.2-40.6 40.6-40.6z"/>
				<path id="&lt;Path&gt;" class="s3" d="m242.6 458.4h768.8c22.4 0 40.6 18.2 40.6 40.6v435.7c0 22.4-18.2 40.6-40.6 40.6h-768.8c-22.4 0-40.6-18.2-40.6-40.6v-435.7c0-22.4 18.2-40.6 40.6-40.6z"/>
				<path id="&lt;Path&gt;" class="s4" d="m271 486.5h717.2c15.3 0 27.7 12.4 27.7 27.6v316.2c0 15.3-12.4 27.7-27.7 27.7h-717.2c-15.3 0-27.7-12.4-27.7-27.7v-316.2c0-15.2 12.4-27.6 27.7-27.6z"/>
				<path id="&lt;Path&gt;" class="s3" d="m1052 884.1h-850"/>
				<path id="&lt;Path&gt;" class="s3" d="m271 486.5h717.2c15.3 0 27.7 12.4 27.7 27.6v316.2c0 15.3-12.4 27.7-27.7 27.7h-717.2c-15.3 0-27.7-12.4-27.7-27.7v-316.2c0-15.2 12.4-27.6 27.7-27.6z"/>
				<path id="&lt;Path&gt;" class="s4" d="m647.9 930.6c0 11.5-9.4 20.8-20.9 20.8-11.5 0-20.9-9.3-20.9-20.8 0-11.5 9.4-20.9 20.9-20.9 11.5 0 20.9 9.4 20.9 20.9z"/>
				<path id="&lt;Path&gt;" class="s3" d="m647.9 930.6c0 11.5-9.4 20.8-20.9 20.8-11.5 0-20.9-9.3-20.9-20.8 0-11.5 9.4-20.9 20.9-20.9 11.5 0 20.9 9.4 20.9 20.9z"/>
				<g id="&lt;Group&gt;">
					<path id="&lt;Path&gt;" class="s3" d="m678 975.3l27.9 64.8"/>
					<path id="&lt;Path&gt;" class="s3" d="m576 975.3l-27.9 64.8"/>
				</g>
				<path id="&lt;Path&gt;" class="s4" d="m399.2 1086.2c0-25.5 20.6-46.1 46-46.1h363.6c25.4 0 46 20.6 46 46.1h-455.6z"/>
				<path id="&lt;Path&gt;" class="s3" d="m399.2 1086.2c0-25.5 20.6-46.1 46-46.1h363.6c25.4 0 46 20.6 46 46.1h-455.6z"/>
				<g id="&lt;Group&gt;">
					<path id="&lt;Path&gt;" class="s3" d="m948.8 666v32.6"/>
					<path id="&lt;Path&gt;" class="s3" d="m913.4 656.4v52.3"/>
					<path id="&lt;Path&gt;" class="s3" d="m877.9 666.3v32.6"/>
					<path id="&lt;Path&gt;" class="s3" d="m842.4 666.3v32.6"/>
					<path id="&lt;Path&gt;" class="s3" d="m807 646.7v71.7"/>
					<path id="&lt;Path&gt;" class="s3" d="m771.5 603v159.1"/>
					<path id="&lt;Path&gt;" class="s3" d="m736 666.3v32.6"/>
					<path id="&lt;Path&gt;" class="s3" d="m700.6 651.4v62.3"/>
					<path id="&lt;Path&gt;" class="s3" d="m665.1 666.3v32.6"/>
					<path id="&lt;Path&gt;" class="s3" d="m629.6 666.3v32.6"/>
					<path id="&lt;Path&gt;" class="s3" d="m594.2 666.3v32.6"/>
					<path id="&lt;Path&gt;" class="s3" d="m558.7 656.8v51.5"/>
					<path id="&lt;Path&gt;" class="s3" d="m523.2 643.5v78.1"/>
					<path id="&lt;Path&gt;" class="s3" d="m487.8 656.8v51.5"/>
					<path id="&lt;Path&gt;" class="s3" d="m452.3 666.3v32.6"/>
					<path id="&lt;Path&gt;" class="s3" d="m416.8 666.3v32.6"/>
					<path id="&lt;Path&gt;" class="s3" d="m381.4 674.3v16.5"/>
					<path id="&lt;Path&gt;" class="s3" d="m345.9 666.3v32.6"/>
					<path id="&lt;Path&gt;" class="s3" d="m310.4 666.3v32.6"/>
				</g>
			</g>
			<g id="&lt;Group&gt;">
				<path id="&lt;Path&gt;" class="s1" d="m822.8 377.6h563.9v375.1c0 21-17.1 38.1-38.1 38.1h-487.7c-21 0-38.1-17.1-38.1-38.1z"/>
				<path id="&lt;Path&gt;" class="s3" d="m822.8 377.6h563.9v375.1c0 21-17.1 38.1-38.1 38.1h-487.7c-21 0-38.1-17.1-38.1-38.1z"/>
				<g id="&lt;Group&gt;">
					<path id="&lt;Path&gt;" class="s3" d="m1302.7 420.9v326.6"/>
					<g id="&lt;Group&gt;">
						<path id="&lt;Path&gt;" class="s2" d="m1346.4 526.5c0 24.1-19.6 43.6-43.7 43.6-24.1 0-43.7-19.5-43.7-43.6 0-24.2 19.6-43.7 43.7-43.7 24.1 0 43.7 19.5 43.7 43.7z"/>
						<path id="&lt;Path&gt;" class="s3" d="m1346.4 526.5c0 24.1-19.6 43.6-43.7 43.6-24.1 0-43.7-19.5-43.7-43.6 0-24.2 19.6-43.7 43.7-43.7 24.1 0 43.7 19.5 43.7 43.7z"/>
						<path id="&lt;Path&gt;" class="s5" d="m1321 526.5c0 10.1-8.2 18.3-18.3 18.3-10.1 0-18.3-8.2-18.3-18.3 0-10.2 8.2-18.4 18.3-18.4 10.1 0 18.3 8.2 18.3 18.4z"/>
						<path id="&lt;Path&gt;" class="s3" d="m1321 526.5c0 10.1-8.2 18.3-18.3 18.3-10.1 0-18.3-8.2-18.3-18.3 0-10.2 8.2-18.4 18.3-18.4 10.1 0 18.3 8.2 18.3 18.4z"/>
					</g>
					<path id="&lt;Path&gt;" class="s3" d="m1170.7 420.9v326.6"/>
					<g id="&lt;Group&gt;">
						<path id="&lt;Path&gt;" class="s2" d="m1214.4 646.5c0 24.1-19.5 43.6-43.7 43.6-24.1 0-43.6-19.5-43.6-43.6 0-24.2 19.5-43.7 43.6-43.7 24.2 0 43.7 19.5 43.7 43.7z"/>
						<path id="&lt;Path&gt;" class="s3" d="m1214.4 646.5c0 24.1-19.5 43.6-43.7 43.6-24.1 0-43.6-19.5-43.6-43.6 0-24.2 19.5-43.7 43.6-43.7 24.2 0 43.7 19.5 43.7 43.7z"/>
						<path id="&lt;Path&gt;" class="s5" d="m1189.1 646.5c0 10.1-8.2 18.3-18.4 18.3-10.1 0-18.3-8.2-18.3-18.3 0-10.2 8.2-18.4 18.3-18.4 10.2 0 18.4 8.2 18.4 18.4z"/>
						<path id="&lt;Path&gt;" class="s3" d="m1189.1 646.5c0 10.1-8.2 18.3-18.4 18.3-10.1 0-18.3-8.2-18.3-18.3 0-10.2 8.2-18.4 18.3-18.4 10.2 0 18.4 8.2 18.4 18.4z"/>
					</g>
					<path id="&lt;Path&gt;" class="s3" d="m1038.8 420.9v326.6"/>
					<g id="&lt;Group&gt;">
						<path id="&lt;Path&gt;" class="s2" d="m1082.5 586.5c0 24.1-19.6 43.6-43.7 43.6-24.1 0-43.7-19.5-43.7-43.6 0-24.2 19.6-43.7 43.7-43.7 24.1 0 43.7 19.5 43.7 43.7z"/>
						<path id="&lt;Path&gt;" class="s3" d="m1082.5 586.5c0 24.1-19.6 43.6-43.7 43.6-24.1 0-43.7-19.5-43.7-43.6 0-24.2 19.6-43.7 43.7-43.7 24.1 0 43.7 19.5 43.7 43.7z"/>
						<path id="&lt;Path&gt;" class="s5" d="m1057.1 586.5c0 10.1-8.2 18.3-18.3 18.3-10.1 0-18.3-8.2-18.3-18.3 0-10.2 8.2-18.4 18.3-18.4 10.1 0 18.3 8.2 18.3 18.4z"/>
						<path id="&lt;Path&gt;" class="s3" d="m1057.1 586.5c0 10.1-8.2 18.3-18.3 18.3-10.1 0-18.3-8.2-18.3-18.3 0-10.2 8.2-18.4 18.3-18.4 10.1 0 18.3 8.2 18.3 18.4z"/>
					</g>
					<path id="&lt;Path&gt;" class="s3" d="m906.8 420.9v326.6"/>
					<g id="&lt;Group&gt;">
						<path id="&lt;Path&gt;" class="s2" d="m950.5 526.5c0 24.1-19.5 43.6-43.7 43.6-24.1 0-43.6-19.5-43.6-43.6 0-24.2 19.5-43.7 43.6-43.7 24.2 0 43.7 19.5 43.7 43.7z"/>
						<path id="&lt;Path&gt;" class="s3" d="m950.5 526.5c0 24.1-19.5 43.6-43.7 43.6-24.1 0-43.6-19.5-43.6-43.6 0-24.2 19.5-43.7 43.6-43.7 24.2 0 43.7 19.5 43.7 43.7z"/>
						<path id="&lt;Path&gt;" class="s5" d="m925.1 526.5c0 10.1-8.1 18.3-18.3 18.3-10.1 0-18.3-8.2-18.3-18.3 0-10.2 8.2-18.4 18.3-18.4 10.2 0 18.3 8.2 18.3 18.4z"/>
						<path id="&lt;Path&gt;" class="s3" d="m925.1 526.5c0 10.1-8.1 18.3-18.3 18.3-10.1 0-18.3-8.2-18.3-18.3 0-10.2 8.2-18.4 18.3-18.4 10.2 0 18.3 8.2 18.3 18.4z"/>
					</g>
				</g>
				<path id="&lt;Path&gt;" class="s4" d="m860.9 313.8h487.7c21 0 38.1 17.1 38.1 38.1v25.7h-563.9v-25.7c0-21 17.1-38.1 38.1-38.1z"/>
				<path id="&lt;Path&gt;" class="s3" d="m860.9 313.8h487.7c21 0 38.1 17.1 38.1 38.1v25.7h-563.9v-25.7c0-21 17.1-38.1 38.1-38.1z"/>
			</g>
			<g id="&lt;Group&gt;">
				<path id="&lt;Path&gt;" class="s3" d="m149.7 601.3c0 8.6-7 15.6-15.6 15.6-8.6 0-15.6-7-15.6-15.6 0-8.6 7-15.5 15.6-15.5 8.6 0 15.6 6.9 15.6 15.5z"/>
				<path id="&lt;Path&gt;" class="s3" d="m96.4 613.4c0 8.6-6.9 15.5-15.5 15.5-8.6 0-15.6-6.9-15.6-15.5 0-8.6 7-15.6 15.6-15.6 8.6 0 15.5 7 15.5 15.6z"/>
				<path id="&lt;Path&gt;" class="s3" d="m96.4 613.4v-74.5l53.3-12.4v74.8"/>
				<path id="&lt;Path&gt;" class="s3" d="m96.4 559.4l53.3-11.8"/>
			</g>
			<g id="&lt;Group&gt;">
				<path id="&lt;Path&gt;" class="s3" d="m1212.9 903c0 8.6-7 15.5-15.5 15.5-8.6 0-15.6-6.9-15.6-15.5 0-8.6 7-15.6 15.6-15.6 8.5 0 15.5 7 15.5 15.6z"/>
				<path id="&lt;Path&gt;" class="s3" d="m1159.7 915c0 8.6-7 15.6-15.6 15.6-8.5 0-15.5-7-15.5-15.6 0-8.6 7-15.5 15.5-15.5 8.6 0 15.6 6.9 15.6 15.5z"/>
				<path id="&lt;Path&gt;" class="s3" d="m1159.7 915v-74.4l53.2-12.5v74.9"/>
				<path id="&lt;Path&gt;" class="s3" d="m1159.7 861l53.2-11.8"/>
			</g>
			<path id="&lt;Path&gt;" class="s3" d="m1295.1 1086.2h-1270.4"/>
		</g>
	</g>
</svg>