<svg version="1.2" xmlns="http://www.w3.org/2000/svg" viewBox="0 0 1600 1200" width="1600" height="1200">
	<title>Autonomous Vehicle-ai</title>
	<style>
		.s0 { fill: #00a4a7 } 
		.s1 { fill: #ffffff } 
		.s2 { fill: #362d46 } 
		.s3 { fill: #000000 } 
		.s4 { fill: #fc6140 } 
		.s5 { fill: #362d32 } 
		.s6 { fill: #6b545d } 
		.s7 { fill: #a39497 } 
		.s8 { fill: #3c3438 } 
		.s9 { fill: none;stroke: #000000;stroke-linecap: round;stroke-linejoin: round;stroke-width: 5.2 } 
		.s10 { fill: #8d7e83 } 
		.s11 { fill: #e0bd9b } 

.w1{
  transform-box: fill-box;
  transform-origin: top;
  animation: fade-in-bottom 3s linear infinite ;;
}
		@keyframes fade-in-bottom {
  0% {
    -webkit-transform: translateY(50px);
            transform: translateY(50px);
    opacity: 0;
  }
  100% {
    -webkit-transform: translateY(0);
            transform: translateY(0);
    opacity: 1;
  }
}
.w2{
  transform-box: fill-box;
  transform-origin: center;
  animation: wheel 3s linear infinite;}
  @keyframes wheel {
   from{
      transform: rotate(0deg);
    }
    to{
      transform: rotate(360deg);
    }
  }
.w3{
  transform-box: fill-box;
  transform-origin: top;
  animation: cloud 3s linear infinite ;;
}
  @keyframes cloud {
  0%{
    transform: translateX(10px);
  }
  50%{
    transform: translateX(50px);
  }
  100%{
    transform: translateX(100px);
  }
}
	</style>
	<g id="Layer 1">
		<g id="&lt;Group&gt;">
			<path id="&lt;Path&gt;" class="s0" d="m1600 1200h-1600v-1200h1600z"/>
		</g>
		<g id="&lt;Group&gt;">
			<path id="&lt;Path&gt;" class="s1" d="m150 959.6q-74-475.2 264.4-522.6 314-44 383.5 137.7 115.1-265.9 417.4-162.6 340 116.2 182.6 547.5z"/>
			<g id="&lt;Group&gt;">
				<path id="&lt;Path&gt;" class="s2" d="m778.1 886.6q-30.3 73.2-90.1 73.2-37.4 0-52.1 0c-14.8 0-63.6-1.9-89.3-73.2"/>
				<path id="&lt;Path&gt;" class="s3" d="m679.6 949.1q-11.7 7.8-18.5 8.6c-6.8 0.7-24.1 0.3-37-1.1-12.9-1.4-29.4-5.9-40-12.7-10.5-6.7-10.4-12.3-16.4-20-6-7.8-16.4-25.5-19-31.2q-2.6-5.8 1.2-4.7 56.7-0.5 65.9 0c9.3 0.4 106.3 0 109.6 0 3.3 0 4 3 1.6 8.9-2.4 5.9-15.8 23.4-22.2 32.1z"/>
				<path id="&lt;Path&gt;" class="s2" d="m1402.8 888q-31.4 49.9-48.2 60.4c-16.7 10.5-41.8 11.4-60.3 11.4-18.5 0-50 0.1-73.2-9.8q-22.7-9.7-48.5-62"/>
				<path id="&lt;Path&gt;" class="s3" d="m1303.1 949.1q-11.4 7.8-18 8.6c-6.7 0.7-23.5 0.3-36-1.1-12.6-1.4-28.7-5.9-39-12.7-10.2-6.7-10.1-12.3-16-20-5.8-7.8-15.9-25.5-18.5-31.2q-2.5-5.8 1.2-4.7 55.2-0.5 64.2 0c9 0.4 103.5 0 106.7 0 3.2 0 3.9 3 1.5 8.9-2.3 5.9-13.8 23.4-20 32.1z"/>
				<path id="&lt;Path&gt;" class="s4" d="m901.9 959.8q-76.6 0-100.4-73.2h-349.7c-27.8 40.6-27.1 73.2-122.4 73.2q-95.4 0-109.7-74.5-31.3 0-48.2-40.8 0-112.1 0-158.3 0-46.1 46.8-46.8c100.6-125.7 306.4-142.7 333.5-142.7 27.2 0 231 0 288 0 57.1 0 112.8 5.5 128.4 11.6q15.6 6.1 210.6 111.4 100.5 21.7 175.9 38c75.4 16.3 102.5 83.6 102.5 100.5 0 17 0 33.3 0 80.9q0 47.5-31.9 48.9h-392.6c-35.5 61.2-54.3 71.8-130.8 71.8z"/>
				<path id="&lt;Path&gt;" class="s5" d="m1443.1 857.4h-355.2q-12.6-1-15.3-1.1c-2.6-0.1-6.7 1.3-3.1-3.1 3.6-4.4 30-15.4 37.1-17.1q7.1-1.7 31.2-1.9 313.5 0 313.9 0c0.4 0 5.3-2 5 3.9-0.2 5.9 0.3 9.4-0.2 12.6-0.5 3.3-2.3 6.2-4.7 6.7q-2.4 0.4-8.7 0z"/>
				<path id="&lt;Path&gt;" class="s5" d="m1156 620.2q-343.3 0.5-343.9 0c-0.6-0.6-8.5 1.3-15.1-7.1-6.7-8.5-54.6-68.5-56.7-72.9-2-4.4-5.8-10.8-4.6-14.5 1.3-3.6 3.8-8.1 7.7-11q4-2.8 14.9-2.4 194.6 0.8 203.6 0.6c9-0.2 17-0.5 25.8 5 8.8 5.4 172.7 91.9 178 94.7 5.3 2.9 6 5.3 3.9 6.2q-2.1 0.9-13.6 1.4z"/>
				<path id="&lt;Path&gt;" class="s6" d="m759.6 880.8q0 5.5-8.5 5.8l-147-1q-143.9 1-148.2 1c-4.4 0-8.5-1.6-8.8-5.6-0.3-4.1-3.4-51.8-2.6-56.1 0.7-4.4 4.5-3.9 6.3-4.2 1.8-0.3 297.3 16 303.5 16.6 6.1 0.6 5.3 8 5.7 9q0.4 1.1 0 22.2-0.4 6.8-0.4 12.3z"/>
				<path id="&lt;Path&gt;" class="s7" d="m1428.1 715q-10.7 39.4-13.3 42.7c-2.7 3.4-0.3 3.3-7.4 7.3-7.2 4.1-17.5 5-21.2 5q-3.7 0-54.7-0.9h-71.3q-9.4 1.6-15.4-2.3c-6-3.9-13.8-15-16.5-21.1-2.7-6.2-19.8-30.7-21.3-33.2-1.5-2.5-4.8-8.6-2.1-8.6q2.6 0 217.1-1.3 8.9 2.4 8.3 4.5-0.6 2-2.2 7.9z"/>
				<path id="&lt;Path&gt;" class="s3" d="m444.9 871.2q2 6.9 2.6 14.6c0.5 7.6-6.3 14.7-8.4 18.6-2.1 3.9-14.3 24.7-18.7 29.7-4.3 4.9-22 15.3-34.8 19.7-12.8 4.5-39.2 3.9-47 2.8-7.9-1-43.2-0.5-50.7-2.4-7.4-2-23.2-8.4-28.9-13.5-5.8-5-15.9-13.3-21.7-20-5.8-6.7-12.1-19.6-14.5-28.9-2.4-9.2-7.2-4.7-12.5-7.8-5.3-3.1-7.2-1.8-13.7-4.5-6.5-2.8-11.1-12.6-16.3-19.3-5.1-6.8-4.7-13.1-4.7-21.9 0-8.8-0.4-25.4 2.2-35.4 2.6-9.9 11.8-32.8 15.6-39.6 3.8-6.7 23.4-30.9 33-37.5 9.6-6.6 30.8-18.1 42.5-22.4 11.6-4.3 29.5-7 42.4-7.2 12.9-0.1 45.6 8.2 56.5 13.5 10.9 5.4 33.2 21.9 38.7 29.1 5.4 7.3 16.3 19 20.7 28.4 4.4 9.4 10.9 25.9 12.2 30.8 1.4 4.8 6.1 45.5 5.4 49.1z"/>
				<path id="&lt;Path&gt;" class="s3" d="m1031.3 883.6c-0.8 5.4-2.7 11.4-3.9 13.4-1.2 2-12.1 15.9-14.5 19.8-2.5 3.9-11 17.9-20.4 25.9-9.4 7.9-50.1 15.4-54.4 16.1-4.2 0.6-36 3.1-51.4 0-15.3-3.2-27-6.3-41.9-14.8-14.9-8.6-15.7-12.8-23.4-22.7-7.6-9.9-14.1-26.5-16.9-30.6-2.7-4-7.7-4.1-13.6-5-5.8-0.8-17.6 0.9-24.2 0.9-6.7 0-7.1-2.2-7.5-4.3-0.3-2.1 0.4-9.7 1.3-19.4 1-9.7-2.2-33.3-0.9-44.1 1.3-10.9 0.9-9.9 5-23.5 4-13.7 8.7-22.8 12.1-29.3 3.4-6.5 9.3-14.3 13.2-19.3 3.8-5 16.6-17 24.1-23.1 7.6-6 16.7-10.5 27.5-15.7 10.9-5.2 30.2-7.1 38.7-8.7 8.6-1.6 31.3-0.8 41.6 0.9 10.3 1.8 24.8 7.8 30.6 10.5 5.9 2.6 15 8.4 26.3 16.6 11.3 8.2 28.7 32.2 30.6 35.2 1.9 3.1 10.7 22 14.8 34.9 4.1 13 6.6 63.4 7.2 71q0.7 10 0 15.3z"/>
				<path id="&lt;Path&gt;" class="s8" d="m955.4 933.1c-2.5 2.5-15 13.5-22.4 17.4-7.4 4-19.5 7.2-32.1 7.2-12.7 0-28.6-2-40-5-11.4-3-18.5-10.2-28-19.3-9.6-9.1-23.6-26.9-27.1-33-3.5-6.2-5.9-16.9-7.9-23-2.1-6.2-0.5-30.3 0-41.6 0.5-11.3 9.2-35.2 13.1-43.9 3.9-8.6 10.6-18.5 19.5-26.8 8.9-8.3 19.7-13.1 32.7-18.4 13-5.2 26.5-8.6 46.1-4 19.6 4.7 38.7 17.5 49.5 26.4 10.8 8.9 19.4 25.5 24.9 40q5.5 14.5 6.6 43.3-1.7 17.5-4.1 28.5c-2.4 10.9-14.6 34.3-24 45q-4.2 4.6-6.8 7.2z"/>
				<path id="&lt;Path&gt;" class="s8" d="m219.7 885.3c-11.2-80.2 21.8-126.7 68.3-139.5 46.6-12.9 113.5 15.2 117 95.7q3.8 89.8-73.4 118.3-21.8-0.1-35.8-4.7c-14.1-4.6-32.3-10.1-36.8-13.8-4.5-3.7-24.2-23.4-26.9-28.1-2.7-4.7-8.2-14.6-9.7-19q-1.5-4.4-2.7-8.9z"/>
				<path id="&lt;Path&gt;" class="s9" d="m901.9 959.8q-76.6 0-100.4-73.2h-349.7c-27.8 40.6-27.1 73.2-122.4 73.2q-95.4 0-109.7-74.5-31.3 0-48.2-40.8 0-112.1 0-158.3 0-46.1 46.8-46.8c100.6-125.7 306.4-142.7 333.5-142.7 27.2 0 231 0 288 0 57.1 0 112.8 5.5 128.4 11.6q15.6 6.1 210.6 111.4 100.5 21.7 175.9 38c75.4 16.3 102.5 83.6 102.5 100.5 0 17 0 33.3 0 80.9q0 47.5-31.9 48.9h-392.6c-35.5 61.2-54.3 71.8-130.8 71.8z"/>
				<path id="&lt;Path&gt;" class="s9" d="m1402.8 888q-31.4 49.9-48.2 60.4c-16.7 10.5-41.8 11.4-60.3 11.4-18.5 0-50 0.1-73.2-9.8q-22.7-9.7-48.5-62"/>
				<path id="&lt;Path&gt;" class="s9" d="m1352.6 888q-12.7 47.7-68.3 71.7"/>
				<path id="&lt;Path&gt;" class="s9" d="m778.1 886.6q-30.3 73.2-90.1 73.2-37.4 0-52.1 0c-14.8 0-63.6-1.9-89.3-73.2"/>
				<path id="&lt;Path&gt;" class="s9" d="m728.4 886.6q-11.7 47.4-71.5 73.2"/>
				<ellipse id="&lt;Path&gt;" class="s10 w2" cx="309.9" cy="851.6" rx="57.9" ry="67.9"/>
				<path id="&lt;Path&gt;" class="s9" d="m219.7 885.3c-11.2-80.2 21.8-126.7 68.3-139.5 46.6-12.9 113.5 15.2 117 95.7q3.8 89.8-73.4 118.3"/>
				<ellipse id="&lt;Path&gt;" class="s9" cx="309.9" cy="851.6" rx="57.9" ry="67.9"/>
				<ellipse id="&lt;Path&gt;" class="s10 w2" cx="893.4" cy="851.6" rx="57.9" ry="67.9"/>
				<ellipse id="&lt;Path&gt;" class="s9" cx="893.4" cy="851.6" rx="57.9" ry="67.9"/>
				<path id="&lt;Path&gt;" class="s9" d="m759.6 886.6v-54.8c0-74.3 60.2-134.5 134.5-134.5 74.2 0 134.5 60.2 134.5 134.5l4.1 56.2"/>
				<path id="&lt;Path&gt;" class="s9" d="m174.7 851.3v-19.5c0-74.3 60.2-134.5 134.5-134.5 74.3 0 134.5 60.2 134.5 134.5l4.2 60"/>
				<path id="&lt;Path&gt;" class="s9" d="m801.5 886.6q-6.8-4.6-1.8-54.9c7.4-75.1 74-95.9 103.4-91.1 29.4 4.9 90.5 37.1 87.1 114q-3.4 76.8-70.8 103.1"/>
				<path id="&lt;Path&gt;" class="s9" d="m174.7 667.3q697.1 2.8 721.4 3.5c24.4 0.7 111.2 12.3 140.5 62.5q35.8 61.3 25.2 153.3"/>
				<path id="&lt;Path&gt;" class="s9" d="m1201.9 703.9l31.7 52.9c4.6 7.6 12.8 12.3 21.7 12.3h138.4c11.3 0 21.2-7.5 24.3-18.4l13.2-46.8h-401q-34.1-29.2-70.9-41.2-36.9-12-133.9-13.6l-86.4-109.4c-8.7-11.1-0.8-27.4 13.3-27.4h224.3"/>
				<path id="&lt;Path&gt;" class="s11" d="m1129.7 703.9l53.2 37.7c5.4 3.9 2.7 12.4-4 12.4h-87.8c-1.7 0-3.3-0.6-4.6-1.7l-53.8-48.4z"/>
				<path id="&lt;Path&gt;" class="s9" d="m1129.7 703.9l53.2 37.7c5.4 3.9 2.7 12.4-4 12.4h-87.8c-1.7 0-3.3-0.6-4.6-1.7l-53.8-48.4z"/>
				<path id="&lt;Path&gt;" class="s11" d="m1260.2 789.9h142.6v33.7h-142.6z"/>
				<path id="&lt;Path&gt;" class="s9" d="m1260.2 789.9h142.6v33.7h-142.6z"/>
				<path id="&lt;Path&gt;" class="s9" d="m1178.8 619.7h-376.6"/>
				<path id="&lt;Path&gt;" class="s5" d="m668.2 507.5c11.8 0 23 5.5 30.3 14.8l78.2 101.2h-235l41.9-116z"/>
				<path id="&lt;Path&gt;" class="s5" d="m560.8 507.5l-41.1 116h-251.8q78.1-67.3 146.5-88 68.4-20.7 146.4-28z"/>
				<path id="&lt;Path&gt;" class="s9" d="m668.2 507.5c11.8 0 23 5.5 30.3 14.8l78.2 101.2h-235l41.9-116z"/>
				<path id="&lt;Path&gt;" class="s9" d="m560.8 507.5l-41.1 116h-251.8q78.1-67.3 146.5-88 68.4-20.7 146.4-28z"/>
				<path id="&lt;Path&gt;" class="s11" d="m735.8 645.7c-6.4 0-11.6-5.2-11.6-11.7v-1.4h-57c-6.4 0-11.7-5.3-11.7-11.7v-34.6c0-6.4 5.3-11.6 11.7-11.6h45.4q28.1 0 34.9 39.3v20c0 6.5-5.2 11.7-11.7 11.7z"/>
				<path id="&lt;Path&gt;" class="s9" d="m735.8 645.7c-6.4 0-11.6-5.2-11.6-11.7v-1.4h-57c-6.4 0-11.7-5.3-11.7-11.7v-34.6c0-6.4 5.3-11.6 11.7-11.6h45.4q28.1 0 34.9 39.3v20c0 6.5-5.2 11.7-11.7 11.7z"/>
				<path id="&lt;Path&gt;" class="s9" d="m759.6 837.3l-316.3-16.6"/>
				<path id="&lt;Path&gt;" class="s9" d="m1063.3 857.4q22.8-23.2 62.8-23.2 39.9 0 331.1 0"/>
				<path id="&lt;Path&gt;" class="s9" d="m1454.2 857.4h-390.9"/>
				<path id="&lt;Path&gt;" class="s9" d="m1508 959.8h-1456.2"/>
			</g>
			<path id="&lt;Path&gt;" class="s1 w3" d="m318.5 375.7q-1.1-40.3 34.9-33.6-3-30.7 26.8-33.1 29.7-2.4 36 27 28.3-14.4 35.8 16 35.8-11.1 39.7 23.7z"/>
			<path id="&lt;Path&gt;" class="s1 w3" d="m1331.5 432.7q-1.1-40.3 34.9-33.6-3-30.7 26.8-33.1 29.7-2.4 36 27 28.3-14.4 35.8 16 35.8-11.1 39.7 23.7z"/>
			<g id="&lt;Group&gt;">
				<circle id="&lt;Path&gt;" class="s1 w1" cx="788.7" cy="395.6" r="27.7"/>
				<g id="&lt;Group&gt;">
					<path id="&lt;Compound Path&gt;" class="s1 w1" d="m881.9 285l-13 22.5c-23.6-13.6-51-21.5-80.2-21.5-29.2 0-56.6 7.9-80.2 21.5l-13-22.5c27.4-15.9 59.3-25 93.2-25 34 0 65.8 9.1 93.2 25z"/>
				</g>
				<g id="&lt;Group&gt;">
					<path id="&lt;Compound Path&gt;" class="s1 w1" d="m915 237.7l-17.6 22.5c-32-18.4-69.1-29.1-108.7-29.1-39.6 0-76.7 10.7-108.7 29.1l-17.6-22.4c37.2-21.6 80.3-33.9 126.3-33.9 46 0 89.2 12.3 126.3 33.8z"/>
				</g>
				<g id="&lt;Group&gt;">
					<path id="&lt;Compound Path&gt;" class="s1 w1" d="m857.3 330.8l-13.1 22.8c-17.3-6.4-36-9.9-55.5-9.9-19.5 0-38.2 3.5-55.5 9.9l-13.1-22.8c21.2-8.4 44.4-13 68.6-13 24.3 0 47.4 4.6 68.6 13z"/>
				</g>
			</g>
		</g>
	</g>
</svg>