<svg version="1.2" xmlns="http://www.w3.org/2000/svg" viewBox="0 0 800 800" width="800" height="800">
	<title>Bounding Box-ai</title>
	<style>
		.s0 { fill: #fff8e1 } 
		.s1 { fill: #ffd740 } 
		.s2 { fill: none;stroke: #000000;stroke-linecap: round;stroke-linejoin: round;stroke-width: 5.2 } 
	</style>
	<g id="Layer 1">
		<g id="&lt;Group&gt;">
			<path id="&lt;Path&gt;" class="s0" d="m610.5 203.6v407.4h-421v-422h421z"/>
			<g id="&lt;Group&gt;">
				<path id="&lt;Path&gt;" class="s1" d="m652.5 231.1h-84v-84.1h84z"/>
			</g>
			<g id="&lt;Group&gt;">
				<path id="&lt;Path&gt;" class="s1" d="m231.5 231.1h-84v-84.1h84z"/>
			</g>
			<g id="&lt;Group&gt;">
				<path id="&lt;Path&gt;" class="s1" d="m652.5 653h-84v-84.1h84z"/>
			</g>
			<g id="&lt;Group&gt;">
				<path id="&lt;Path&gt;" class="s1" d="m231.5 653h-84v-84.1h84z"/>
			</g>
			<g id="&lt;Group&gt;">
				<path id="&lt;Path&gt;" class="s1" d="m652.5 442h-84v-84h84z"/>
			</g>
			<g id="&lt;Group&gt;">
				<path id="&lt;Path&gt;" class="s1" d="m231.5 442h-84v-84h84z"/>
			</g>
			<g id="&lt;Group&gt;">
				<path id="&lt;Path&gt;" class="s1" d="m442 147.5v84h-84v-84z"/>
			</g>
			<g id="&lt;Group&gt;">
				<path id="&lt;Path&gt;" class="s1" d="m442 568.5v84h-84v-84z"/>
			</g>
			<path id="&lt;Path&gt;" class="s2" d="m358 189.1h-126.5"/>
			<path id="&lt;Path&gt;" class="s2" d="m189.5 568.9v-126.9"/>
			<path id="&lt;Path&gt;" class="s2" d="m568.5 610.1h-126.5"/>
			<path id="&lt;Path&gt;" class="s2" d="m610.5 358v-126.9"/>
			<path id="&lt;Path&gt;" class="s2" d="m610.5 568.9v-126.9"/>
			<path id="&lt;Path&gt;" class="s2" d="m358 610.1h-126.5"/>
			<path id="&lt;Path&gt;" class="s2" d="m189.5 358v-126.9"/>
			<path id="&lt;Path&gt;" class="s2" d="m568.5 189.1h-126.5"/>
			<path id="&lt;Path&gt;" class="s2" d="m652.5 231.1h-84v-84.1h84z"/>
			<path id="&lt;Path&gt;" class="s2" d="m231.5 231.1h-84v-84.1h84z"/>
			<path id="&lt;Path&gt;" class="s2" d="m652.5 653h-84v-84.1h84z"/>
			<path id="&lt;Path&gt;" class="s2" d="m231.5 653h-84v-84.1h84z"/>
			<path id="&lt;Path&gt;" class="s2" d="m652.5 442h-84v-84h84z"/>
			<path id="&lt;Path&gt;" class="s2" d="m231.5 442h-84v-84h84z"/>
			<path id="&lt;Path&gt;" class="s2" d="m442 147.5v84h-84v-84z"/>
			<path id="&lt;Path&gt;" class="s2" d="m442 568.5v84h-84v-84z"/>
			<path id="&lt;Path&gt;" class="s2" d="m400 336.6v126.8"/>
			<path id="&lt;Path&gt;" class="s2" d="m336.6 400h126.8"/>
		</g>
	</g>
</svg>