<svg width="1410" height="1344" viewBox="0 0 1410 1344" fill="none" xmlns="http://www.w3.org/2000/svg">
<ellipse id="Ellipse 1" cx="705" cy="672" rx="705" ry="672" fill="#FF7F27"/>
<g id="Characters-Half 1">
<g id="Layer 1">
<g id="&#60;Group&#62;">
<path id="&#60;Path&#62;" d="M537 516.7C537 516.7 528.3 487.3 526.5 480.2C524.7 473 515.6 427.8 515 423.3C514.4 418.8 511.3 400.8 511.1 394.1C511 387.4 515.1 374.7 518.2 366.2C521.3 357.7 533.6 335.7 537.8 329.2C541.9 322.8 550.9 313.3 556.9 305.2C562.9 297 581.3 282.3 593.1 276C604.9 269.6 613 266 625.9 263C638.7 260.1 665.8 254 675.8 253.9C685.8 253.7 716.5 253.6 734.9 256.4C753.4 259.2 777.3 269.2 777.3 269.2C777.3 269.2 816.9 292.3 828.8 298.6C840.8 305 848.4 311.5 856.1 317.3C863.9 323.1 882.7 344.6 885.6 352.3C888.5 359.9 889.6 362.5 891.2 373.8C892.9 385.1 893.8 409.4 894.1 423.6C894.3 437.8 887.8 475.6 886 490.1C884.2 504.5 880.8 514.8 879.3 526.1L537 516.7Z" fill="#362D46"/>
<path id="&#60;Path&#62;_2" d="M857.2 499.3C857.5 502.3 859.4 504.6 862.9 505.3C866.4 505.9 866.3 506.3 871.1 509.4C875.9 512.5 883 520.5 884.9 524.2C886.8 527.8 888.7 537.1 888.7 544.1C888.8 551.1 886.6 557.3 883.1 564.6C879.6 572 870.2 580.6 863.3 582.1C856.4 583.6 855 592.4 855 592.4C855 592.4 850.2 625.1 847 634.9C843.8 644.8 841.4 652.6 838.9 658C836.4 663.4 831.8 671.9 826.6 678.7C821.4 685.6 794 707.8 785.4 711.9C776.8 716 745.9 735.6 736.2 738.6C726.4 741.6 709.3 746.2 695.6 744.1C681.9 741.9 676.2 739.5 663.2 733.8C650.2 728 632.7 717.1 626.4 713.1C620.1 709.1 604.2 698.3 594.7 690.2C585.3 682.1 573.8 664.4 570.5 659C567.2 653.6 566 648.9 562.6 637.4C559.2 625.8 555.4 595.9 554.8 589.6C554.1 583.2 548.9 584.2 542.2 580.7C535.6 577.3 538.3 577.1 531.5 571.1C524.6 565.1 519.1 549.6 519.1 542.3C519.1 535.1 526.4 519.7 529.9 515.1C533.3 510.4 543.7 506.5 547.8 504.9C551.8 503.3 551.2 499.9 550.2 495.2C549.1 490.4 546.6 473.1 544.9 464.7C543.3 456.2 545.2 437.8 546.9 426.7C548.6 415.6 553 399.5 555.2 394.6C557.4 389.8 566.4 378.6 573.6 373.2C580.8 367.8 597.9 360.5 607.7 357.8C617.4 355.1 625.2 356.9 637.9 356.5C650.6 356.1 666.9 364.2 675.9 368.6C684.9 373 694.9 376.6 704.2 374.5C713.5 372.4 733.8 365.2 740.2 363.2C746.5 361.2 757.5 358.2 773.1 356.7C788.7 355.1 801.3 359.9 812.4 365.1C823.5 370.3 831.9 384.9 835.5 391.3C839.1 397.6 842.3 404.8 847.3 415.9C852.3 427 855.5 454.7 855.8 456.7C856.1 458.8 857.8 488 857.6 492.6C857.6 492.6 856.9 496.3 857.2 499.3V499.3Z" fill="#FFF8E1"/>
<path id="&#60;Path&#62;_3" d="M814.5 742.9C815.1 748.4 821 766.8 828.1 771.5C835.2 776.1 854.8 794.5 854.5 839C854.2 883.4 789.8 924.2 713.2 938.6C636.7 953.1 622.9 881 613.3 871.1C603.7 861.3 594.9 839.1 593.2 831.9C591.6 824.7 589.4 813.8 589.4 813.8C589.4 813.8 591.3 782.7 592.1 778.5C593 774.3 593.9 748.8 594 747.7C594.1 746.6 597.4 702.8 597.5 697.6C597.5 692.4 601 694 604.1 695.9C607.2 697.9 621.6 710.6 621.6 710.6C621.6 710.6 650.1 728.1 655.7 730.8C661.3 733.4 679.2 739.3 685.2 741.6C691.2 743.8 707.9 746 713.7 744.7C719.5 743.5 748.7 733.3 754 730.1C759.4 726.8 783.8 713 787.8 710.3C791.8 707.6 804.9 697.4 807.3 694.9C809.7 692.4 812.2 698.1 812.2 698.1L814.3 725.2C814.3 725.2 813.8 737.4 814.5 742.9V742.9Z" fill="#FFF8E1"/>
<path id="&#60;Path&#62;_4" d="M264.6 1013.1C264.6 1013.1 197.6 1013.6 194 1013.1C190.4 1012.6 190.9 1011.5 193.3 1005.8C195.6 1000.1 199.6 992.4 204.1 984C208.5 975.6 226.9 949.5 233.7 939.9C240.6 930.2 262.5 904.3 267.3 900.6C272.2 896.8 302.9 869.9 306.8 867C310.6 864.2 328.7 852.2 335 847.6C341.2 842.9 381 825.5 399.1 818.1C417.2 810.6 471.8 792.1 471.8 792.1L536.5 773.1C536.5 773.1 583.7 761.3 588.2 760.2C592.7 759.2 592.7 764.2 592.1 772.5C591.4 780.8 591.3 784.1 590.5 791.6C589.7 799.1 589.4 813.9 590.5 823.2C591.7 832.5 595.6 844.9 597.9 850.4C600.1 855.9 611.3 871.2 617.5 876.8C623.6 882.5 656.5 907.4 656.5 907.4C656.5 907.4 677.6 920.8 685.9 924.4C694.3 928 700 931.3 709.3 930.5C718.7 929.6 722.9 926.3 732.4 920.8C741.8 915.3 769.7 895.7 774 892.3C778.3 888.9 787.8 882.2 795.4 872.6C802.9 863 815.2 842 816.1 837.3C817 832.7 820.7 824.3 821 817.8C821.3 811.4 818.3 768.3 818.3 764.5C818.4 760.7 819.8 760.2 821 759.8C822.2 759.4 856.2 768.6 879.7 774.9C903.2 781.1 946.5 794.9 981.7 807C1016.9 819.1 1070.5 845.9 1093 859.9C1115.4 873.9 1151.9 910.2 1161.4 920.6C1170.8 931 1194.4 963.3 1197.3 969.4C1200.2 975.5 1218.3 1008.4 1218.3 1008.4C1218.3 1008.4 1220.4 1013.1 1214.2 1014.2L264.6 1013.1Z" fill="#00BBD6"/>
<path id="&#60;Path&#62;_5" d="M1296.4 1013.1H113.6" stroke="black" stroke-width="5.2" stroke-linecap="round" stroke-linejoin="round"/>
<path id="&#60;Path&#62;_6" d="M811.7 691.4L818.6 781.4C818.6 781.4 830.6 828.8 800.9 866.1C781.3 890.8 745.6 913.4 723.8 925.8C712.1 932.4 697.9 932.4 686.2 925.8C664.4 913.4 628.7 890.8 609.1 866.1C579.4 828.8 591.4 781.4 591.4 781.4L598.3 691.4" stroke="black" stroke-width="5.2" stroke-linecap="round" stroke-linejoin="round"/>
<path id="&#60;Path&#62;_7" d="M857 549.7C857 549.7 858 606.6 844 648.9C830.1 691.2 744.8 744.7 705 744.7" stroke="black" stroke-width="5.2" stroke-linecap="round" stroke-linejoin="round"/>
<path id="&#60;Path&#62;_8" d="M705 744.7C665.2 744.7 579.9 691.2 566 648.9C552 606.6 553 549.7 553 549.7" stroke="black" stroke-width="5.2" stroke-linecap="round" stroke-linejoin="round"/>
<path id="&#60;Path&#62;_9" d="M856.6 504.4C856.6 504.4 880.1 503.9 887.6 531.7C895.1 559.5 873.3 582.5 856 583.8" stroke="black" stroke-width="5.2" stroke-linecap="round" stroke-linejoin="round"/>
<path id="&#60;Path&#62;_10" d="M553 583.8C535.7 582.5 513.9 559.5 521.3 531.7C528.8 503.9 552.3 504.4 552.3 504.4" stroke="black" stroke-width="5.2" stroke-linecap="round" stroke-linejoin="round"/>
<g id="&#60;Group&#62;_2">
<path id="&#60;Path&#62;_11" d="M552.3 504.4C552.3 504.4 520.7 389.6 588.2 364.5C655.7 339.4 680.2 384.7 711.9 373.2C743.6 361.6 808 333.7 836.6 393.4C865.2 453.2 856.6 504.4 856.6 504.4" stroke="black" stroke-width="5.2" stroke-linecap="round" stroke-linejoin="round"/>
<path id="&#60;Path&#62;_12" d="M534.8 510.6C534.8 510.6 505.2 412 512.2 384.3C518.3 360.4 538.5 314.5 582.4 282.7C626.4 250.9 731.8 240.2 794.2 277.8C856.5 315.4 894.1 332.8 894.1 395.4C894.1 458.1 880.4 516.7 880.4 516.7" stroke="black" stroke-width="5.2" stroke-linecap="round" stroke-linejoin="round"/>
</g>
<g id="&#60;Group&#62;_3">
<path id="&#60;Path&#62;_13" d="M707.8 587.9C698.8 587.9 691.5 580.6 691.5 571.6V533.1" stroke="black" stroke-width="5.2" stroke-linecap="round" stroke-linejoin="round"/>
<path id="&#60;Path&#62;_14" d="M673.2 606.8C673.2 606.8 697.4 627.4 728.2 606.8" stroke="black" stroke-width="5.2" stroke-linecap="round" stroke-linejoin="round"/>
<path id="&#60;Path&#62;_15" d="M764.5 513.3C764.5 519 759.8 523.7 754 523.7C748.3 523.7 743.6 519 743.6 513.3C743.6 507.5 748.3 502.8 754 502.8C759.8 502.8 764.5 507.5 764.5 513.3Z" fill="black"/>
<path id="&#60;Path&#62;_16" d="M646.3 513.3C646.3 519 641.6 523.7 635.8 523.7C630 523.7 625.4 519 625.4 513.3C625.4 507.5 630 502.8 635.8 502.8C641.6 502.8 646.3 507.5 646.3 513.3Z" fill="black"/>
<path id="&#60;Path&#62;_17" d="M597.9 507.6L549.8 480.6" stroke="black" stroke-width="5.2" stroke-linecap="round" stroke-linejoin="round"/>
<path id="&#60;Path&#62;_18" d="M791.9 510.8L857.8 483.6" stroke="black" stroke-width="5.2" stroke-linecap="round" stroke-linejoin="round"/>
<path id="&#60;Path&#62;_19" d="M783.4 455.6C783.4 455.6 758.3 442.7 724.7 458.4" stroke="black" stroke-width="5.2" stroke-linecap="round" stroke-linejoin="round"/>
<path id="&#60;Path&#62;_20" d="M606.4 455.6C606.4 455.6 631.5 442.7 665.2 458.4" stroke="black" stroke-width="5.2" stroke-linecap="round" stroke-linejoin="round"/>
<path id="&#60;Path&#62;_21" d="M791.9 513.3C791.9 534.2 775 551.2 754 551.2C733.1 551.2 716.1 534.2 716.1 513.3C716.1 492.3 733.1 475.4 754 475.4C775 475.4 791.9 492.3 791.9 513.3V513.3Z" stroke="black" stroke-width="5.2" stroke-linecap="round" stroke-linejoin="round"/>
<path id="&#60;Path&#62;_22" d="M673.7 513.3C673.7 534.2 656.7 551.2 635.8 551.2C614.9 551.2 597.9 534.2 597.9 513.3C597.9 492.3 614.9 475.4 635.8 475.4C656.7 475.4 673.7 492.3 673.7 513.3V513.3Z" stroke="black" stroke-width="5.2" stroke-linecap="round" stroke-linejoin="round"/>
</g>
<path id="&#60;Path&#62;_23" d="M816.9 759.2C816.9 759.2 940.5 785.7 1040.3 830.6C1175.5 891.4 1219.6 1013.1 1219.6 1013.1" stroke="black" stroke-width="5.2" stroke-linecap="round" stroke-linejoin="round"/>
<path id="&#60;Path&#62;_24" d="M190.3 1013.1C190.3 1013.1 234.3 891.4 369.6 830.6C469.3 785.7 592.9 759.2 592.9 759.2" stroke="black" stroke-width="5.2" stroke-linecap="round" stroke-linejoin="round"/>
<path id="&#60;Path&#62;_25" d="M886 558.6C886 558.6 882.1 547.1 872.5 538.7" stroke="black" stroke-width="5.2" stroke-linecap="round" stroke-linejoin="round"/>
<path id="&#60;Path&#62;_26" d="M523.5 558.6C523.5 558.6 527.5 547.1 537 538.7" stroke="black" stroke-width="5.2" stroke-linecap="round" stroke-linejoin="round"/>
<path id="&#60;Path&#62;_27" d="M720.5 495.6C720.5 495.6 692.6 484.6 669.3 495.6" stroke="black" stroke-width="5.2" stroke-linecap="round" stroke-linejoin="round"/>
</g>
</g>
</g>
</svg>
