<svg version="1.2" xmlns="http://www.w3.org/2000/svg" viewBox="0 0 300 300" width="300" height="300">
	<title>Characters-02-ai</title>
	<style>
		.s0 { fill: #362d46 } 
		.s1 { fill: none;stroke: #000000;stroke-linecap: round;stroke-linejoin: round;stroke-width: 1.5 } 
		.s2 { fill: #fc6140 } 
		.s3 { fill: #fff8e1 } 
		.s4 { fill: #000000 } 
	</style>
	<g id="Layer 1">
		<g id="&lt;Group&gt;">
			<path id="&lt;Path&gt;" class="s0" d="m188.7 168.2c-20.4 0-103-6.3-107.8-7.7-4.7-1.3-14.7-6.7-17.5-9.7-2.8-2.9-4.2-7.2-4.2-11.2-0.1-4 2.9-7.8 5-11.4 2-3.6 5-10.1 7.1-13.9q2.2-3.8 5.2-10 6.1-12.9 8-17.3c2-4.4 4.5-10 6-13.8 1.5-3.8 3.1-9.9 4.1-12.3 1-2.4 4.9-12.4 6.5-16.9 1.6-4.6 3.5-9.1 6.1-13.4 2.6-4.4 8.5-11.2 10.7-13 2.2-1.7 9.9-7.2 13-8.6 3.1-1.4 12.6-4.5 14.9-4.9 2.3-0.4 9.3-1.6 15.6-0.4 6.3 1.1 15.3 4.6 19 6.8 3.6 2.1 10.7 7.4 13.1 10.1 2.5 2.8 6.4 8.8 8.8 12.9 2.4 4.2 6.6 17.7 7.9 20.9 1.2 3.2 6.3 16.7 7.4 19.7 1.1 3 8.9 21.3 10.6 25.4 1.6 4 6.7 14.5 7.5 16.9 0.9 2.4 6.9 10.9 8.4 13.7 1.4 2.7 3.1 6.5 3.4 8.9 0.3 2.3-0.6 6.8-2.4 9.8-1.8 3-6.2 7.2-11.4 9.1q-24.6 10.3-45 10.3z"/>
			<path id="&lt;Path&gt;" class="s1" d="m128.9 134.2c-14.7 48.5-81.8 24.4-67.5-1 35-62 33.7-83 45.6-103.2q16.1-27.4 46.4-26.5"/>
			<path id="&lt;Path&gt;" class="s1" d="m153.4 3.5q30.4-0.9 46.5 26.5c11.8 20.2 10.6 41.2 45.6 103.2 14.3 25.4-53.1 49.5-67.7 1"/>
			<path id="&lt;Path&gt;" class="s2" d="m19.4 239.2q0-8.6 0.2-11.6c0.2-2.9 1.8-13.5 2.9-18.6 1.2-5.1 4.5-14.3 6.3-18.2 1.8-3.9 9.7-13.8 14.9-18.9 5.1-5.1 18.5-11.2 22.5-13.6 4-2.4 11.3-2.7 19-2.6 7.7 0.1 135.6-2.1 143.4-0.7 7.8 1.3 15.4 5.3 26.1 11.2 10.6 6 14.6 11.7 17.2 14.5 2.6 2.9 8.2 11 10.2 16.7 2 5.7 5.5 25.8 5.2 31.6-0.2 5.7 0 4.4 0 10.7z"/>
			<path id="&lt;Path&gt;" class="s3" d="m173.2 121c0.9 3.2 1.9 13.6 16.9 23.6 6.4 4.3 10.7 4.4 16.1 4.8 5.5 0.3 16.8 4 20.3 4.3 3.4 0.3 4.4 3.3 3.4 4.8-1 1.5-8.5 13.2-12 15.7-3.5 2.4-11.4 9.3-12.9 10.3-1.5 1.1-13.2 8.4-19.6 10.5-6.3 2-18.3 5-25.7 5.3-7.5 0.3-16-1.3-20.7-1.9-4.8-0.5-18.8-4.6-25.5-7.6-6.7-2.9-17.9-10.2-22.7-15.3-4.8-5-11.4-12.7-12.3-15.2-0.8-2.5-3.4-4.3 1.1-5.9 4.4-1.7 17.6-4.4 24.4-6 6.7-1.5 8.4-1.4 12.9-4.1 4.5-2.6 9.3-6.4 10.5-8.7 1.1-2.2 5.3-9.9 6.4-13.8 1.1-4 1.9-8.5 2.9-7.9 1 0.5 7.6 3.9 15.3 4.2 7.8 0.2 7.3 0.3 11.7-0.9 4.4-1.2 8.3-2 8.7-1q0.4 0.9 0.8 4.8z"/>
			<path id="&lt;Path&gt;" class="s3" d="m179.8 29.3q1.6 14.1 16.2 29 8 0.6 7.4 7.6-0.5 5-7.7 8.8c-1.6 22.4-18.7 51.5-50 45q-31.2-6.6-29.9-43.8-8.1-0.3-9.4-6.6-1.5-7.2 5.7-8.2 1.6-16.4 23-21.9 21.3-5.5 35.6-21.1l-9.1 25q6.5-0.2 18.2-13.8z"/>
			<path id="&lt;Path&gt;" class="s1" d="m179.8 29.3q1.6 14.1 16.2 29 8 0.6 7.4 7.6-0.5 5-7.7 8.8c-1.6 22.4-18.7 51.5-50 45q-31.2-6.6-29.9-43.8-8.1-0.3-9.4-6.6-1.5-7.2 5.7-8.2 1.6-16.4 23-21.9 21.3-5.5 35.6-21.1l-9.1 25q6.5-0.2 18.2-13.8z"/>
			<path id="&lt;Path&gt;" class="s1" d="m230.8 155q-22.9 48.6-80.8 44.7-57.8-3.9-74.2-44.7"/>
			<path id="&lt;Path&gt;" class="s1" d="m172.4 115.7c-0.3 15 12.5 31 29.3 33.1q17.5 2.1 31.1 6.8 29.8 9.9 42.9 30.2 13.1 20.3 11.6 53.9"/>
			<path id="&lt;Path&gt;" class="s1" d="m19.6 239.4q-1.5-33.3 11.6-53.6 13.1-20.3 42.9-30.2 13.6-4.7 31.1-6.8c16.8-2.1 29.6-18.5 29.3-33.5"/>
			<path id="&lt;Path&gt;" class="s1" d="m158.2 88c-2.7 0-4.9-2.2-4.9-4.9v-7.6"/>
			<path id="&lt;Path&gt;" class="s1" d="m147.9 98.4q7.2 6.1 16.3 0"/>
			<circle id="&lt;Path&gt;" class="s4" cx="171.9" cy="67.9" r="3.1"/>
			<circle id="&lt;Path&gt;" class="s4" cx="136.7" cy="67.9" r="3.1"/>
			<path id="&lt;Path&gt;" class="s1" d="m126.6 62.9l-13.2-5.6"/>
			<path id="&lt;Path&gt;" class="s1" d="m182.6 62.9l12.7-5.4"/>
			<path id="&lt;Path&gt;" class="s1" d="m160.4 68.1h-11.3"/>
			<path id="&lt;Path&gt;" class="s1" d="m180.7 50.7q-7.5-3.8-17.5 0.9"/>
			<path id="&lt;Path&gt;" class="s1" d="m128 50.7q7.5-3.8 17.5 0.9"/>
			<circle id="&lt;Path&gt;" class="s1" cx="171.9" cy="67.9" r="11.3"/>
			<circle id="&lt;Path&gt;" class="s1" cx="136.7" cy="67.9" r="11.3"/>
			<path id="&lt;Path&gt;" class="s1" d="m307.7 239.6h-315.4"/>
		</g>
	</g>
</svg>