<svg version="1.2" xmlns="http://www.w3.org/2000/svg" viewBox="0 0 1200 1200" width="300" height="300">
	<title>Characters-01 (2)-ai</title>
	<style>
		.s0 { fill: #362d46 } 
		.s1 { fill: none;stroke: #000000;stroke-linecap: round;stroke-linejoin: round;stroke-width: 5.2 } 
		.s2 { fill: #ffd740 } 
		.s3 { fill: #fff8e1 } 
		.s4 { fill: #000000 } 
		.s5 { fill: #ffffff } 
	</style>
	<g id="Layer 1">
		<g id="&lt;Group&gt;">
			<path id="&lt;Path&gt;" class="s0" d="m730.1 757.2c-68.6 0-346-21.3-362.1-25.8-16.1-4.5-49.6-22.8-59.1-32.6-9.4-9.9-13.8-24.3-14.1-37.8-0.2-13.5 10-26 16.8-38.2 6.8-12.2 16.9-34.1 24.1-46.8 7.2-12.8 17.2-33.5 17.2-33.5 0 0 20.8-43.3 27.2-58.1 6.4-14.8 14.8-33.8 19.9-46.4 5.2-12.7 10.5-33.2 13.9-41.3 3.4-8.1 16.5-41.6 21.8-56.9 5.3-15.4 11.7-30.5 20.5-45.1 8.8-14.7 28.6-37.5 36-43.5 7.3-5.9 33.1-24.3 43.6-28.9 10.4-4.7 42.4-15 50.1-16.4 7.8-1.4 31.1-5.4 52.4-1.6 21.3 3.8 51.4 15.6 63.8 22.9 12.3 7.2 35.9 24.9 44.2 34.2 8.3 9.3 21.4 29.4 29.5 43.3 8.1 13.9 22.2 59.2 26.4 70 4.2 10.8 21.3 56.3 24.9 66.3 3.7 10.1 29.8 71.6 35.5 85.2 5.7 13.6 22.6 48.8 25.5 56.8 3 8 23.1 36.7 28 46 4.9 9.3 10.5 22.1 11.5 29.9 1 7.9-2.2 23.1-8.2 33-6 10-20.8 24.1-38.1 30.7 0 0-82.7 34.6-151.2 34.6z"/>
			<path id="&lt;Path&gt;" class="s1" d="m529 642.8c-49.1 163.2-274.9 82.1-226.8-3.1 117.6-208.6 113.5-279.2 153.2-346.8 54.1-92.1 156.1-89.2 156.1-89.2"/>
			<path id="&lt;Path&gt;" class="s1" d="m611.5 203.7c0 0 102.1-2.9 156.2 89.2 39.7 67.6 35.6 138.2 153.2 346.8 48.1 85.2-178.3 166.3-227.5 3.1"/>
			<g id="&lt;Group&gt;">
				<path id="&lt;Path&gt;" class="s2" d="m161 995.6c0 0 0-28.7 0.7-38.7 0.7-10.1 6.1-45.7 10-62.8 3.9-17.1 15.1-47.9 21.1-61 6.1-13.1 32.4-46.4 49.9-63.4 17.4-17.1 62.2-37.8 75.7-45.9 13.5-8.1 38-9.1 63.9-8.7 25.8 0.5 455.5-6.9 481.8-2.4 26.2 4.5 51.7 18 87.6 37.9 35.8 19.9 49.1 39 57.9 48.7 8.7 9.6 27.7 36.8 34.3 55.9 6.5 19.1 18.5 86.8 17.6 106.1-0.9 19.4-0.1 14.8 0 36z"/>
			</g>
			<path id="&lt;Path&gt;" class="s3" d="m677.9 598.4c3 10.8 6.6 45.8 56.7 79.4 21.7 14.6 36 14.8 54.4 16.1 18.4 1.2 56.2 13.4 67.9 14.5 11.7 1.1 14.9 11.2 11.5 16.1-3.4 4.9-28.4 44.5-40.1 52.7-11.8 8.3-38.6 31.4-43.5 34.9-5 3.5-44.4 28.2-65.8 34.9-21.3 6.8-61.7 17.1-86.6 18-24.8 0.9-53.5-4.4-69.4-6.2-15.9-1.8-63.3-15.6-85.7-25.6-22.5-10-59.9-34.4-76.2-51.4-16.2-17-38.4-42.8-41.2-51.2-2.8-8.4-11.5-14.3 3.5-19.9 15-5.5 59.2-14.9 81.9-20 22.7-5 28.2-4.9 43.5-13.8 15.2-9 31.3-21.7 35.2-29.2 3.9-7.5 18-33.2 21.6-46.5 3.6-13.3 6.4-28.4 9.6-26.7 3.3 1.8 25.6 13.3 51.6 14.2 26 0.8 24.5 1.1 39.3-3 14.8-4 28-6.7 29.2-3.4 1.3 3.3 2.6 16.1 2.6 16.1z"/>
			<path id="&lt;Path&gt;" class="s3" d="m700.2 290.5c5.3 47.2 54.3 97.3 54.3 97.3 0 0 26.9 2.2 24.8 25.7-1.5 16.6-25.7 29.4-25.7 29.4-5.3 75.3-63 173-168 151.1-104.9-21.8-100.5-146.9-100.5-146.9 0 0-27.2-1.2-31.5-22.2-5-24.4 19.2-27.7 19.2-27.7 0 0 5.3-55.1 77-73.4 71.7-18.4 119.8-70.9 119.8-70.9l-30.6 84c21.9-0.9 61.2-46.4 61.2-46.4z"/>
			<path id="&lt;Path&gt;" class="s1" d="m700.2 290.5c5.3 47.2 54.3 97.3 54.3 97.3 0 0 26.9 2.2 24.8 25.7-1.5 16.6-25.7 29.4-25.7 29.4-5.3 75.3-63 173-168 151.1-104.9-21.8-100.5-146.9-100.5-146.9 0 0-27.2-1.2-31.5-22.2-5-24.4 19.2-27.7 19.2-27.7 0 0 5.3-55.1 77-73.4 71.7-18.4 119.8-70.9 119.8-70.9l-30.6 84c21.9-0.9 61.2-46.4 61.2-46.4z"/>
			<path id="&lt;Path&gt;" class="s1" d="m871.6 712.7c0 0-77.1 163.2-271.5 150.3-194.4-13-249.4-150-249.4-150"/>
			<path id="&lt;Path&gt;" class="s1" d="m675.4 580.8c-1.3 50.3 41.9 104.3 98.4 111 58.7 7.1 104.4 23 104.4 23 0 0 100.1 33.4 144.1 101.5 44 68.1 39 181 39 181"/>
			<path id="&lt;Path&gt;" class="s1" d="m161.9 996.4c0 0-5-112 39-180.1 44-68.1 144.1-101.5 144.1-101.5 0 0 45.7-15.9 104.4-23 56.5-6.7 99.7-62.1 98.4-112.4"/>
			<path id="&lt;Path&gt;" class="s1" d="m627.4 487.6c-9 0-16.2-7.3-16.2-16.3v-25.8"/>
			<path id="&lt;Path&gt;" class="s1" d="m592.9 522.6c0 0 24.1 20.6 54.9 0"/>
			<path id="&lt;Path&gt;" class="s4" d="m684.1 420.1c0 5.8-4.7 10.5-10.4 10.5-5.8 0-10.5-4.7-10.5-10.5 0-5.8 4.7-10.4 10.5-10.4 5.7 0 10.4 4.6 10.4 10.4z"/>
			<path id="&lt;Path&gt;" class="s4" d="m565.9 420.1c0 5.8-4.7 10.5-10.5 10.5-5.7 0-10.4-4.7-10.4-10.5 0-5.8 4.7-10.4 10.4-10.4 5.8 0 10.5 4.6 10.5 10.4z"/>
			<path id="&lt;Path&gt;" class="s1" d="m521.4 403.4l-44.3-18.9"/>
			<path id="&lt;Path&gt;" class="s1" d="m709.6 403.4l42.5-18.1"/>
			<path id="&lt;Path&gt;" class="s1" d="m634.9 420.9h-37.8"/>
			<path id="&lt;Path&gt;" class="s1" d="m703 362.4c0 0-25.1-12.8-58.7 2.9"/>
			<path id="&lt;Path&gt;" class="s1" d="m526.1 362.4c0 0 25.1-12.8 58.7 2.9"/>
			<path id="&lt;Path&gt;" class="s1" d="m711.6 420.1c0 20.9-17 37.9-37.9 37.9-21 0-37.9-17-37.9-37.9 0-20.9 16.9-37.9 37.9-37.9 20.9 0 37.9 17 37.9 37.9z"/>
			<path id="&lt;Path&gt;" class="s1" d="m593.3 420.1c0 20.9-16.9 37.9-37.9 37.9-20.9 0-37.9-17-37.9-37.9 0-20.9 17-37.9 37.9-37.9 21 0 37.9 17 37.9 37.9z"/>
			<path id="&lt;Path&gt;" class="s1" d="m1129.9 997.1h-1059.8"/>
			<g id="&lt;Group&gt;">
				<path id="&lt;Path&gt;" class="s5" d="m472.5 371.5c0 0 13.9-144.9 147.5-144.9 133.6 0 147.5 144.9 147.5 144.9h-15.8c0 0-17.5-129.8-131.7-129.8-114.2 0-131.7 129.8-131.7 129.8z"/>
				<path id="&lt;Path&gt;" class="s1" d="m472.5 371.5c0 0 13.9-144.9 147.5-144.9 133.6 0 147.5 144.9 147.5 144.9h-15.8c0 0-17.5-129.8-131.7-129.8-114.2 0-131.7 129.8-131.7 129.8z"/>
				<path id="&lt;Path&gt;" class="s5" d="m771.9 371.5c22.4 0 40.5 18.1 40.5 40.5 0 22.3-18.1 40.4-40.5 40.4"/>
				<path id="&lt;Path&gt;" class="s5" d="m771.9 452.3h-24.6v-80.7h24.6z"/>
				<path id="&lt;Path&gt;" class="s1" d="m771.9 452.3h-24.6v-80.7h24.6z"/>
				<path id="&lt;Path&gt;" class="s1" d="m771.9 371.5c22.4 0 40.5 18.1 40.5 40.5 0 22.3-18.1 40.4-40.5 40.4"/>
				<path id="&lt;Path&gt;" class="s5" d="m468.1 452.4c-22.4 0-40.5-18.1-40.5-40.4 0-22.4 18.1-40.5 40.5-40.5"/>
				<path id="&lt;Path&gt;" class="s5" d="m468.1 371.6h24.6v80.7h-24.6z"/>
				<path id="&lt;Path&gt;" class="s1" d="m468.1 371.6h24.6v80.7h-24.6z"/>
				<path id="&lt;Path&gt;" class="s1" d="m468.1 452.4c-22.4 0-40.5-18.1-40.5-40.4 0-22.4 18.1-40.5 40.5-40.5"/>
			</g>
			<path id="&lt;Path&gt;" class="s1" d="m764.2 452.3c0 0-26.3 48.5-88.9 77.7"/>
			<path id="&lt;Path&gt;" class="s4" d="m684.9 530c0 5.3-4.3 9.6-9.6 9.6-5.3 0-9.5-4.3-9.5-9.6 0-5.3 4.2-9.6 9.5-9.6 5.3 0 9.6 4.3 9.6 9.6z"/>
		</g>
	</g>
</svg>