<svg version="1.2" xmlns="http://www.w3.org/2000/svg" viewBox="0 0 1012 1606" width="1012" height="1606">
	<title>Characters-03-ai</title>
	<style>
		.s0 { fill: #ffffff } 
		.s1 { fill: #fff8e1 } 
		.s2 { fill: #bcebf1 } 
		.s3 { fill: none;stroke: #000000;stroke-linecap: round;stroke-linejoin: round;stroke-width: 2.6 } 
		.s4 { fill: #00bbd6 } 
		.s5 { fill: #362d46 } 
		.s6 { fill: #000000 } 
		.s7 { fill: #ffd740 } 
	</style>
	<g id="Layer 1">
		<g id="&lt;Group&gt;">
			<g id="&lt;Group&gt;">
				<path id="&lt;Path&gt;" class="s0" d="m258.6 1333.9c0 0-2.1-0.4-2.5 0-0.4 0.4-3.9 0.5-3.4-1.7 0.4-2.2 2.8-11.7 2.8-11.7 0 0 1.3-1.2 2.8-1.5 1.5-0.3 222.8 0 222.8 0 0 0 1.5 1.8 1.9 3.1 0.5 1.3 0.5 9.1 0.4 9.7-0.1 0.7 0.1 2-1.6 2-1.8-0.1-223.2 0.1-223.2 0.1z"/>
				<path id="&lt;Path&gt;" class="s0" d="m761.3 1319.2c1.7 0 1.5 1.3 1.6 2 0.1 0.6 1.5 8.4 1 9.7-0.4 1.3 0.5 3.1 0.5 3.1 0 0-225.1 0.3-226.6 0-1.5-0.3-3.7-1.5-3.7-1.5 0 0 0.5-9.5 0-11.7-0.4-2.2 1.1-2.1 1.5-1.7 0.4 0.4 2.5 0 2.5 0 0 0 221.4 0.2 223.2 0.1z"/>
				<g id="&lt;Group&gt;">
					<path id="&lt;Path&gt;" class="s1" d="m398.3 1230.1h16.2c0 0 42.3-1.9 54.4-1 12.1 0.9 3.4 8.6 3.4 13.9 0 5.4-3.3 7.4-6.6 8.3-3.2 0.9-68.8 2.7-74.8 2.7-6.1 0-5.1-1.7-5.1-4.8 0-3 1.7-8.5 2.2-13 0.5-4.5-0.2-5.5 4.3-6.4z"/>
					<g id="&lt;Group&gt;">
						<path id="&lt;Path&gt;" class="s2" d="m483 1319.6l-228.1-0.6c8-27.7 12.2-36.8 51.1-55.8 38.8-19 40.3-9.7 83.3-9.5 42.9 0.2 94.5-4.2 94.5-4.2z"/>
						<path id="&lt;Path&gt;" class="s3" d="m483 1319.6l-228.1-0.6c8-27.7 12.2-36.8 51.1-55.8 38.8-19 40.3-9.7 83.3-9.5 42.9 0.2 94.5-4.2 94.5-4.2z"/>
						<path id="&lt;Path&gt;" class="s3" d=""/>
						<path id="&lt;Path&gt;" class="s3" d="m483 1319.6l0.3 14.3-231.5-0.1 3.1-14.8"/>
						<path id="&lt;Path&gt;" class="s3" d="m434 1319.5c0 0 16.3-36.7 49.4-34"/>
						<path id="&lt;Path&gt;" class="s3" d="m339.9 1251.6c0 0 6.6 27.5 26.5 30.5"/>
						<path id="&lt;Path&gt;" class="s3" d="m309 1262.8c0 0-0.7 16.2 23.9 27.5"/>
					</g>
					<path id="&lt;Path&gt;" class="s3" d="m389 1230.6l-4.3 23"/>
					<path id="&lt;Path&gt;" class="s3" d="m475 1230.6l-4.3 18.9"/>
				</g>
				<g id="&lt;Group&gt;">
					<path id="&lt;Path&gt;" class="s1" d="m624.6 1229.8c4.5 0.9 3.8 1.9 4.3 6.4 0.5 4.5 2.2 10 2.2 13 0 3.1 0.9 4.8-5.1 4.8-6 0-71.6-1.8-74.9-2.7-3.2-0.9-6.5-2.9-6.5-8.3 0-5.3-8.8-13 3.4-13.9 12.1-0.9 54.3 1 54.3 1h16.3z"/>
					<g id="&lt;Group&gt;">
						<path id="&lt;Path&gt;" class="s2" d="m533.1 1249.5c0 0 51.6 4.4 94.5 4.2 42.9-0.2 44.5-9.5 83.3 9.5 38.8 19 43 28.1 51.1 55.8l-228.1 0.6z"/>
						<path id="&lt;Path&gt;" class="s3" d="m533.1 1249.5c0 0 51.6 4.4 94.5 4.2 42.9-0.2 44.5-9.5 83.3 9.5 38.8 19 43 28.1 51.1 55.8l-228.1 0.6z"/>
						<path id="&lt;Path&gt;" class="s3" d="m762 1319l3.1 14.8-231.5 0.1 0.3-14.3"/>
						<path id="&lt;Path&gt;" class="s3" d="m582.9 1319.5c0 0-16.3-36.7-49.4-34"/>
						<path id="&lt;Path&gt;" class="s3" d="m676.9 1251.6c0 0-6.5 27.5-26.5 30.5"/>
						<path id="&lt;Path&gt;" class="s3" d="m707.9 1262.8c0 0 0.7 16.2-23.9 27.5"/>
					</g>
					<path id="&lt;Path&gt;" class="s3" d="m627.9 1230.6l4.2 23"/>
					<path id="&lt;Path&gt;" class="s3" d="m541.9 1230.6l4.3 18.9"/>
				</g>
				<path id="&lt;Path&gt;" class="s4" d="m623 718c7.1 7.5 8.6 18 8.8 21.7 0.2 3.6 3.9 65.4 3.9 65.4l4.7 79.1 4.7 80.5 4.5 75.1 4.5 75.8 5.1 87.2c0 0 2.6 26.1 2.1 26.6-0.5 0.5-4.6 1.1-4.6 1.1l-68.9-0.7-62.7 0.6-0.8-3.2-2.5-35.1-3.1-51.4-3.5-54-4.4-67.7-5.2-81c0 0-2.4-31.8-2.3-32.4 0.1-0.5-1.9-3.4-1.9-1.3 0 2.1-0.3 11.8-0.3 11.8l-1.8 37.3-2.2 33.5-1.7 25.7-1.8 43.3-3.9 63.7-4 71.6-2.4 41.8c0 0-0.5 0.1-0.8 0.3-0.3 0.3-6.1 0.6-6.1 0.6l-77.9-0.3-52.2 0.4-0.5-1.8 2.8-54.1 3.1-63.2 3.2-63.4 5.2-105.2 3.6-71.7 4.5-90.7 1.8-41.3c0 0 0.4-3.6 3.1-3.3 2.6 0.3 10.7 0 16.4-3.2 5.6-3.1 8.2-7.3 9.4-9.6 1.3-2.3 5.1-5.3 5.1-5.3l191.9-6.6z"/>
				<path id="&lt;Path&gt;" class="s1" d="m637.5 631.9l30.5 52.1c0 0-8.5 4.6-10.5 5.7-2 1-0.8 3.4-0.2 6.1 0.6 2.6 1.2 8.6 1.4 12 0.1 3.3-1 8.3-2.1 11-1 2.6-4.1 3.7-7.2 4.9-3.2 1.3-6.9 4.8-8.5 6.4-1.7 1.7-5 3.8-6.8 4.2-1.8 0.4-11.3 4.4-17.3 5-6 0.5-7.6-1.1-12.4-3.5-4.9-2.4-7.3-6.4-11.4-10.6-4.1-4.1-12.2-33.3-7.4-41.4 4.9-8 22.5-25.9 24.2-28.4 1.7-2.5 12.1-11.5 14.8-14 2.7-2.6 9.6-7 12.9-10.7z"/>
				<path id="&lt;Path&gt;" class="s1" d="m355.5 630.7c3.3 3.7 10.2 8.1 12.9 10.7 2.7 2.5 13.1 11.5 14.8 14 1.7 2.5 19.3 20.4 24.2 28.4 4.8 8.1-3.3 37.3-7.4 41.4-4.1 4.2-6.5 8.2-11.4 10.6-4.8 2.4-6.4 4-12.4 3.5-6-0.6-15.5-4.6-17.3-5-1.8-0.4-5.1-2.5-6.8-4.2-1.6-1.6-5.3-5.1-8.5-6.4-3.1-1.2-6.2-2.3-7.2-4.9-1.1-2.7-2.2-7.7-2.1-11 0.1-3.4 0.8-9.4 1.4-12 0.6-2.7 1.8-5.1-0.2-6.1-2-1.1-10.5-5.7-10.5-5.7l30.5-52.1z"/>
				<g id="&lt;Group&gt;">
					<path id="&lt;Path&gt;" class="s5" d="m542.5 469.2c-24.5 0-123.7-7.6-129.5-9.2-5.7-1.6-17.7-8.2-21.1-11.7-3.4-3.5-4.9-8.7-5-13.5-0.1-4.8 3.5-9.3 6-13.7 2.4-4.3 6-12.2 8.6-16.7 2.6-4.6 6.2-12 6.2-12 0 0 7.4-15.5 9.7-20.8 2.3-5.2 5.3-12 7.1-16.6 1.8-4.5 3.8-11.8 5-14.7 1.2-2.9 5.8-14.9 7.8-20.4 1.9-5.5 4.1-10.9 7.3-16.1 3.1-5.2 10.2-13.4 12.9-15.5 2.6-2.2 11.8-8.7 15.5-10.4 3.8-1.7 15.2-5.4 18-5.9 2.8-0.5 11.1-1.9 18.7-0.5 7.6 1.3 18.4 5.5 22.8 8.1 4.4 2.6 12.9 9 15.8 12.3 3 3.3 7.7 10.5 10.6 15.5 2.9 5 7.9 21.1 9.4 25 1.5 3.9 7.7 20.1 8.9 23.7 1.3 3.6 10.7 25.6 12.7 30.5 2.1 4.9 8.1 17.4 9.2 20.3 1 2.9 8.2 13.1 10 16.5 1.7 3.3 3.7 7.8 4.1 10.6 0.3 2.9-0.8 8.3-2.9 11.9-2.2 3.5-7.5 8.6-13.7 10.9 0 0-29.5 12.4-54.1 12.4z"/>
					<path id="&lt;Path&gt;" class="s3" d="m470.6 428.3c-17.5 58.4-98.3 29.3-81.1-1.1 42.1-74.6 40.6-99.9 54.8-124 19.4-33 55.8-32 55.8-32"/>
					<path id="&lt;Path&gt;" class="s3" d="m500.1 271.2c0 0 36.5-1 55.9 32 14.2 24.1 12.7 49.4 54.8 124 17.2 30.4-63.8 59.5-81.4 1.1"/>
					<path id="&lt;Path&gt;" class="s1" d="m523.9 412.4c1 3.9 2.3 16.4 20.3 28.4 7.7 5.2 12.8 5.3 19.4 5.8 6.6 0.4 20.1 4.7 24.3 5.1 4.2 0.4 5.3 4.1 4.1 5.8-1.2 1.8-10.1 15.9-14.3 18.9-4.2 2.9-13.8 11.2-15.6 12.4-1.8 1.3-15.9 10.1-23.5 12.5-7.6 2.5-22.1 6.1-31 6.4-8.9 0.4-19.1-1.5-24.8-2.2-5.7-0.6-22.6-5.5-30.7-9.1-8-3.6-21.4-12.3-27.2-18.4-5.8-6.1-13.7-15.3-14.8-18.3-1-3-4-5.1 1.3-7.1 5.4-2 19.4-6 27.6-7.9 8.1-1.8 9.9-1.6 15.4-4.8 5.5-3.2 13.1-7.2 14.4-9.9 1.4-2.6 6.5-11.9 7.8-16.6 1.3-4.7 2.2-10.2 3.4-9.5 1.2 0.6 9.2 4.7 18.5 5 9.3 0.3 8.7 0.4 14-1 5.3-1.4 10-2.4 10.5-1.3 0.4 1.2 0.9 5.8 0.9 5.8z"/>
					<path id="&lt;Path&gt;" class="s3" d="m523.9 412.4c1 3.9 2.3 16.4 20.3 28.4 7.7 5.2 12.8 5.3 19.4 5.8 6.6 0.4 20.1 4.7 24.3 5.1 4.2 0.4 5.3 4.1 4.1 5.8-1.2 1.8-10.1 15.9-14.3 18.9-4.2 2.9-13.8 11.2-15.6 12.4-1.8 1.3-15.9 10.1-23.5 12.5-7.6 2.5-22.1 6.1-31 6.4-8.9 0.4-19.1-1.5-24.8-2.2-5.7-0.6-22.6-5.5-30.7-9.1-8-3.6-21.4-12.3-27.2-18.4-5.8-6.1-13.7-15.3-14.8-18.3-1-3-4-5.1 1.3-7.1 5.4-2 23.9-7.6 32-9.5 8.1-1.8 6.9-1.1 12.3-4.3 5.5-3.2 11.4-6.5 14.3-11 1.6-2.5 5.3-9.7 6.6-14.4 1.3-4.7 2.2-10.2 3.4-9.5 1.2 0.6 9.2 4.7 18.5 5 9.3 0.3 8.7 0.4 14-1 5.3-1.4 10-2.4 10.5-1.3 0.4 1.2 0.9 5.8 0.9 5.8z"/>
					<path id="&lt;Path&gt;" class="s1" d="m531.9 302.3c1.8 16.9 19.4 34.8 19.4 34.8 0 0 9.6 0.8 8.8 9.2-0.5 5.9-9.2 10.5-9.2 10.5-1.8 26.9-22.5 61.9-60 54-37.6-7.8-36-52.5-36-52.5 0 0-9.7-0.4-11.2-7.9-1.8-8.8 6.8-9.9 6.8-9.9 0 0 1.9-19.7 27.6-26.3 25.6-6.6 42.8-25.4 42.8-25.4l-10.9 30.1c7.8-0.3 21.9-16.6 21.9-16.6z"/>
					<path id="&lt;Path&gt;" class="s3" d="m531.9 302.3c1.8 16.9 19.4 34.8 19.4 34.8 0 0 9.6 0.8 8.8 9.2-0.5 5.9-9.2 10.5-9.2 10.5-1.8 26.9-22.5 61.9-60 54-37.6-7.8-36-52.5-36-52.5 0 0-9.7-0.4-11.2-7.9-1.8-8.8 6.8-9.9 6.8-9.9 0 0 1.9-19.7 27.6-26.3 25.6-6.6 42.8-25.4 42.8-25.4l-10.9 30.1c7.8-0.3 21.9-16.6 21.9-16.6z"/>
					<path id="&lt;Path&gt;" class="s3" d="m505.8 372.8c-3.2 0-5.8-2.6-5.8-5.8v-9.3"/>
					<path id="&lt;Path&gt;" class="s3" d="m493.5 385.3c0 0 8.6 7.4 19.6 0"/>
					<path id="&lt;Path&gt;" class="s6" d="m526.1 348.6c0 2.1-1.7 3.8-3.7 3.8-2.1 0-3.8-1.7-3.8-3.8 0-2 1.7-3.7 3.8-3.7 2 0 3.7 1.7 3.7 3.7z"/>
					<path id="&lt;Path&gt;" class="s6" d="m483.8 348.6c0 2.1-1.7 3.8-3.7 3.8-2.1 0-3.8-1.7-3.8-3.8 0-2 1.7-3.7 3.8-3.7 2 0 3.7 1.7 3.7 3.7z"/>
					<path id="&lt;Path&gt;" class="s3" d="m467.9 342.7l-15.8-6.8"/>
					<path id="&lt;Path&gt;" class="s3" d="m535.2 342.7l15.2-6.5"/>
					<path id="&lt;Path&gt;" class="s3" d="m508.5 348.9h-13.5"/>
					<path id="&lt;Path&gt;" class="s3" d="m532.9 328c0 0-9-4.6-21 1"/>
					<path id="&lt;Path&gt;" class="s3" d="m469.6 328c0 0 9-4.6 21 1"/>
					<path id="&lt;Path&gt;" class="s3" d="m535.9 348.6c0 7.5-6.1 13.6-13.5 13.6-7.5 0-13.6-6.1-13.6-13.6 0-7.4 6.1-13.5 13.6-13.5 7.4 0 13.5 6.1 13.5 13.5z"/>
					<path id="&lt;Path&gt;" class="s3" d="m493.6 348.6c0 7.5-6 13.6-13.5 13.6-7.5 0-13.6-6.1-13.6-13.6 0-7.4 6.1-13.5 13.6-13.5 7.5 0 13.5 6.1 13.5 13.5z"/>
				</g>
				<g id="&lt;Group&gt;">
					<path id="&lt;Path&gt;" class="s7" d="m556.1 444.7c0.2 0.1 19.6 4.7 19.6 4.7l29.7 7.8c0 0 26.7 8.5 28.4 9 1.7 0.5 13.8 4.7 21.2 7.9 7.4 3.1 18.6 11.5 24.9 16.4 6.4 4.9 16.7 15 22.6 21.4 6 6.3 13.7 17.5 17.1 22.7 3.4 5.2 10.9 20.6 12.7 24.9 1.9 4.2 6.6 18.5 6.6 18.5 0 0 4.4 17.8 4.8 19.7 0.3 1.9 1.6 11.1 1.6 12.9 0 1.7-0.6 3.7-2.1 9.1-1.6 5.4-11.3 18.3-13.7 22.4-2.4 4.1-15.9 18.3-15.9 18.3l-35.1 34.1c0 0-3.3 3.4-3.7 3.4-0.4 0-1.4-1.5-2.3-2.6-0.9-1.1-36.8-57.9-36.8-57.9 0 0-8.5-13-9.2-14.1-0.7-1.2-0.5-0.8 0-2 0.5-1.1 3.7-3.6 6.3-5.6 2.7-2 12.3-9.6 13.2-10.2 0.8-0.7 12.8-9.5 13.9-11.1 1-1.5 0.6-2.4 0.6-2.4l-2.6-7.3c0 0-8.7-19.1-9.9-22.4-1.3-3.3-1.4-3.2-2.8-3-1.4 0.3-2.9 2.6-4.9 4.1-2.1 1.5-7.7 7.9-9.2 9.9-1.4 1.9-4.1 5.9-5.9 8.5-1.9 2.5-4.7 8.3-6.2 11.1-1.4 2.7-3 5.7-4.2 8.8-1.2 3-2.2 7.6-2.9 10.5-0.7 2.8-1.4 7.9-1.4 10.6 0 2.6 0.4 11.1 0.9 13.4 0.6 2.3 3.1 10.3 3.8 12.2 0.6 1.9-1.7 3.7-3 5.6-1.4 1.8-8 8.7-9.6 10.5-1.7 1.8-6.1 7.3-7.8 10.2-1.7 2.9-6.5 13.3-7.1 15.4-0.5 2.1-1.2 7.4-1.5 9.9-0.3 2.5 0.2 6.7 0.6 8.7 0.4 2.1 2.4 8.6 3.1 10.3 0.6 1.7 1.5 3.1 1.2 3.1-0.3 0-177.8 0.3-177.8 0.3 0 0-10-0.1-10.7-0.3-0.7-0.2-0.5-1.5 0-2.7 0.6-1.1 3.4-8.5 4-15.8 0.6-7.2-3-18.2-6.3-25.4-3.4-7.2-12.1-16.6-12.1-16.6 0 0-9.1-9.4-9.8-11-0.7-1.7-0.2-1.6 0.3-2.9 0.6-1.4 3.5-13.6 3.6-15.7 0.2-2.1 0.8-7.2 0.3-10.3-0.5-3.2-0.4-5.1-0.7-7.1-0.4-2-1.9-8.9-2.5-10.9-0.6-2-3.3-9.2-4.8-12-1.4-2.8-6.1-9.2-7.4-11.1-1.3-1.8-6.7-8.5-8.2-10.4-1.6-2-9.6-9.9-10.8-10.8-1.1-0.9-1.8 0.6-2.9 2.7-1 2.1-3.2 7.1-4 9.4-0.9 2.2-4.2 10.2-4.7 11.4-0.4 1.1-4.3 8.1-4.3 9.6 0 1.5 4.4 4.9 4.4 4.9l24.8 19.3c0 0 4.5 3.6 5 4 0.5 0.4 1 1.1 0.6 1.6-0.3 0.5-13.2 20.6-13.2 20.6l-24.4 38c0 0-8.7 14.6-9.6 15.8-0.9 1.2-2 0.4-3.6-0.6-1.7-1-13.2-12.2-13.2-12.2l-17.7-17.3-18.3-20.1c0 0-9.3-12.7-12.4-16.9-3-4.3-6.2-12.9-6.6-16.1-0.4-3.3 1.2-15.5 1.9-19.4 0.8-3.8 4.3-15.4 4.9-17.3 0.5-1.8 6.6-19.3 7.2-20.8 0.7-1.5 8.2-16.1 9.9-18.4 1.7-2.3 10.1-16 12.1-18.7 1.9-2.6 13.8-15.5 16.3-17.8 2.4-2.3 13.9-11.6 16.3-13.5 2.4-1.8 13.8-10 16-10.9 2.2-0.9 16.4-7.3 16.4-7.3l25.1-8.3 30.2-8.4 21.5-5.5 16-3.9c0 0 1.6-0.1 3.5 0.9 2 1 15.1 6.6 17.5 7.6 2.5 1 11.2 3.5 14.7 4.5 3.4 1 10.1 1.7 14 2.5 3.9 0.7 10.5 0.9 14.4 0.9 3.8 0 11.4-1.1 14.4-1.6 3.1-0.4 9.9-3.4 12.2-4.6 2.3-1.2 14.1-8.3 15-9 0.9-0.8 2.5-0.9 4.1-0.9 0 0 4.3 1.1 4.4 1.1z"/>
				</g>
				<g id="&lt;Group&gt;">
					<path id="&lt;Path&gt;" class="s3" d="m549.1 443.1c0 0 90.7 19.9 114.6 35.6 45.6 30 72.3 70.9 81.2 126.2 2.3 14-5.4 34.4-70.4 93.2l-49.1-76.6 45.4-35.4"/>
					<path id="&lt;Path&gt;" class="s3" d="m615.4 650.2c0 0-9.8-18.6-2.2-44.5 7.5-26 33-47.3 33-47.3l15 35.3"/>
					<path id="&lt;Path&gt;" class="s3" d="m630.4 735.4c0 0-20.1 13.3-34.8-7-11.4-15.7-13.1-35.5 0-54.9 13.1-19.3 37.6-39.8 37.6-39.8"/>
					<path id="&lt;Path&gt;" class="s3" d="m645.7 724.7c0 0-10.6 14.9-18.9 9.6-8.2-5.2-26.5-30.7-26.5-30.7"/>
					<path id="&lt;Path&gt;" class="s3" d="m656 690.5c0 0 9.4 31.1-7 33.9-16.5 2.9-31-24.2-31-24.2"/>
					<path id="&lt;Path&gt;" class="s3" d="m649.9 710.5c0 0-7.2-9.3-2.7-13.9 4.4-4.6 19.1-11.3 19.1-11.3"/>
					<path id="&lt;Path&gt;" class="s3" d="m638.3 611.4l47.2 75.3"/>
				</g>
				<g id="&lt;Group&gt;">
					<path id="&lt;Path&gt;" class="s3" d="m322.2 586.1l45.4 35.4-49.1 76.6c-65-58.8-72.7-79.2-70.4-93.2 8.9-55.3 35.6-96.2 81.2-126.2 23.8-15.7 114.6-35.6 114.6-35.6 0 0 26.2 14.2 53.6 16.1 33.3 2.4 51.6-16.1 51.6-16.1"/>
					<path id="&lt;Path&gt;" class="s3" d="m331.8 593.7l15-35.3c0 0 25.5 21.3 33 47.3 7.5 25.9-2.2 44.5-2.2 44.5"/>
					<path id="&lt;Path&gt;" class="s3" d="m359.8 633.7c0 0 24.5 20.5 37.6 39.8 13.1 19.4 11.4 39.2 0 54.9-14.7 20.3-34.8 7-34.8 7"/>
					<path id="&lt;Path&gt;" class="s3" d="m392.7 703.6c0 0-18.3 25.5-26.5 30.7-8.3 5.3-18.9-9.6-18.9-9.6"/>
					<path id="&lt;Path&gt;" class="s3" d="m375 700.2c0 0-14.5 27.1-31 24.2-16.5-2.8-7-33.9-7-33.9"/>
					<path id="&lt;Path&gt;" class="s3" d="m326.7 685.3c0 0 14.6 6.7 19.1 11.3 4.5 4.6-2.7 13.9-2.7 13.9"/>
					<path id="&lt;Path&gt;" class="s3" d="m354.6 611.4l-47.1 75.3"/>
				</g>
				<path id="&lt;Path&gt;" class="s3" d="m631.6 735.4l29.2 494.8h-136.3l-22-339.6-19.2 343h-137.5l24.6-494.6"/>
				<path id="&lt;Path&gt;" class="s3" d="m591.7 722.1h-190.4"/>
			</g>
			<g id="&lt;Group&gt;">
				<g id="&lt;Group&gt;">
					<path id="&lt;Path&gt;" class="s0" d="m445.1 330.7c0 0 5.3-55 56-55 50.7 0 55.9 55 55.9 55h-5.9c0 0-6.7-49.3-50-49.3-43.3 0-50 49.3-50 49.3z"/>
					<path id="&lt;Path&gt;" class="s3" d="m445.1 330.7c0 0 5.3-55 56-55 50.7 0 55.9 55 55.9 55h-5.9c0 0-6.7-49.3-50-49.3-43.3 0-50 49.3-50 49.3z"/>
					<path id="&lt;Path&gt;" class="s0" d="m558.7 330.7c8.5 0 15.4 6.9 15.4 15.3 0 8.5-6.9 15.4-15.4 15.4"/>
					<path id="&lt;Path&gt;" class="s0" d="m558.7 361.4h-9.3v-30.7h9.3z"/>
					<path id="&lt;Path&gt;" class="s3" d="m558.7 361.4h-9.3v-30.7h9.3z"/>
					<path id="&lt;Path&gt;" class="s3" d="m558.7 330.7c8.5 0 15.4 6.9 15.4 15.3 0 8.5-6.9 15.4-15.4 15.4"/>
					<path id="&lt;Path&gt;" class="s0" d="m443.4 361.4c-8.4 0-15.3-6.9-15.3-15.4 0-8.4 6.9-15.3 15.3-15.3"/>
					<path id="&lt;Path&gt;" class="s0" d="m443.4 330.7h9.4v30.7h-9.4z"/>
					<path id="&lt;Path&gt;" class="s3" d="m443.4 330.7h9.4v30.7h-9.4z"/>
					<path id="&lt;Path&gt;" class="s3" d="m443.4 361.4c-8.4 0-15.3-6.9-15.3-15.4 0-8.4 6.9-15.3 15.3-15.3"/>
				</g>
				<path id="&lt;Path&gt;" class="s3" d="m555.8 361.4c0 0-10 18.4-33.7 29.4"/>
				<path id="&lt;Path&gt;" class="s6" d="m525.7 390.8c0 2-1.6 3.7-3.6 3.7-2 0-3.6-1.7-3.6-3.7 0-2 1.6-3.6 3.6-3.6 2 0 3.6 1.6 3.6 3.6z"/>
			</g>
		</g>
	</g>
</svg>