<svg version="1.2" xmlns="http://www.w3.org/2000/svg" viewBox="0 0 300 300" width="300" height="300">
	<title>Characters-02-ai</title>
	<style>
		.s0 { fill: #362d46 } 
		.s1 { fill: none;stroke: #000000;stroke-linecap: round;stroke-linejoin: round;stroke-width: 1.3 } 
		.s2 { fill: #fc6140 } 
		.s3 { fill: #fff8e1 } 
		.s4 { fill: #000000 } 
	</style>
	<g id="Layer 1">
		<g id="&lt;Group&gt;">
			<path id="&lt;Path&gt;" class="s0" d="m182.5 189.3c-17.1 0-86.5-5.3-90.5-6.4-4-1.2-12.4-5.7-14.8-8.2-2.3-2.5-3.4-6.1-3.5-9.4-0.1-3.4 2.5-6.6 4.2-9.6 1.7-3 4.2-8.5 6-11.7q1.8-3.2 4.3-8.4 5.2-10.8 6.8-14.5c1.6-3.7 3.7-8.4 5-11.6 1.3-3.2 2.6-8.3 3.5-10.3 0.8-2 4.1-10.4 5.4-14.3 1.4-3.8 3-7.6 5.2-11.2 2.1-3.7 7.1-9.4 8.9-10.9 1.9-1.5 8.3-6.1 10.9-7.2 2.7-1.2 10.6-3.8 12.6-4.1 1.9-0.4 7.8-1.4 13.1-0.4 5.3 0.9 12.8 3.9 15.9 5.7 3.1 1.8 9 6.2 11.1 8.5 2 2.4 5.3 7.4 7.3 10.9 2.1 3.5 5.6 14.8 6.7 17.5 1 2.7 5.3 14 6.2 16.6 0.9 2.5 7.4 17.9 8.9 21.3 1.4 3.4 5.6 12.1 6.3 14.1 0.8 2.1 5.8 9.2 7 11.6 1.2 2.3 2.7 5.5 2.9 7.4 0.2 2-0.5 5.8-2 8.3-1.5 2.5-5.3 6-9.6 7.6q-20.6 8.7-37.8 8.7z"/>
			<path id="&lt;Path&gt;" class="s1" d="m132.3 160.7c-12.3 40.8-68.8 20.5-56.8-0.8 29.4-52.1 28.4-69.8 38.4-86.7q13.5-23 39-22.3"/>
			<path id="&lt;Path&gt;" class="s1" d="m152.9 50.9q25.5-0.7 39 22.3c10 16.9 8.9 34.6 38.3 86.7 12.1 21.3-44.6 41.6-56.8 0.8"/>
			<path id="&lt;Path&gt;" class="s2" d="m40.3 248.9q0-7.2 0.1-9.7c0.2-2.5 1.6-11.4 2.5-15.7 1-4.2 3.8-11.9 5.3-15.2 1.5-3.3 8.1-11.6 12.5-15.9 4.3-4.3 15.5-9.4 18.9-11.4 3.4-2.1 9.5-2.3 16-2.2 6.4 0.1 113.9-1.8 120.4-0.6 6.6 1.1 13 4.5 21.9 9.4 9 5 12.3 9.8 14.5 12.2 2.2 2.4 6.9 9.2 8.6 14 1.6 4.8 4.6 21.7 4.4 26.5-0.2 4.9-0.1 3.7 0 9z"/>
			<path id="&lt;Path&gt;" class="s3" d="m169.5 149.6c0.7 2.7 1.6 11.4 14.2 19.9 5.4 3.6 8.9 3.7 13.5 4 4.6 0.3 14.1 3.3 17 3.6 3 0.3 3.8 2.8 2.9 4-0.9 1.3-7.1 11.1-10 13.2-3 2.1-9.7 7.8-10.9 8.7-1.2 0.9-11.1 7.1-16.4 8.8-5.4 1.7-15.5 4.2-21.7 4.4-6.2 0.3-13.4-1-17.4-1.5-3.9-0.5-15.8-3.9-21.4-6.4-5.6-2.5-15-8.6-19-12.8-4.1-4.3-9.6-10.7-10.3-12.9-0.7-2.1-2.9-3.5 0.9-4.9 3.7-1.4 14.8-3.7 20.4-5 5.7-1.3 7.1-1.2 10.9-3.5 3.8-2.2 7.8-5.4 8.8-7.3 1-1.8 4.5-8.3 5.4-11.6 0.9-3.3 1.6-7.1 2.4-6.7 0.8 0.5 6.4 3.4 12.9 3.6 6.5 0.2 6.1 0.2 9.8-0.8 3.7-1 7-1.6 7.3-0.8q0.3 0.8 0.7 4z"/>
			<path id="&lt;Path&gt;" class="s3" d="m175.1 72.6q1.3 11.8 13.5 24.4 6.7 0.5 6.2 6.4-0.3 4.1-6.4 7.3c-1.3 18.8-15.7 43.3-42 37.8q-26.2-5.5-25.1-36.7-6.8-0.3-7.9-5.6-1.2-6.1 4.8-6.9 1.3-13.8 19.2-18.4 18-4.6 30-17.7l-7.7 21q5.5-0.2 15.4-11.6z"/>
			<path id="&lt;Path&gt;" class="s1" d="m175.1 72.6q1.3 11.8 13.5 24.4 6.7 0.5 6.2 6.4-0.3 4.1-6.4 7.3c-1.3 18.8-15.7 43.3-42 37.8q-26.2-5.5-25.1-36.7-6.8-0.3-7.9-5.6-1.2-6.1 4.8-6.9 1.3-13.8 19.2-18.4 18-4.6 30-17.7l-7.7 21q5.5-0.2 15.4-11.6z"/>
			<path id="&lt;Path&gt;" class="s1" d="m217.9 178.2q-19.3 40.8-67.9 37.5-48.6-3.2-62.3-37.5"/>
			<path id="&lt;Path&gt;" class="s1" d="m168.8 145.2c-0.3 12.6 10.5 26.1 24.7 27.8q14.6 1.7 26.1 5.7 25 8.3 36 25.4 11 17 9.7 45.2"/>
			<path id="&lt;Path&gt;" class="s1" d="m40.5 249.1q-1.3-28 9.7-45 11-17.1 36-25.4 11.5-4 26.1-5.7c14.2-1.7 25-15.6 24.7-28.1"/>
			<path id="&lt;Path&gt;" class="s1" d="m156.9 121.9c-2.3 0-4.1-1.8-4.1-4.1v-6.4"/>
			<path id="&lt;Path&gt;" class="s1" d="m148.2 130.7q6.1 5.1 13.8 0"/>
			<circle id="&lt;Path&gt;" class="s4" cx="168.4" cy="105" r="2.6"/>
			<circle id="&lt;Path&gt;" class="s4" cx="138.9" cy="105" r="2.6"/>
			<path id="&lt;Path&gt;" class="s1" d="m130.4 100.9l-11.1-4.8"/>
			<path id="&lt;Path&gt;" class="s1" d="m177.4 100.9l10.6-4.6"/>
			<path id="&lt;Path&gt;" class="s1" d="m158.7 105.2h-9.4"/>
			<path id="&lt;Path&gt;" class="s1" d="m175.8 90.6q-6.3-3.2-14.7 0.7"/>
			<path id="&lt;Path&gt;" class="s1" d="m131.5 90.6q6.3-3.2 14.7 0.7"/>
			<circle id="&lt;Path&gt;" class="s1" cx="168.4" cy="105" r="9.5"/>
			<circle id="&lt;Path&gt;" class="s1" cx="138.9" cy="105" r="9.5"/>
			<path id="&lt;Path&gt;" class="s1" d="m282.5 249.3h-265"/>
		</g>
	</g>
</svg>