<?xml version="1.0" encoding="UTF-8"?>
<svg width="21px" height="18px" viewBox="0 0 21 18" version="1.1" xmlns="http://www.w3.org/2000/svg" xmlns:xlink="http://www.w3.org/1999/xlink">
    <title>Check</title>
    <g id="UI-KIT" stroke="none" stroke-width="1" fill="none" fill-rule="evenodd">
        <g id="Artboard" transform="translate(-617.000000, -1280.000000)" fill="#FF7043">
            <g id="Rollover-Style-Copy-2" transform="translate(589.000000, 1038.000000)">
                <g id="Check" transform="translate(28.500000, 242.000000)">
                    <path d="M4.24343662,0.506202379 C5.04004621,1.11851611 14.3639911,8.82743891 15.2256076,9.50511824 C16.0866731,10.1827976 16.8772228,10.8152238 17.5972565,11.4018382 C18.3167393,11.9884527 18.7795,12.3733835 18.9855387,12.5555133 C19.0626655,13.0773208 18.8312851,13.5466123 18.2913976,13.9633879 C17.75151,14.3807222 17.0700397,14.7326908 16.2475376,15.0192939 C15.70765,15.3321549 15.1484808,15.7036774 14.5700298,16.1338613 C13.9915789,16.5634865 13.4131279,16.9942291 12.834677,17.4238543 C12.256226,17.8545969 12.7884175,17.5988295 12.2099666,18.0027555 C11.6315156,18.4072401 11.0723464,18.7396549 10.5324588,19 C10.3264201,18.9480427 10.1468249,18.8502737 9.99257127,18.7061341 C9.83831768,18.5636706 9.70940576,18.3876863 9.6069373,18.1787398 C9.55515217,18.0748252 9.51658877,17.9373899 9.49124711,17.7681097 C9.46535455,17.5988295 9.45268372,17.4485445 9.45268372,17.318372 C9.58104474,16.7451659 9.91544447,16.1781053 10.455332,15.6171901 C10.9952196,15.0568337 10.5142623,15.1366168 11.234296,14.5108947 C11.61993,14.1460764 12.0441274,13.8265112 12.5068881,13.5527578 C12.9696489,13.2784457 13.3938462,13.0382131 13.7794802,12.8292667 C13.3167194,12.4381904 12.8539587,12.0275603 12.3911979,11.5973764 C11.9284372,11.1671925 3.00940794,3.66777481 2.62377397,3.22418256 C2.23814001,2.781149 1.8971294,2.35766925 1.60184396,1.95318463 C1.30600762,1.5492587 1.10657977,1.1900272 1.00411132,0.87772485 C0.978218753,0.408433308 1.07462724,-0.0223092867 1.29333679,-0.412826892 C1.51149544,-0.803903177 1.80072091,-1 2.16101321,-1 C2.3152668,-1 2.45629865,-0.934075712 2.58521057,-0.803903177 C2.89371775,-0.542999427 3.44627613,-0.106111348 4.24343662,0.506202379 Z" id="Fill-1" transform="translate(10.000000, 9.000000) rotate(-270.000000) translate(-10.000000, -9.000000) "></path>
                </g>
            </g>
        </g>
    </g>
</svg>