<svg version="1.2" xmlns="http://www.w3.org/2000/svg" viewBox="0 0 800 800" width="800" height="800">
	<title>Client Feedback-ai</title>
	<style>
		.s0 { fill: #ffd740 } 
		.s1 { fill: none;stroke: #000000;stroke-linecap: round;stroke-linejoin: round;stroke-width: 5.2 } 
		.s2 { fill: #ffffff } 
	</style>
	<g id="Layer 1">
		<g id="&lt;Group&gt;">
			<g id="&lt;Group&gt;">
				<g id="&lt;Group&gt;">
					<path id="&lt;Path&gt;" class="s0" d="m474.2 264.5h105.4c19.1 0 34.6 15.5 34.6 34.5v208.6c0 19-15.5 34.5-34.6 34.5h-228.6l-110.5 70.4-0.5-70.4h-19.6c-19.1 0-34.6-15.5-34.6-34.5v-208.6c0-19 15.5-34.5 34.6-34.5h172.9"/>
				</g>
				<path id="&lt;Path&gt;" class="s1" d="m474.2 264.5h105.4c19.1 0 34.6 15.5 34.6 34.5v208.6c0 19-15.5 34.5-34.6 34.5h-228.6l-110.5 70.4-0.5-70.4h-19.6c-19.1 0-34.6-15.5-34.6-34.5v-208.6c0-19 15.5-34.5 34.6-34.5h172.9"/>
				<path id="&lt;Path&gt;" class="s2" d="m313 335.5h28.5c10.2 0 19.6-5.8 24.1-14.9l41.2-83.4v-31.1c0-10.3 8.3-18.6 18.6-18.6h4.5c4.8 0 9.5 1.8 12.9 5.1 11.2 11.1 33.7 42 33.7 111.5h62.3c12.8 0 22.7 11.2 21.1 23.8l-16.5 131.4c-1.3 10.6-10.3 18.6-21 18.6h-159.6l-49.8-10.9"/>
				<path id="&lt;Path&gt;" class="s1" d="m313 335.5h28.5c10.2 0 19.6-5.8 24.1-14.9l41.2-83.4v-31.1c0-10.3 8.3-18.6 18.6-18.6h4.5c4.8 0 9.5 1.8 12.9 5.1 11.2 11.1 33.7 42 33.7 111.5h62.3c12.8 0 22.7 11.2 21.1 23.8l-16.5 131.4c-1.3 10.6-10.3 18.6-21 18.6h-159.6l-49.8-10.9"/>
				<path id="&lt;Path&gt;" class="s2" d="m225 311h85.8v190.3h-85.8z"/>
				<path id="&lt;Path&gt;" class="s1" d="m225 311h85.8v190.3h-85.8z"/>
			</g>
			<path id="&lt;Path&gt;" class="s1" d="m436.5 513.6h123.5"/>
		</g>
	</g>
</svg>