<svg version="1.2" xmlns="http://www.w3.org/2000/svg" viewBox="0 0 1400 1400" width="1400" height="1400">
	<title>Content Moderation (1)-ai</title>
	<style>
		.s0 { fill: #fff8e1 } 
		.s1 { fill: #ffffff } 
		.s2 { fill: #bcebf1 } 
		.s3 { fill: none;stroke: #000000;stroke-linecap: round;stroke-linejoin: round;stroke-width: 2.6 } 
		.s4 { fill: #ffd740 } 
		.s5 { fill: #00bbd6 } 
		.s6 { fill: #362d46 } 
		.s7 { fill: #000000 } 
		.s8 { fill: #ffcf44 } 
		.s9 { fill: #fc6140 } 
		.s10 { fill: #ffe8ad } 
	</style>
	<g id="Layer 1">
		<g id="&lt;Group&gt;">
			<path id="&lt;Path&gt;" class="s0" d="m1295.7 1070.4h-1157.5c0 0-177.8-352.5-92.3-523.9 85.5-171.4 446.6-202.2 755.4-135.5 308.7 66.8 554.4 165.8 562.6 338.7 8.3 172.9-69.4 320.7-69.4 320.7"/>
			<g id="&lt;Group&gt;">
				<g id="&lt;Group&gt;">
					<g id="&lt;Group&gt;">
						<path id="&lt;Path&gt;" class="s0" d="m156.4 912.9c2.4 0.4 3.3 0.8 3.5 3.1 0.3 2.3 0.3 5.2 0.3 6.8 0 1.6 0.7 2.4-2.4 2.4-3.1 0-36.9-1-38.5-1.4-1.7-0.5-3.4-1.5-3.4-4.3 0-2.7-2.3-5.7 3.9-6.2 6.3-0.4 28-0.4 28-0.4h8.4z"/>
						<g id="&lt;Group&gt;">
							<path id="&lt;Path&gt;" class="s1" d="m227.1 958.7c1.3 0.7 0.4 0.4 1 3.3 0.6 2.9 0.8 4.2-0.7 4.3-1.4 0-5.2 0-5.2 0h-110.6c0 0-1.2 0.7-1.3-0.8-0.1-1.5-0.2-3.6-0.2-4.5 0.1-1 0.1-1.9 1.7-1.9 1.6 0 112.1-0.8 112.1-0.8z"/>
							<path id="&lt;Path&gt;" class="s2" d="m109.2 923c0 0 26.5 2.3 48.6 2.2 22.1-0.1 22.9-4.9 42.9 4.9 20 9.7 22.1 14.4 26.3 28.7l-117.4 0.3z"/>
							<path id="&lt;Path&gt;" class="s3" d="m109.2 923c0 0 26.5 2.3 48.6 2.2 22.1-0.1 22.9-4.9 42.9 4.9 20 9.7 22.1 14.4 26.3 28.7l-117.4 0.3z"/>
							<path id="&lt;Path&gt;" class="s3" d="m227 958.8l1.6 7.6-119.2 0.1 0.2-7.4"/>
							<path id="&lt;Path&gt;" class="s3" d="m134.8 959c0 0-8.4-18.9-25.4-17.4"/>
							<path id="&lt;Path&gt;" class="s3" d="m183.2 924.1c0 0-3.4 14.2-13.6 15.7"/>
							<path id="&lt;Path&gt;" class="s3" d="m199.2 929.9c0 0 0.3 8.3-12.4 14.1"/>
						</g>
						<path id="&lt;Path&gt;" class="s3" d="m160.2 913.3v11.9"/>
						<path id="&lt;Path&gt;" class="s3" d="m115.9 913.3v9.7"/>
					</g>
					<g id="&lt;Group&gt;">
						<path id="&lt;Path&gt;" class="s4" d="m167 678.8l164-8.5c0 0 7.4 0.4 11.8 2.3 4.5 1.9 14.1 8.9 15.9 13.5 1.8 4.6 2.9 10.7 2.7 13.6-0.2 2.8-1.1 7.9-1.1 7.9l-8.4 28.6c0 0-19.9 68.7-20.5 70.7-0.6 2.1-1.8 3.4-5 3.4-3.3 0.1-60.5-1-61.5-0.7-1 0.4-1.5-0.5-1.6-2 0-1.5 19.8-67.9 19.8-67.9 0 0 1.7-4.4-0.9-4.4-2.5 0.1-53.3 7.2-55.3 7.5-2 0.3-3.3 1.9-3.9 3.8-0.5 1.9-26.9 87.9-26.9 87.9 0 0-20.8 74.8-21.6 77.3-0.7 2.4-1.3 2.2-3.2 2.2-1.8 0-14.9-0.4-14.9-0.4 0 0-50.2 0.8-50.9 0.4-0.7-0.4-1.5-0.1-0.9-2.3 0.6-2.3 58.8-230.9 58.8-230.9 0 0 1.7-1.9 3.6-2z"/>
					</g>
					<path id="&lt;Path&gt;" class="s0" d="m314.1 809.5c2.3 0.5 3.2 0.9 3.5 3.2 0.2 2.3 0.2 5.2 0.2 6.8 0 1.5 0.8 2.3-2.3 2.3-3.1 0-36.9-0.9-38.5-1.4-1.7-0.4-3.4-1.4-3.4-4.2 0-2.8-2.4-5.8 3.9-6.2 6.2-0.5 28-0.5 28-0.5h8.4z"/>
					<path id="&lt;Path&gt;" class="s0" d="m377.9 546c-0.3 0.4-2.2 4.2-4.4 6.6-2.1 2.4-8.2-0.5-13.1-2.3-4.9-1.8-18.4-10.4-20.1-11.4-1.7-1.1-0.4-5.1 1.5-9.3 2-4.1 8.7-14.3 10.6-17.1 1.8-2.8 11-11.8 11-11.8 0 0 9.9-6.6 11.5-7.6 1.7-1 9.2-1.3 10.6-1.1 1.4 0.2 3.5 4.2 3.5 4.2 0 0 0.8 4 2 4.1 1.3 0.1 3-0.3 3.8 1.2 0.7 1.5 0.3 5 0.3 5l-1.2 4c0 0 2.7 1.8 3.5 3.6 0.8 1.8 0.5 3 1.1 4 0.5 1.1 2.2 2.3 2.1 4-0.1 1.8-2.4 4.3-5.7 6.6-3.3 2.3-6.8 4.8-8.5 6.7-1.7 1.9-2.4 2.7-5 6.5 0 0-3.2 3.7-3.5 4.1z"/>
					<path id="&lt;Path&gt;" class="s5" d="m371 553.9c2.8 1.2 6.5 2 6.2 3.8-0.3 1.9-12.3 27.3-12.3 27.3l-14.6 31.4c0 0-7.1 13.3-8.2 15.1-1.1 1.8-4.8 4.3-8.9 6.7-4.1 2.3-15.8 0.5-19 0.4-3.2 0-9.9-1.9-14.7-4.4-4.7-2.6-8.8-8.3-10.9-10.5-2.1-2.2-5.9-11.1-6.9-12.4-1-1.3-3.1 0.5-3.1 0.5 0 0-2.2 54.2-3 58.2-0.8 3.9-2.1 3.2-2.1 3.2l-57.5 3.1c0 0-46 2.3-49.6 2-3.6-0.4-1.7-2.6-1.4-4.7 0.3-2.1 0.1-1.5-4.3-0.8-4.5 0.7-18.5 2.5-21.9 2.5-3.4 0.1-9-1.4-12.7-2.7-3.6-1.4-7.3-3.4-9.5-6.6-2.3-3.2-2.6-13-2.1-16.9 0.6-4 1.7-11.4 1.7-11.4 0 0 4.7-17.5 5.6-20.4 0.9-3 5.7-15.7 7-20.2 1.3-4.4 6.2-15.5 7.6-18.7 1.4-3.3 6.4-14.9 8.6-19.9 2.3-5.1 6.3-9.3 7.1-10.9 0.9-1.7 8.3-10 9.1-12.3 0.7-2.3 2.8-5 6.9-6.6 4.1-1.6 11.9-4.6 16.2-5.5 4.2-0.9 13.5-3.8 17.5-3.9 4.1-0.2 6.5 2.1 8.6 3.2 2.1 1.2 7.1 4.6 10.1 5.3 3.1 0.7 9.6 0.9 13.2-0.6 3.5-1.4 8.9-5 10.3-6 1.4-1 5.4-1.5 7.4-1.8 2-0.3 9 0.1 13 0.9 3.9 0.9 15.8 2.3 15.8 2.3 0 0 4.8 3.2 7.5 5.4 2.7 2.1 12.2 13.1 12.2 13.1l14 22.1c0 0 4.4 6.5 5.2 7.9 0.8 1.4 2.5-0.2 3.4-2.5 1-2.3 1.3-3.1 3.5-8.2 2.3-5 7.1-18.3 7.5-19.3 0.4-1 2.6-4.6 3.2-5.1 0.5-0.6 5.6 3.4 9.3 5.9 3.6 2.5 12.4 6.3 15.1 8.2 0 0 7.1 2.5 9.9 3.8z"/>
					<path id="&lt;Path&gt;" class="s0" d="m242.6 645.4c-2.1-2-3.3 0.7-4.4 2.5-1 1.9-7.6 3.7-10.9 3.8-3.3 0.1-3.7 0.2-4.8-1.8-1.1-2.1-3.2-12.4-3.5-14.8-0.4-2.4 0.1-12.7 0.8-16.1 0.6-3.5 1.7-3.1 2.6-4.1 1-1 15.8-5.2 18.2-5.9 2.3-0.6 8.5-2 11.3-2 2.9 0 5.2 2.1 9.4 4 4.1 2 8.8 7.4 10.6 9.4 1.7 2 3.9 8.4 3.9 8.4 0 0-1 3.2-2.9 5.1-2 1.9-7.4 6-9.1 7.3-1.7 1.3-3.5 4.9-6.4 7.1-2.9 2.2-4.9 1.5-8.9 1.3 0 0-3.9-2.2-5.9-4.2z"/>
					<g id="&lt;Group&gt;">
						<path id="&lt;Path&gt;" class="s6" d="m196.7 477.5c0 0-1.6-5.4-1.9-6.7-0.3-1.4-2-9.7-2.1-10.5-0.1-0.9-0.7-4.2-0.7-5.4-0.1-1.3 0.7-3.6 1.3-5.2 0.5-1.6 2.8-5.6 3.6-6.8 0.8-1.2 2.4-3 3.5-4.5 1.1-1.5 4.5-4.2 6.7-5.4 2.2-1.2 3.7-1.8 6.1-2.4 2.3-0.5 7.4-1.6 9.2-1.7 1.8 0 7.5 0 10.9 0.5 3.5 0.5 7.9 2.4 7.9 2.4 0 0 7.3 4.2 9.5 5.4 2.2 1.2 3.6 2.4 5 3.5 1.5 1 5 5 5.5 6.4 0.5 1.4 0.7 1.9 1 4 0.3 2.1 0.5 6.6 0.6 9.2 0 2.6-1.2 9.6-1.5 12.3-0.4 2.7-1 4.6-1.3 6.7z"/>
						<path id="&lt;Path&gt;" class="s0" d="m255.9 474.3c0.1 0.6 0.5 1 1.1 1.1 0.6 0.1 0.6 0.2 1.5 0.8 0.9 0.5 2.2 2 2.6 2.7 0.3 0.7 0.7 2.4 0.7 3.7 0 1.3-0.4 2.4-1.1 3.8-0.6 1.3-2.4 2.9-3.6 3.2-1.3 0.3-1.6 1.9-1.6 1.9 0 0-0.9 6.1-1.4 7.9-0.6 1.8-1.1 3.3-1.5 4.3-0.5 0.9-1.4 2.5-2.3 3.8-1 1.2-6 5.4-7.6 6.1-1.6 0.8-7.3 4.4-9.1 4.9-1.8 0.6-5 1.5-7.5 1.1-2.6-0.4-3.6-0.9-6-1.9-2.4-1.1-5.7-3.1-6.8-3.9-1.2-0.7-4.1-2.7-5.9-4.2-1.7-1.5-3.9-4.8-4.5-5.8-0.6-1-0.8-1.8-1.4-4-0.6-2.1-1.4-7.6-1.5-8.8-0.1-1.2-1.1-1-2.3-1.6-1.2-0.7-0.7-0.7-2-1.8-1.3-1.1-2.3-4-2.3-5.3 0-1.4 1.4-4.2 2-5.1 0.7-0.8 2.6-1.6 3.3-1.9 0.8-0.3 0.7-0.9 0.5-1.8-0.2-0.8-0.7-4-1-5.6-0.3-1.6 0.1-5 0.4-7 0.3-2.1 1.1-5 1.5-5.9 0.4-0.9 2.1-3 3.4-4 1.3-1 4.5-2.4 6.3-2.9 1.8-0.5 3.2-0.1 5.6-0.2 2.4-0.1 5.4 1.4 7 2.2 1.7 0.9 3.5 1.5 5.3 1.1 1.7-0.4 5.4-1.7 6.6-2.1 1.2-0.3 3.2-0.9 6.1-1.2 2.9-0.3 5.2 0.6 7.3 1.6 2 0.9 3.6 3.7 4.2 4.8 0.7 1.2 1.3 2.5 2.2 4.6 0.9 2 1.5 7.2 1.6 7.5 0 0.4 0.4 5.8 0.3 6.7 0 0-0.1 0.6-0.1 1.2z"/>
						<path id="&lt;Path&gt;" class="s0" d="m207.3 519.9c0.1-1.7 0.6-8.1 0.6-8.9 0-1 0.7-0.7 1.3-0.3 0.5 0.3 3.2 2.7 3.2 2.7 0 0 5.2 3.2 6.3 3.7 1 0.5 4.3 1.6 5.4 2 1.2 0.4 4.2 0.8 5.3 0.6 1.1-0.2 6.5-2.1 7.5-2.7 1-0.6 5.5-3.2 6.2-3.7 0.7-0.5 3.2-2.4 3.6-2.8 0.5-0.5 0.9 0.6 0.9 0.6l0.4 5c0 0-0.1 2.2 0 3.2q0.1 0.1 0.1 0.2c-3.3 0.8-6.4 3.8-9.1 5.5-3.6 2.3-7 3.8-11.3 3.9-2 0-3.8-0.1-5.5-0.4-2.6-1.4-5.4-2.4-7.9-3.8-1.4-0.7-2.8-1.4-4.2-2-0.9-0.5-1.6-1.1-2.4-1.7q0-0.6-0.4-1.1z"/>
						<path id="&lt;Path&gt;" class="s3" d="m247.4 519.7l0.1-9.9"/>
						<path id="&lt;Path&gt;" class="s3" d="m208.1 509.8l-0.3 10.8"/>
						<path id="&lt;Path&gt;" class="s3" d="m255.9 483.6c0 0 0.2 10.5-2.4 18.4-2.6 7.8-18.3 17.7-25.7 17.7"/>
						<path id="&lt;Path&gt;" class="s3" d="m227.8 519.7c-7.4 0-23.1-9.9-25.7-17.7-2.6-7.9-2.4-18.4-2.4-18.4"/>
						<path id="&lt;Path&gt;" class="s3" d="m255.8 475.2c0 0 4.4 0 5.8 5.1 1.3 5.1-2.7 9.4-5.9 9.6"/>
						<path id="&lt;Path&gt;" class="s3" d="m199.7 489.9c-3.2-0.2-7.2-4.5-5.9-9.6 1.4-5.1 5.8-5.1 5.8-5.1"/>
						<g id="&lt;Group&gt;">
							<path id="&lt;Path&gt;" class="s3" d="m199.6 475.2c0 0-5.9-21.2 6.6-25.8 12.5-4.7 17 3.7 22.9 1.6 5.8-2.2 17.7-7.3 23 3.7 5.3 11.1 3.7 20.5 3.7 20.5"/>
							<path id="&lt;Path&gt;" class="s3" d="m196.3 476.4c0 0-5.5-18.2-4.1-23.4 1.1-4.4 4.8-12.9 12.9-18.7 8.2-5.9 27.7-7.9 39.2-1 11.5 7 18.5 10.2 18.5 21.8 0 11.6-2.6 22.4-2.6 22.4"/>
						</g>
						<g id="&lt;Group&gt;">
							<path id="&lt;Path&gt;" class="s3" d="m228.3 490.7c-1.6 0-3-1.4-3-3v-7.1"/>
							<path id="&lt;Path&gt;" class="s3" d="m221.9 494.2c0 0 4.5 3.8 10.2 0"/>
							<path id="&lt;Path&gt;" class="s7" d="m238.8 476.9c0 1.1-0.9 1.9-1.9 1.9-1.1 0-2-0.8-2-1.9 0-1.1 0.9-1.9 2-1.9 1 0 1.9 0.8 1.9 1.9z"/>
							<path id="&lt;Path&gt;" class="s7" d="m216.9 476.9c0 1.1-0.8 1.9-1.9 1.9-1.1 0-1.9-0.8-1.9-1.9 0-1.1 0.8-1.9 1.9-1.9 1.1 0 1.9 0.8 1.9 1.9z"/>
							<path id="&lt;Path&gt;" class="s3" d="m208 475.8l-8.9-4.9"/>
							<path id="&lt;Path&gt;" class="s3" d="m243.9 476.4l12.2-5"/>
							<path id="&lt;Path&gt;" class="s3" d="m242.3 466.2c0 0-4.6-2.4-10.9 0.5"/>
							<path id="&lt;Path&gt;" class="s3" d="m209.6 466.2c0 0 4.6-2.4 10.8 0.5"/>
							<path id="&lt;Path&gt;" class="s3" d="m243.9 476.9c0 3.9-3.2 7-7 7-3.9 0-7-3.1-7-7 0-3.9 3.1-7 7-7 3.8 0 7 3.1 7 7z"/>
							<path id="&lt;Path&gt;" class="s3" d="m222 476.9c0 3.9-3.1 7-7 7-3.9 0-7-3.1-7-7 0-3.9 3.1-7 7-7 3.9 0 7 3.1 7 7z"/>
						</g>
						<path id="&lt;Path&gt;" class="s3" d="m261.3 485.3c0 0-0.8-2.1-2.5-3.7"/>
						<path id="&lt;Path&gt;" class="s3" d="m194.2 485.3c0 0 0.8-2.1 2.5-3.7"/>
						<path id="&lt;Path&gt;" class="s3" d="m230.7 473.6c0 0-5.2-2-9.5 0"/>
					</g>
					<path id="&lt;Path&gt;" class="s3" d="m311 597.3l24.9-62.3c0 0 17 12.5 29 16.9 4.9 1.8 8.2 2.6 10.3 2.8 1.7 0.2 2.8 2 2.1 3.6-6.9 14.9-31 67.5-35.7 74-5.6 7.5-26.2 9.5-39.6 3.2-13.4-6.2-22.5-28.9-22.5-28.9l-3.9 66.6"/>
					<path id="&lt;Path&gt;" class="s3" d="m284.5 734.7l-59.9 8.4"/>
					<path id="&lt;Path&gt;" class="s3" d="m227 733.6l-52.6 180h-70.3l59.8-234.8 170.3-8.5c0 0 33.7 5.7 26.1 35.2-7.6 29.5-29.8 104.5-29.8 104.5h-67.8l30.7-106"/>
					<path id="&lt;Path&gt;" class="s3" d="m163.9 678.8l1.9-6.9"/>
					<path id="&lt;Path&gt;" class="s3" d="m219.9 615.8c0 0 22.8-8.7 31.2-8.7 8.3 0 23.6 13.1 24.5 20.3 0.8 7.3-5.8 7.4-5.8 7.4"/>
					<path id="&lt;Path&gt;" class="s3" d="m254.9 617c0 0 15.7 9.2 15.6 15.1-0.2 6-9.1 10.6-9.1 10.6"/>
					<path id="&lt;Path&gt;" class="s3" d="m250.4 625.6c0 0 10.6 10.3 11 15.4 0.5 5.1-4.5 8.6-9.3 9.3-4.9 0.7-10.9-6.7-10.9-6.7"/>
					<path id="&lt;Path&gt;" class="s3" d="m223.1 652.4c0 0 8.1 0.1 12.6-2.5 4.5-2.7 3.8-7.2 8.9-9.7 5.1-2.5 7.9 2.8 7.9 2.8"/>
					<path id="&lt;Path&gt;" class="s3" d="m372.4 554.2c0 0 6.3-9.3 10.3-14.8 3.9-5.6 7.8-8.8 7.8-8.8"/>
					<path id="&lt;Path&gt;" class="s3" d="m399.7 519.6c1.5 1.2 0.3 5.8-4.8 9.1-5.1 3.3-15.1 2.4-14.6-1.3 0.4-3.7 1.6-4 8.7-6.3 0 0 7.6-4.3 10.7-1.5z"/>
					<path id="&lt;Path&gt;" class="s3" d="m380.8 524.7c-4.3 0.6-5.8-3.5-3.9-8.2 2-4.7 12.9-7.8 17.6-5.8 4.8 2 2.5 8 2.5 8"/>
					<path id="&lt;Path&gt;" class="s3" d="m376.1 507c0 0 4.2-4.7 10.7-6.3 6.6-1.5 8.5-0.7 8.5 3.8 0.1 4.5-2.5 5.6-2.5 5.6"/>
					<path id="&lt;Path&gt;" class="s3" d="m338.4 536.8c0 0 13.3-26.4 20.5-32.2 7.2-5.7 14.5-10 14.5-10 0 0 10.4-5.4 13.4-2.1 3 3.2 2.1 7.8 2.1 7.8"/>
					<path id="&lt;Path&gt;" class="s3" d="m377 505.7c-5.1 0.2-8.2-3-8.2-7.2"/>
					<path id="&lt;Path&gt;" class="s3" d="m359 505.4c0 0 9.9-2.1 16.1 2.3 6.1 4.4 5 8.5-0.8 10.3-5.8 1.7-12.2 0-12.2 0"/>
					<path id="&lt;Path&gt;" class="s3" d="m370.3 520c0 0 4.5 9.2 0.5 17.4"/>
					<path id="&lt;Path&gt;" class="s3" d="m331.6 545.9c0 0 25.3 17.9 42.2 19.8"/>
					<path id="&lt;Path&gt;" class="s3" d="m202.5 615.6c0 0-2.4 27.6 3.5 44.9"/>
					<path id="&lt;Path&gt;" class="s3" d="m376 554.8c-2-0.3-5.3-0.9-7.4-1.6-2.2-0.7-12.1-5.1-14.7-6.6-2.6-1.5-5-2.8-8.8-5.3-3.8-2.5-7.6-5.7-8.1-5.5-0.6 0.2-0.9 0.4-1.7 2.2-0.8 1.7-9.6 23.1-10.6 25.7-1.1 2.7-4.4 10.4-5 9.3-0.5-1.1-2.1-4.4-2.1-4.4 0 0-12.5-19.8-17.2-26.3-4.8-6.5-11.5-13.9-14.5-16.1-3-2.2-8.5-3.5-10.3-4.1"/>
					<path id="&lt;Path&gt;" class="s3" d="m153 621.7l67.5-8.3c-4.6 17.2 3.2 41.1 3.2 41.1 0 0-41.4 14.7-68.4 19.6-27.1 5-41.7-4.4-41.3-21.1 0.3-16.6 12.9-52.8 21.2-71.9 8.3-19.1 13.2-34.6 29.9-49.5 6.2-5.5 30.2-12.2 37.7-12.2 1.8 0 3.7 0.1 5 1.2 21 17 32.1 2.7 37.4-0.1 1.4-0.8 3-1.1 4.6-1.1 15.3 0.6 27.7 2 33.9 5.6 13.1 7.5 36.9 48.6 36.9 48.6"/>
					<g id="&lt;Group&gt;">
						<path id="&lt;Path&gt;" class="s2" d="m266.9 819.7c0 0 26.5 2.3 48.6 2.1 22.1-0.1 22.9-4.8 42.9 4.9 20 9.8 22.1 14.5 26.3 28.7l-117.4 0.4z"/>
						<path id="&lt;Path&gt;" class="s1" d="m384.3 855.4c1.3 0.8 0.5 0.5 1.1 3.4 0.6 2.9 0.7 4.2-0.7 4.3-1.5 0-5.3 0-5.3 0h-110.6c0 0-1.2 0.7-1.3-0.8-0.1-1.6-0.2-3.6-0.1-4.6 0-0.9 0-1.8 1.6-1.8 1.7-0.1 112.2-0.8 112.2-0.8z"/>
						<path id="&lt;Path&gt;" class="s3" d="m266.9 819.7c0 0 26.5 2.3 48.6 2.1 22.1-0.1 22.9-4.8 42.9 4.9 20 9.8 22.1 14.5 26.3 28.7l-117.4 0.4z"/>
						<path id="&lt;Path&gt;" class="s3" d="m384.7 855.4l1.6 7.7h-119.2l0.2-7.3"/>
						<path id="&lt;Path&gt;" class="s3" d="m292.5 855.7c0 0-8.4-18.9-25.4-17.5"/>
						<path id="&lt;Path&gt;" class="s3" d="m340.9 820.7c0 0-3.4 14.2-13.6 15.8"/>
						<path id="&lt;Path&gt;" class="s3" d="m356.8 826.5c0 0 0.4 8.4-12.3 14.2"/>
					</g>
					<path id="&lt;Path&gt;" class="s3" d="m317.8 810v11.8"/>
					<path id="&lt;Path&gt;" class="s3" d="m273.6 810v9.7"/>
					<g id="&lt;Group&gt;">
						<path id="&lt;Path&gt;" class="s5" d="m461.2 868.5v92.6c0 2.9-2.4 5.4-5.4 5.4h-188.7c-3 0-5.4-2.5-5.4-5.4v-92.6c0-2.9 2.4-5.4 5.4-5.4h188.7c3 0 5.4 2.5 5.4 5.4z"/>
						<path id="&lt;Path&gt;" class="s3" d="m461.2 868.5v92.6c0 2.9-2.4 5.4-5.4 5.4h-188.7c-3 0-5.4-2.5-5.4-5.4v-92.6c0-2.9 2.4-5.4 5.4-5.4h188.7c3 0 5.4 2.5 5.4 5.4z"/>
						<path id="&lt;Path&gt;" class="s2" d="m438.8 952.3h-150.9c-3.4 0-6.2-2.8-6.2-6.2v-14.7c0-3.4 2.8-6.1 6.2-6.1h150.9c3.4 0 6.2 2.7 6.2 6.1v14.7c0 3.4-2.8 6.2-6.2 6.2z"/>
						<path id="&lt;Path&gt;" class="s3" d="m438.8 952.3h-150.9c-3.4 0-6.2-2.8-6.2-6.2v-14.7c0-3.4 2.8-6.1 6.2-6.1h150.9c3.4 0 6.2 2.7 6.2 6.1v14.7c0 3.4-2.8 6.2-6.2 6.2z"/>
						<path id="&lt;Path&gt;" class="s7" d="m387.5 942.8h-84.1c-0.9 0-1.7-0.8-1.7-1.8v-2.8c0-1 0.8-1.7 1.7-1.7h84.1c1 0 1.8 0.7 1.8 1.7v2.8c0 1-0.8 1.8-1.8 1.8z"/>
						<path id="&lt;Path&gt;" class="s2" d="m438.8 904.3h-150.9c-3.4 0-6.2-2.7-6.2-6.1v-14.7c0-3.4 2.8-6.2 6.2-6.2h150.9c3.4 0 6.2 2.8 6.2 6.2v14.7c0 3.4-2.8 6.1-6.2 6.1z"/>
						<path id="&lt;Path&gt;" class="s3" d="m438.8 904.3h-150.9c-3.4 0-6.2-2.7-6.2-6.1v-14.7c0-3.4 2.8-6.2 6.2-6.2h150.9c3.4 0 6.2 2.8 6.2 6.2v14.7c0 3.4-2.8 6.1-6.2 6.1z"/>
						<path id="&lt;Path&gt;" class="s7" d="m387.5 894.8h-84.1c-0.9 0-1.7-0.7-1.7-1.7v-2.8c0-1 0.8-1.8 1.7-1.8h84.1c1 0 1.8 0.8 1.8 1.8v2.8c0 1-0.8 1.7-1.8 1.7z"/>
					</g>
					<g id="&lt;Group&gt;">
						<path id="&lt;Path&gt;" class="s5" d="m461.2 971.9v92.5c0 3-2.4 5.4-5.4 5.4h-188.7c-3 0-5.4-2.4-5.4-5.4v-92.5c0-3 2.4-5.4 5.4-5.4h188.7c3 0 5.4 2.4 5.4 5.4z"/>
						<path id="&lt;Path&gt;" class="s3" d="m461.2 971.9v92.5c0 3-2.4 5.4-5.4 5.4h-188.7c-3 0-5.4-2.4-5.4-5.4v-92.5c0-3 2.4-5.4 5.4-5.4h188.7c3 0 5.4 2.4 5.4 5.4z"/>
						<path id="&lt;Path&gt;" class="s2" d="m438.8 1055.6h-150.9c-3.4 0-6.2-2.7-6.2-6.2v-14.6c0-3.4 2.8-6.2 6.2-6.2h150.9c3.4 0 6.2 2.8 6.2 6.2v14.6c0 3.5-2.8 6.2-6.2 6.2z"/>
						<path id="&lt;Path&gt;" class="s3" d="m438.8 1055.6h-150.9c-3.4 0-6.2-2.7-6.2-6.2v-14.6c0-3.4 2.8-6.2 6.2-6.2h150.9c3.4 0 6.2 2.8 6.2 6.2v14.6c0 3.5-2.8 6.2-6.2 6.2z"/>
						<path id="&lt;Path&gt;" class="s7" d="m387.5 1046.1h-84.1c-0.9 0-1.7-0.8-1.7-1.7v-2.9c0-0.9 0.8-1.7 1.7-1.7h84.1c1 0 1.8 0.8 1.8 1.7v2.9c0 0.9-0.8 1.7-1.8 1.7z"/>
						<path id="&lt;Path&gt;" class="s2" d="m438.8 1007.7h-150.9c-3.4 0-6.2-2.8-6.2-6.2v-14.7c0-3.4 2.8-6.1 6.2-6.1h150.9c3.4 0 6.2 2.7 6.2 6.1v14.7c0 3.4-2.8 6.2-6.2 6.2z"/>
						<path id="&lt;Path&gt;" class="s3" d="m438.8 1007.7h-150.9c-3.4 0-6.2-2.8-6.2-6.2v-14.7c0-3.4 2.8-6.1 6.2-6.1h150.9c3.4 0 6.2 2.7 6.2 6.1v14.7c0 3.4-2.8 6.2-6.2 6.2z"/>
						<path id="&lt;Path&gt;" class="s7" d="m387.5 998.2h-84.1c-0.9 0-1.7-0.8-1.7-1.7v-2.9c0-1 0.8-1.7 1.7-1.7h84.1c1 0 1.8 0.7 1.8 1.7v2.9c0 0.9-0.8 1.7-1.8 1.7z"/>
					</g>
					<g id="&lt;Group&gt;">
						<path id="&lt;Path&gt;" class="s5" d="m269.3 971.9v92.5c0 3-2.4 5.4-5.4 5.4h-188.7c-2.9 0-5.4-2.4-5.4-5.4v-92.5c0-3 2.5-5.4 5.4-5.4h188.7c3 0 5.4 2.4 5.4 5.4z"/>
						<path id="&lt;Path&gt;" class="s3" d="m269.3 971.9v92.5c0 3-2.4 5.4-5.4 5.4h-188.7c-2.9 0-5.4-2.4-5.4-5.4v-92.5c0-3 2.5-5.4 5.4-5.4h188.7c3 0 5.4 2.4 5.4 5.4z"/>
						<path id="&lt;Path&gt;" class="s2" d="m247 1055.6h-150.9c-3.4 0-6.2-2.7-6.2-6.2v-14.6c0-3.4 2.8-6.2 6.2-6.2h150.9c3.4 0 6.2 2.8 6.2 6.2v14.6c0 3.5-2.8 6.2-6.2 6.2z"/>
						<path id="&lt;Path&gt;" class="s3" d="m247 1055.6h-150.9c-3.4 0-6.2-2.7-6.2-6.2v-14.6c0-3.4 2.8-6.2 6.2-6.2h150.9c3.4 0 6.2 2.8 6.2 6.2v14.6c0 3.5-2.8 6.2-6.2 6.2z"/>
						<path id="&lt;Path&gt;" class="s7" d="m195.7 1046.1h-84.1c-1 0-1.8-0.8-1.8-1.7v-2.9c0-0.9 0.8-1.7 1.8-1.7h84.1c1 0 1.7 0.8 1.7 1.7v2.9c0 0.9-0.7 1.7-1.7 1.7z"/>
						<path id="&lt;Path&gt;" class="s2" d="m247 1007.7h-150.9c-3.4 0-6.2-2.8-6.2-6.2v-14.7c0-3.4 2.8-6.1 6.2-6.1h150.9c3.4 0 6.2 2.7 6.2 6.1v14.7c0 3.4-2.8 6.2-6.2 6.2z"/>
						<path id="&lt;Path&gt;" class="s3" d="m247 1007.7h-150.9c-3.4 0-6.2-2.8-6.2-6.2v-14.7c0-3.4 2.8-6.1 6.2-6.1h150.9c3.4 0 6.2 2.7 6.2 6.1v14.7c0 3.4-2.8 6.2-6.2 6.2z"/>
						<path id="&lt;Path&gt;" class="s7" d="m195.7 998.2h-84.1c-1 0-1.8-0.8-1.8-1.7v-2.9c0-1 0.8-1.7 1.8-1.7h84.1c1 0 1.7 0.7 1.7 1.7v2.9c0 0.9-0.7 1.7-1.7 1.7z"/>
					</g>
					<g id="&lt;Group&gt;">
						<path id="&lt;Path&gt;" class="s5" d="m660.7 971.9v92.5c0 3-2.4 5.4-5.4 5.4h-188.7c-3 0-5.4-2.4-5.4-5.4v-92.5c0-3 2.4-5.4 5.4-5.4h188.7c3 0 5.4 2.4 5.4 5.4z"/>
						<path id="&lt;Path&gt;" class="s3" d="m660.7 971.9v92.5c0 3-2.4 5.4-5.4 5.4h-188.7c-3 0-5.4-2.4-5.4-5.4v-92.5c0-3 2.4-5.4 5.4-5.4h188.7c3 0 5.4 2.4 5.4 5.4z"/>
						<path id="&lt;Path&gt;" class="s2" d="m638.3 1055.6h-150.9c-3.4 0-6.2-2.7-6.2-6.2v-14.6c0-3.4 2.8-6.2 6.2-6.2h150.9c3.4 0 6.2 2.8 6.2 6.2v14.6c0 3.5-2.8 6.2-6.2 6.2z"/>
						<path id="&lt;Path&gt;" class="s3" d="m638.3 1055.6h-150.9c-3.4 0-6.2-2.7-6.2-6.2v-14.6c0-3.4 2.8-6.2 6.2-6.2h150.9c3.4 0 6.2 2.8 6.2 6.2v14.6c0 3.5-2.8 6.2-6.2 6.2z"/>
						<path id="&lt;Path&gt;" class="s7" d="m587 1046.1h-84.1c-0.9 0-1.7-0.8-1.7-1.7v-2.9c0-0.9 0.8-1.7 1.7-1.7h84.1c1 0 1.8 0.8 1.8 1.7v2.9c0 0.9-0.8 1.7-1.8 1.7z"/>
						<path id="&lt;Path&gt;" class="s2" d="m638.3 1007.7h-150.9c-3.4 0-6.2-2.8-6.2-6.2v-14.7c0-3.4 2.8-6.1 6.2-6.1h150.9c3.4 0 6.2 2.7 6.2 6.1v14.7c0 3.4-2.8 6.2-6.2 6.2z"/>
						<path id="&lt;Path&gt;" class="s3" d="m638.3 1007.7h-150.9c-3.4 0-6.2-2.8-6.2-6.2v-14.7c0-3.4 2.8-6.1 6.2-6.1h150.9c3.4 0 6.2 2.7 6.2 6.1v14.7c0 3.4-2.8 6.2-6.2 6.2z"/>
						<path id="&lt;Path&gt;" class="s7" d="m587 998.2h-84.1c-0.9 0-1.7-0.8-1.7-1.7v-2.9c0-1 0.8-1.7 1.7-1.7h84.1c1 0 1.8 0.7 1.8 1.7v2.9c0 0.9-0.8 1.7-1.8 1.7z"/>
					</g>
				</g>
				<path id="&lt;Path&gt;" class="s8" d="m1160.7 904.3h-637.5c-20.9 0-37.8-16.9-37.8-37.7v-400c0-20.8 16.9-37.7 37.8-37.7h637.5c20.8 0 37.7 16.9 37.7 37.7v400c0 20.8-16.9 37.7-37.7 37.7z"/>
				<path id="&lt;Path&gt;" class="s3" d="m1160.7 904.3h-637.5c-20.9 0-37.8-16.9-37.8-37.7v-400c0-20.8 16.9-37.7 37.8-37.7h637.5c20.8 0 37.7 16.9 37.7 37.7v400c0 20.8-16.9 37.7-37.7 37.7z"/>
				<path id="&lt;Path&gt;" class="s9" d="m513.2 846.9v-360.6c0-16.3 13.3-29.6 29.6-29.6h598.2c16.4 0 29.6 13.3 29.6 29.6v360.6c0 16.4-13.2 29.6-29.6 29.6h-598.2c-16.3 0-29.6-13.2-29.6-29.6z"/>
				<path id="&lt;Path&gt;" class="s3" d="m513.2 846.9v-360.6c0-16.3 13.3-29.6 29.6-29.6h598.2c16.4 0 29.6 13.3 29.6 29.6v360.6c0 16.4-13.2 29.6-29.6 29.6h-598.2c-16.3 0-29.6-13.2-29.6-29.6z"/>
				<g id="&lt;Group&gt;">
					<path id="&lt;Path&gt;" class="s3" d="m903.6 904.5l26.3 79.5"/>
					<path id="&lt;Path&gt;" class="s3" d="m872.7 904.5l26.3 79.5"/>
					<path id="&lt;Path&gt;" class="s3" d="m781.8 904.5l-26.2 79.5"/>
					<path id="&lt;Path&gt;" class="s3" d="m812.8 904.5l-26.3 79.5"/>
				</g>
				<path id="&lt;Path&gt;" class="s10" d="m677.8 983.8h328.2c26.2 0 47.4 21.2 47.4 47.4v38.6h-423v-38.6c0-26.2 21.2-47.4 47.4-47.4z"/>
				<path id="&lt;Path&gt;" class="s3" d="m677.8 983.8h328.2c26.2 0 47.4 21.2 47.4 47.4v38.6h-423v-38.6c0-26.2 21.2-47.4 47.4-47.4z"/>
				<path id="&lt;Path&gt;" class="s8" d="m617.6 833.6h-50.4v-291.2h50.4z"/>
				<path id="&lt;Path&gt;" class="s3" d="m617.6 833.6h-50.4v-291.2h50.4z"/>
				<path id="&lt;Path&gt;" class="s8" d="m715.7 833.6h-50.3v-291.2h50.3z"/>
				<path id="&lt;Path&gt;" class="s10" d="m617.6 833.6h-50.4v-45.3h50.4z"/>
				<path id="&lt;Path&gt;" class="s10" d="m715.7 833.6h-50.3v-140.7h50.3z"/>
				<path id="&lt;Path&gt;" class="s3" d="m617.6 833.6h-50.4v-45.3h50.4z"/>
				<path id="&lt;Path&gt;" class="s3" d="m715.7 833.6h-50.3v-291.2h50.3z"/>
				<path id="&lt;Path&gt;" class="s3" d="m715.7 833.6h-50.3v-140.7h50.3z"/>
				<path id="&lt;Path&gt;" class="s8" d="m813.8 833.6h-50.3v-291.2h50.3z"/>
				<path id="&lt;Path&gt;" class="s3" d="m813.8 833.6h-50.3v-291.2h50.3z"/>
				<path id="&lt;Path&gt;" class="s10" d="m813.8 833.6h-50.3v-209.7h50.3z"/>
				<path id="&lt;Path&gt;" class="s3" d="m813.8 833.6h-50.3v-209.7h50.3z"/>
				<g id="&lt;Group&gt;">
					<path id="&lt;Path&gt;" class="s1" d="m1200.9 879.2l35.8-115.6-18.2-7.6 50.1-40.6 17.4 64-20.9-7.2-48.8 159.7z"/>
					<path id="&lt;Path&gt;" class="s3" d="m1200.9 879.2l35.8-115.6-18.2-7.6 50.1-40.6 17.4 64-20.9-7.2-48.8 159.7z"/>
					<path id="&lt;Path&gt;" class="s1" d="m1188 931.9l-34.8-107-25.9 79.4h-26.7l32.8-109.9h42.2l40.7 137.5z"/>
					<path id="&lt;Path&gt;" class="s3" d="m1188 931.9l-34.8-107-25.9 79.4h-26.7l32.8-109.9h42.2l40.7 137.5z"/>
					<path id="&lt;Path&gt;" class="s3" d="m1153.2 824.9l-9.1-30.5"/>
				</g>
				<path id="&lt;Path&gt;" class="s3" d="m909.6 565.8h214"/>
				<path id="&lt;Path&gt;" class="s3" d="m909.6 600.2h214"/>
				<path id="&lt;Path&gt;" class="s3" d="m909.6 634.6h214"/>
				<path id="&lt;Path&gt;" class="s3" d="m909.6 669h214"/>
				<path id="&lt;Path&gt;" class="s3" d="m909.6 703.4h214"/>
				<path id="&lt;Path&gt;" class="s3" d="m909.6 737.8h214"/>
				<path id="&lt;Path&gt;" class="s3" d="m909.6 772.2h214"/>
				<path id="&lt;Path&gt;" class="s5" d="m381.4 354c0 0 77.1-26.3 153.4 0 76.2 26.4 190 59.2 233.9 57.7 0 0-135.1 50.6-217 29.9-81.9-20.6-171.5 41-171.5 41"/>
				<path id="&lt;Path&gt;" class="s3" d="m381.4 354c0 0 77.1-26.3 153.4 0 76.2 26.4 190 59.2 233.9 57.7 0 0-135.1 50.6-217 29.9-81.9-20.6-171.5 41-171.5 41"/>
				<path id="&lt;Path&gt;" class="s3" d="m909.6 806.5h214"/>
				<path id="&lt;Path&gt;" class="s3" d="m380.2 491.4v-160.1"/>
				<path id="&lt;Path&gt;" class="s3" d="m380.2 843.5v-301.1-16.1"/>
				<path id="&lt;Path&gt;" class="s7" d="m389 331.3c0 4.9-3.9 8.8-8.8 8.8-4.8 0-8.7-3.9-8.7-8.8 0-4.8 3.9-8.7 8.7-8.7 4.9 0 8.8 3.9 8.8 8.7z"/>
				<path id="&lt;Path&gt;" class="s3" d="m1377.3 1069.8h-1354.6"/>
			</g>
			<path id="&lt;Path&gt;" class="s3" d="m413.1 440.9c4.6-1.6 37-21.1 78.3-21.1"/>
			<path id="&lt;Path&gt;" class="s3" d="m646.4 401.7c20.8 7.9 67.9 15.5 67.9 15.5"/>
			<path id="&lt;Path&gt;" class="s9" d="m1175.1 974.6c0 5.1-4.1 9.3-9.3 9.3-5.1 0-9.3-4.2-9.3-9.3 0-5.2 4.2-9.3 9.3-9.3 5.2 0 9.3 4.1 9.3 9.3z"/>
			<path id="&lt;Path&gt;" class="s9" d="m320.3 378.3c0 5.2-4.2 9.3-9.3 9.3-5.1 0-9.3-4.1-9.3-9.3 0-5.1 4.2-9.3 9.3-9.3 5.1 0 9.3 4.2 9.3 9.3z"/>
			<path id="&lt;Path&gt;" class="s9" d="m496.2 941.6c0 1.2-0.9 2.2-2.1 2.2-1.2 0-2.2-1-2.2-2.2 0-1.2 1-2.2 2.2-2.2 1.2 0 2.1 1 2.1 2.2z"/>
			<path id="&lt;Path&gt;" class="s8" d="m442.8 737.2c0 2.3-1.9 4.2-4.2 4.2-2.3 0-4.2-1.9-4.2-4.2 0-2.4 1.9-4.3 4.2-4.3 2.3 0 4.2 1.9 4.2 4.3z"/>
			<path id="&lt;Path&gt;" class="s8" d="m1290.2 565.8c0 2.4-1.9 4.3-4.2 4.3-2.4 0-4.3-1.9-4.3-4.3 0-2.3 1.9-4.2 4.3-4.2 2.3 0 4.2 1.9 4.2 4.2z"/>
			<path id="&lt;Path&gt;" class="s8" d="m1349.6 1042.1c0 2.4-1.9 4.3-4.3 4.3-2.3 0-4.2-1.9-4.2-4.3 0-2.3 1.9-4.2 4.2-4.2 2.4 0 4.3 1.9 4.3 4.2z"/>
			<path id="&lt;Path&gt;" class="s8" d="m51.6 763.3c0 2.3-1.9 4.2-4.2 4.2-2.4 0-4.3-1.9-4.3-4.2 0-2.4 1.9-4.3 4.3-4.3 2.3 0 4.2 1.9 4.2 4.3z"/>
		</g>
	</g>
</svg>