<svg version="1.2" xmlns="http://www.w3.org/2000/svg" viewBox="0 0 515 515" width="515" height="515">
	<title>Content Moderation-ai</title>
	<style>
		.s0 { fill: #fff8e1 } 
		.s1 { fill: #00bbd6 } 
		.s2 { fill: none;stroke: #000000;stroke-linecap: round;stroke-linejoin: round;stroke-width: 1.3 } 
		.s3 { fill: #bcebf1 } 
		.s4 { fill: #000000 } 
		.s5 { fill: #ffcf44 } 
		.s6 { fill: #fc6140 } 
		.s7 { fill: #ffe8ad } 
		.s8 { fill: #ffffff } 
	</style>
	<g id="Layer 1">
		<g id="&lt;Group&gt;">
			<path id="&lt;Path&gt;" class="s0" d="m462.9 443.2h-578.8q-88.9-176.2-46.1-261.9c42.7-85.7 223.3-101.2 377.6-67.8 154.4 33.4 277.2 82.9 281.4 169.4q4.1 86.4-34.7 160.3"/>
			<g id="&lt;Group&gt;">
				<g id="&lt;Group&gt;">
					<g id="&lt;Group&gt;">
						<rect id="&lt;Path&gt;" class="s1" x="-54.2" y="339.6" width="99.8" height="51.7" rx="2.7"></rect>
						<rect id="&lt;Path&gt;" class="s2" x="-54.2" y="339.6" width="99.8" height="51.7" rx="2.7"></rect>
						<rect id="&lt;Path&gt;" class="s3" x="-44.1" y="370.6" width="81.6" height="13.5" rx="3.1"></rect>
						<rect id="&lt;Path&gt;" class="s2" x="-44.1" y="370.6" width="81.6" height="13.5" rx="3.1"></rect>
						<rect id="&lt;Path&gt;" class="s4" x="-34.2" y="376.2" width="43.8" height="3.2" rx=".9"></rect>
						<rect id="&lt;Path&gt;" class="s3" x="-44.1" y="346.7" width="81.6" height="13.5" rx="3.1"></rect>
						<rect id="&lt;Path&gt;" class="s2" x="-44.1" y="346.7" width="81.6" height="13.5" rx="3.1"></rect>
						<rect id="&lt;Path&gt;" class="s4" x="-34.2" y="352.3" width="43.8" height="3.2" rx=".9"></rect>
					</g>
					<g id="&lt;Group&gt;">
						<rect id="&lt;Path&gt;" class="s1" x="-54.2" y="391.2" width="99.8" height="51.7" rx="2.7"></rect>
						<rect id="&lt;Path&gt;" class="s2" x="-54.2" y="391.2" width="99.8" height="51.7" rx="2.7"></rect>
						<rect id="&lt;Path&gt;" class="s3" x="-44.1" y="422.3" width="81.6" height="13.5" rx="3.1"></rect>
						<rect id="&lt;Path&gt;" class="s2" x="-44.1" y="422.3" width="81.6" height="13.5" rx="3.1"></rect>
						<rect id="&lt;Path&gt;" class="s4" x="-34.2" y="427.9" width="43.8" height="3.2" rx=".9"></rect>
						<rect id="&lt;Path&gt;" class="s3" x="-44.1" y="398.3" width="81.6" height="13.5" rx="3.1"></rect>
						<rect id="&lt;Path&gt;" class="s2" x="-44.1" y="398.3" width="81.6" height="13.5" rx="3.1"></rect>
						<rect id="&lt;Path&gt;" class="s4" x="-34.2" y="403.9" width="43.8" height="3.2" rx=".9"></rect>
					</g>
					<g id="&lt;Group&gt;">
						<rect id="&lt;Path&gt;" class="s1" x="-150.1" y="391.2" width="99.8" height="51.7" rx="2.7"></rect>
						<rect id="&lt;Path&gt;" class="s2" x="-150.1" y="391.2" width="99.8" height="51.7" rx="2.7"></rect>
						<rect id="&lt;Path&gt;" class="s3" x="-140.1" y="422.3" width="81.6" height="13.5" rx="3.1"></rect>
						<rect id="&lt;Path&gt;" class="s2" x="-140.1" y="422.3" width="81.6" height="13.5" rx="3.1"></rect>
						<rect id="&lt;Path&gt;" class="s4" x="-130.1" y="427.9" width="43.8" height="3.2" rx=".9"></rect>
						<rect id="&lt;Path&gt;" class="s3" x="-140.1" y="398.3" width="81.6" height="13.5" rx="3.1"></rect>
						<rect id="&lt;Path&gt;" class="s2" x="-140.1" y="398.3" width="81.6" height="13.5" rx="3.1"></rect>
						<rect id="&lt;Path&gt;" class="s4" x="-130.1" y="403.9" width="43.8" height="3.2" rx=".9"></rect>
					</g>
					<g id="&lt;Group&gt;">
						<rect id="&lt;Path&gt;" class="s1" x="45.6" y="391.2" width="99.8" height="51.7" rx="2.7"></rect>
						<rect id="&lt;Path&gt;" class="s2" x="45.6" y="391.2" width="99.8" height="51.7" rx="2.7"></rect>
						<rect id="&lt;Path&gt;" class="s3" x="55.6" y="422.3" width="81.6" height="13.5" rx="3.1"></rect>
						<rect id="&lt;Path&gt;" class="s2" x="55.6" y="422.3" width="81.6" height="13.5" rx="3.1"></rect>
						<rect id="&lt;Path&gt;" class="s4" x="65.6" y="427.9" width="43.8" height="3.2" rx=".9"></rect>
						<rect id="&lt;Path&gt;" class="s3" x="55.6" y="398.3" width="81.6" height="13.5" rx="3.1"></rect>
						<rect id="&lt;Path&gt;" class="s2" x="55.6" y="398.3" width="81.6" height="13.5" rx="3.1"></rect>
						<rect id="&lt;Path&gt;" class="s4" x="65.6" y="403.9" width="43.8" height="3.2" rx=".9"></rect>
					</g>
				</g>
				<rect id="&lt;Path&gt;" class="s5" x="57.7" y="122.5" width="356.5" height="237.7" rx="18.9"></rect>
				<rect id="&lt;Path&gt;" class="s2" x="57.7" y="122.5" width="356.5" height="237.7" rx="18.9"></rect>
				<rect id="&lt;Path&gt;" class="s6" x="71.6" y="136.4" width="328.7" height="209.9" rx="14.8"></rect>
				<rect id="&lt;Path&gt;" class="s2" x="71.6" y="136.4" width="328.7" height="209.9" rx="14.8"></rect>
				<g id="&lt;Group&gt;">
					<path id="&lt;Path&gt;" class="s2" d="m266.8 360.2l13.1 39.8"/>
					<path id="&lt;Path&gt;" class="s2" d="m251.4 360.2l13.1 39.8"/>
					<path id="&lt;Path&gt;" class="s2" d="m205.9 360.2l-13.1 39.8"/>
					<path id="&lt;Path&gt;" class="s2" d="m221.4 360.2l-13.2 39.8"/>
				</g>
				<path id="&lt;Path&gt;" class="s7" d="m153.9 399.9h164.1c13.1 0 23.7 10.6 23.7 23.7v19.3h-211.5v-19.3c0-13.1 10.6-23.7 23.7-23.7z"/>
				<path id="&lt;Path&gt;" class="s2" d="m153.9 399.9h164.1c13.1 0 23.7 10.6 23.7 23.7v19.3h-211.5v-19.3c0-13.1 10.6-23.7 23.7-23.7z"/>
				<path id="&lt;Path&gt;" class="s5" d="m123.8 324.8h-25.2v-145.6h25.2z"/>
				<path id="&lt;Path&gt;" class="s2" d="m123.8 324.8h-25.2v-145.6h25.2z"/>
				<path id="&lt;Path&gt;" class="s5" d="m172.8 324.8h-25.1v-145.6h25.1z"/>
				<path id="&lt;Path&gt;" class="s7" d="m123.8 324.8h-25.2v-22.7h25.2z"/>
				<path id="&lt;Path&gt;" class="s7" d="m172.8 324.8h-25.1v-70.3h25.1z"/>
				<path id="&lt;Path&gt;" class="s2" d="m123.8 324.8h-25.2v-22.7h25.2z"/>
				<path id="&lt;Path&gt;" class="s2" d="m172.8 324.8h-25.1v-145.6h25.1z"/>
				<path id="&lt;Path&gt;" class="s2" d="m172.8 324.8h-25.1v-70.3h25.1z"/>
				<path id="&lt;Path&gt;" class="s5" d="m221.9 324.8h-25.2v-145.6h25.2z"/>
				<path id="&lt;Path&gt;" class="s2" d="m221.9 324.8h-25.2v-145.6h25.2z"/>
				<path id="&lt;Path&gt;" class="s7" d="m221.9 324.8h-25.2v-104.9h25.2z"/>
				<path id="&lt;Path&gt;" class="s2" d="m221.9 324.8h-25.2v-104.9h25.2z"/>
				<g id="&lt;Group&gt;">
					<path id="&lt;Path&gt;" class="s8" d="m415.5 347.6l17.9-57.8-9.2-3.8 25.1-20.3 8.7 32-10.5-3.6-24.4 79.8z"/>
					<path id="&lt;Path&gt;" class="s2" d="m415.5 347.6l17.9-57.8-9.2-3.8 25.1-20.3 8.7 32-10.5-3.6-24.4 79.8z"/>
					<path id="&lt;Path&gt;" class="s8" d="m409 373.9l-17.4-53.4-12.9 39.6h-13.4l16.4-54.9h21.1l20.3 68.7z"/>
					<path id="&lt;Path&gt;" class="s2" d="m409 373.9l-17.4-53.4-12.9 39.6h-13.4l16.4-54.9h21.1l20.3 68.7z"/>
					<path id="&lt;Path&gt;" class="s2" d="m391.6 320.5l-4.5-15.3"/>
				</g>
				<path id="&lt;Path&gt;" class="s2" d="m269.8 190.9h107"/>
				<path id="&lt;Path&gt;" class="s2" d="m269.8 208.1h107"/>
				<path id="&lt;Path&gt;" class="s2" d="m269.8 225.3h107"/>
				<path id="&lt;Path&gt;" class="s2" d="m269.8 242.5h107"/>
				<path id="&lt;Path&gt;" class="s2" d="m269.8 259.7h107"/>
				<path id="&lt;Path&gt;" class="s2" d="m269.8 276.9h107"/>
				<path id="&lt;Path&gt;" class="s2" d="m269.8 294.1h107"/>
				<path id="&lt;Path&gt;" class="s1" d="m5.7 85q38.6-13.2 76.7 0c38.1 13.2 95 29.6 117 28.9q-67.6 25.2-108.5 14.9-41-10.3-85.8 20.5"/>
				<path id="&lt;Path&gt;" class="s2" d="m5.7 85q38.6-13.2 76.7 0c38.1 13.2 95 29.6 117 28.9q-67.6 25.2-108.5 14.9-41-10.3-85.8 20.5"/>
				<path id="&lt;Path&gt;" class="s2" d="m269.8 311.3h107"/>
				<path id="&lt;Path&gt;" class="s2" d="m5.1 153.7v-80"/>
				<path id="&lt;Path&gt;" class="s2" d="m5.1 337.7v-150.5-8"/>
				<path id="&lt;Path&gt; copy" class="s2" d="m5.1 307.7v-150.5-8"/>
				<circle id="&lt;Path&gt;" class="s4" cx="5.1" cy="73.7" r="4.4"/>
				<path id="&lt;Path&gt;" class="s2" d="m503.7 442.9h-677.4"/>
			</g>
			<path id="&lt;Path&gt;" class="s2" d="m21.5 128.4c2.4-0.7 18.5-10.5 39.2-10.5"/>
			<path id="&lt;Path&gt;" class="s2" d="m138.2 108.9q10.4 3.9 33.9 7.7"/>
			<circle id="&lt;Path&gt;" class="s6" cx="397.9" cy="395.3" r="4.7"/>
			<circle id="&lt;Path&gt;" class="s6" cx="-29.5" cy="97.2" r="4.7"/>
			<circle id="&lt;Path&gt;" class="s6" cx="62" cy="378.8" r="1.1"/>
			<circle id="&lt;Path&gt;" class="s5" cx="34.3" cy="276.6" r="2.1"/>
			<circle id="&lt;Path&gt;" class="s5" cx="458" cy="190.9" r="2.1"/>
			<circle id="&lt;Path&gt;" class="s5" cx="487.7" cy="429.1" r="2.1"/>
			<circle id="&lt;Path&gt;" class="s5" cx="-161.3" cy="289.6" r="2.1"/>
		</g>
	</g>
</svg>