<svg version="1.2" xmlns="http://www.w3.org/2000/svg" viewBox="0 0 800 800" width="800" height="800">
	<title>Create annotation using splines-ai</title>
	<style>
		.s0 { fill: #fff8e1 } 
		.s1 { fill: none;stroke: #000000;stroke-linecap: round;stroke-linejoin: round;stroke-width: 5.2 } 
		.s2 { fill: #ffd740 } 
	</style>
	<g id="Layer 1">
		<g id="&lt;Group&gt;">
			<path id="&lt;Path&gt;" class="s0" d="m107.3 107.3h585.4v585.4h-585.4z"/>
			<path id="&lt;Path&gt;" class="s1" d="m107.3 107.3h585.4v585.4h-585.4z"/>
			<path id="&lt;Path&gt;" class="s1" d="m263.4 107.3q-31.1 38.4-29.9 93.6 1.2 55.2-126.2 101"/>
			<path id="&lt;Path&gt;" class="s1" d="m415.4 107.3q-65.1 36.1-76.3 104.2c-11.1 68.1 8.3 102.7-34 141.4-42.3 38.8-179.6 93.3-197.8 137.9"/>
			<path id="&lt;Path&gt;" class="s1" d="m223.3 692.7c145.6-88.1 123.3-230 146.3-284.4 23-54.4 119.6-81.2 181.7-116.5q62.1-35.2 141.4-127.3"/>
			<path id="&lt;Path&gt;" class="s1" d="m377.3 692.7q72-39.1 95.8-113.5c23.8-74.3 9.2-109.6 92-147.1q82.7-37.6 127.6-87.4"/>
			<path id="&lt;Path&gt;" class="s1" d="m692.7 511q-138.4 57.6-162.9 181.7"/>
			<g id="&lt;Group&gt;">
				<circle id="&lt;Path&gt;" class="s2" cx="632.3" cy="634.8" r="26.5"/>
			</g>
			<g id="&lt;Group&gt;">
				<circle id="&lt;Path&gt;" class="s2" cx="615.9" cy="484.5" r="26.5"/>
			</g>
			<g id="&lt;Group&gt;">
				<circle id="&lt;Path&gt;" class="s2" cx="444.7" cy="435.2" r="26.5"/>
			</g>
			<g id="&lt;Group&gt;">
				<circle id="&lt;Path&gt;" class="s2" cx="236.9" cy="526.9" r="26.5"/>
			</g>
			<g id="&lt;Group&gt;">
				<circle id="&lt;Path&gt;" class="s2" cx="478.6" cy="224.7" r="26.5"/>
			</g>
			<g id="&lt;Group&gt;">
				<circle id="&lt;Path&gt;" class="s2" cx="263.4" cy="299.1" r="26.5"/>
			</g>
			<g id="&lt;Group&gt;">
				<circle id="&lt;Path&gt;" class="s2" cx="178.6" cy="191.1" r="26.5"/>
			</g>
			<circle id="&lt;Path&gt;" class="s1" cx="632.3" cy="634.8" r="26.5"/>
			<circle id="&lt;Path&gt;" class="s1" cx="615.9" cy="484.5" r="26.5"/>
			<circle id="&lt;Path&gt;" class="s1" cx="444.7" cy="435.2" r="26.5"/>
			<circle id="&lt;Path&gt;" class="s1" cx="236.9" cy="526.9" r="26.5"/>
			<circle id="&lt;Path&gt;" class="s1" cx="478.6" cy="224.7" r="26.5"/>
			<circle id="&lt;Path&gt;" class="s1" cx="263.4" cy="299.1" r="26.5"/>
			<circle id="&lt;Path&gt;" class="s1" cx="178.6" cy="191.1" r="26.5"/>
		</g>
	</g>
</svg>