<?xml version="1.0" encoding="utf-8"?>
<!-- Generator: Adobe Illustrator 22.1.0, SVG Export Plug-In . SVG Version: 6.00 Build 0)  -->
<svg version="1.1" id="Layer_1" xmlns="http://www.w3.org/2000/svg" xmlns:xlink="http://www.w3.org/1999/xlink" x="0px" y="0px"
	 viewBox="0 0 1000 1000" style="enable-background:new 0 0 1000 1000;" xml:space="preserve">
<style type="text/css">
	.st0{filter:url(#Adobe_OpacityMaskFilter);}
	.st1{fill:#FFFFFF;}
	.st2{mask:url(#mask-2_2_);fill:#3452FF;}
	.st3{fill:#3452FF;}
</style>
<g id="Symbols">
	<g id="navigation_x2F_white" transform="translate(-44.000000, -26.000000)">
		<g id="Group-4" transform="translate(44.000000, 26.360564)">
			<g id="Group-3" transform="translate(40.734653, 3.818267)">
				<path id="Fill-1" d="M401.2,518.8c4.7-4.9,7.1-11.3,7.1-19.3c0-8-2.4-14.4-7.1-19.3c-4.7-4.9-10.8-7.3-18-7.3
					c-7.3,0-13.3,2.4-18,7.3c-4.7,4.9-7,11.3-7,19.3c0,8,2.4,14.4,7,19.3c4.7,4.9,10.7,7.3,18,7.3
					C390.4,526.1,396.4,523.7,401.2,518.8L401.2,518.8z M427.8,456.9v81.6v3.5h-4.4h-14.5v-11c-3.3,4-7.3,7.1-12.1,9.1
					c-4.8,2-10.1,3-15.9,3c-8.2,0-15.6-1.8-22.1-5.4c-6.5-3.6-11.5-8.7-15.2-15.3c-3.6-6.6-5.5-14.2-5.5-23c0-8.7,1.8-16.3,5.5-22.9
					c3.6-6.5,8.7-11.6,15.2-15.2c6.5-3.6,13.8-5.4,22.1-5.4c5.5,0,10.5,1,15.1,2.9c4.6,1.9,8.6,4.7,11.9,8.5v-10.4H427.8z"/>
				<path id="Fill-3" d="M554,518.8c4.7-4.9,7.1-11.3,7.1-19.3c0-8-2.4-14.4-7.1-19.3c-4.8-4.9-10.8-7.3-18-7.3
					c-7.3,0-13.3,2.4-18,7.3c-4.7,4.9-7,11.3-7,19.3c0,8,2.3,14.4,7,19.3c4.7,4.9,10.7,7.3,18,7.3
					C543.2,526.1,549.3,523.7,554,518.8L554,518.8z M580.6,456.9v85.1h-18.8v-11c-3.3,4-7.3,7.1-12.1,9.1c-4.8,2-10.1,3-15.9,3
					c-8.2,0-15.6-1.8-22.1-5.4c-6.5-3.6-11.5-8.7-15.2-15.3c-3.6-6.6-5.5-14.2-5.5-23c0-8.7,1.8-16.3,5.5-22.9
					c3.6-6.5,8.7-11.6,15.2-15.2c6.5-3.6,13.9-5.4,22.1-5.4c5.5,0,10.5,1,15.1,2.9c4.6,1.9,8.6,4.7,11.9,8.5v-10.4H580.6z"/>
				<path id="Fill-5" d="M803.9,518.8c4.7-4.9,7.1-11.3,7.1-19.3c0-8-2.4-14.4-7.1-19.3c-4.8-4.9-10.8-7.3-18-7.3
					c-7.3,0-13.3,2.4-18,7.3c-4.7,4.9-7,11.3-7,19.3c0,8,2.3,14.4,7,19.3c4.7,4.9,10.7,7.3,18,7.3
					C793.1,526.1,799.1,523.7,803.9,518.8 M762.7,537.6c-6.9-3.7-12.2-8.9-16.1-15.5c-3.9-6.6-5.8-14.2-5.8-22.6
					c0-8.4,1.9-15.9,5.8-22.5c3.8-6.6,9.2-11.7,16.1-15.5c6.9-3.7,14.6-5.6,23.1-5.6c8.7,0,16.4,1.9,23.3,5.6
					c6.9,3.7,12.2,8.9,16.1,15.5c3.8,6.6,5.8,14.1,5.8,22.5c0,8.4-1.9,15.9-5.8,22.6c-3.9,6.6-9.2,11.8-16.1,15.5
					c-6.9,3.7-14.6,5.6-23.3,5.6C777.3,543.2,769.6,541.3,762.7,537.6"/>
				<path id="Fill-7" d="M704.9,519.3c4.7-4.9,7.1-11.3,7.1-19.3c0-8-2.4-14.4-7.1-19.3c-4.8-4.9-10.8-7.3-18-7.3
					c-7.3,0-13.3,2.4-18,7.3c-4.7,4.9-7,11.3-7,19.3c0,8,2.3,14.4,7,19.3c4.7,4.9,10.7,7.3,18,7.3
					C694.1,526.7,700.1,524.2,704.9,519.3 M663.7,538.2c-6.9-3.7-12.2-8.9-16.1-15.5c-3.9-6.6-5.8-14.2-5.8-22.6
					c0-8.4,1.9-15.9,5.8-22.5c3.9-6.6,9.2-11.7,16.1-15.5c6.9-3.7,14.6-5.6,23.1-5.6c8.7,0,16.4,1.9,23.3,5.6
					c6.9,3.7,12.2,8.9,16.1,15.5c3.9,6.6,5.8,14.1,5.8,22.5c0,8.4-1.9,15.9-5.8,22.6c-3.9,6.6-9.2,11.8-16.1,15.5
					c-6.9,3.7-14.6,5.6-23.3,5.6C678.3,543.7,670.6,541.9,663.7,538.2"/>
				<path id="Fill-18" d="M864.3,485.5c2.2-4,5.2-7.1,9-9.3c3.8-2.2,8.1-3.3,12.8-3.3c7.3,0,13.3,2.4,18,7.3c4.7,4.9,7,11.3,7,19.3
					c0,8-2.3,14.4-7,19.3c-4.7,4.9-10.7,7.3-18,7.3c-4.7,0-9-1.1-12.8-3.3c-3.8-2.2-6.8-5.3-9-9.3c-2.2-4-3.3-8.7-3.3-14
					C861,494.2,862.1,489.5,864.3,485.5L864.3,485.5z M861.3,531.7c6.6,7.7,15.7,11.5,27.1,11.5c8.2,0,15.6-1.8,22.1-5.4
					c6.5-3.6,11.6-8.7,15.3-15.4c3.7-6.6,5.5-14.3,5.5-22.9c0-8.6-1.8-16.2-5.5-22.8c-3.7-6.6-8.8-11.7-15.3-15.3
					c-6.5-3.6-13.8-5.4-22.1-5.4c-5.8,0-11.1,1-15.9,3c-4.8,2-8.8,5.1-12.1,9.1v-11.2h-18.8v116.2h19.8V531.7z"/>
				<path id="Fill-20" d="M480.3,525.5c-0.3,0.1-0.6,0.3-0.9,0.4c-1.8,0.5-3.8,0.8-5.9,0.8c-3.7,0-6.6-1.1-8.6-3.3
					c-2.1-2.2-3.1-5.3-3.1-9.5v-40.5h22.6v-15.9h-22.6v-18.6h-19.8v75.5c0,9.4,2.5,16.5,7.6,21.4c5.1,4.9,12.2,7.3,21.5,7.3
					c3.7,0,7.2-0.5,10.5-1.4c3.2-0.9,6.6-4.1,6.6-4.1L480.3,525.5z"/>
				<path id="Fill-22" d="M595.7,431.3v84.1c0,8.8,2.4,15.6,7.4,20.5c4.9,4.8,11.7,7.3,20.5,7.3c3.8,0,7.5-0.6,10.9-1.7
					c0.3-0.1,0.6-0.2,0.9-0.3c3.8-1.4,6-3.5,6-3.5l-7.5-12.3c-2,0.9-4.2,1.4-6.6,1.4c-7.9,0-11.9-4.3-11.9-12.8v-82.7H595.7z"/>
				<path id="Fill-26" d="M302.9,509.9c-3.2,5.6-7.8,9.9-13.7,12.9c-6,3-12.8,4.5-20.7,4.5l-15.4-0.1l-11.6-11.2l-0.2-26.2v-36.3
					h27.2c7.8,0,14.7,1.5,20.7,4.5c6,3,10.5,7.3,13.7,12.9c3.2,5.6,4.8,12.1,4.8,19.4C307.6,497.9,306,504.4,302.9,509.9
					 M320.3,462.3c-4.9-8.1-11.7-14.4-20.6-18.9c-8.9-4.4-18.9-6.7-30.3-6.7h-39.2h-8.2V490l0,4.7l0.2,30l20.4,19.6h26.9
					c1.2,0,2.4,0,3.6-0.1c8.9-0.4,17-2.2,24.3-5.5c0.8-0.4,1.7-0.7,2.5-1.1c8.8-4.5,15.7-10.8,20.6-18.9c4.9-8.1,7.3-17.5,7.3-28.2
					C327.6,479.9,325.2,470.5,320.3,462.3"/>
			</g>
			<g id="Group-2">
				<g id="Group-11" transform="translate(-0.000000, -0.000000)">
					<g id="Clip-10">
					</g>
					<defs>
						<filter id="Adobe_OpacityMaskFilter" filterUnits="userSpaceOnUse" x="19.6" y="412.8" width="85.4" height="159.6">
							<feColorMatrix  type="matrix" values="1 0 0 0 0  0 1 0 0 0  0 0 1 0 0  0 0 0 1 0"/>
						</filter>
					</defs>
					<mask maskUnits="userSpaceOnUse" x="19.6" y="412.8" width="85.4" height="159.6" id="mask-2_2_">
						<g class="st0">
							<polygon id="path-1_2_" class="st1" points="19.6,412.8 105,412.8 105,572.4 19.6,572.4 							"/>
						</g>
					</mask>
					<polygon id="Fill-9" class="st2" points="20.4,412.8 20.4,413.6 19.6,413.6 20.4,414.5 19.7,528.3 19.7,528.6 55.4,572.1 
						55.6,572.4 105,572.4 105,552.5 65.1,552.5 40.2,522.6 40.5,433.5 105,433.5 105,413.6 21.3,413.6 					"/>
				</g>
				<polygon id="Fill-12" class="st3" points="66.5,510.8 66.5,511 80.5,526.9 105,526.9 105,507 89.3,507 87,504.3 87,481 105,481 
					105,461.1 66.6,461.1 				"/>
				<path id="Fill-14" class="st3" d="M134,413.6h-12.5v19.9H134c30.5,0,55.4,26.7,55.4,59.5s-24.8,59.5-55.4,59.5h-12.5v19.9H134
					c41.4,0,75.1-35.6,75.1-79.4C209.1,449.2,175.4,413.6,134,413.6"/>
				<path id="Fill-16" class="st3" d="M163.1,494c0-18.1-15-32.9-33.4-32.9h-8.2V481h8.2c7.6,0,13.7,5.8,13.7,13
					c0,7.2-6.1,13-13.7,13h-8.2v19.9h8.2C148.1,526.9,163.1,512.1,163.1,494"/>
			</g>
		</g>
	</g>
</g>
</svg>
