<svg version="1.2" xmlns="http://www.w3.org/2000/svg" viewBox="0 0 1400 1400" width="1400" height="1400">
	<title>Data Labeling (2)-ai</title>
	<style>
		.s0 { fill: #d43b20 } 
		.s1 { fill: #ffe8ad } 
		.s2 { fill: none;stroke: #000000;stroke-linecap: round;stroke-linejoin: round;stroke-width: 2.6 } 
		.s3 { fill: #ffcf44 } 
		.s4 { fill: #ffffff } 
		.s5 { fill: #fc6140 } 
		.s6 { fill: #362d46 } 
		.s7 { fill: #00bbd6 } 
		.s8 { fill: #bcebf1 } 
	</style>
	<g id="Layer 1">
		<g id="&lt;Group&gt;">
			<g id="&lt;Group&gt;">
				<path id="&lt;Path&gt;" class="s0" d="m388.3 112.1c-1.1-0.4-2.7-2-2.7-3 0-1 0-51.2 0-51.2 0 0 0.2-1.5 0.4-2.2 0.2-0.8 1.3-0.9 1.3-0.9l427.2 158.2c0 0 0.8 0.3 2.7 1 1.8 0.7 1.7 1.8 1.7 1.8 0 0 0 48.1 0 48.9 0 0.7-1.5 0.7-3.5 0.4 0 0-426-152.6-427.1-153z"/>
				<path id="&lt;Path&gt;" class="s1" d="m818.9 265.9v317.7l-1 1.3-431.7-149.7-0.6-1.2v-322.9z"/>
				<path id="&lt;Path&gt;" class="s2" d="m385.6 435v-380.8l433.3 160.5v370.6z"/>
				<path id="&lt;Path&gt;" class="s2" d="m818.9 266l-433.3-154.9"/>
				<path id="&lt;Path&gt;" class="s3" d="m409.8 408.4v-8.4c0 0 9.6 4.1 20.9-1.4 11.3-5.5 15.1-13.4 27.3-33.4 12.1-20 38.8-22.6 58.5-7.8 19.8 14.8 29 52.2 45.9 65.8 16.8 13.7 34.2-7.5 44-27.8 9.9-20.3 31.1-66.7 58.6-58 27.6 8.7 48.4 43.8 58 85.8 9.6 42.1 46.4 74.6 46.4 74.6v42.9z"/>
				<path id="&lt;Path&gt;" class="s3" d="m409.5 169.3v-21.7l90 33.8v21.9z"/>
			</g>
			<g id="&lt;Group&gt;">
				<path id="&lt;Path&gt;" class="s4" d="m1010.4 1168.5c-176.3 65.2-438.6 56.8-570.9 1.8-132.3-54.9-369.4-221.2-370.8-225.1-1.4-3.8-1.9-8.4-1.9-12.6 0.1-4.2 4.2-10.3 7.5-15.4 3.3-5.2 13.5-12.4 15.5-13.8 2-1.4 13.5-7.9 16.2-9.9 2.7-1.9 30-14.3 30-14.3l78.6-36.4 139.6-64.1 92.9-42.7c0 0 4.9-1.7 6.8-2.3 1.8-0.5 10.2 2.1 13.7 7.9 3.5 5.7 116.9 200.5 154.3 211.8 37.4 11.3 257.3-40.8 257-79-0.4-38.2 51.7-129.2 51.7-129.2l128.1 58.3 84.5 38.3 69.5 31.4 40.6 18.4c0 0 10.6 3.7 16.7 6.9 6 3.2 17.2 10.2 20.5 12.4 3.4 2.2 6.5 8.9 8 12.4 1.6 3.5 1.4 13.2-1 21.2 0 0-110.8 158.8-287.1 224z"/>
				<path id="&lt;Path&gt;" class="s5" d="m1296.7 938.6c1.9-1.6 3.2-2.5 3.1-0.1-0.1 2.3-0.3 7.1-0.3 7.1v60c0 0-0.6 47.9-0.3 50.9 0.3 3.1 0.6 9.7-1.5 15.7-2.1 6.1-7.7 14.8-14.7 21.3-7.1 6.4-23.2 15.2-31.6 19.1-8.4 3.8-32.3 13.8-32.3 13.8l-49.5 21.4-42.1 18.3-46.4 20.1-49.3 21.4-53 23-53 23.5-48.1 20.5-52.5 23.1-71.1 30.6c0 0-19.6 8.8-24.4 10.3-4.9 1.4-14.4 3.6-16.7 4-2.2 0.4-15.7 2.4-23.9 3.1-8.3 0.7-31.7-1.8-34.7-2-3-0.2-24.2-5.3-24.2-5.3 0 0-25.8-8.8-33.9-11.5-8.1-2.8-34.2-14.5-34.2-14.5l-34.1-14.6-70.3-30.5-98.2-42.9-88.7-38.9-93.5-41.1-76.1-33.5c0 0-10.8-5.2-14.8-7.9-4.1-2.8-9.1-10.1-11.8-14.8-2.8-4.7-4.5-8.9-5-10.7-0.5-1.7-1.2-9.5-1.6-13.6-0.3-4.1-1.4-22.7-1.4-22.7l0.4-47-0.7-45.7c0 0 1.1-4.2 1.9-3.4 0.9 0.9 3.7 5.4 5.9 8.3 2.2 2.9 10.3 9 19.3 13 8.9 4 22.8 9.6 22.8 9.6l33.6 15.7 46 20.7 72.3 32.4 90.3 39.9 105.5 46.4 58.2 25.3c0 0 25.6 9.8 30.9 11.6 5.3 1.8 26.9 8.6 39.6 12.2 12.6 3.6 33.2 7.4 43.3 9.5 10 2.1 39.4 4.9 50.5 5.5 11 0.6 34.7-1 43-1.5 8.4-0.6 34.2-6.1 40.6-7.6 6.3-1.4 20.3-6.3 30.4-11.3 10.1-4.9 21.4-12.2 21.4-12.2l20.1-8.6 30.4-13.4 64.4-28.4 63.8-28.3 49-21.7 75.7-33.6 83.7-37.4 52.2-23.4c0 0 14.5-8.1 20.3-12.8 5.9-4.7 12.8-12 13.6-13.3 0.9-1.2 1.7-3.1 1.7-3.1z"/>
				<path id="&lt;Path&gt;" class="s1" d="m454.7 862.9c1.7 2 0.7 3.8 0.7 3.8l-0.3 79.9c0 0-0.4 4.1 2.2 6.3 2.7 2.2 6.1 3 6.1 3l47.5 18 160.5 60.7c0 0 9.3 2.8 16.3 3.6 7.1 0.9 15.8 0.2 18.3-0.7 2.5-0.9 13.1-3.4 13.1-3.4l26.2-10.6 49.7-18.7 83.9-31.9c0 0 49.2-18.8 49.4-18.9 0.2 0 3.5-2.3 4.3-5.2 0.7-2.9-0.4-10.8-0.4-10.8v-36.8c0 0 0-20.1 0.2-21.4 0.3-1.3 1.3-1.9 2.5-1.3 1.2 0.7 1.2 0.7 1.2 0.7l3.2 1.2 43.2 19 101.1 45c0 0 2.8 0.2 3.3 1.2 0.6 1 0.9 2-0.2 2.9-1.1 0.9-6.1 5.2-7.3 5.9-1.2 0.8-18.4 8.7-26.6 11.5-8.1 2.7-34.7 13.7-34.7 13.7l-22.9 10-34.8 15.6-50.5 22-50.1 22.6-36.3 16.7-84.3 38.1c0 0-16.4 6.9-20.1 7.8-3.7 0.9-13.8 3.1-16.6 3-2.8-0.2-17.8 1.4-21.7 1.4-3.8 0.1-24.9-2.9-30.6-3.4-5.7-0.6-18.2-4.5-21.9-5.7-3.7-1.2-26.4-10.7-28.6-11.9-2.3-1.3-37.3-17.1-37.3-17.1l-52.5-24.1-68.8-30.8-61.2-28-63.6-28.9c0 0-31.5-12.8-35-15-3.4-2.1-2.2-4.2-1.1-4.6 1.2-0.3 6-2.5 6-2.5l48.1-23.1 75.3-36.8z"/>
				<path id="&lt;Path&gt;" class="s0" d="m1083.6 944.4l-16.5-7.7-29.2-12.5-45-20c0 0-56.2-24.9-59.1-26.2-2.8-1.2-1.8-4.1-1.8-4.1l0.4-13.3c0 0 0-7.9 0-9.4-0.1-1.4 3-1.3 3.1-1.3 0.1 0 50.4 22.6 50.4 22.6l69.1 31 21 9.3c0 0 8.1 3.6 9.9 5.4 1.7 1.8 4.7 6.6 5.7 7.9 0.9 1.4 0.9 3 1 6.9 0.1 4-0.7 9.1-1.7 11.4-1.1 2.3-2.7 1.3-5.1 1z"/>
				<path id="&lt;Path&gt;" class="s0" d="m476.2 836.5c1.2 0.5 1.2 2.1 1.2 2.1 0 0-4.5 1.4-7.5 2.6-3.1 1.3-12.3 4.7-13.9 6.3-1.6 1.6-1 12-1 13.3 0.1 1.3-1.2 3.3-1.2 3.3l-125.8 60.3-34.6 16.6c0 0-11.7 6-13.9 6.7-2.3 0.7-2.5-0.2-4.6-2.6-2.1-2.3-2.6-8.6-2-12.9 0.7-4.4 4.5-9.5 7.2-13.2 2.6-3.7 11.4-9.1 13.9-11.2 2.4-2.1 26.5-13.4 26.5-13.4l32.2-14.8 50.3-23.4 41.8-19.5c0 0 4.8-3.2 10.3-4.8 5.6-1.6 5.4-0.9 7.5 0.2 0 0 12.3 4 13.6 4.4z"/>
				<path id="&lt;Path&gt;" class="s2" d="m932.2 746.3l327 148c0 0 96 30.4-8.5 78-104.5 47.6-432.8 192.3-432.8 192.3 0 0-98.3 79-315.8-16.7-217.6-95.7-217.6-95.7-217.6-95.7l-197.8-88.8c0 0-61.5-32.3 30.8-75.6 92.2-43.3 338-155.3 338-155.3"/>
				<path id="&lt;Path&gt;" class="s2" d="m930.1 847.8l150.7 67.2c14.1 6.3 16.6 25.3 4.5 34.9-4.9 3.9-11.9 7.9-21.7 11.7-48.7 19.2-48.7 19.2-48.7 19.2l-285.9 128c0 0-53.1 24.1-129.3-12.5-69.6-33.5-279.9-127.5-315.5-143.4-7.1-3.1-11.9-10.1-11.6-17.8 0.3-9.5 7.8-22.2 36.4-35.3 57.1-26.3 149.7-69.6 149.7-69.6"/>
				<path id="&lt;Path&gt;" class="s2" d="m1088.6 946.6l-156.4-69.3"/>
				<path id="&lt;Path&gt;" class="s2" d="m277.8 948.5l177.4-85.1"/>
				<path id="&lt;Path&gt;" class="s2" d="m1299.5 929.5v131.9c0 0 4.2 29.2-51.5 52.6-55.6 23.5-512.7 222.5-512.7 222.5 0 0-55.8 24.5-136.7-8.7-71.2-29.2-420.8-183.1-502.8-219.3-14.2-6.2-24.2-19.3-26.5-34.6-1.6-10.1-2.7-23.9-2.7-42.6 0-70.4 0-94.7 0-94.7"/>
				<path id="&lt;Path&gt;" class="s0" d="m1163.7 1097l-0.4-27.3 38.5-17.4 0.3 27.4z"/>
				<path id="&lt;Path&gt;" class="s0" d="m1138.1 1081.1l1.2 27-248.3 111.4-0.5-27.2z"/>
				<g id="&lt;Group&gt;">
					<g id="&lt;Group&gt;">
						<path id="&lt;Path&gt;" class="s6" d="m899.9 788.2c1.6-2.6 1-2.6 5.5-1.2 4.5 1.5 37.3 16.6 37.3 16.6 0 0 37.6 16.9 39.7 18.4 2.1 1.5 3.1 4.1 1.6 5.9-1.6 1.8-5.5 3.5-5.5 3.5l-40.8 14.8-83.5 32.3-73.6 29.2c0 0-56.3 20-64.1 22.5-7.8 2.5-14.5 4.6-19.6 4.7-5.2 0.1-8.2 0.4-13.1-0.2-4.8-0.5-16.5-1.7-21.7-3.9-5.1-2.3-17.2-7.1-17.2-7.1l-39-13-69-28.2-80.9-31c0 0-49.2-17.7-54.8-19.5-5.6-1.9-7-6.4-6.6-8.1 0.4-1.6 3.4-4.5 7.9-6.9 4.6-2.4 10.3-3.6 10.3-3.6l52.3-20.7c0 0 3.4-2.9 4.6 1.6 1.2 4.5 1 10 0.9 15.9 0 5.8-1 10.4 1.3 13.9 2.4 3.4 5.2 4.9 6.6 5.4 1.3 0.5 20.1 6.9 20.1 6.9l28.7 9.4 53.5 22.9 89.8 31c0 0 8.9 4.2 14.7 4.4 5.9 0.3 12.5-0.5 16.2-1.9 3.8-1.4 32.9-12.4 32.9-12.4l91.1-39.6c0 0 66.6-24 70.4-26.8 3.8-2.8 5.6-9.2 5.5-13.9-0.1-4.7-1.5-21.3-1.5-21.3z"/>
						<path id="&lt;Path&gt;" class="s7" d="m984.2 881.8v51.5c0 0 0.3 14.3-1 16.3-1.4 2.1-2.7 3.1-2.7 3.1l-100.2 36.1-86.1 35.9-42.5 15.9c0 0-7.8 3-17.2 6.3-9.5 3.4-24.2 7.3-24.2 7.3 0 0-10.5 2.7-14.5 2.8-3.9 0.1-12.7-0.5-18.5-1.6-5.8-1.1-16.6-3.4-17.2-3.6-0.7-0.3-62-22.1-62-22.1l-55.4-24.4-70.3-25.9-66.3-23.9c0 0-8.2-2.3-10.2-4.9-2-2.6-1.3-8.1-1.3-8.1v-88.9c0 0 0.3-18.3 0.4-21.5 0.2-3.2 3.7-1.1 4-1.3 0.3-0.2 42.5 15.7 42.5 15.7l102.2 39.1 79 31.3c0 0 17.6 6 23.2 8 5.5 2 29.2 9.3 29.2 9.3 0 0 5.9 1.3 10.7 1.3 4.8 0 9.4-0.2 14.2-0.6 4.9-0.5 11.9-2.3 11.9-2.3l265.4-100.8c0 0 3.1-1.1 5.2-1.4 2.2-0.4 1.7 0.5 2.3 2.9z"/>
						<path id="&lt;Path&gt;" class="s2" d="m904.9 786.1l76.7 35.4c3.9 1.8 3.7 7.4-0.3 8.9l-262.6 100c-18.5 6.8-38.8 6.8-57.4 0.1l-262.2-99.3c-6-2.2-6.1-10.5-0.2-12.8l307.7-115.4z"/>
						<path id="&lt;Path&gt;" class="s2" d="m984.2 827.9v118c0.2 2.1-0.7 5.4-2.9 6.2l-262.6 100.1c-18.5 6.7-38.8 6.7-57.4 0l-262.2-99.3c-3.2-1.1-4.7-4.2-4.5-7v-120.9"/>
					</g>
					<g id="&lt;Group&gt;">
						<path id="&lt;Path&gt;" class="s6" d="m899.9 635.1c1.6-2.6 1-2.7 5.5-1.2 4.5 1.4 37.3 16.5 37.3 16.5 0 0 37.6 16.9 39.7 18.4 2.1 1.5 3.1 4.2 1.6 6-1.6 1.8-5.5 3.5-5.5 3.5l-40.8 14.8-83.7 32.6-73.4 28.8c0 0-56.3 20.1-64.1 22.6-7.8 2.5-14.5 4.5-19.6 4.6-5.2 0.2-8.2 0.4-13.1-0.1-4.8-0.6-16.5-1.7-21.7-4-5.1-2.2-17.2-7-17.2-7l-39-13-69.6-27.6-80.3-31.7c0 0-49.2-17.7-54.8-19.5-5.6-1.8-7-6.4-6.6-8 0.4-1.6 3.4-4.5 7.9-6.9 4.6-2.4 10.3-3.7 10.3-3.7l52.3-20.7c0 0 3.4-2.8 4.6 1.7 1.2 4.5 1 10 0.9 15.8 0 5.9-1 10.5 1.3 13.9 2.4 3.5 5.2 5 6.6 5.4 1.3 0.5 20.1 7 20.1 7l28.7 9.4 53.5 22.9 89.8 31c0 0 8.9 4.1 14.7 4.4 5.9 0.3 12.5-0.5 16.2-1.9 3.8-1.4 32.9-12.5 32.9-12.5l91.1-39.5c0 0 66.6-24.1 70.4-26.9 3.8-2.8 5.6-9.1 5.5-13.9-0.1-4.7-1.5-21.2-1.5-21.2z"/>
						<path id="&lt;Path&gt;" class="s7" d="m984.2 728.6v51.6c0 0 0.3 14.2-1 16.3-1.4 2.1-2.7 3-2.7 3l-100.2 36.2-86.1 35.8-42.5 16c0 0-7.8 2.9-17.2 6.3-9.5 3.3-24.2 7.3-24.2 7.3 0 0-10.5 2.7-14.5 2.8-3.9 0.1-12.7-0.5-18.5-1.6-5.8-1.1-16.6-3.4-17.2-3.7-0.7-0.2-62-22-62-22l-55.4-24.4-70.3-25.9-66.3-24c0 0-8.2-2.2-10.2-4.9-2-2.6-1.3-8.1-1.3-8.1v-88.8c0 0 0.3-18.4 0.4-21.6 0.2-3.1 3.7-1 4-1.2 0.3-0.3 42.5 15.7 42.5 15.7l103.8 40 77.4 30.4c0 0 17.6 6 23.2 8 5.5 2 29.2 9.2 29.2 9.2 0 0 5.9 1.4 10.7 1.3 4.8 0 9.4-0.1 14.2-0.6 4.9-0.4 11.9-2.3 11.9-2.3l265.4-100.8c0 0 3.1-1.1 5.2-1.4 2.2-0.3 1.7 0.5 2.3 2.9z"/>
						<path id="&lt;Path&gt;" class="s2" d="m904.9 633l76.7 35.3c3.9 1.8 3.7 7.4-0.3 8.9l-262.6 100.1c-18.5 6.7-38.8 6.7-57.4 0l-262.2-99.3c-6-2.1-6.1-10.4-0.2-12.7l307.7-115.4z"/>
						<path id="&lt;Path&gt;" class="s2" d="m984.2 674.8v118c0.2 2-0.7 5.3-2.9 6.1l-262.6 100.1c-18.5 6.8-38.8 6.8-57.4 0.1l-262.2-99.3c-3.2-1.2-4.7-4.2-4.5-7v-121"/>
					</g>
					<path id="&lt;Path&gt;" class="s7" d="m900.7 508.4c-0.6 5.3-2.1 5.7-6.3 9.1-4.2 3.5-44.1 17.9-44.1 17.9l-82.4 35.3-54.5 20.5c0 0-10.5 3.4-15.6 5.1-5 1.8-6.4 1.8-15.2 1.2-8.9-0.6-56.5-18.9-56.5-18.9l-75.2-29.4-59.5-21.6c0 0-12-3.2-16.4-6.9-4.4-3.8-4.2-9.2-4.1-13.7 0.1-4.4-1.2-11.1-0.8-17.5 0.3-6.3 2.9-3.3 4.2-3.2 1.3 0.1 79.6 27 79.6 27l87.8 34.1 34.5 11.2c0 0 8 1.5 13.3 2.3 5.3 0.7 13.8-2.9 20.1-5.7 6.4-2.9 81-31.5 81-31.5l84.1-35.5c0 0 19.8-7.9 22.8-9.1 3-1.2 3.4 3.9 3.2 11.1 0 0 0.7 13 0 18.2z"/>
					<path id="&lt;Path&gt;" class="s8" d="m899.9 481.9c1.6-2.6 1-2.6 5.5-1.2 4.5 1.5 37.3 16.6 37.3 16.6 0 0 37.6 16.8 39.7 18.3 2.1 1.6 3.1 4.2 1.6 6-1.6 1.8-5.5 3.5-5.5 3.5l-40.8 14.8-85.2 33-71.9 28.5c0 0-56.3 20-64.1 22.5-7.8 2.5-14.5 4.6-19.6 4.7-5.2 0.1-8.2 0.4-13.1-0.2-4.8-0.6-16.5-1.7-21.7-3.9-5.1-2.3-17.2-7.1-17.2-7.1l-39-13-68.7-27.9-81.2-31.4c0 0-49.2-17.6-54.8-19.5-5.6-1.8-7-6.3-6.6-8 0.4-1.6 3.4-4.5 7.9-6.9 4.6-2.4 10.3-3.7 10.3-3.7l52.3-20.7c0 0 3.4-2.8 4.6 1.7 1.2 4.5 1 10 0.9 15.9 0 5.8-1 10.4 1.3 13.9 2.4 3.4 5.2 4.9 6.6 5.4 1.3 0.4 20.1 6.9 20.1 6.9l28.7 9.4 53.5 22.9 89.8 31c0 0 8.9 4.1 14.7 4.4 5.9 0.3 12.5-0.5 16.2-1.9 3.8-1.4 32.9-12.5 32.9-12.5l91.8-38.5c0 0 65.9-25.1 69.7-27.9 3.8-2.7 5.6-9.1 5.5-13.8-0.1-4.7-1.5-21.3-1.5-21.3z"/>
					<path id="&lt;Path&gt;" class="s7" d="m984.2 575.5v51.5c0 0 0.3 14.2-1 16.3-1.4 2.1-2.7 3.1-2.7 3.1l-100.2 36.1-86.1 35.9-42.5 15.9c0 0-7.8 2.9-17.2 6.3-9.5 3.3-24.2 7.3-24.2 7.3 0 0-10.5 2.7-14.5 2.8-3.9 0.1-12.7-0.5-18.5-1.6-5.8-1.1-16.6-3.4-17.2-3.6-0.7-0.3-62-22.1-62-22.1l-55.4-24.4-70.3-25.9-66.3-24c0 0-8.2-2.2-10.2-4.8-2-2.7-1.3-8.1-1.3-8.1v-88.9c0 0 0.3-18.4 0.4-21.5 0.2-3.2 3.7-1.1 4-1.3 0.3-0.2 42.5 15.7 42.5 15.7l103.6 39.4 77.6 31c0 0 17.6 6 23.2 8 5.5 2 29.2 9.3 29.2 9.3 0 0 5.9 1.3 10.7 1.3 4.8-0.1 9.4-0.2 14.2-0.6 4.9-0.5 11.9-2.4 11.9-2.4l265.4-100.7c0 0 3.1-1.1 5.2-1.5 2.2-0.3 1.7 0.6 2.3 3z"/>
					<path id="&lt;Path&gt;" class="s2" d="m904.9 479.8l76.7 35.4c3.9 1.8 3.7 7.4-0.3 8.8l-262.6 100.1c-18.5 6.7-38.8 6.8-57.4 0.1l-262.2-99.3c-6-2.2-6.1-10.5-0.2-12.8l307.7-119.9z"/>
					<path id="&lt;Path&gt;" class="s8" d="m838.4 502.1l-117 48.9c0 0-10.8 4.2-14.5 5.6-3.7 1.4-10.8 3.9-16.5 4.2-5.8 0.4-16.2-2.3-16.2-2.3l-93.6-32.2-101.6-38.9c0 0-1.3-0.4-4.8-1.8-3.6-1.4 3.6-4.2 3.6-4.2l219.6-85.3c0 0 4.5-1.3 7.3-2.7 2.7-1.4 4.6 0 4.6 0 0 0 184.9 82 186.1 82.5 1.1 0.5 2.5 1.6 1.1 3.6z"/>
					<path id="&lt;Path&gt;" class="s2" d="m984.2 639.8v-118.8"/>
					<path id="&lt;Path&gt;" class="s2" d="m984.2 639.6c0.2 2-0.7 5.3-2.9 6.2l-262.6 100c-18.5 6.8-38.8 6.8-57.4 0.1l-262.2-99.3c-3.2-1.1-4.7-4.2-4.5-7v-120.9"/>
					<path id="&lt;Path&gt;" class="s2" d="m893 518.7l-191.1 77.1c-8.1 3-17 3.2-25.1 0.4l-198.3-73c-4.9-1.7-8.1-6.2-8.2-11.3l-0.2-27.5 236.5-92.2 194 85.7 0.1 29.5c0.1 5-3 9.5-7.7 11.3z"/>
					<path id="&lt;Path&gt;" class="s2" d="m900.6 477.9l-195.5 79.4c-10 3.8-21 4.1-31.1 0.6l-203.9-73.5"/>
				</g>
			</g>
			<g id="&lt;Group&gt;">
				<path id="&lt;Path&gt;" class="s7" d="m892.3 874.5c-0.7-0.2-1.8-1.3-1.8-2 0-0.6 0-33.7 0-33.7 0 0 0.1-0.9 0.3-1.4 0.1-0.5 0.8-0.6 0.8-0.6l281.6 104.3c0 0 0.5 0.2 1.8 0.6 1.2 0.5 1.1 1.2 1.1 1.2 0 0 0 31.7 0 32.2 0 0.5-1 0.5-2.3 0.3 0 0-280.8-100.6-281.5-100.9z"/>
				<path id="&lt;Path&gt;" class="s8" d="m1176.1 975.9v209.4l-0.6 0.9-284.5-98.7-0.5-0.8v-212.8z"/>
				<path id="&lt;Path&gt;" class="s2" d="m890.5 1087.4v-251l285.6 105.7v244.3z"/>
				<path id="&lt;Path&gt;" class="s2" d="m1176.1 976l-285.6-102.1"/>
				<path id="&lt;Path&gt;" class="s4" d="m906.5 1069.9v-5.6c0 0 6.3 2.7 13.8-0.9 7.4-3.7 9.9-8.8 17.9-22 8.1-13.2 25.6-14.9 38.6-5.2 13 9.8 19.1 34.4 30.2 43.4 11.1 9 22.6-5 29.1-18.3 6.5-13.4 20.4-44 38.6-38.3 18.2 5.8 31.9 28.9 38.2 56.6 6.3 27.7 30.6 49.1 30.6 49.1v28.3z"/>
				<path id="&lt;Path&gt;" class="s4" d="m906.3 912.2v-14.3l59.3 22.3v14.4z"/>
			</g>
			<g id="&lt;Group&gt;">
				<path id="&lt;Path&gt;" class="s0" d="m596 990.5c-0.5-0.2-1.1-0.9-1.1-1.3 0-0.5 0-22.4 0-22.4 0 0 0-0.6 0.1-0.9 0.1-0.4 0.6-0.4 0.6-0.4l186.4 69c0 0 0.4 0.1 1.2 0.4 0.8 0.3 0.7 0.8 0.7 0.8 0 0 0 21 0 21.3 0 0.4-0.6 0.4-1.5 0.2 0 0-185.9-66.6-186.4-66.7z"/>
				<path id="&lt;Path&gt;" class="s1" d="m783.9 1057.6v138.6l-0.4 0.6-188.3-65.3-0.3-0.6v-140.9z"/>
				<path id="&lt;Path&gt;" class="s2" d="m594.9 1131.4v-166.2l189 70v161.7z"/>
				<path id="&lt;Path&gt;" class="s2" d="m783.9 1057.6l-189-67.6"/>
				<path id="&lt;Path&gt;" class="s3" d="m605.4 1119.8v-3.7c0 0 4.2 1.8 9.1-0.6 5-2.4 6.6-5.8 11.9-14.6 5.4-8.7 17-9.8 25.6-3.4 8.6 6.5 12.7 22.8 20 28.7 7.3 6 14.9-3.3 19.2-12.1 4.3-8.9 13.6-29.1 25.6-25.3 12 3.8 21.1 19.1 25.3 37.4 4.2 18.4 20.2 32.6 20.2 32.6v18.7z"/>
				<path id="&lt;Path&gt;" class="s3" d="m605.3 1015.4v-9.5l39.3 14.8v9.5z"/>
			</g>
			<g id="&lt;Group&gt;">
				<path id="&lt;Path&gt;" class="s0" d="m1047.6 536c-0.4-0.2-1.1-0.8-1.1-1.3 0-0.4 0-21.9 0-21.9 0 0 0.1-0.6 0.2-0.9 0-0.4 0.5-0.4 0.5-0.4l183 67.7c0 0 0.3 0.2 1.1 0.5 0.8 0.3 0.8 0.7 0.8 0.7 0 0 0 20.6 0 21 0 0.3-0.7 0.3-1.5 0.1 0 0-182.5-65.3-183-65.5z"/>
				<path id="&lt;Path&gt;" class="s1" d="m1232.1 601.9v136l-0.5 0.6-184.8-64.1-0.3-0.6v-138.2z"/>
				<path id="&lt;Path&gt;" class="s2" d="m1046.5 674.3v-163.1l185.6 68.7v158.7z"/>
				<path id="&lt;Path&gt;" class="s2" d="m1232.1 601.9l-185.6-66.3"/>
				<path id="&lt;Path&gt;" class="s3" d="m1056.9 662.9v-3.6c0 0 4.1 1.8 8.9-0.6 4.9-2.4 6.5-5.7 11.7-14.3 5.2-8.6 16.6-9.7 25.1-3.3 8.4 6.3 12.4 22.3 19.6 28.2 7.2 5.8 14.6-3.3 18.9-12 4.2-8.7 13.3-28.5 25.1-24.8 11.7 3.7 20.7 18.7 24.8 36.8 4.1 18 19.9 31.9 19.9 31.9v18.3z"/>
				<path id="&lt;Path&gt;" class="s3" d="m1056.7 560.5v-9.3l38.6 14.5v9.4z"/>
			</g>
			<path id="&lt;Path&gt;" class="s5" d="m327.9 560.9c0 5.6-4.5 10.1-10.1 10.1-5.6 0-10.1-4.5-10.1-10.1 0-5.6 4.5-10.2 10.1-10.2 5.6 0 10.1 4.6 10.1 10.2z"/>
			<path id="&lt;Path&gt;" class="s3" d="m1020.5 656c0 2.3-1.9 4.1-4.2 4.1-2.3 0-4.1-1.8-4.1-4.1 0-2.3 1.8-4.2 4.1-4.2 2.3 0 4.2 1.9 4.2 4.2z"/>
			<path id="&lt;Path&gt;" class="s3" d="m994 407.5c0 5.4-4.4 9.8-9.8 9.8-5.4 0-9.8-4.4-9.8-9.8 0-5.4 4.4-9.7 9.8-9.7 5.4 0 9.8 4.3 9.8 9.7z"/>
			<path id="&lt;Path&gt;" class="s3" d="m1019.1 1317.3c0 2.3-1.9 4.1-4.2 4.1-2.3 0-4.2-1.8-4.2-4.1 0-2.3 1.9-4.2 4.2-4.2 2.3 0 4.2 1.9 4.2 4.2z"/>
			<path id="&lt;Path&gt;" class="s3" d="m1333.7 985.7c0 2.3-1.8 4.2-4.1 4.2-2.3 0-4.2-1.9-4.2-4.2 0-2.3 1.9-4.1 4.2-4.1 2.3 0 4.1 1.8 4.1 4.1z"/>
			<path id="&lt;Path&gt;" class="s3" d="m332.1 81.8c0 2.3-1.9 4.2-4.2 4.2-2.3 0-4.1-1.9-4.1-4.2 0-2.3 1.8-4.2 4.1-4.2 2.3 0 4.2 1.9 4.2 4.2z"/>
			<path id="&lt;Path&gt;" class="s3" d="m159.5 781.9c0 2.3-1.9 4.2-4.2 4.2-2.3 0-4.1-1.9-4.1-4.2 0-2.3 1.8-4.1 4.1-4.1 2.3 0 4.2 1.8 4.2 4.1z"/>
			<path id="&lt;Path&gt;" class="s3" d="m1236.2 777.8c0 2.3-1.8 4.1-4.1 4.1-2.3 0-4.2-1.8-4.2-4.1 0-2.3 1.9-4.2 4.2-4.2 2.3 0 4.1 1.9 4.1 4.2z"/>
		</g>
	</g>
</svg>