<svg version="1.2" xmlns="http://www.w3.org/2000/svg" viewBox="0 0 1400 1400" width="1400" height="1400">
	<title>Data Sourcing-01 (1)-ai</title>
	<style>
		.s0 { fill: #fc6140 } 
		.s1 { fill: #ffe8ad } 
		.s2 { fill: none;stroke: #000000;stroke-linecap: round;stroke-linejoin: round;stroke-width: 2.6 } 
		.s3 { fill: #ffcf44 } 
		.s4 { fill: #362d46 } 
		.s5 { fill: #00bbd6 } 
		.s6 { fill: #bcebf1 } 
		.s7 { fill: #ffffff } 
		.s8 { fill: #ffd740 } 
	</style>
	<g id="Layer 1">
		<g id="&lt;Group&gt;">
			<g id="&lt;Group&gt;">
				<g id="&lt;Group&gt;">
					<path id="&lt;Path&gt;" class="s0" d="m1134.4 374.5c2.2 0.4 5.1 1.6 5.4 4.1 0.2 2.5 0.3 12.7 0.3 12.8 0 0.1-1.2 1.6-1.4 1.7-0.3 0.1-135.3 69.6-135.3 69.6l-3.1 0.3-135.8-71.6-1.6-3.2 0.4-10.3 5.2-2.4z"/>
					<g id="&lt;Group&gt;">
						<path id="&lt;Path&gt;" class="s1" d="m1001.6 448.3l-138.3-73.1 138.9-72.5 137.6 72.5z"/>
						<path id="&lt;Path&gt;" class="s2" d="m1001.6 448.3l-138.3-73.1 138.9-72.5 137.6 72.5z"/>
						<path id="&lt;Path&gt;" class="s3" d="m1079.5 375.5l-75.2 41.1-76.6-41.1 75.9-42.1z"/>
						<path id="&lt;Path&gt;" class="s2" d="m1079.5 375.5l-75.2 41.1-76.6-41.1 75.9-42.1z"/>
						<path id="&lt;Path&gt;" class="s2" d="m1139.8 375.2v17.3l-138.2 71.2-138.3-72.9v-15.6"/>
						<path id="&lt;Path&gt;" class="s2" d="m1001.6 448.3v15.4"/>
					</g>
				</g>
				<g id="&lt;Group&gt;">
					<path id="&lt;Path&gt;" class="s0" d="m620.6 340c3.2 0.4 7.5 2.3 7.8 5.9 0.4 3.6 0.5 18.6 0.5 18.8 0 0.1-1.8 2.3-2.1 2.5-0.3 0.1-198.3 102-198.3 102l-4.5 0.4-199-104.9-2.5-4.8 0.7-15 7.5-3.5z"/>
					<g id="&lt;Group&gt;">
						<path id="&lt;Path&gt;" class="s1" d="m425.8 448l-202.6-107.1 203.6-106.2 201.6 106.2z"/>
						<path id="&lt;Path&gt;" class="s2" d="m425.8 448l-202.6-107.1 203.6-106.2 201.6 106.2z"/>
						<path id="&lt;Path&gt;" class="s3" d="m540.1 341.4l-110.3 60.3-112.2-60.3 111.2-61.7z"/>
						<path id="&lt;Path&gt;" class="s2" d="m540.1 341.4l-110.3 60.3-112.2-60.3 111.2-61.7z"/>
						<path id="&lt;Path&gt;" class="s2" d="m628.4 340.9v25.4l-202.6 104.3-202.6-106.8v-22.9"/>
						<path id="&lt;Path&gt;" class="s2" d="m425.8 448v22.6"/>
					</g>
				</g>
				<path id="&lt;Path&gt;" class="s3" d="m579.9 752.1c1.5 2.4-5.7 135.3-9.1 137.5-3.3 2.3-6.6 0.7-6.6 0.7l-197.3-105c0 0 0 0-2.3-1.2-2.3-1.3-2.8-5.5-2.8-5.5v-57.7l0.1-78.2c0 0-0.1-1.5-0.3-4-0.2-2.5 2.4-2.7 2.4-2.7l200.1 106.5c0 0 14.3 7.3 15.8 9.6z"/>
				<path id="&lt;Path&gt;" class="s4" d="m364.8 1079.8l-26.9-13-44.8-22c0 0-11-5.3-15-7.7-4.1-2.3-15.6-9.5-17.5-11.2-2-1.7-8-11.9-8.9-18-1-6 0.7-14.2 1.7-17 1-2.7 4-7.6 6.9-11.8 3-4.2 13.1-11 20.4-15.8 7.3-4.8 75.6-38.9 75.6-38.9 0 0 6.4-2.4 10.6-4z"/>
				<path id="&lt;Path&gt;" class="s0" d="m572 1147.8c-0.7 1.3-6.4 3.5-14.5 4.5-8.1 1-17.1 1-26.5 0.6-9.3-0.3-23.4-4-32.2-6.5-8.9-2.5-24.1-7.4-24.1-7.4l-111.3-58.4-1.6-3.9v-291.1l2-2 201.4 107.3c0 0 6 2.6 8.8 3.6 0 0-1.2 251.9-2 253.3z"/>
				<path id="&lt;Path&gt;" class="s4" d="m965.2 788.7c6.2 1.3 6.7-0.8 11.4 1.3 4.7 2.1 81.6 46.8 85.3 49.4 3.7 2.6 11.4 8.6 13.4 11.3 2 2.6 4.7 10.3 5.2 15.2 0.4 4.8-0.5 9.2-1.9 13-1.4 3.7-10.2 15.5-12.9 17.7-2.6 2.1-7.8 5.6-10.5 7.1-2.7 1.6-19 10.4-22.2 12.3-3.1 1.9-50.5 26.8-53.7 28.2-3.1 1.4-8.2 0.6-10.6 0-2.5-0.7-3.5-154.1-3.5-154.1"/>
				<path id="&lt;Path&gt;" class="s1" d="m973.3 530.6c0 0 0 2.4-0.3 3.8-0.3 1.4-2.1 2.9-2.1 2.9l-394.8 203.9c0 0-3.6 1.9-5.2 2.7-1.6 0.8-2.7-1.3-2.7-2.4 0-1.1 0-259.5 0-259.5 0 0 0-1.5 0.3-3 0.3-1.6 1.3-3.7 1.3-3.7l396-204.5c0 0 3.6-1.7 5.3-2.1 1.7-0.3 2-0.6 2.2 2.5z"/>
				<path id="&lt;Path&gt;" class="s0" d="m969.3 678.6c0 0 4.2 6.1 4 8.6-0.2 2.5 0 255.3 0 255.3 0 0-0.1 4.4-2 5.7-1.9 1.3-2.9 1.6-2.9 1.6l-371.2 191.9c0 0-22.9 8.4-25.3 8.5-2.5 0.1-3.9-0.7-4-2.7-0.1-1.9 0.6-9.2 0.6-9.2v-257.1z"/>
				<path id="&lt;Path&gt;" class="s3" d="m578.8 887c0 0-5.9 3-7.7 3.9-1.8 1-2-0.4-2.9-1.9-0.9-1.6 0-139.2 0-139.2 0 0 0-1.6 0.2-3.2 0.1-1.6 2.7-3.2 2.7-3.2 0 0 397.3-205.1 399.4-205.7 2.1-0.6 2.6 0.9 2.6 0.9v125c0 0 0.8 9.8 0.4 15.7-0.4 6-6.7 8.2-6.7 8.2z"/>
				<path id="&lt;Path&gt;" class="s5" d="m780 817c0 0-4.3 2-6.4 2.9-2.1 0.8-3.1 0.9-3.4-0.1-0.3-1 0.1-11.7 0.1-13.4 0-1.6 0.8-3.2 2.3-4.1 1.5-1 193.2-99.4 193.2-99.4 0 0 2.7-1.6 4.2-3 1.5-1.3 3.3 1.7 3.3 1.7 0 0 0.5 7.5 0 11.8-0.5 4.3-0.8 2.7-3.3 5.1z"/>
				<path id="&lt;Path&gt;" class="s2" d="m568.2 892.4l404.9-208.9"/>
				<path id="&lt;Path&gt;" class="s6" d="m667.5 767.4c-1.1-0.5-1.2-1.4-1.5-2.9-0.3-1.4 0-7.2-0.2-10.6-0.3-3.4 1.2-3.3 2.6-2.9 1.3 0.5 98.9 50.7 100.1 51.2 1.2 0.5 1.8 1.8 2.1 3.6 0.3 1.8 0.2 7.7 0 11-0.2 3.4-0.6 3.9-4.3 2.6 0 0-97.8-51.4-98.8-52z"/>
				<path id="&lt;Path&gt;" class="s6" d="m875.1 646.5c0 0 88.5 45.9 92.2 49.3 3.7 3.5 3.3 4 2.3 4.9-0.9 1-6.1 3.2-6.1 3.2 0 0-185.9 95.9-188 97-2.1 1.1-5 2.7-6.6 1.9-1.6-0.8-4-2-4-2 0 0-95.7-49.4-95.8-49.4-0.2-0.1-1.6-2.2-0.6-3.1 1-1 2.3-1.6 2.3-1.6 0 0 196.7-100.2 198.3-101 1.6-0.9 4.9 0.2 6 0.8z"/>
				<path id="&lt;Path&gt;" class="s2" d="m568.2 745.1l404.9-208.9"/>
				<path id="&lt;Path&gt;" class="s1" d="m569.6 741.9c0 0-2.4 2.3-3.8 1.6-1.4-0.8-200.5-107.1-200.5-107.1 0 0-2.8-2.7-3.3-3.7-0.5-1-0.4-262-0.4-262 0 0 0.2-1.6 0.8-2.6 0.6-1 2.1-0.3 2.1-0.3l201.3 107.2c0 0 6.7 5.3 11.6 8z"/>
				<path id="&lt;Path&gt;" class="s7" d="m872.3 637.3c0 0-0.2 1.8-0.2 4.1 0 2.3-2.3 4.5-2.3 4.5l-193.5 99.2c0 0-4.6 2.3-7.3 2.9-2.7 0.6-2.6 0.3-3.2-2.5-0.6-2.8 0-133.9 0-133.9 0 0 0-0.8 0-2.1 0-1.2 1.6-3 1.6-3l200.2-103.3c0 0 2.4-1.2 3.2-1.6 0.8-0.4 0.9 1.3 0.9 2.7 0 1.3 0.4 96.4 0.4 96.4"/>
				<path id="&lt;Path&gt;" class="s7" d="m570.7 475.4l-4.9-0.4-196.7-104.9c0 0-3.7-2-4.9-2.6-1.2-0.6 0.4-3.1 0.4-3.1 0 0 398.4-204.9 399.7-205.6 1.4-0.6 3.7-0.8 3.7-0.8 0 0 202.2 107.4 202.8 107.7 0.7 0.4 0.2 1.7-1 3z"/>
				<path id="&lt;Path&gt;" class="s2" d="m973.1 267.2v677.9"/>
				<path id="&lt;Path&gt;" class="s2" d="m568.2 476.1v674.8"/>
				<path id="&lt;Path&gt;" class="s2" d="m568.2 476.1l404.9-208.9"/>
				<path id="&lt;Path&gt;" class="s2" d="m770.3 821.5v-17.9l-104.5-53.9v-142.4l206.3-106.4v143.2l101 54.9-202.8 104.6"/>
				<path id="&lt;Path&gt;" class="s4" d="m918.4 682.7l-174.4 90-48.7-24 176.8-91.2z"/>
				<path id="&lt;Path&gt;" class="s2" d="m872.1 644.1l-206.3 105.6"/>
				<path id="&lt;Path&gt;" class="s2" d="m918.4 682.7l-174.4 90-48.7-24 176.8-91.2z"/>
				<path id="&lt;Path&gt;" class="s2" d="m973.1 716.9l-202.8 104.6-104.5-54.9v-16.6"/>
				<path id="&lt;Path&gt;" class="s2" d="m766.7 157.3l206.4 109.9"/>
				<path id="&lt;Path&gt;" class="s2" d="m361.8 366.2l206.4 109.9"/>
				<path id="&lt;Path&gt;" class="s3" d="m491.3 370.9l286.3-150.6 73.3 39.1-286.3 150.5z"/>
				<path id="&lt;Path&gt;" class="s2" d="m361.8 634.9l206.4 109.8"/>
				<path id="&lt;Path&gt;" class="s2" d="m209.4 897.7l97.8 52"/>
				<path id="&lt;Path&gt;" class="s2" d="m361.8 782.6l206.4 109.8"/>
				<path id="&lt;Path&gt;" class="s1" d="m662.8 358.3c-3 1.2-4.4 0.6-6.3 0.2-2-0.5-66.2-35.2-67.5-35.9-1.2-0.7-0.3-1.8 0-2.5 0.4-0.7 100.9-54.1 103.8-55.2 3-1.1 4.2 0.2 4.2 0.2 0 0 67.5 34.9 68.4 36 0.9 1 0.3 3.1 0.3 3.1 0 0-100 52.9-102.9 54.1z"/>
				<path id="&lt;Path&gt;" class="s2" d="m361.8 366.2l404.9-208.9"/>
				<g id="&lt;Group&gt;">
					<path id="&lt;Path&gt;" class="s2" d="m696 264.2l72.5 38.5"/>
					<path id="&lt;Path&gt;" class="s2" d="m641 292.6l72.9 38.8"/>
					<path id="&lt;Path&gt;" class="s2" d="m586.1 321l73.3 39"/>
				</g>
				<path id="&lt;Path&gt;" class="s2" d="m491.3 370.9l286.3-150.6 73.3 39.1-286.3 150.5z"/>
				<path id="&lt;Path&gt;" class="s2" d="m361.8 366.2v713.6"/>
				<path id="&lt;Path&gt;" class="s1" d="m900 246.1c0 5.8-8.3 10.6-18.6 10.6-10.2 0-18.5-4.8-18.5-10.6 0-5.9 8.3-10.6 18.5-10.6 10.3 0 18.6 4.7 18.6 10.6z"/>
				<path id="&lt;Path&gt;" class="s1" d="m860.5 224.9c0 5.9-8.3 10.6-18.6 10.6-10.2 0-18.5-4.7-18.5-10.6 0-5.8 8.3-10.6 18.5-10.6 10.3 0 18.6 4.8 18.6 10.6z"/>
				<path id="&lt;Path&gt;" class="s1" d="m817.5 203.7c0 5.9-8.3 10.6-18.5 10.6-10.3 0-18.6-4.7-18.6-10.6 0-5.8 8.3-10.6 18.6-10.6 10.2 0 18.5 4.8 18.5 10.6z"/>
				<path id="&lt;Path&gt;" class="s2" d="m900 246.1c0 5.8-8.3 10.6-18.6 10.6-10.2 0-18.5-4.8-18.5-10.6 0-5.9 8.3-10.6 18.5-10.6 10.3 0 18.6 4.7 18.6 10.6z"/>
				<path id="&lt;Path&gt;" class="s2" d="m860.5 224.9c0 5.9-8.3 10.6-18.6 10.6-10.2 0-18.5-4.7-18.5-10.6 0-5.8 8.3-10.6 18.5-10.6 10.3 0 18.6 4.8 18.6 10.6z"/>
				<path id="&lt;Path&gt;" class="s2" d="m817.5 203.7c0 5.9-8.3 10.6-18.5 10.6-10.3 0-18.6-4.7-18.6-10.6 0-5.8 8.3-10.6 18.6-10.6 10.2 0 18.5 4.8 18.5 10.6z"/>
				<g id="&lt;Group&gt;">
					<path id="&lt;Path&gt;" class="s0" d="m329.3 1089.5c2.1 0.4 5 1.6 5.3 4 0.2 2.5 0.3 12.6 0.3 12.7 0 0.1-1.2 1.5-1.5 1.7-0.2 0.1-133.5 68.7-133.5 68.7l-3.1 0.3-134-70.7-1.7-3.2 0.5-10.1 5-2.4z"/>
					<g id="&lt;Group&gt;">
						<path id="&lt;Path&gt;" class="s1" d="m198.1 1162.3l-136.5-72.2 137.1-71.5 135.9 71.5z"/>
						<path id="&lt;Path&gt;" class="s2" d="m198.1 1162.3l-136.5-72.2 137.1-71.5 135.9 71.5z"/>
						<path id="&lt;Path&gt;" class="s3" d="m275 1090.5l-74.2 40.6-75.6-40.6 74.9-41.6z"/>
						<path id="&lt;Path&gt;" class="s2" d="m275 1090.5l-74.2 40.6-75.6-40.6 74.9-41.6z"/>
						<path id="&lt;Path&gt;" class="s2" d="m334.6 1090.1v17.2l-136.5 70.2-136.5-71.9v-15.5"/>
						<path id="&lt;Path&gt;" class="s2" d="m198.1 1162.3v15.2"/>
					</g>
				</g>
				<g id="&lt;Group&gt;">
					<path id="&lt;Path&gt;" class="s0" d="m1333.3 708.4c2.2 0.3 5 1.6 5.3 4 0.2 2.4 0.3 12.6 0.3 12.7 0 0.1-1.2 1.5-1.4 1.6-0.2 0.2-133.6 68.8-133.6 68.8l-3.1 0.3-134-70.7-1.7-3.2 0.5-10.2 5.1-2.3z"/>
					<g id="&lt;Group&gt;">
						<path id="&lt;Path&gt;" class="s1" d="m1202.1 781.2l-136.5-72.2 137.2-71.5 135.8 71.5z"/>
						<path id="&lt;Path&gt;" class="s2" d="m1202.1 781.2l-136.5-72.2 137.2-71.5 135.8 71.5z"/>
						<path id="&lt;Path&gt;" class="s3" d="m1279.1 709.4l-74.3 40.6-75.6-40.6 74.9-41.6z"/>
						<path id="&lt;Path&gt;" class="s2" d="m1279.1 709.4l-74.3 40.6-75.6-40.6 74.9-41.6z"/>
						<path id="&lt;Path&gt;" class="s2" d="m1338.6 709v17.2l-136.5 70.2-136.5-71.9v-15.5"/>
						<path id="&lt;Path&gt;" class="s2" d="m1202.1 781.2v15.2"/>
					</g>
				</g>
				<g id="&lt;Group&gt;">
					<path id="&lt;Path&gt;" class="s0" d="m765.1 1182.4c1.5 0.2 3.4 1.1 3.6 2.8 0.2 1.6 0.2 8.6 0.2 8.6 0 0.1-0.8 1.1-1 1.2-0.1 0-91.4 47.1-91.4 47.1l-2.1 0.1-91.9-48.4-1.1-2.2 0.3-6.9 3.5-1.6z"/>
					<g id="&lt;Group&gt;">
						<path id="&lt;Path&gt;" class="s1" d="m675.2 1232.3l-93.5-49.5 94-49 93 49z"/>
						<path id="&lt;Path&gt;" class="s2" d="m675.2 1232.3l-93.5-49.5 94-49 93 49z"/>
						<path id="&lt;Path&gt;" class="s3" d="m727.9 1183.1l-50.8 27.8-51.8-27.8 51.3-28.5z"/>
						<path id="&lt;Path&gt;" class="s2" d="m727.9 1183.1l-50.8 27.8-51.8-27.8 51.3-28.5z"/>
						<path id="&lt;Path&gt;" class="s2" d="m768.7 1182.8v11.8l-93.5 48.1-93.5-49.3v-10.6"/>
						<path id="&lt;Path&gt;" class="s2" d="m675.2 1232.3v10.4"/>
					</g>
				</g>
				<g id="&lt;Group&gt;">
					<path id="&lt;Path&gt;" class="s0" d="m330 760.7c2.2 0.3 5.1 1.6 5.3 4 0.3 2.4 0.4 12.6 0.4 12.7 0 0.1-1.2 1.5-1.5 1.6-0.2 0.2-133.5 68.8-133.5 68.8l-3.1 0.3-134.1-70.7-1.6-3.2 0.5-10.2 5-2.3z"/>
					<g id="&lt;Group&gt;">
						<path id="&lt;Path&gt;" class="s1" d="m198.9 833.5l-136.5-72.2 137.1-71.5 135.8 71.5z"/>
						<path id="&lt;Path&gt;" class="s2" d="m198.9 833.5l-136.5-72.2 137.1-71.5 135.8 71.5z"/>
						<path id="&lt;Path&gt;" class="s3" d="m275.8 761.7l-74.2 40.6-75.6-40.6 74.9-41.6z"/>
						<path id="&lt;Path&gt;" class="s2" d="m275.8 761.7l-74.2 40.6-75.6-40.6 74.9-41.6z"/>
						<path id="&lt;Path&gt;" class="s2" d="m335.3 761.3v17.2l-136.4 70.2-136.5-71.9v-15.5"/>
						<path id="&lt;Path&gt;" class="s2" d="m198.9 833.5v15.2"/>
					</g>
				</g>
				<g id="&lt;Group&gt;">
					<path id="&lt;Path&gt;" class="s0" d="m651.8 980.6c1.2 0.2 2.7 0.9 2.8 2.2 0.2 1.3 0.2 6.7 0.2 6.7 0 0.1-0.6 0.9-0.8 0.9-0.1 0.1-71.3 36.7-71.3 36.7l-1.6 0.2-71.6-37.8-0.9-1.7 0.3-5.4 2.7-1.3z"/>
					<g id="&lt;Group&gt;">
						<path id="&lt;Path&gt;" class="s1" d="m581.8 1019.5l-72.9-38.5 73.2-38.2 72.5 38.2z"/>
						<path id="&lt;Path&gt;" class="s2" d="m581.8 1019.5l-72.9-38.5 73.2-38.2 72.5 38.2z"/>
						<path id="&lt;Path&gt;" class="s3" d="m622.9 981.1l-39.7 21.7-40.3-21.7 40-22.1z"/>
						<path id="&lt;Path&gt;" class="s2" d="m622.9 981.1l-39.7 21.7-40.3-21.7 40-22.1z"/>
						<path id="&lt;Path&gt;" class="s2" d="m654.6 981v9.1l-72.8 37.5-72.9-38.4v-8.2"/>
						<path id="&lt;Path&gt;" class="s2" d="m581.8 1019.5v8.1"/>
					</g>
				</g>
				<g id="&lt;Group&gt;">
					<path id="&lt;Path&gt;" class="s0" d="m1334.5 995.5c1.2 0.2 2.7 0.9 2.8 2.1 0.2 1.3 0.2 6.7 0.2 6.8 0 0.1-0.6 0.8-0.8 0.9-0.1 0.1-71.3 36.7-71.3 36.7l-1.6 0.1-71.6-37.7-0.9-1.7 0.3-5.4 2.7-1.3z"/>
					<g id="&lt;Group&gt;">
						<path id="&lt;Path&gt;" class="s1" d="m1264.5 1034.4l-72.9-38.6 73.2-38.2 72.5 38.2z"/>
						<path id="&lt;Path&gt;" class="s2" d="m1264.5 1034.4l-72.9-38.6 73.2-38.2 72.5 38.2z"/>
						<path id="&lt;Path&gt;" class="s3" d="m1305.5 996l-39.6 21.7-40.4-21.7 40-22.2z"/>
						<path id="&lt;Path&gt;" class="s2" d="m1305.5 996l-39.6 21.7-40.4-21.7 40-22.2z"/>
						<path id="&lt;Path&gt;" class="s2" d="m1337.3 995.8v9.2l-72.8 37.5-72.9-38.4v-8.3"/>
						<path id="&lt;Path&gt;" class="s2" d="m1264.5 1034.4v8.1"/>
					</g>
				</g>
				<path id="&lt;Path&gt;" class="s2" d="m973.1 788c0 0 29.9 16.9 84 48.4 34.5 20.2 24.9 41.7 13.5 54.6-5.5 6.2-12.1 11.2-19.4 15-50.2 26.3-403.5 211.3-454 235.7-54.5 26.2-118.9-1.7-118.9-1.7 0 0 0 0-203.3-105.1-35.2-18.2-24.4-43.8-14.3-56.3 4.9-6 11.1-10.7 17.9-14.2l83.2-42.8"/>
				<path id="&lt;Path&gt;" class="s1" d="m213.2 891.2c0 4.5-6.2 8.1-13.8 8.1-7.6 0-13.8-3.6-13.8-8.1 0-4.5 6.2-8.1 13.8-8.1 7.6 0 13.8 3.6 13.8 8.1z"/>
				<path id="&lt;Path&gt;" class="s2" d="m213.2 891.2c0 4.5-6.2 8.1-13.8 8.1-7.6 0-13.8-3.6-13.8-8.1 0-4.5 6.2-8.1 13.8-8.1 7.6 0 13.8 3.6 13.8 8.1z"/>
				<path id="&lt;Path&gt;" class="s2" d="m315.9 910.5l33.1 17.7"/>
				<path id="&lt;Path&gt;" class="s1" d="m319.6 904.1c0 4.5-6.1 8.1-13.8 8.1-7.6 0-13.7-3.6-13.7-8.1 0-4.5 6.1-8.1 13.7-8.1 7.7 0 13.8 3.6 13.8 8.1z"/>
				<path id="&lt;Path&gt;" class="s2" d="m319.6 904.1c0 4.5-6.1 8.1-13.8 8.1-7.6 0-13.7-3.6-13.7-8.1 0-4.5 6.1-8.1 13.7-8.1 7.7 0 13.8 3.6 13.8 8.1z"/>
				<path id="&lt;Path&gt;" class="s2" d="m745.4 1103.3l-35.1-18.6"/>
				<path id="&lt;Path&gt;" class="s1" d="m761.3 1103.3c0 4.5-6.2 8.1-13.8 8.1-7.7 0-13.8-3.6-13.8-8.1 0-4.5 6.1-8.1 13.8-8.1 7.6 0 13.8 3.6 13.8 8.1z"/>
				<path id="&lt;Path&gt;" class="s2" d="m761.3 1103.3c0 4.5-6.2 8.1-13.8 8.1-7.7 0-13.8-3.6-13.8-8.1 0-4.5 6.1-8.1 13.8-8.1 7.6 0 13.8 3.6 13.8 8.1z"/>
				<path id="&lt;Path&gt;" class="s2" d="m888.8 1103.3l-106.7-56.8"/>
				<path id="&lt;Path&gt;" class="s1" d="m904.8 1103.3c0 4.5-6.2 8.1-13.8 8.1-7.7 0-13.8-3.6-13.8-8.1 0-4.5 6.1-8.1 13.8-8.1 7.6 0 13.8 3.6 13.8 8.1z"/>
				<path id="&lt;Path&gt;" class="s2" d="m904.8 1103.3c0 4.5-6.2 8.1-13.8 8.1-7.7 0-13.8-3.6-13.8-8.1 0-4.5 6.1-8.1 13.8-8.1 7.6 0 13.8 3.6 13.8 8.1z"/>
				<path id="&lt;Path&gt;" class="s2" d="m908.7 1038.4l-54.9-29.3"/>
				<path id="&lt;Path&gt;" class="s1" d="m924.6 1038.4c0 4.5-6.1 8.1-13.8 8.1-7.6 0-13.8-3.6-13.8-8.1 0-4.5 6.2-8.1 13.8-8.1 7.7 0 13.8 3.6 13.8 8.1z"/>
				<path id="&lt;Path&gt;" class="s2" d="m924.6 1038.4c0 4.5-6.1 8.1-13.8 8.1-7.6 0-13.8-3.6-13.8-8.1 0-4.5 6.2-8.1 13.8-8.1 7.7 0 13.8 3.6 13.8 8.1z"/>
				<path id="&lt;Path&gt;" class="s3" d="m502 532.6c27.1 36.9 28.8 81.7 3.7 100.2-25.1 18.4-67.4 3.4-94.5-33.5-27.1-36.9-28.8-81.8-3.7-100.2 25.1-18.5 67.4-3.5 94.5 33.5z"/>
				<path id="&lt;Path&gt;" class="s2" d="m502 532.6c27.1 36.9 28.8 81.7 3.7 100.2-25.1 18.4-67.4 3.4-94.5-33.5-27.1-36.9-28.8-81.8-3.7-100.2 25.1-18.5 67.4-3.5 94.5 33.5z"/>
			</g>
			<path id="&lt;Path&gt;" class="s0" d="m270.6 536.2c0 6.8-5.5 12.2-12.3 12.2-6.8 0-12.3-5.4-12.3-12.2 0-6.8 5.5-12.3 12.3-12.3 6.8 0 12.3 5.5 12.3 12.3z"/>
			<path id="&lt;Path&gt;" class="s8" d="m1027.7 595.2c0 2.7-2.1 4.9-4.8 4.9-2.7 0-4.9-2.2-4.9-4.9 0-2.6 2.2-4.8 4.9-4.8 2.7 0 4.8 2.2 4.8 4.8z"/>
			<path id="&lt;Path&gt;" class="s0" d="m418.6 1180.8c0 4.8-4 8.8-8.8 8.8-4.9 0-8.8-4-8.8-8.8 0-4.9 3.9-8.8 8.8-8.8 4.8 0 8.8 3.9 8.8 8.8z"/>
			<path id="&lt;Path&gt;" class="s8" d="m1074.9 975.9c0 5.1-4.2 9.3-9.3 9.3-5.1 0-9.3-4.2-9.3-9.3 0-5.1 4.2-9.3 9.3-9.3 5.1 0 9.3 4.2 9.3 9.3z"/>
		</g>
	</g>
</svg>