<svg version="1.2" xmlns="http://www.w3.org/2000/svg" viewBox="0 0 700 700" width="515" height="515">
	<title>Data Sourcing-01-ai</title>
	<style>
		.s0 { fill: #fc6140 } 
		.s1 { fill: #ffe8ad } 
		.s2 { fill: none;stroke: #000000;stroke-linecap: round;stroke-linejoin: round;stroke-width: 1.3 } 
		.s3 { fill: #ffcf44 } 
		.s4 { fill: #362d46 } 
		.s5 { fill: #00bbd6 } 
		.s6 { fill: #bcebf1 } 
		.s7 { fill: #ffffff } 
		.s8 { fill: #ffd740 } 
	</style>
	<g id="Layer 1">
		<g id="&lt;Group&gt;">
			<g id="&lt;Group&gt;">
				<g id="&lt;Group&gt;">
					<path id="&lt;Path&gt;" class="s0" d="m567.2 187.3c1.1 0.1 2.6 0.8 2.7 2 0.1 1.2 0.2 6.4 0.2 6.4 0 0.1-0.7 0.8-0.8 0.9q-0.1 0-67.6 34.8l-1.6 0.1-67.8-35.8-0.9-1.6 0.3-5.1 2.5-1.3z"/>
					<g id="&lt;Group&gt;">
						<path id="&lt;Path&gt;" class="s1" d="m500.8 224.1l-69.1-36.5 69.4-36.2 68.8 36.2z"/>
						<path id="&lt;Path&gt;" class="s2" d="m500.8 224.1l-69.1-36.5 69.4-36.2 68.8 36.2z"/>
						<path id="&lt;Path&gt;" class="s3" d="m539.7 187.7l-37.5 20.6-38.3-20.6 37.9-21z"/>
						<path id="&lt;Path&gt;" class="s2" d="m539.7 187.7l-37.5 20.6-38.3-20.6 37.9-21z"/>
						<path id="&lt;Path&gt;" class="s2" d="m569.9 187.6v8.7l-69.1 35.5-69.1-36.4v-7.8"/>
						<path id="&lt;Path&gt;" class="s2" d="m500.8 224.1v7.7"/>
					</g>
				</g>
				<g id="&lt;Group&gt;">
					<path id="&lt;Path&gt;" class="s0" d="m310.3 170c1.6 0.2 3.7 1.2 3.9 3 0.2 1.8 0.2 9.3 0.2 9.3 0 0.1-0.8 1.2-1 1.3q-0.2 0.1-99.2 51l-2.2 0.2-99.5-52.4-1.2-2.4 0.3-7.6 3.8-1.7z"/>
					<g id="&lt;Group&gt;">
						<path id="&lt;Path&gt;" class="s1" d="m212.9 224l-101.3-53.6 101.8-53.1 100.8 53.1z"/>
						<path id="&lt;Path&gt;" class="s2" d="m212.9 224l-101.3-53.6 101.8-53.1 100.8 53.1z"/>
						<path id="&lt;Path&gt;" class="s3" d="m270 170.7l-55.1 30.1-56.1-30.1 55.6-30.8z"/>
						<path id="&lt;Path&gt;" class="s2" d="m270 170.7l-55.1 30.1-56.1-30.1 55.6-30.8z"/>
						<path id="&lt;Path&gt;" class="s2" d="m314.2 170.4v12.8l-101.3 52.1-101.3-53.4v-11.5"/>
						<path id="&lt;Path&gt;" class="s2" d="m212.9 224v11.3"/>
					</g>
				</g>
				<path id="&lt;Path&gt;" class="s3" d="m289.9 376.1c0.8 1.1-2.8 67.6-4.5 68.7q-1.7 1.2-3.3 0.4l-98.6-52.5q0 0-1.2-0.7-1.1-0.6-1.4-2.7v-28.8l0.1-39.1q-0.1-0.8-0.2-2-0.1-1.3 1.2-1.4l100 53.3q7.2 3.6 7.9 4.8z"/>
				<path id="&lt;Path&gt;" class="s4" d="m182.4 539.9l-13.5-6.5-22.3-11q-5.5-2.7-7.6-3.8c-2-1.2-7.8-4.8-8.7-5.6-1-0.9-4-6-4.5-9-0.4-3 0.4-7.1 0.9-8.5 0.5-1.4 2-3.9 3.5-6 1.5-2.1 6.5-5.4 10.1-7.8q3.7-2.5 37.9-19.5 3.2-1.2 5.2-2z"/>
				<path id="&lt;Path&gt;" class="s0" d="m286 573.9c-0.4 0.6-3.2 1.8-7.3 2.3-4 0.5-8.5 0.5-13.2 0.3-4.6-0.2-11.7-2.1-16.1-3.3q-4.4-1.3-12.1-3.7l-55.6-29.2-0.8-2v-145.5l1-1 100.7 53.6q3 1.4 4.4 1.9-0.6 125.9-1 126.6z"/>
				<path id="&lt;Path&gt;" class="s4" d="m482.6 394.4c3.1 0.6 3.3-0.5 5.7 0.6 2.3 1 40.8 23.4 42.6 24.7 1.9 1.3 5.7 4.3 6.7 5.6 1 1.4 2.4 5.2 2.6 7.6 0.3 2.5-0.2 4.7-0.9 6.5-0.7 1.9-5.1 7.8-6.4 8.9-1.3 1.1-4 2.8-5.3 3.6-1.4 0.7-9.5 5.1-11.1 6.1-1.5 1-25.2 13.4-26.8 14.1-1.6 0.7-4.2 0.3-5.4 0q-1.2-0.3-1.7-77.1"/>
				<path id="&lt;Path&gt;" class="s1" d="m486.6 265.3q0 1.2-0.1 1.9-0.2 0.7-1.1 1.5l-197.3 101.9q-1.8 1-2.7 1.4c-0.8 0.3-1.3-0.7-1.3-1.2q0-0.6 0-129.8 0-0.7 0.2-1.5 0.1-0.8 0.6-1.9l198-102.2q1.8-0.9 2.7-1c0.8-0.2 0.9-0.3 1 1.2z"/>
				<path id="&lt;Path&gt;" class="s0" d="m484.6 339.3q2.2 3.1 2 4.3-0.1 1.3 0 127.6 0 2.3-1 2.9-0.9 0.6-1.4 0.8l-185.6 95.9q-11.4 4.2-12.7 4.3c-1.2 0.1-1.9-0.3-1.9-1.3q-0.1-1 0.3-4.7v-128.5z"/>
				<path id="&lt;Path&gt;" class="s3" d="m289.4 443.5q-2.9 1.5-3.8 2c-0.9 0.4-1.1-0.2-1.5-1q-0.4-0.8 0-69.6 0-0.8 0.1-1.6 0.1-0.8 1.3-1.6 198.7-102.5 199.8-102.9 1-0.3 1.2 0.5v62.5q0.4 4.9 0.2 7.9-0.2 2.9-3.3 4.1z"/>
				<path id="&lt;Path&gt;" class="s5" d="m390 408.5q-2.1 1-3.2 1.4c-1.1 0.5-1.6 0.5-1.7 0-0.2-0.5 0.1-5.9 0.1-6.7 0-0.8 0.4-1.6 1.1-2.1q0.7-0.4 96.6-49.6 1.4-0.9 2.1-1.5 0.7-0.7 1.6 0.8 0.3 3.7 0 5.9c-0.2 2.2-0.4 1.4-1.6 2.6z"/>
				<path id="&lt;Path&gt;" class="s2" d="m284.1 446.2l202.4-104.4"/>
				<path id="&lt;Path&gt;" class="s6" d="m333.7 383.7c-0.5-0.3-0.6-0.7-0.7-1.4-0.1-0.7 0-3.7-0.1-5.4-0.1-1.7 0.6-1.6 1.3-1.4 0.7 0.2 49.5 25.4 50 25.6 0.6 0.3 1 0.9 1.1 1.8 0.2 0.9 0.1 3.8 0 5.5-0.1 1.7-0.3 1.9-2.2 1.3q-48.9-25.7-49.4-26z"/>
				<path id="&lt;Path&gt;" class="s6" d="m437.6 323.2q44.2 23 46 24.7c1.9 1.7 1.7 2 1.2 2.5q-0.5 0.4-3.1 1.5-92.9 48-93.9 48.5c-1.1 0.6-2.5 1.4-3.3 1q-0.8-0.4-2-1-47.9-24.7-48-24.7c0 0-0.7-1.1-0.2-1.6q0.5-0.4 1.1-0.7 98.4-50.2 99.2-50.6c0.7-0.4 2.4 0.1 3 0.4z"/>
				<path id="&lt;Path&gt;" class="s2" d="m284.1 372.5l202.4-104.4"/>
				<path id="&lt;Path&gt;" class="s1" d="m284.8 371q-1.2 1.1-1.9 0.7-0.7-0.3-100.3-53.5-1.4-1.3-1.6-1.8-0.2-0.6-0.2-131 0.1-0.8 0.4-1.4 0.3-0.5 1-0.1l100.7 53.6q3.4 2.6 5.8 4z"/>
				<path id="&lt;Path&gt;" class="s7" d="m436.2 318.7q-0.2 0.9-0.2 2 0 1.1-1.1 2.2l-96.7 49.6q-2.3 1.2-3.7 1.5c-1.3 0.3-1.3 0.1-1.6-1.3q-0.3-1.3 0-66.9 0-0.4 0-1 0-0.7 0.8-1.5l100.1-51.7q1.2-0.6 1.6-0.8c0.4-0.2 0.4 0.6 0.4 1.3q0 0.7 0.2 48.2"/>
				<path id="&lt;Path&gt;" class="s7" d="m285.4 237.7l-2.5-0.2-98.3-52.4q-1.9-1-2.5-1.4-0.6-0.3 0.2-1.5 199.2-102.5 199.9-102.8 0.6-0.3 1.8-0.4 101.1 53.7 101.4 53.9c0.3 0.1 0.1 0.8-0.5 1.5z"/>
				<path id="&lt;Path&gt;" class="s2" d="m486.5 133.6v338.9"/>
				<path id="&lt;Path&gt;" class="s2" d="m284.1 238v337.4"/>
				<path id="&lt;Path&gt;" class="s2" d="m284.1 238l202.4-104.4"/>
				<path id="&lt;Path&gt;" class="s2" d="m385.2 410.8v-9l-52.3-27v-71.1l103.1-53.3v71.7l50.5 27.4-101.3 52.3"/>
				<path id="&lt;Path&gt;" class="s4" d="m459.2 341.4l-87.2 45-24.4-12 88.4-45.7z"/>
				<path id="&lt;Path&gt;" class="s2" d="m436 322.1l-103.1 52.7"/>
				<path id="&lt;Path&gt;" class="s2" d="m459.2 341.4l-87.2 45-24.4-12 88.4-45.7z"/>
				<path id="&lt;Path&gt;" class="s2" d="m486.5 358.5l-101.3 52.3-52.3-27.5v-8.3"/>
				<path id="&lt;Path&gt;" class="s2" d="m383.3 78.7l103.2 54.9"/>
				<path id="&lt;Path&gt;" class="s2" d="m180.9 183.1l103.2 54.9"/>
				<path id="&lt;Path&gt;" class="s3" d="m245.6 185.4l143.2-75.2 36.6 19.5-143.1 75.3z"/>
				<path id="&lt;Path&gt;" class="s2" d="m180.9 317.4l103.2 55"/>
				<path id="&lt;Path&gt;" class="s2" d="m104.7 448.8l48.9 26"/>
				<path id="&lt;Path&gt;" class="s2" d="m180.9 391.3l103.2 54.9"/>
				<path id="&lt;Path&gt;" class="s1" d="m331.4 179.2c-1.5 0.5-2.2 0.3-3.2 0-0.9-0.2-33-17.6-33.7-17.9-0.6-0.3-0.1-0.9 0-1.3 0.2-0.3 50.4-27 51.9-27.6q1.5-0.5 2.1 0.2 33.8 17.4 34.2 17.9 0.4 0.6 0.2 1.6-50 26.5-51.5 27.1z"/>
				<path id="&lt;Path&gt;" class="s2" d="m180.9 183.1l202.4-104.4"/>
				<g id="&lt;Group&gt;">
					<path id="&lt;Path&gt;" class="s2" d="m348 132.1l36.2 19.3"/>
					<path id="&lt;Path&gt;" class="s2" d="m320.5 146.3l36.5 19.4"/>
					<path id="&lt;Path&gt;" class="s2" d="m293 160.5l36.7 19.5"/>
				</g>
				<path id="&lt;Path&gt;" class="s2" d="m245.6 185.4l143.2-75.2 36.6 19.5-143.1 75.3z"/>
				<path id="&lt;Path&gt;" class="s2" d="m180.9 183.1v356.8"/>
				<ellipse id="&lt;Path&gt;" class="s1" cx="440.7" cy="123" rx="9.3" ry="5.3"/>
				<ellipse id="&lt;Path&gt;" class="s1" cx="421" cy="112.5" rx="9.3" ry="5.3"/>
				<ellipse id="&lt;Path&gt;" class="s1" cx="399.5" cy="101.9" rx="9.3" ry="5.3"/>
				<ellipse id="&lt;Path&gt;" class="s2" cx="440.7" cy="123" rx="9.3" ry="5.3"/>
				<ellipse id="&lt;Path&gt;" class="s2" cx="421" cy="112.5" rx="9.3" ry="5.3"/>
				<ellipse id="&lt;Path&gt;" class="s2" cx="399.5" cy="101.9" rx="9.3" ry="5.3"/>
				<g id="&lt;Group&gt;">
					<path id="&lt;Path&gt;" class="s0" d="m164.6 544.8c1.1 0.1 2.6 0.8 2.7 2 0.1 1.2 0.1 6.2 0.1 6.3 0 0-0.6 0.8-0.7 0.8q-0.1 0.1-66.8 34.4l-1.5 0.1-67-35.3-0.8-1.6 0.2-5.1 2.5-1.2z"/>
					<g id="&lt;Group&gt;">
						<path id="&lt;Path&gt;" class="s1" d="m99 581.2l-68.2-36.1 68.6-35.8 67.9 35.8z"/>
						<path id="&lt;Path&gt;" class="s2" d="m99 581.2l-68.2-36.1 68.6-35.8 67.9 35.8z"/>
						<path id="&lt;Path&gt;" class="s3" d="m137.5 545.2l-37.1 20.4-37.8-20.4 37.4-20.7z"/>
						<path id="&lt;Path&gt;" class="s2" d="m137.5 545.2l-37.1 20.4-37.8-20.4 37.4-20.7z"/>
						<path id="&lt;Path&gt;" class="s2" d="m167.3 545.1v8.5l-68.3 35.2-68.2-36v-7.7"/>
						<path id="&lt;Path&gt;" class="s2" d="m99 581.2v7.6"/>
					</g>
				</g>
				<g id="&lt;Group&gt;">
					<path id="&lt;Path&gt;" class="s0" d="m666.6 354.2c1.1 0.2 2.6 0.8 2.7 2 0.1 1.2 0.1 6.3 0.1 6.3 0 0.1-0.6 0.8-0.7 0.9q-0.1 0-66.8 34.3l-1.5 0.2-67-35.4-0.8-1.6 0.2-5 2.5-1.2z"/>
					<g id="&lt;Group&gt;">
						<path id="&lt;Path&gt;" class="s1" d="m601 390.6l-68.2-36.1 68.6-35.8 67.9 35.8z"/>
						<path id="&lt;Path&gt;" class="s2" d="m601 390.6l-68.2-36.1 68.6-35.8 67.9 35.8z"/>
						<path id="&lt;Path&gt;" class="s3" d="m639.5 354.7l-37.1 20.3-37.8-20.3 37.5-20.8z"/>
						<path id="&lt;Path&gt;" class="s2" d="m639.5 354.7l-37.1 20.3-37.8-20.3 37.5-20.8z"/>
						<path id="&lt;Path&gt;" class="s2" d="m669.3 354.5v8.6l-68.3 35.1-68.2-36v-7.7"/>
						<path id="&lt;Path&gt;" class="s2" d="m601 390.6v7.6"/>
					</g>
				</g>
				<g id="&lt;Group&gt;">
					<path id="&lt;Path&gt;" class="s0" d="m382.5 591.2c0.8 0.1 1.8 0.6 1.9 1.4 0 0.8 0.1 4.3 0.1 4.3 0 0-0.4 0.5-0.5 0.6q-0.1 0-45.8 23.5l-1 0.1-45.9-24.2-0.6-1.1 0.2-3.5 1.7-0.8z"/>
					<g id="&lt;Group&gt;">
						<path id="&lt;Path&gt;" class="s1" d="m337.6 616.1l-46.7-24.7 46.9-24.5 46.6 24.5z"/>
						<path id="&lt;Path&gt;" class="s2" d="m337.6 616.1l-46.7-24.7 46.9-24.5 46.6 24.5z"/>
						<path id="&lt;Path&gt;" class="s3" d="m364 591.5l-25.5 13.9-25.9-13.9 25.7-14.2z"/>
						<path id="&lt;Path&gt;" class="s2" d="m364 591.5l-25.5 13.9-25.9-13.9 25.7-14.2z"/>
						<path id="&lt;Path&gt;" class="s2" d="m384.4 591.4v5.9l-46.8 24-46.7-24.6v-5.3"/>
						<path id="&lt;Path&gt;" class="s2" d="m337.6 616.1v5.2"/>
					</g>
				</g>
				<g id="&lt;Group&gt;">
					<path id="&lt;Path&gt;" class="s0" d="m165 380.4c1.1 0.1 2.5 0.7 2.7 2 0.1 1.2 0.1 6.2 0.1 6.3 0 0-0.6 0.8-0.7 0.8q-0.1 0.1-66.8 34.4l-1.5 0.1-67-35.3-0.9-1.6 0.3-5.1 2.5-1.2z"/>
					<g id="&lt;Group&gt;">
						<path id="&lt;Path&gt;" class="s1" d="m99.4 416.8l-68.2-36.1 68.6-35.8 67.9 35.8z"/>
						<path id="&lt;Path&gt;" class="s2" d="m99.4 416.8l-68.2-36.1 68.6-35.8 67.9 35.8z"/>
						<path id="&lt;Path&gt;" class="s3" d="m137.9 380.8l-37.1 20.3-37.8-20.3 37.4-20.7z"/>
						<path id="&lt;Path&gt;" class="s2" d="m137.9 380.8l-37.1 20.3-37.8-20.3 37.4-20.7z"/>
						<path id="&lt;Path&gt;" class="s2" d="m167.7 380.7v8.5l-68.3 35.2-68.2-36v-7.7"/>
						<path id="&lt;Path&gt;" class="s2" d="m99.4 416.8v7.6"/>
					</g>
				</g>
				<g id="&lt;Group&gt;">
					<path id="&lt;Path&gt;" class="s0" d="m325.9 490.3c0.6 0.1 1.4 0.4 1.4 1.1 0.1 0.6 0.1 3.3 0.1 3.4 0 0-0.3 0.4-0.4 0.4q0 0-35.6 18.4h-0.8l-35.8-18.8-0.5-0.9 0.1-2.7 1.4-0.6z"/>
					<g id="&lt;Group&gt;">
						<path id="&lt;Path&gt;" class="s1" d="m290.9 509.8l-36.5-19.3 36.7-19.1 36.2 19.1z"/>
						<path id="&lt;Path&gt;" class="s2" d="m290.9 509.8l-36.5-19.3 36.7-19.1 36.2 19.1z"/>
						<path id="&lt;Path&gt;" class="s3" d="m311.4 490.6l-19.8 10.8-20.2-10.8 20-11.1z"/>
						<path id="&lt;Path&gt;" class="s2" d="m311.4 490.6l-19.8 10.8-20.2-10.8 20-11.1z"/>
						<path id="&lt;Path&gt;" class="s2" d="m327.3 490.5v4.6l-36.4 18.7-36.5-19.2v-4.1"/>
						<path id="&lt;Path&gt;" class="s2" d="m290.9 509.8v4"/>
					</g>
				</g>
				<g id="&lt;Group&gt;">
					<path id="&lt;Path&gt;" class="s0" d="m667.3 497.8c0.5 0 1.3 0.4 1.4 1 0 0.7 0 3.4 0 3.4 0 0-0.3 0.4-0.3 0.4q-0.1 0.1-35.7 18.4l-0.8 0.1-35.8-18.9-0.4-0.9 0.1-2.7 1.4-0.6z"/>
					<g id="&lt;Group&gt;">
						<path id="&lt;Path&gt;" class="s1" d="m632.2 517.2l-36.4-19.3 36.6-19.1 36.3 19.1z"/>
						<path id="&lt;Path&gt;" class="s2" d="m632.2 517.2l-36.4-19.3 36.6-19.1 36.3 19.1z"/>
						<path id="&lt;Path&gt;" class="s3" d="m652.8 498l-19.8 10.9-20.2-10.9 20-11.1z"/>
						<path id="&lt;Path&gt;" class="s2" d="m652.8 498l-19.8 10.9-20.2-10.9 20-11.1z"/>
						<path id="&lt;Path&gt;" class="s2" d="m668.7 497.9v4.6l-36.5 18.7-36.4-19.2v-4.1"/>
						<path id="&lt;Path&gt;" class="s2" d="m632.2 517.2v4"/>
					</g>
				</g>
				<path id="&lt;Path&gt;" class="s2" d="m486.5 394q15 8.4 42 24.2c17.3 10.1 12.5 20.9 6.8 27.3-2.7 3.1-6.1 5.6-9.7 7.5-25.1 13.1-201.7 105.6-227 117.8q-27.2 13.2-59.4-0.8 0 0-101.7-52.5c-17.6-9.1-12.2-22-7.1-28.2 2.4-3 5.5-5.4 8.9-7.1l41.6-21.4"/>
				<ellipse id="&lt;Path&gt;" class="s1" cx="99.7" cy="445.6" rx="6.9" ry="4.1"/>
				<ellipse id="&lt;Path&gt;" class="s2" cx="99.7" cy="445.6" rx="6.9" ry="4.1"/>
				<path id="&lt;Path&gt;" class="s2" d="m157.9 455.3l16.6 8.8"/>
				<ellipse id="&lt;Path&gt;" class="s1" cx="152.9" cy="452" rx="6.9" ry="4.1"/>
				<ellipse id="&lt;Path&gt;" class="s2" cx="152.9" cy="452" rx="6.9" ry="4.1"/>
				<path id="&lt;Path&gt;" class="s2" d="m372.7 551.7l-17.5-9.4"/>
				<ellipse id="&lt;Path&gt;" class="s1" cx="373.7" cy="551.7" rx="6.9" ry="4.1"/>
				<ellipse id="&lt;Path&gt;" class="s2" cx="373.7" cy="551.7" rx="6.9" ry="4.1"/>
				<path id="&lt;Path&gt;" class="s2" d="m444.4 551.7l-53.3-28.5"/>
				<ellipse id="&lt;Path&gt;" class="s1" cx="445.5" cy="551.7" rx="6.9" ry="4.1"/>
				<ellipse id="&lt;Path&gt;" class="s2" cx="445.5" cy="551.7" rx="6.9" ry="4.1"/>
				<path id="&lt;Path&gt;" class="s2" d="m454.4 519.2l-27.5-14.6"/>
				<ellipse id="&lt;Path&gt;" class="s1" cx="455.4" cy="519.2" rx="6.9" ry="4.1"/>
				<ellipse id="&lt;Path&gt;" class="s2" cx="455.4" cy="519.2" rx="6.9" ry="4.1"/>
				<path id="&lt;Path&gt;" class="s3" d="m251 266.3c13.6 18.4 14.4 40.9 1.9 50.1-12.6 9.2-33.7 1.7-47.3-16.8-13.6-18.4-14.4-40.9-1.8-50.1 12.5-9.2 33.7-1.7 47.2 16.8z"/>
				<path id="&lt;Path&gt;" class="s2" d="m251 266.3c13.6 18.4 14.4 40.9 1.9 50.1-12.6 9.2-33.7 1.7-47.3-16.8-13.6-18.4-14.4-40.9-1.8-50.1 12.5-9.2 33.7-1.7 47.2 16.8z"/>
			</g>
			<circle id="&lt;Path&gt;" class="s0" cx="129.1" cy="268.1" r="6.1"/>
			<circle id="&lt;Path&gt;" class="s8" cx="511.4" cy="297.6" r="2.4"/>
			<circle id="&lt;Path&gt;" class="s0" cx="204.9" cy="590.4" r="4.4"/>
			<circle id="&lt;Path&gt;" class="s8" cx="532.8" cy="488" r="4.6"/>
		</g>
	</g>
</svg>