<svg version="1.2" xmlns="http://www.w3.org/2000/svg" viewBox="0 0 700 700" width="515" height="515">
	<title>Data Labeling-ai</title>
	<style>
		.s0 { fill: #d43b20 } 
		.s1 { fill: #ffe8ad } 
		.s2 { fill: none;stroke: #000000;stroke-linecap: round;stroke-linejoin: round;stroke-width: 1.3 } 
		.s3 { fill: #ffcf44 } 
		.s4 { fill: #ffffff } 
		.s5 { fill: #fc6140 } 
		.s6 { fill: #362d46 } 
		.s7 { fill: #00bbd6 } 
		.s8 { fill: #bcebf1 } 
	</style>
	<g id="Layer 1">
		<g id="&lt;Group&gt;">
			<g id="&lt;Group&gt;">
				<path id="&lt;Path&gt;" class="s0" d="m194.1 56c-0.5-0.2-1.3-1-1.3-1.5q0-0.5 0-25.6 0.1-0.7 0.2-1.1 0.1-0.3 0.6-0.4l213.7 79.1q0.3 0.2 1.3 0.5 0.9 0.4 0.9 0.9 0 24.1 0 24.4c0 0.4-0.8 0.4-1.8 0.3q-213-76.4-213.6-76.6z"/>
				<path id="&lt;Path&gt;" class="s1" d="m409.5 132.9v158.9l-0.5 0.7-215.9-74.9-0.3-0.6v-161.4z"/>
				<path id="&lt;Path&gt;" class="s2" d="m192.8 217.5v-190.4l216.7 80.2v185.3z"/>
				<path id="&lt;Path&gt;" class="s2" d="m409.5 133l-216.7-77.4"/>
				<path id="&lt;Path&gt;" class="s3" d="m204.9 204.2v-4.2q4.8 2 10.5-0.7c5.6-2.8 7.5-6.7 13.6-16.7 6.1-10 19.4-11.3 29.3-3.9 9.8 7.4 14.5 26.1 22.9 32.9 8.4 6.8 17.1-3.8 22-13.9 4.9-10.2 15.5-33.4 29.3-29 13.8 4.3 24.2 21.9 29 42.9q4.8 21 23.2 37.3v21.4z"/>
				<path id="&lt;Path&gt;" class="s3" d="m204.8 84.6v-10.8l45 16.9v10.9z"/>
			</g>
			<g id="&lt;Group&gt;">
				<path id="&lt;Path&gt;" class="s4" d="m505.2 584.2c-88.2 32.6-219.3 28.4-285.4 1-66.2-27.5-184.7-110.7-185.4-112.6-0.7-1.9-1-4.2-1-6.3 0-2.1 2.1-5.1 3.8-7.7 1.6-2.6 6.7-6.2 7.7-6.9 1-0.7 6.7-4 8.1-4.9q1.4-1 15-7.2l39.3-18.2 69.8-32 46.4-21.4q2.5-0.9 3.4-1.1c0.9-0.3 5.2 1 6.9 3.9 1.7 2.9 58.5 100.3 77.2 105.9 18.6 5.7 128.6-20.4 128.4-39.5q-0.1-19.1 25.9-64.6l64.1 29.2 42.2 19.1 34.7 15.7 20.3 9.2q5.3 1.8 8.4 3.5c3 1.6 8.6 5 10.3 6.1 1.7 1.2 3.2 4.5 4 6.2 0.7 1.8 0.6 6.7-0.5 10.6q-55.5 79.4-143.6 112z"/>
				<path id="&lt;Path&gt;" class="s5" d="m648.4 469.3c0.9-0.8 1.5-1.2 1.5-0.1q0 1.2-0.1 3.6v30q-0.3 23.9-0.2 25.5c0.1 1.5 0.3 4.8-0.7 7.8-1.1 3.1-3.9 7.4-7.4 10.6-3.6 3.3-11.6 7.7-15.8 9.6q-4.2 1.9-16.2 6.9l-24.7 10.7-21.1 9.1-23.2 10.1-24.6 10.7-26.5 11.5-26.5 11.7-24.1 10.3-26.2 11.6-35.5 15.3q-9.9 4.4-12.3 5.1c-2.4 0.7-7.2 1.8-8.3 2-1.1 0.2-7.9 1.2-12 1.5-4.1 0.4-15.8-0.9-17.3-0.9q-1.5-0.1-12.1-2.7-12.9-4.4-17-5.8-4-1.4-17-7.2l-17.1-7.3-35.1-15.3-49.1-21.4-44.4-19.4-46.7-20.6-38.1-16.7q-5.4-2.6-7.4-4c-2-1.4-4.6-5-5.9-7.4-1.4-2.4-2.2-4.5-2.5-5.3-0.3-0.9-0.6-4.8-0.8-6.9q-0.2-2-0.7-11.3l0.2-23.5-0.4-22.9q0.6-2.1 1-1.6c0.4 0.4 1.9 2.6 3 4.1 1.1 1.4 5.1 4.5 9.6 6.5q4.4 2 11.4 4.8l16.8 7.8 23 10.4 36.1 16.2 45.2 20 52.7 23.1 29.2 12.7q12.8 4.9 15.4 5.8c2.7 0.9 13.5 4.3 19.8 6.1 6.3 1.8 16.6 3.7 21.6 4.7 5.1 1.1 19.8 2.5 25.3 2.8 5.5 0.3 17.3-0.5 21.5-0.8 4.2-0.2 17.1-3 20.3-3.7 3.2-0.8 10.2-3.2 15.2-5.7q5.1-2.5 10.7-6.1l10.1-4.3 15.1-6.7 32.3-14.2 31.9-14.1 24.4-10.9 37.9-16.8 41.8-18.7 26.2-11.7q7.2-4 10.1-6.4c2.9-2.3 6.4-6 6.8-6.6q0.4-0.7 0.9-1.6z"/>
				<path id="&lt;Path&gt;" class="s1" d="m227.3 431.5q0.9 0.9 0.4 1.9l-0.1 39.9q-0.3 2.1 1.1 3.2 1.3 1.1 3 1.4l23.7 9 80.3 30.4q4.6 1.4 8.2 1.8c3.5 0.4 7.8 0.1 9.1-0.4q1.2-0.4 6.5-1.6l13.2-5.4 24.8-9.3 41.9-16q24.7-9.3 24.8-9.4c0.1 0 1.7-1.1 2.1-2.6q0.4-1.5-0.2-5.4v-18.4q0-10.1 0.1-10.7c0.1-0.7 0.6-1 1.3-0.6q0.6 0.3 0.6 0.3l1.5 0.6 21.7 9.5 50.5 22.5q1.4 0.1 1.7 0.6c0.3 0.5 0.4 1-0.1 1.5-0.6 0.4-3.1 2.5-3.7 2.9-0.6 0.4-9.2 4.3-13.3 5.7q-4.1 1.4-17.3 6.9l-11.5 5-17.4 7.8-25.2 11-25.1 11.3-18.2 8.4-42.1 19q-8.2 3.5-10 3.9c-1.9 0.5-6.9 1.6-8.4 1.5-1.4-0.1-8.9 0.7-10.8 0.7-1.9 0.1-12.5-1.4-15.3-1.7-2.8-0.3-9.1-2.2-11-2.8-1.8-0.7-13.2-5.4-14.3-6q-1.1-0.6-18.6-8.5l-26.2-12.1-34.4-15.4-30.7-14-31.7-14.5q-15.8-6.4-17.5-7.4c-1.8-1.1-1.2-2.2-0.6-2.3q0.6-0.2 3-1.3l24.1-11.5 37.6-18.5z"/>
				<path id="&lt;Path&gt;" class="s0" d="m541.8 472.2l-8.2-3.9-14.6-6.2-22.6-10q-28-12.4-29.5-13.1-1.4-0.6-0.9-2l0.2-6.7q0-4 0-4.7c-0.1-0.7 1.5-0.6 1.6-0.6q0 0 25.2 11.2l34.5 15.5 10.5 4.7q4.1 1.8 4.9 2.7c0.9 0.9 2.4 3.3 2.9 4 0.5 0.6 0.5 1.5 0.5 3.4 0 2-0.4 4.5-0.9 5.7-0.5 1.1-1.3 0.7-2.5 0.5z"/>
				<path id="&lt;Path&gt;" class="s0" d="m238.1 418.3q0.6 0.2 0.6 1-2.2 0.7-3.8 1.3c-1.5 0.6-6.1 2.3-6.9 3.1-0.8 0.8-0.5 6.1-0.5 6.7q0 0.6-0.6 1.6l-62.9 30.2-17.3 8.3q-5.9 3-7 3.3c-1.1 0.4-1.2-0.1-2.2-1.2-1.1-1.2-1.4-4.4-1-6.5 0.3-2.2 2.2-4.8 3.5-6.6 1.4-1.9 5.8-4.6 7-5.6q1.2-1.1 13.3-6.7l16-7.4 25.2-11.7 20.9-9.7q2.4-1.6 5.2-2.4c2.7-0.8 2.7-0.5 3.7 0.1q6.2 1.9 6.8 2.2z"/>
				<path id="&lt;Path&gt;" class="s2" d="m466.1 373.1l163.5 74q48 15.3-4.3 39.1-52.2 23.8-216.3 96.1-49.2 39.5-158-8.4-108.7-47.8-108.7-47.8l-99-44.4q-30.7-16.1 15.4-37.8 46.2-21.6 169-77.7"/>
				<path id="&lt;Path&gt;" class="s2" d="m465 423.9l75.4 33.6c7 3.1 8.3 12.7 2.3 17.4-2.5 2-6 4-10.9 5.9q-24.3 9.6-24.3 9.6l-143 64q-26.5 12.1-64.6-6.3c-34.9-16.7-140-63.7-157.8-71.6-3.5-1.6-5.9-5.1-5.8-9 0.2-4.7 3.9-11 18.2-17.6q28.6-13.2 74.9-34.8"/>
				<path id="&lt;Path&gt;" class="s2" d="m544.3 473.3l-78.2-34.6"/>
				<path id="&lt;Path&gt;" class="s2" d="m138.9 474.2l88.7-42.5"/>
				<path id="&lt;Path&gt;" class="s2" d="m649.7 464.8v65.9q2.1 14.6-25.7 26.3-27.8 11.7-256.4 111.3-27.9 12.2-68.3-4.4c-35.6-14.6-210.4-91.6-251.4-109.6-7.1-3.2-12.1-9.7-13.3-17.4-0.7-5-1.3-11.9-1.3-21.3q0-35.1 0-47.3"/>
				<path id="&lt;Path&gt;" class="s0" d="m581.9 548.5l-0.3-13.7 19.3-8.6 0.1 13.7z"/>
				<path id="&lt;Path&gt;" class="s0" d="m569.1 540.5l0.5 13.6-124.1 55.6-0.2-13.6z"/>
				<g id="&lt;Group&gt;">
					<g id="&lt;Group&gt;">
						<path id="&lt;Path&gt;" class="s6" d="m450 394.1c0.8-1.3 0.4-1.3 2.7-0.6q2.3 0.7 18.7 8.3 18.8 8.4 19.8 9.2c1.1 0.7 1.5 2.1 0.8 3q-0.8 0.9-2.7 1.7l-20.5 7.4-41.7 16.2-36.8 14.5q-28.1 10.1-32 11.3c-3.9 1.3-7.3 2.3-9.9 2.3-2.5 0.1-4.1 0.2-6.5 0-2.4-0.3-8.2-0.9-10.8-2q-2.6-1.1-8.6-3.5l-19.6-6.5-34.4-14.1-40.5-15.6q-24.6-8.8-27.4-9.7c-2.8-0.9-3.5-3.2-3.3-4 0.2-0.9 1.7-2.3 4-3.5q2.2-1.2 5.1-1.8l26.1-10.4q1.8-1.4 2.4 0.9c0.6 2.2 0.4 5 0.4 7.9 0 2.9-0.5 5.2 0.7 6.9 1.1 1.8 2.5 2.5 3.2 2.7q0.7 0.3 10.1 3.5l14.3 4.7 26.8 11.5 44.9 15.4q4.4 2.1 7.4 2.3c2.9 0.1 6.2-0.3 8.1-1q1.8-0.7 16.4-6.2l45.6-19.8q33.3-12 35.2-13.4c1.9-1.4 2.7-4.6 2.7-7q-0.1-2.3-0.7-10.6z"/>
						<path id="&lt;Path&gt;" class="s7" d="m492.1 440.9v25.8q0.1 7.1-0.5 8.1-0.7 1.1-1.3 1.5l-50.1 18.1-43.1 17.9-21.2 8q-3.9 1.5-8.7 3.2-4.7 1.6-12.1 3.6-5.2 1.4-7.2 1.4c-2 0.1-6.3-0.2-9.3-0.8-2.9-0.5-8.2-1.7-8.6-1.8q-0.3-0.1-30.9-11l-27.7-12.2-35.2-13-33.2-12q-4-1.1-5-2.4-1-1.3-0.7-4.1v-44.4q0.1-9.2 0.2-10.8c0.1-1.5 1.8-0.5 2-0.6q0.2-0.1 21.3 7.9l51.1 19.5 39.5 15.7q8.8 3 11.5 4 2.8 1 14.7 4.6 2.9 0.7 5.3 0.6c2.4 0 4.7 0 7.1-0.3q2.4-0.2 6-1.1l132.7-50.4q1.5-0.6 2.6-0.7c1.1-0.2 0.8 0.2 1.1 1.4z"/>
						<path id="&lt;Path&gt;" class="s2" d="m452.4 393.1l38.4 17.6c2 0.9 1.8 3.7-0.2 4.5l-131.2 50c-9.3 3.4-19.5 3.4-28.7 0l-131.2-49.6c-2.9-1.1-3-5.2-0.1-6.4l153.9-57.7z"/>
						<path id="&lt;Path&gt;" class="s2" d="m492.1 414v59c0.1 1-0.3 2.6-1.5 3l-131.2 50.1c-9.3 3.4-19.5 3.4-28.7 0l-131.2-49.6c-1.6-0.6-2.3-2.1-2.2-3.5v-60.5"/>
					</g>
					<g id="&lt;Group&gt;">
						<path id="&lt;Path&gt;" class="s6" d="m450 317.5c0.8-1.3 0.4-1.3 2.7-0.6q2.3 0.8 18.7 8.3 18.8 8.5 19.8 9.2c1.1 0.8 1.5 2.1 0.8 3q-0.8 0.9-2.7 1.7l-20.5 7.4-41.8 16.3-36.7 14.5q-28.1 10-32 11.2c-3.9 1.3-7.3 2.3-9.9 2.4-2.5 0-4.1 0.2-6.5-0.1-2.4-0.3-8.2-0.9-10.8-2q-2.6-1.1-8.6-3.5l-19.6-6.5-34.8-13.8-40.1-15.8q-24.6-8.9-27.4-9.8c-2.8-0.9-3.5-3.2-3.3-4 0.2-0.8 1.7-2.3 4-3.5q2.2-1.2 5.1-1.8l26.1-10.3q1.8-1.5 2.4 0.8c0.6 2.2 0.4 5 0.4 7.9 0 2.9-0.5 5.2 0.7 7 1.1 1.7 2.5 2.4 3.2 2.7q0.7 0.2 10.1 3.4l14.3 4.7 26.8 11.5 44.9 15.5q4.4 2.1 7.4 2.2c2.9 0.1 6.2-0.3 8.1-1q1.8-0.7 16.4-6.2l45.6-19.8q33.3-12 35.2-13.4c1.9-1.4 2.7-4.6 2.7-6.9q-0.1-2.4-0.7-10.7z"/>
						<path id="&lt;Path&gt;" class="s7" d="m492.1 364.3v25.8q0.1 7.1-0.5 8.1-0.7 1.1-1.3 1.6l-50.1 18-43.1 18-21.2 7.9q-3.9 1.5-8.7 3.2-4.7 1.7-12.1 3.6-5.2 1.4-7.2 1.4c-2 0.1-6.3-0.2-9.3-0.8-2.9-0.5-8.2-1.7-8.6-1.8q-0.3-0.1-30.9-11l-27.7-12.2-35.2-13-33.2-11.9q-4-1.2-5-2.5-1-1.3-0.7-4v-44.5q0.1-9.1 0.2-10.7c0.1-1.6 1.8-0.6 2-0.7q0.2-0.1 21.3 7.9l51.9 20 38.7 15.2q8.8 3 11.5 4 2.8 1 14.7 4.6 2.9 0.7 5.3 0.7c2.4 0 4.7-0.1 7.1-0.3q2.4-0.3 6-1.2l132.7-50.4q1.5-0.5 2.6-0.7c1.1-0.2 0.8 0.3 1.1 1.5z"/>
						<path id="&lt;Path&gt;" class="s2" d="m452.4 316.5l38.4 17.7c2 0.9 1.8 3.7-0.2 4.4l-131.2 50c-9.3 3.4-19.5 3.4-28.7 0.1l-131.2-49.7c-2.9-1.1-3-5.2-0.1-6.4l153.9-57.7z"/>
						<path id="&lt;Path&gt;" class="s2" d="m492.1 337.4v59c0.1 1-0.3 2.7-1.5 3.1l-131.2 50c-9.3 3.4-19.5 3.4-28.7 0l-131.2-49.6c-1.6-0.6-2.3-2.1-2.2-3.5v-60.5"/>
					</g>
					<path id="&lt;Path&gt;" class="s7" d="m450.4 254.2c-0.4 2.6-1.1 2.9-3.2 4.6q-2.1 1.7-22.1 8.9l-41.1 17.6-27.3 10.3q-5.3 1.7-7.8 2.6c-2.5 0.8-3.2 0.8-7.6 0.5q-4.4-0.3-28.3-9.4l-37.6-14.7-29.7-10.8q-6-1.6-8.2-3.5c-2.2-1.8-2.1-4.5-2-6.8 0-2.2-0.6-5.6-0.5-8.7 0.2-3.2 1.5-1.7 2.1-1.7q0.7 0.1 39.9 13.5l43.9 17.1 17.2 5.6q4 0.8 6.6 1.1c2.7 0.4 6.9-1.4 10.1-2.8q3.2-1.4 40.5-15.7l42-17.8q9.9-3.9 11.4-4.5c1.6-0.7 1.8 1.9 1.7 5.5q0.3 6.5 0 9.1z"/>
					<path id="&lt;Path&gt;" class="s8" d="m450 241c0.8-1.4 0.4-1.4 2.7-0.6q2.3 0.7 18.7 8.2 18.8 8.5 19.8 9.2c1.1 0.8 1.5 2.1 0.8 3q-0.8 0.9-2.7 1.8l-20.5 7.3-42.5 16.5-36 14.3q-28.1 10-32 11.3c-3.9 1.2-7.3 2.2-9.9 2.3-2.5 0-4.1 0.2-6.5-0.1-2.4-0.3-8.2-0.8-10.8-2q-2.6-1.1-8.6-3.5l-19.6-6.5-34.3-14-40.6-15.6q-24.6-8.9-27.4-9.8c-2.8-0.9-3.5-3.2-3.3-4 0.2-0.8 1.7-2.2 4-3.4q2.2-1.3 5.1-1.9l26.1-10.3q1.8-1.4 2.4 0.8c0.6 2.2 0.4 5 0.4 7.9 0 3-0.5 5.3 0.7 7 1.1 1.7 2.5 2.4 3.2 2.7q0.7 0.2 10.1 3.4l14.3 4.8 26.8 11.4 44.9 15.5q4.4 2.1 7.4 2.2c2.9 0.1 6.2-0.2 8.1-0.9q1.8-0.7 16.4-6.3l45.9-19.3q33-12.5 34.9-13.9c1.9-1.4 2.7-4.6 2.7-6.9q-0.1-2.4-0.7-10.6z"/>
					<path id="&lt;Path&gt;" class="s7" d="m492.1 287.7v25.8q0.1 7.1-0.5 8.2-0.7 1-1.3 1.5l-50.1 18.1-43.1 17.9-21.2 8q-3.9 1.4-8.7 3.1-4.7 1.7-12.1 3.7-5.2 1.3-7.2 1.4c-2 0-6.3-0.3-9.3-0.8-2.9-0.6-8.2-1.8-8.6-1.9q-0.3-0.1-30.9-11l-27.7-12.2-35.2-12.9-33.2-12q-4-1.2-5-2.5-1-1.3-0.7-4v-44.4q0.1-9.2 0.2-10.8c0.1-1.6 1.8-0.5 2-0.7q0.2-0.1 21.3 7.9l51.8 19.7 38.8 15.5q8.8 3 11.5 4 2.8 1 14.7 4.6 2.9 0.7 5.3 0.7c2.4 0 4.7-0.1 7.1-0.3q2.4-0.2 6-1.2l132.7-50.4q1.5-0.5 2.6-0.7c1.1-0.1 0.8 0.3 1.1 1.5z"/>
					<path id="&lt;Path&gt;" class="s2" d="m452.4 239.9l38.4 17.7c2 0.9 1.8 3.7-0.2 4.4l-131.2 50.1c-9.3 3.3-19.5 3.3-28.7 0l-131.2-49.7c-2.9-1-3-5.2-0.1-6.3l153.9-60z"/>
					<path id="&lt;Path&gt;" class="s8" d="m419.2 251l-58.5 24.5q-5.4 2.1-7.3 2.8c-1.8 0.7-5.4 1.9-8.2 2.1q-2.9 0.2-8.1-1.1l-46.8-16.1-50.8-19.5q-0.6-0.2-2.4-0.9-1.8-0.7 1.8-2.1l109.8-42.7q2.2-0.6 3.6-1.3 1.4-0.7 2.3 0 92.5 41 93.1 41.3c0.6 0.2 1.2 0.7 0.5 1.7z"/>
					<path id="&lt;Path&gt;" class="s2" d="m492.1 319.9v-59.4"/>
					<path id="&lt;Path&gt;" class="s2" d="m492.1 319.8c0.1 1-0.3 2.7-1.5 3.1l-131.2 50c-9.3 3.4-19.5 3.4-28.7 0.1l-131.2-49.7c-1.6-0.6-2.3-2.1-2.2-3.5v-60.5"/>
					<path id="&lt;Path&gt;" class="s2" d="m446.5 259.3l-95.5 38.6c-4.1 1.5-8.5 1.6-12.6 0.2l-99.2-36.5c-2.4-0.9-4-3.1-4-5.6l-0.2-13.8 118.3-46.1 97 42.9 0.1 14.7c0 2.5-1.6 4.7-3.9 5.6z"/>
					<path id="&lt;Path&gt;" class="s2" d="m450.3 239l-97.8 39.7c-4.9 1.9-10.4 2-15.5 0.3l-102-36.8"/>
				</g>
			</g>
			<g id="&lt;Group&gt;">
				<path id="&lt;Path&gt;" class="s7" d="m446.1 437.3c-0.3-0.2-0.8-0.7-0.8-1q0-0.4 0-16.9 0-0.5 0.1-0.7 0-0.3 0.4-0.3l140.8 52.1q0.3 0.1 0.9 0.4 0.6 0.2 0.6 0.6 0 15.8 0 16.1c0 0.2-0.5 0.2-1.2 0.1q-140.4-50.3-140.8-50.4z"/>
				<path id="&lt;Path&gt;" class="s8" d="m588.1 488v104.7l-0.4 0.4-142.2-49.3-0.2-0.5v-106.3z"/>
				<path id="&lt;Path&gt;" class="s2" d="m445.3 543.7v-125.5l142.8 52.9v122.1z"/>
				<path id="&lt;Path&gt;" class="s2" d="m588.1 488l-142.8-51"/>
				<path id="&lt;Path&gt;" class="s4" d="m453.2 534.9v-2.7q3.2 1.3 6.9-0.5c3.8-1.8 5-4.4 9-11 4-6.6 12.8-7.5 19.3-2.6 6.5 4.9 9.6 17.2 15.1 21.7 5.6 4.5 11.3-2.5 14.5-9.2 3.3-6.7 10.3-21.9 19.3-19.1 9.1 2.9 16 14.5 19.2 28.3q3.1 13.9 15.3 24.6v14.1z"/>
				<path id="&lt;Path&gt;" class="s4" d="m453.1 456.1v-7.1l29.7 11.1v7.2z"/>
			</g>
			<g id="&lt;Group&gt;">
				<path id="&lt;Path&gt;" class="s0" d="m298 495.2c-0.2-0.1-0.6-0.4-0.6-0.6q0-0.2 0-11.2 0.1-0.3 0.1-0.5 0.1-0.1 0.3-0.2l93.2 34.6q0.2 0 0.6 0.2 0.4 0.1 0.4 0.4 0 10.5 0 10.6c0 0.2-0.4 0.2-0.8 0.1q-92.9-33.3-93.2-33.4z"/>
				<path id="&lt;Path&gt;" class="s1" d="m392 528.8v69.3l-0.2 0.3-94.2-32.7-0.2-0.2v-70.5z"/>
				<path id="&lt;Path&gt;" class="s2" d="m297.4 565.7v-83.1l94.6 35v80.9z"/>
				<path id="&lt;Path&gt;" class="s2" d="m392 528.8l-94.6-33.8"/>
				<path id="&lt;Path&gt;" class="s3" d="m302.7 559.9v-1.8q2.1 0.8 4.6-0.4c2.4-1.2 3.3-2.9 5.9-7.2 2.7-4.4 8.5-5 12.8-1.7 4.3 3.2 6.3 11.3 10 14.3 3.7 3 7.5-1.6 9.6-6.1 2.2-4.4 6.8-14.5 12.8-12.6 6 1.9 10.6 9.5 12.6 18.7q2.1 9.2 10.2 16.3v9.3z"/>
				<path id="&lt;Path&gt;" class="s3" d="m302.7 507.7v-4.7l19.6 7.4v4.7z"/>
			</g>
			<g id="&lt;Group&gt;">
				<path id="&lt;Path&gt;" class="s0" d="m523.8 268c-0.2-0.1-0.6-0.4-0.6-0.6q0-0.3 0-11 0.1-0.3 0.1-0.5 0.1-0.1 0.3-0.2l91.5 33.9q0.2 0.1 0.6 0.2 0.4 0.2 0.3 0.4 0 10.3 0 10.5c0 0.1-0.3 0.1-0.7 0.1q-91.2-32.7-91.5-32.8z"/>
				<path id="&lt;Path&gt;" class="s1" d="m616 300.9v68.1l-0.2 0.2-92.4-32-0.2-0.3v-69.1z"/>
				<path id="&lt;Path&gt;" class="s2" d="m523.2 337.1v-81.5l92.8 34.4v79.3z"/>
				<path id="&lt;Path&gt;" class="s2" d="m616 301l-92.8-33.2"/>
				<path id="&lt;Path&gt;" class="s3" d="m528.4 331.5v-1.8q2.1 0.8 4.5-0.4c2.4-1.1 3.2-2.8 5.8-7.1 2.7-4.3 8.4-4.8 12.6-1.7 4.2 3.2 6.2 11.2 9.8 14.1 3.6 2.9 7.3-1.6 9.4-5.9 2.1-4.4 6.7-14.3 12.6-12.5 5.9 1.9 10.3 9.4 12.4 18.4q2 9 9.9 16v9.2z"/>
				<path id="&lt;Path&gt;" class="s3" d="m528.4 280.2v-4.6l19.2 7.2v4.7z"/>
			</g>
			<circle id="&lt;Path&gt;" class="s5" cx="158.9" cy="280.4" r="5.1"/>
			<circle id="&lt;Path&gt;" class="s3" cx="508.2" cy="328" r="2.1"/>
			<circle id="&lt;Path&gt;" class="s3" cx="492.1" cy="203.8" r="4.9"/>
			<circle id="&lt;Path&gt;" class="s3" cx="507.4" cy="658.6" r="2.1"/>
			<circle id="&lt;Path&gt;" class="s3" cx="664.8" cy="492.9" r="2.1"/>
			<circle id="&lt;Path&gt;" class="s3" cx="164" cy="40.9" r="2.1"/>
			<circle id="&lt;Path&gt;" class="s3" cx="77.7" cy="391" r="2.1"/>
			<circle id="&lt;Path&gt;" class="s3" cx="616" cy="388.9" r="2.1"/>
		</g>
	</g>
</svg>