<svg version="1.2" xmlns="http://www.w3.org/2000/svg" viewBox="0 0 800 800" width="800" height="800">
	<title>Deliver Data-ai</title>
	<style>
		.s0 { fill: #ffd740 } 
		.s1 { fill: none;stroke: #000000;stroke-linecap: round;stroke-linejoin: round;stroke-width: 5.2 } 
	</style>
	<g id="Layer 1">
		<g id="&lt;Group&gt;">
			<g id="&lt;Group&gt;">
				<path id="&lt;Path&gt;" class="s0" d="m465.9 443.7c-0.7 7.9-12.2 21.1-18.2 23.7-6 2.5-25.7 7.4-43.5 7-17.8-0.4-46.1-0.7-60.1-8q-14-7.4-11.1-35.1-0.2-68.1 2.3-80.8c2.5-12.7 16.4-19.1 29.4-24.3 13-5.1 33.7-0.6 50.9 0 17.1 0.7 38.1 8.2 45 13.3 6.8 5.1 5.2 22.9 5.2 25.4q0.9 70.8 0.1 78.8z"/>
			</g>
			<g id="&lt;Group&gt;">
				<g id="&lt;Group&gt;">
					<ellipse id="&lt;Path&gt;" class="s1" cx="399.7" cy="347.3" rx="65.2" ry="21.7"/>
					<path id="&lt;Path&gt;" class="s1" d="m437.9 364.9c16.3 3.9 27 10.3 27 17.5 0 7.3-10.7 13.7-27 17.7-10.7 2.5-23.9 4.1-38.2 4.1-14.2 0-27.4-1.6-38.1-4.1-16.3-4-27-10.4-27-17.7 0-7.2 10.7-13.7 27-17.5"/>
					<path id="&lt;Path&gt;" class="s1" d="m437.9 400.1c16.3 3.8 27 10.2 27 17.4 0 7.3-10.7 13.7-27 17.7-10.7 2.6-23.9 4.1-38.2 4.1-14.2 0-27.4-1.5-38.1-4.1-16.3-4-27-10.4-27-17.7 0-7.2 10.7-13.7 27-17.4"/>
					<path id="&lt;Path&gt;" class="s1" d="m437.9 435.2c16.3 3.8 27 10.2 27 17.5 0 12-29.2 21.7-65.2 21.7-35.9 0-65.1-9.7-65.1-21.7 0-7.3 10.7-13.7 27-17.5"/>
					<path id="&lt;Path&gt;" class="s1" d="m464.9 347.3v105.4"/>
					<path id="&lt;Path&gt;" class="s1" d="m334.6 347.3v105.4"/>
				</g>
				<g id="&lt;Group&gt;">
					<g id="&lt;Group&gt;">
						<path id="&lt;Path&gt;" class="s1" d="m297.1 339.3l-26.4-2.8c11.2-12.7 23.4-25.3 36.6-37.3 104.7-96 231-128.7 282-73 35.8 39 26.6 108.6-18.9 181.2"/>
						<path id="&lt;Path&gt;" class="s1" d="m501.6 463.6l26.9 0.2c-11.1 12.6-23.2 25-36.3 37-104.7 96-231 128.7-282.1 73-35.3-38.6-25.3-109.4 18.9-181.2"/>
					</g>
					<path id="&lt;Path&gt;" class="s1" d="m530.5 487.5l-2-23.7"/>
					<path id="&lt;Path&gt;" class="s1" d="m267.5 309.7l3.2 26.8"/>
				</g>
				<g id="&lt;Group&gt;">
					<g id="&lt;Group&gt;">
						<path id="&lt;Path&gt;" class="s1" d="m339 502.7l-2.7 26.4c-12.8-11.2-25.3-23.5-37.4-36.7-96-104.7-128.7-230.9-73-282 39-35.7 111-25.1 183.6 20.4"/>
						<path id="&lt;Path&gt;" class="s1" d="m463.3 298.1l0.2-26.9c12.7 11.1 25.1 23.3 37.1 36.4 96 104.7 128.6 230.9 72.9 282-38.5 35.4-109.4 25.4-181.2-18.9"/>
					</g>
					<path id="&lt;Path&gt;" class="s1" d="m487.2 269.2l-23.7 2"/>
					<path id="&lt;Path&gt;" class="s1" d="m309.4 532.3l26.9-3.2"/>
				</g>
			</g>
		</g>
	</g>
</svg>