<svg version="1.2" xmlns="http://www.w3.org/2000/svg" viewBox="0 0 1400 1400" width="1400" height="1400">
	<title>Document Sourcing (1)-ai</title>
	<style>
		.s0 { fill: #fff8e1 } 
		.s1 { fill: #ffd740 } 
		.s2 { fill: none;stroke: #000000;stroke-linecap: round;stroke-linejoin: round;stroke-width: 2.6 } 
		.s3 { fill: #ffffff } 
		.s4 { fill: #fc6140 } 
	</style>
	<g id="Layer 1">
		<g id="&lt;Group&gt;">
			<path id="&lt;Path&gt;" class="s0" d="m290.9 1128.4c-53.4-19.8-244.7-223.7-114.9-298.4 301-173.3 102.2-333.2 278.7-423.9 176.6-90.7 519.8-163.7 581.7 27.9 112 346.5 363.2 344.7 327.6 500.1-35.5 155.3-127.5 194.3-127.5 194.3z"/>
			<g id="&lt;Group&gt;">
				<path id="&lt;Path&gt;" class="s1" d="m955.7 1128.4h-579.2c-26.1 0-47.3-21.2-47.3-47.4v-412.3c0-26.2 21.2-47.4 47.3-47.4h148.3c3 0 5.9 1.2 8 3.4l85.3 88.3c2.1 2.2 4.9 3.5 8 3.5h329.6c26.1 0 47.3 21.1 47.3 47.3v317.2c0 26.2-21.2 47.4-47.3 47.4z"/>
			</g>
			<path id="&lt;Path&gt;" class="s2" d="m955.7 1128.4h-579.2c-26.1 0-47.3-21.2-47.3-47.4v-412.3c0-26.2 21.2-47.4 47.3-47.4h148.3c3 0 5.9 1.2 8 3.4l85.3 88.3c2.1 2.2 4.9 3.5 8 3.5h329.6c26.1 0 47.3 21.1 47.3 47.3v317.2c0 26.2-21.2 47.4-47.3 47.4z"/>
			<g id="&lt;Group&gt;">
				<g id="&lt;Group&gt;">
					<path id="&lt;Path&gt;" class="s3" d="m927.3 341.4l41.3 67.9c2.3 3.8 2.8 8.4 1.4 12.7l-98.1 297.1c-5.6 16.7-23.6 25.8-40.3 20.3l-228.1-75.4c-16.7-5.5-25.7-23.5-20.2-40.2l109.1-330.3c5.5-16.7 23.5-25.8 40.3-20.2l186.4 61.6c3.4 1.1 6.3 3.4 8.2 6.5z"/>
					<path id="&lt;Path&gt;" class="s2" d="m927.3 341.4l41.3 67.9c2.3 3.8 2.8 8.4 1.4 12.7l-98.1 297.1c-5.6 16.7-23.6 25.8-40.3 20.3l-228.1-75.4c-16.7-5.5-25.7-23.5-20.2-40.2l109.1-330.3c5.5-16.7 23.5-25.8 40.3-20.2l186.4 61.6c3.4 1.1 6.3 3.4 8.2 6.5z"/>
				</g>
				<g id="&lt;Group&gt;">
					<path id="&lt;Path&gt;" class="s1" d="m681.9 432.3l-2.2-2 42.7-124.5 1.4-2.6c0 0 185.3 61.2 186.3 61.5 0.9 0.3 2.2 3.6 2.2 3.6l-4 12.2c0 0-1.3 4.7-1.4 6.9 0 2.2 2.2 5.1 5.2 8.7 3 3.5 28.2 9.7 28.2 9.7l1.1 3.7-32.8 96.8z"/>
				</g>
				<path id="&lt;Path&gt;" class="s4" d="m698.6 437.8l84.8-90.1 7.9 120.7 38.2 12.7 53.9-55.7 12.6 77.6"/>
				<path id="&lt;Path&gt;" class="s2" d="m942 406.3l-33.4 100.9-228.6-75.5 42.6-128.9 190.6 62.9"/>
				<path id="&lt;Path&gt;" class="s2" d="m698.6 437.8l84.8-90.1 7.9 120.7 38.2 12.7 53.9-55.7 12.6 77.6"/>
				<path id="&lt;Path&gt;" class="s3" d="m856.4 398.3c-4.1 12.5-17.5 19.2-30 15.1-12.5-4.1-19.2-17.5-15.1-30 4.1-12.5 17.5-19.2 30-15.1 12.5 4.1 19.2 17.5 15.1 30z"/>
				<path id="&lt;Path&gt;" class="s2" d="m856.4 398.3c-4.1 12.5-17.5 19.2-30 15.1-12.5-4.1-19.2-17.5-15.1-30 4.1-12.5 17.5-19.2 30-15.1 12.5 4.1 19.2 17.5 15.1 30z"/>
				<path id="&lt;Path&gt;" class="s2" d="m862.1 555.7l-113.3-37.5"/>
				<path id="&lt;Path&gt;" class="s2" d="m848 598.5l-113.4-37.5"/>
				<path id="&lt;Path&gt;" class="s2" d="m833.8 641.3l-113.3-37.4"/>
			</g>
			<path id="&lt;Path&gt;" class="s2" d="m942 896.1h-178.5"/>
			<path id="&lt;Path&gt;" class="s2" d="m942 931.2h-178.5"/>
			<path id="&lt;Path&gt;" class="s2" d="m942 966.4h-178.5"/>
			<path id="&lt;Path&gt;" class="s2" d="m942 1001.6h-178.5"/>
			<g id="&lt;Group&gt;">
				<path id="&lt;Path&gt;" class="s3" d="m1375.8 964.8c5.1 0 7.2-0.9 5.7 4.6-1.5 5.6-5.3 13.9-9.1 18.6-3.9 4.7-14.5 15.4-23.3 19.5-8.7 4.1-26.4 7.5-35.1 8.7-8.8 1.3-35.7 0.4-35.7 0.4l-149.3 0.5c0 0-38.6-0.6-49.3-4.5-10.8-3.8-16.3-6.6-19.8-9.9-3.6-3.3-11.6-13.1-13.7-18.1-2-5-4.9-14.6-5.4-18.5-0.4-3.9-1.2-25.1-1.2-25.1l1.1-41.4-1.2-199.1c0 0-0.1-5.1-4.5-5.3-4.4-0.2-30.7 0.6-34.4 0.7-3.6 0.1-26.3-0.3-31.3-2.4-5-2.1-7.4-6.1-10.2-9.8-2.8-3.6-5.3-8.1-7.7-13.5-2.4-5.4-3.6-7.9-3-12.2 0.5-4.3 2.3-11.5 4.1-15.6 1.8-4 9.2-12.3 13.1-14.5 4-2.1 15.4-7.1 19.6-7.3 4.3-0.2 30.3 0.7 30.3 0.7h197.3c0 0 19.4 1.8 25.6 3.8 6.1 2 10.3 3.2 14.9 5.2 4.5 2.1 16.2 10.8 19.1 14.5 2.9 3.6 7.5 15.1 8.4 17.8 0.8 2.7 2.8 12.4 2.8 16.8 0 4.4 0.1 20.4 0.2 20.7 0 0.3-0.6 261-0.6 261 0 0-0.1 2.1 3.4 3 3.5 0.9 89.2 0.7 89.2 0.7z"/>
				<g id="&lt;Group&gt;">
					<path id="&lt;Path&gt;" class="s2" d="m1381.5 964.8c0 0-2.3 51.4-81.7 51.4-79.4 0-196.9 0-196.9 0 0 0 47-8.2 47-51.4z"/>
					<path id="&lt;Path&gt;" class="s2" d="m1102.9 1016.2c-64 0-62.7-57.9-62.7-57.9v-38.7l-1.4-252.1h-31.3c-4.8 27.2-18.4 29-30.8 27.7-13.3-1.4-35.5-20.4-25.4-48.9 10-28.5 48.3-24.8 48.3-24.8 0 0 138 0 211.2 0 73.3 0 72.4 55.8 72.4 55.8v287.5"/>
					<path id="&lt;Path&gt;" class="s2" d="m1038.8 667.5c0 0 0-45.6-52.8-45.6"/>
					<path id="&lt;Path&gt;" class="s2" d="m984.1 695.4h54.7"/>
				</g>
				<path id="&lt;Path&gt;" class="s2" d="m1239.1 745h-136.2"/>
				<path id="&lt;Path&gt;" class="s2" d="m1239.1 799.4h-136.2"/>
				<path id="&lt;Path&gt;" class="s2" d="m1239.1 853.9h-136.2"/>
				<path id="&lt;Path&gt;" class="s2" d="m1239.1 908.3h-136.2"/>
			</g>
			<path id="&lt;Path&gt;" class="s2" d="m1377.6 1128.4h-1326.3"/>
			<g id="&lt;Group&gt;">
				<path id="&lt;Path&gt;" class="s2" d="m1034.8 570.7h25"/>
				<path id="&lt;Path&gt;" class="s2" d="m1047.3 583.2v-25"/>
			</g>
			<path id="&lt;Path&gt;" class="s4" d="m522.9 524.7c0 6.7-5.5 12.2-12.3 12.2-6.8 0-12.3-5.5-12.3-12.2 0-6.8 5.5-12.3 12.3-12.3 6.8 0 12.3 5.5 12.3 12.3z"/>
			<path id="&lt;Path&gt;" class="s4" d="m257 1036.9c0 6.8-5.5 12.3-12.3 12.3-6.8 0-12.3-5.5-12.3-12.3 0-6.8 5.5-12.3 12.3-12.3 6.8 0 12.3 5.5 12.3 12.3z"/>
			<path id="&lt;Path&gt;" class="s1" d="m980.5 572.2c0 2.7-2.1 4.9-4.8 4.9-2.7 0-4.9-2.2-4.9-4.9 0-2.6 2.2-4.8 4.9-4.8 2.7 0 4.8 2.2 4.8 4.8z"/>
			<path id="&lt;Path&gt;" class="s1" d="m1377.6 871c0 5.2-4.1 9.3-9.3 9.3-5.1 0-9.2-4.1-9.2-9.3 0-5.1 4.1-9.3 9.2-9.3 5.2 0 9.3 4.2 9.3 9.3z"/>
			<path id="&lt;Path&gt;" class="s2" d="m969.6 415.5l-54.9-18.2c-6-2-9.2-8.4-7.2-14.3l15-45.3"/>
			<g id="&lt;Group&gt;">
				<g id="&lt;Group&gt;">
					<g id="&lt;Group&gt;">
						<path id="&lt;Path&gt;" class="s3" d="m224.6 377.1l76.7 21c4.3 1.2 7.9 4.2 9.7 8.2l132.8 283.4c7.5 16 0.6 34.9-15.3 42.4l-217.5 101.9c-16 7.5-34.9 0.6-42.4-15.4l-147.5-314.9c-7.5-16-0.6-34.9 15.3-42.4l177.8-83.3c3.2-1.5 6.9-1.8 10.4-0.9z"/>
						<path id="&lt;Path&gt;" class="s2" d="m224.6 377.1l76.7 21c4.3 1.2 7.9 4.2 9.7 8.2l132.8 283.4c7.5 16 0.6 34.9-15.3 42.4l-217.5 101.9c-16 7.5-34.9 0.6-42.4-15.4l-147.5-314.9c-7.5-16-0.6-34.9 15.3-42.4l177.8-83.3c3.2-1.5 6.9-1.8 10.4-0.9z"/>
					</g>
					<g id="&lt;Group&gt;">
						<path id="&lt;Path&gt;" class="s1" d="m108.7 611.8h-2.9l-54.5-119.8-0.8-2.9c0 0 176.7-82.8 177.6-83.2 1-0.4 4.2 1 4.2 1l5.4 11.7c0 0 2.3 4.3 3.8 5.9 1.5 1.7 5 2.3 9.7 2.8 4.6 0.5 27.1-12.3 27.1-12.3l3.4 1.9 42.7 92.9z"/>
					</g>
					<path id="&lt;Path&gt;" class="s4" d="m124.7 604.3l-0.3-123.7 88.6 82.3 36.5-17.1 0.9-77.5 62.5 47.8"/>
					<path id="&lt;Path&gt;" class="s2" d="m279.9 414.2l45.1 96.3-218.1 102.1-57.6-123 181.8-85.1"/>
					<path id="&lt;Path&gt;" class="s2" d="m124.7 604.3l-0.3-123.7 88.6 82.3 36.5-17.1 0.9-77.5 62.5 47.8"/>
					<path id="&lt;Path&gt;" class="s3" d="m212.2 467.2c5.6 11.9 0.5 26-11.4 31.6-11.9 5.5-26 0.4-31.6-11.5-5.6-11.9-0.5-26 11.4-31.6 11.9-5.5 26-0.4 31.6 11.5z"/>
					<path id="&lt;Path&gt;" class="s2" d="m212.2 467.2c5.6 11.9 0.5 26-11.4 31.6-11.9 5.5-26 0.4-31.6-11.5-5.6-11.9-0.5-26 11.4-31.6 11.9-5.5 26-0.4 31.6 11.5z"/>
					<path id="&lt;Path&gt;" class="s2" d="m324.5 577.6l-108.1 50.6"/>
					<path id="&lt;Path&gt;" class="s2" d="m343.6 618.4l-108.1 50.7"/>
					<path id="&lt;Path&gt;" class="s2" d="m362.7 659.3l-108.1 50.6"/>
				</g>
				<path id="&lt;Path&gt;" class="s2" d="m306.3 401.9l-52.4 24.5c-5.7 2.7-12.4 0.2-15.1-5.4l-20.2-43.2"/>
			</g>
		</g>
	</g>
</svg>