<svg version="1.2" xmlns="http://www.w3.org/2000/svg" viewBox="0 0 1600 1200" width="1600" height="1200">
	<title>Drone Imagery-ai</title>
	<style>
		.s0 { fill: #fc6140 } 
		.s1 { fill: #00a4a7 } 
		.s2 { fill: #bcebf1 } 
		.s3 { fill: none;stroke: #000000;stroke-linecap: round;stroke-linejoin: round;stroke-width: 5.2 } 
		.s4 { fill: #ffffff } 
		.s5 { fill: #d43b20 }

		.w1{
  transform-box: fill-box;
  transform-origin: center;
  animation: rotate-in-ver 3s linear infinite;}
  @keyframes rotate-in-ver {
  0% {
    -webkit-transform: rotateY(-360deg);
            transform: rotateY(-360deg);
    opacity: 0;
  }
  100% {
    -webkit-transform: rotateY(0deg);
            transform: rotateY(0deg);
    opacity: 1;
  }
}
.w2{
  transform-box: fill-box;
  transform-origin: center;
  animation: fade-in-fwd 3s linear infinite;
  }
  @keyframes fade-in-fwd {
  0% {
    -webkit-transform: translateZ(-80px);
            transform: translateZ(-80px);
    opacity: 0;
  }
  100% {
    -webkit-transform: translateZ(0);
            transform: translateZ(0);
    opacity: 1;
  }
}

	</style>
	<g id="Layer 1">
		<path id="&lt;Path&gt;" class="s0" d="m1600 1200h-1600v-1200h1600z"/>
		<g id="&lt;Group&gt;">
			<g id="&lt;Group&gt;">
				<path id="&lt;Path&gt;" class="s1" d="m1072.9 546.3q-82.7 31-101.5 37c-18.7 6-72.2 39-84.6 45q-12.5 6-28.1 10.7h-73.1q-27.9 2.4-47.7-0.8c-19.7-3.2-43.2-20.4-61.1-30.8q-18-10.4-81.5-38.1-77.5-25.9-87.9-29.1c-10.4-3.2-51.1-13.8-71.9-17.3-20.8-3.4-46.4-6.4-56.5-9.3-10.1-2.8-14.6-5.5-21.3-14.1-6.6-8.5-8.6-15.2-9.4-21-0.8-5.8 1.8-9.3 7.8-11.4q6-2.1 79.5-28.4l77.1-24.1q55-15.2 71.7-17.9c16.6-2.8 66.9-5.9 79-6.9 12.2-0.9 73.7-4.1 95.8-4.9q22.1-0.9 108.8 1 66.9 3.8 82.1 4.9c15.3 1.2 64.7 6.9 85.9 10.3 21.2 3.4 77.3 20.6 82.4 22.4 5.1 1.8 120.8 40.8 125 42.8 4.2 2 9.5 3.9 9.5 8.1 0 4.1-5.4 18.5-7.9 22.6-2.4 4.1-10.1 13.1-21.5 17.8-11.4 4.7-19.7 2.3-35.2 3.5-15.5 1.2-32.8 5.5-52.2 9.9z"/>
			</g>
			<path id="&lt;Path&gt;" class="s2" d="m1031.9 560.1q-15.6 39-1.3 71.5c14.4 32.5 27.1 125.9 27.1 187.2 0 61.2-25.4 53.6-33.8 34.6-8.5-19-1.7-84.9-16.5-147.4q-14.8-62.6-54.1-114.4"/>
			<path id="&lt;Path&gt;" class="s2" d="m643.5 590.1q-39.3 53.3-54 115.9c-14.8 62.5-8.1 128.4-16.5 147.4-8.5 19-33.8 26.6-33.8-34.6 0-61.3 12.7-154.7 27-187.2q14.4-32.5-3-73.1"/>
			<path id="&lt;Path&gt;" class="s3" d="m1031.9 560.1q-15.6 39-1.3 71.5c14.4 32.5 27.1 125.9 27.1 187.2 0 61.2-25.4 53.6-33.8 34.6-8.5-19-1.7-84.9-16.5-147.4q-14.8-62.6-54.1-114.4"/>
			<path id="&lt;Path&gt;" class="s3" d="m643.5 590.1q-39.3 53.3-54 115.9c-14.8 62.5-8.1 128.4-16.5 147.4-8.5 19-33.8 26.6-33.8-34.6 0-61.3 12.7-154.7 27-187.2q14.4-32.5-3-73.1"/>
			<path id="&lt;Path&gt;" class="s2" d="m1174.1 443c4.2 1.4 5.7 4.7 2.8 5.3-2.9 0.5-6.7 0.6-19.4 0.9-12.7 0.3-39.1 5.6-61.5 10.8-22.3 5.2-53.3 19.9-65.4 26.9q-12.1 7-67.5 48.4l-36.9 29.7q-29.8 22.7-34.7 24.4c-4.8 1.7-4.5-5-3.1-20.8 1.3-15.7 13.3-57.9 15.3-67.5 1.9-9.6 9-24.6 14.6-35.9 5.5-11.3 8.5-12.1 15.8-22.6 7.4-10.6 45.4-37.7 52.2-43.4 6.8-5.7 13.2-2.3 19.4-2.3 6.1 0.1 46.1 6.4 60.1 11.1 13.9 4.7 75.9 23.7 86.9 27.8q17.2 5.8 21.4 7.2z"/>
			<path id="&lt;Path&gt;" class="s2" d="m448.8 435.8c11-4.1 73-23.1 86.9-27.8 14-4.7 54-11 60.1-11.1 6.2 0 12.6-3.4 19.4 2.3 6.8 5.7 44.8 32.8 52.2 43.4 7.3 10.5 10.3 11.3 15.8 22.6 5.6 11.3 12.7 26.3 14.6 35.9 2 9.6 14 51.8 15.3 67.5 1.4 15.8 1.7 22.5-3.1 20.8q-4.9-1.7-34.7-24.4l-36.9-29.7q-55.4-41.4-67.5-48.4c-12.1-7-43.1-21.7-65.4-26.9-22.4-5.2-48.8-10.5-61.5-10.8-12.7-0.3-16.5-0.4-19.4-0.9-2.9-0.6-1.4-3.9 2.8-5.3q4.2-1.4 21.4-7.2z"/>
			<path id="&lt;Path&gt;" class="s3" d="m800 611.9q59.9-2.6 92.9-23.3c32.9-20.7 87.4-72.2 148.3-106.9q60.8-34.6 146.2-34.2"/>
			<g id="&lt;Group&gt;">
				<path id="&lt;Path&gt;" class="s2" d="m1132.9 428.6v-33.1c0-6.4 5.1-11.6 11.5-11.6h65.1c6.3 0 11.5 5.2 11.5 11.6v62.9"/>
				<path id="&lt;Path&gt;" class="s3" d="m1132.9 428.6v-33.1c0-6.4 5.1-11.6 11.5-11.6h65.1c6.3 0 11.5 5.2 11.5 11.6v62.9"/>
				<g id="&lt;Group&gt;">
					<path id="&lt;Path&gt;" class="s4 w1" d="m1150.6 361.2c-80.5-0.5-108.2 27.7-149 22.7q-49.4-6-113.3-30.4 97.8-22.8 155.5-20.4 57.8 2.4 109.1 18.6"/>
					<path id="&lt;Path&gt;" class="s4 w1" d="m1200.2 351.7q51.3-16.2 109.1-18.6 57.7-2.4 155.5 20.4-63.9 24.4-113.3 30.4c-40.8 5-68.5-23.2-149-22.7"/>
					<path id="&lt;Path&gt;" class="s5 w1" d="m1176.9 336.8c14.2 0 25.6 11.4 25.6 25.5v21.6h-51.1v-21.6c0-14.1 11.4-25.5 25.5-25.5z"/>
					<path id="&lt;Path&gt;" class="s3 w1" d="m1176.9 336.8c14.2 0 25.6 11.4 25.6 25.5v21.6h-51.1v-21.6c0-14.1 11.4-25.5 25.5-25.5z"/>
					<path id="&lt;Path&gt;" class="s3 w1" d="m1200.2 351.7q51.3-16.2 109.1-18.6 57.7-2.4 155.5 20.4-63.9 24.4-113.3 30.4c-40.8 5-68.5-23.2-149-22.7"/>
					<path id="&lt;Path&gt;" class="s3 w1" d="m1150.6 361.2c-80.5-0.5-108.2 27.7-149 22.7q-49.4-6-113.3-30.4 97.8-22.8 155.5-20.4 57.8 2.4 109.1 18.6"/>
				</g>
				<g id="&lt;Group&gt;">
					<path id="&lt;Path&gt;" class="s2" d="m379 458.4v-62.9c0-6.4 5.2-11.6 11.5-11.6h65.1c6.4 0 11.5 5.2 11.5 11.6v33.1"/>
					<path id="&lt;Path&gt;" class="s3" d="m379 458.4v-62.9c0-6.4 5.2-11.6 11.5-11.6h65.1c6.4 0 11.5 5.2 11.5 11.6v33.1"/>
					<g id="&lt;Group&gt;">
						<path id="&lt;Path&gt;" class="s4 w1" d="m447.1 351.7q51.3-16.2 109.1-18.6 57.7-2.4 155.5 20.4-63.9 24.4-113.3 30.4c-40.8 5-68.5-23.2-149-22.7"/>
						<path id="&lt;Path&gt;" class="s4 w1" d="m397.5 361.2c-80.5-0.5-108.2 27.7-149 22.7q-49.4-6-113.3-30.4 97.8-22.8 155.5-20.4 57.8 2.4 109.1 18.6"/>
						<path id="&lt;Path&gt;" class="s5 w1" d="m448.6 362.3v21.6h-51.1v-21.6c0-14.1 11.4-25.5 25.6-25.5 14.1 0 25.5 11.4 25.5 25.5z"/>
						<path id="&lt;Path&gt;" class="s3 w1" d="m448.6 362.3v21.6h-51.1v-21.6c0-14.1 11.4-25.5 25.6-25.5 14.1 0 25.5 11.4 25.5 25.5z"/>
						<path id="&lt;Path&gt;" class="s3 w1" d="m397.5 361.2c-80.5-0.5-108.2 27.7-149 22.7q-49.4-6-113.3-30.4 97.8-22.8 155.5-20.4 57.8 2.4 109.1 18.6"/>
						<path id="&lt;Path&gt;" class="s3 w1" d="m447.1 351.7q51.3-16.2 109.1-18.6 57.7-2.4 155.5 20.4-63.9 24.4-113.3 30.4c-40.8 5-68.5-23.2-149-22.7"/>
					</g>
				</g>
			</g>
			<path id="&lt;Path&gt;" class="s3" d="m993.7 395q-57.7 29.3-80.1 79.5-22.4 50.3-27.3 117.8-31.7-16.8-86.3-16.8"/>
			<path id="&lt;Path&gt;" class="s3" d="m800 639q-25.2 0-54 0c-28.8 0-58-32.4-129.7-60.7-71.7-28.4-167.1-59.2-219.2-61.1q-52-2-50-47 126.9-44.9 191.6-63.4c64.6-18.5 237.6-22.9 261.3-22.9h1.6c23.6 0 195.1 4.4 259.7 22.9q64.7 18.5 191.6 63.4 2 45-50 47c-52.1 1.9-147.5 32.7-219.2 61.1-71.7 28.3-100.9 60.7-129.7 60.7q-28.8 0-54 0z"/>
			<path id="&lt;Path&gt;" class="s3" d="m412.6 447.5q85.4-0.4 146.2 34.2c60.9 34.7 115.4 86.2 148.3 106.9q33 20.7 92.9 23.3"/>
			<path id="&lt;Path&gt;" class="s3" d="m800 575.5q-54.6 0-86.3 16.8-4.9-67.5-27.3-117.8-22.4-50.2-80.1-79.5"/>
			<path id="&lt;Path&gt;" class="s2" d="m753.5 643.7v-4.7h95v4.7c0 10.9-8.9 19.7-19.8 19.7h-55.5c-10.9 0-19.7-8.8-19.7-19.7z"/>
			<path id="&lt;Path&gt;" class="s3" d="m753.5 643.7v-4.7h95v4.7c0 10.9-8.9 19.7-19.8 19.7h-55.5c-10.9 0-19.7-8.8-19.7-19.7z"/>
			<path id="&lt;Path&gt;" class="s4" d="m824.8 709.2h-47.6v-45.8h47.6z"/>
			<path id="&lt;Path&gt;" class="s3" d="m824.8 709.2h-47.6v-45.8h47.6z"/>
			<g id="&lt;Group&gt;">
				<rect id="&lt;Path&gt;" class="s1 w2" x="726.5" y="709.2" width="149" height="106.7" rx="15.7"></rect>
			</g>
			<rect id="&lt;Path&gt;" class="s3" x="726.5" y="709.2" width="149" height="106.7" rx="15.7"></rect>
			<path id="&lt;Path&gt;" class="s5" d="m875.5 743.3h11.2c10.7 0 19.3 8.6 19.3 19.3 0 10.6-8.6 19.2-19.3 19.2h-11.2"/>
			<path id="&lt;Path&gt;" class="s5 w2" d="m726.5 781.8h-11.3c-10.6 0-19.2-8.6-19.2-19.2 0-10.7 8.6-19.3 19.2-19.3h11.3"/>
			<path id="&lt;Path&gt;" class="s3" d="m875.5 743.3h11.2c10.7 0 19.3 8.6 19.3 19.3 0 10.6-8.6 19.2-19.3 19.2h-11.2"/>
			<path id="&lt;Path&gt;" class="s3" d="m726.5 781.8h-11.3c-10.6 0-19.2-8.6-19.2-19.2 0-10.7 8.6-19.3 19.2-19.3h11.3"/>
			<circle id="&lt;Path&gt;" class="s2 w2" cx="801" cy="762.6" r="24.1"/>
			<circle id="&lt;Path&gt;" class="s3 w2" cx="801" cy="762.6" r="24.1"/>
		</g>
	</g>
</svg>