<svg version="1.2" xmlns="http://www.w3.org/2000/svg" viewBox="0 0 1600 1200" width="1600" height="1200">
	<title>Financial Services-ai</title>
	<defs>
		<clipPath clipPathUnits="userSpaceOnUse" id="cp1">
			<path d="m1600 1200h-1717.09v-1297.83h1717.09z"/>
		</clipPath>
	</defs>
	<style>
		.s0 { fill: #ffd740 } 
		.s1 { fill: #00a4a7 } 
		.s2 { fill: #fc6140 } 
		.s3 { fill: #d43b20 } 
		.s4 { fill: none;stroke: #000000;stroke-linecap: round;stroke-linejoin: round;stroke-width: 4.9 } 
.w1{
  transform-box: fill-box;
  transform-origin: top;
  animation: shake-vertical 5s linear infinite ;;
}
	@keyframes shake-vertical {
  0%,
  100% {
    -webkit-transform: translateY(0);
            transform: translateY(0);
  }
  10%,
  30%,
  50%,
  70% {
    -webkit-transform: translateY(-8px);
            transform: translateY(-8px);
  }
  20%,
  40%,
  60% {
    -webkit-transform: translateY(8px);
            transform: translateY(8px);
  }
  80% {
    -webkit-transform: translateY(6.4px);
            transform: translateY(6.4px);
  }
  90% {
    -webkit-transform: translateY(-6.4px);
            transform: translateY(-6.4px);
  }
}
	</style>
	<g id="Layer 1">
		<g id="&lt;Group&gt;">
			<path id="&lt;Path&gt;" class="s0" d="m1600 1200h-1600v-1200h1600z"/>
		</g>
		<g id="&lt;Clip Group&gt;" clip-path="url(#cp1)">
			<g id="&lt;Group&gt;">
				<g id="&lt;Group&gt;">
					<path id="&lt;Path&gt;" class="s1 w1" d="m1273 369l-30.9 33q-27.4 26.4-31.2 30.3c-3.9 3.9-4 3.5-6.7-3.1-2.7-6.5-11.3-16.3-19.1-27.7-7.8-11.5-19.9-18.4-30.8-27.2-10.9-8.8-35.5-20.6-40.6-22.9-5.1-2.3-34.5-16.9-44.9-21.4-10.5-4.4-15.2-4.8-26.1-7.7-11-3-60.1-11.5-63-11.8-3-0.4-5.6-0.6-6.5-2.3q-0.9-1.6 5.5-26.5l10.1-51.5q7-39.3 8.5-43.3 1.6-4 6.3-4.1 5.7 0.6 15.8 2.9c10.2 2.3 50.6 11.9 60.5 15.5 9.9 3.6 19.1 5.7 32 10.4 12.9 4.8 36.8 17.3 44.5 21.5 7.7 4.2 39.3 24.6 44.7 28.6 5.5 4 30.7 23.5 38.6 31.9 8 8.3 44.4 44.8 47 48.7 2.7 3.9 5 5 4.7 7.8-0.3 2.9-2.8 3-8.7 9z"/>
				</g>
				<path id="&lt;Path&gt;" class="s2" d="m1535.7 1251.1q-121.9 37.2-348.1 5.2l-153-76.9q-91.7-49.9-117-65.3c-25.2-15.4-84.2-53.7-107.6-71.3-23.3-17.5-43.9-36.8-58.1-52.2q-14.2-15.4-38.1-62.2-15.8-33.5-17.1-36.1c-1.4-2.6-2.5-3.3-6.3-5.2q-3.8-1.9-10.7-6l-50.7-30.8q-30.4-20.1-33.8-22.3c-3.4-2.2-32.8-22.6-35.6-25-2.9-2.5-18.8-15.1-23.6-17.5-4.9-2.5-8.8-3.2-18.6-4.1-9.9-1-20.8-2.9-30.5-5.1-9.8-2.1-22.4-5.2-50.1-13.3q-27.7-8.1-71-26.7l-35.6-18.7-45.9-29.9-33.3-27.9q-32.5-29.5-36.1-33.5c-3.6-4-20.9-30.3-25.6-36.1-4.7-5.7-10.3-24.5-12.6-31.9-2.2-7.5-1-20.9 2.9-26.8 3.9-5.9 14.8-5.7 24.9-5 10.1 0.8 34.4 14.5 35.8 15.8q1.5 1.3 55.4 33.6l49.8 26.7 43.3 23.4q21.5 13.6 28.1 16.1c6.6 2.4 7.7 1.2 6.4-4.8-1.3-6-8.8-34.3-10.5-43-1.7-8.7-4.2-32-5.2-41.8-1-9.8-4.3-37.2-3-55.1 1.2-17.9 5.2-41.7 6-48.7 0.9-7 12.3-17.7 15.6-19.9 3.4-2.1 14.9-3.8 26.5 2.4 11.6 6.1 22 25.5 26.2 33.2 4.2 7.6 14 33.9 15.2 42.2 1.3 8.3 6 34.5 7 43.4 1.1 8.9 2.7 30.9 4.9 42.6 2.1 11.7 14.8 41.8 17.6 48.8q2.8 6.9 12.5 7.8l43.2 3.3q53.7 5.9 57.8 5.6c4-0.2 7.6-2.7 7.7-7.7 0-5.1-0.4-22.4 0-30.6 0.3-8.3 4.8-46.7 4.8-46.9 0.1-0.3 4.3-21.3 6.2-30.5 1.9-9.1 10.6-23.1 13.2-30 2.6-6.8 11.9-12 16.7-14.6 4.8-2.5 12.5-2.2 18.1 0.7 5.7 2.9 14.1 17.8 14.5 20.2 0.5 2.5 8.4 27.5 9.2 33.8 0.8 6.2 0.3 31.4-0.9 40.1-1.2 8.8-2.9 52.7-2.6 57.9 0.3 5.2 2.5 25.7 4.6 30.3 2.1 4.5 6.3 9.7 12 7.8 5.7-1.8 12.1-5.6 16.6-14.7 4.5-9 10-23.3 13.7-37.7 3.7-14.3 3.1-46.8 5.3-62.3 2.2-15.6-2.8-46-3.2-56.7-0.4-10.6 0.2-20.6 0.8-27.2 0.6-6.6 3.4-20.8 12.4-26.3 8.9-5.5 24.5-5 31.2-3.1 6.8 1.9 15.6 9.4 22.8 16.5 7.2 7 13.2 19.4 17.6 28.6 4.4 9.1 9.6 29.4 11.8 39.7 2.3 10.3 10.7 47.7 13 56.1 2.3 8.4 14.1 38.8 18.2 46.6 4 7.9 24.8 34.9 32.7 41.4 7.8 6.5 19.1 14.7 25.3 21.9 6.2 7.2 36.9 34.5 42.4 40.5 5.6 6 17 20.5 23.8 29.9 6.8 9.4 25.3 45.7 27.3 50.7 2 5 11.2 12.9 18.5 16.8q7.2 4 78.3 31.6l126.5 41.1 106.4 28.9 112.8 28.8 130.9 28.9q45.5 10.1 82 16.8-50.1 188.6-172 225.7z"/>
				<path id="&lt;Path&gt;" class="s3" d="m714.9 560.5c-4.4 7.8-15 15.1-18.9 17.1-3.9 2-16.4 2.5-24.7-0.2-8.3-2.7-15.1-15.3-16.9-19.4-1.8-4 2.5-14.5 4.3-20.8 1.9-6.3 12-28.5 15.8-33.5 3.7-5.1 8.7-6.2 13.7-8.9 5-2.7 18.2 5.8 24.4 11.1 6.2 5.3 7.7 14.8 9.1 19 1.4 4.1 2.5 15.1 1.2 21q-3.7 6.8-8 14.6z"/>
				<path id="&lt;Path&gt;" class="s3" d="m240.3 644.4c0 4.3-1.9 2.2-6.9-0.4-5.1-2.6-27.5-31.1-34.2-40-6.7-8.9-14.6-24.1-17.9-31.1-3.3-7-5.6-21-5.7-26.9-0.1-5.9 1.2-7.7 4.4-6.8 3.2 0.8 3.8 2.1 10.3 5.4 6.5 3.4 25.9 24.9 30.6 31.3 4.7 6.3 10.9 16.4 13.2 22.3 2.3 5.9 5.4 28.1 5.9 34.2q0.3 7.7 0.3 12z"/>
				<path id="&lt;Path&gt;" class="s3" d="m470.8 497.2c-3.8 4.3-9.4 7.8-15.9 9.9-6.5 2-11.1 1.3-20.2 0.1-9.2-1.3-19.8-7.4-24.9-13.5-5.2-6.1-5.2-10.9-4-17.2 1.1-6.3 2.5-19.8 4.6-26.1 2.1-6.2 6-13 8.3-16.5 2.3-3.5 14.9-6.9 20.6-6.8 5.8 0.1 13.4 3.5 20.5 9.5 7.1 6.1 17.3 23.2 19.8 28.8 2.5 5.6 4.4 11 1.8 17.9q-6.9 9.7-10.6 13.9z"/>
				<path id="&lt;Path&gt;" class="s1 w1" d="m768.9 583.6c1.5 3.2 4.6 6-4.5 8.4-9.1 2.4-29.8 7.4-32.6 8-2.8 0.5-6.5 0.4-6.5-3.9 0-4.2 3.5-37.3 2.2-43.3-1.2-6-6.7-29-9.7-35.6-2.9-6.6-6.8-9.6-11.1-13.7-4.2-4.1-6.8-7.1-6.9-9.8q-0.2-2.7 3-10.9l25.3 15.1 31.6 38.3z"/>
				<path id="&lt;Path&gt;" class="s4" d="m1696.5 1020.4c-154.2-19.5-580.4-135.6-640.6-179.9"/>
				<path id="&lt;Path&gt;" class="s4" d="m1189.9 1257.4c-162-78.2-354.1-181.6-426.1-253.7-72.1-72-121.7-257.9-119.8-363.2 3.1-168.2 68-177.4 81.6-95.5 10.3 62.1-23.4 94.8 24.6 195.2q48 100.3 210 92.3"/>
				<path id="&lt;Path&gt;" class="s4" d="m730.5 688.6q25.9 11.6 40-50.6c14.2-62.2-8-141.7 9.3-167.5 17.2-25.9 71.4-16 89.3 72 17.8 88.1 28.3 118.9 84.3 164.4 56 45.6 142.1 133.6 102.5 263"/>
				<path id="&lt;Path&gt;" class="s4" d="m696.7 890.7q-172.4-100.1-231.4-165.2c-59-65.1-77.3-262.6-46.8-290.4 30.5-27.8 67.2 20.4 78.7 86.2 11.5 65.8 0 139.1 101.8 181.1"/>
				<path id="&lt;Path&gt;" class="s4" d="m531.5 782.7c-128.5-9.4-262.3-88.4-324-167.8-61.8-79.4-28.5-113.3 36.6-70.6q65.2 42.8 181.4 102.2"/>
				<path id="&lt;Path&gt;" class="s4" d="m526.9 646.8l117.1 12.8"/>
				<path id="&lt;Path&gt;" class="s4" d="m724.8 540.8q-9.1 29.3-28.1 37.5c-19.1 8.3-42.4-6.6-43.1-25.5"/>
				<path id="&lt;Path&gt;" class="s4" d="m484.9 477.4q-12.5 24.4-29 30.3c-16.5 5.9-48.1-6.7-51.3-23.9"/>
				<path id="&lt;Path&gt;" class="s4" d="m176.4 537.4q69.1 29.6 63.6 113.1"/>
				<path id="&lt;Path&gt;" class="s4 w1" d="m973.2 309.8l24.8-126.4q55.4 4.1 123.3 32 97.1 39.9 171.5 133.3l-85.7 87.5q-55.1-111.9-233.9-126.4z"/>
				<path id="&lt;Path&gt;" class="s1 w1" d="m835.3 573.7c-0.9 0-59.8 15.3-65.3 16-5.6 0.8-21.3-37.6-27.2-50.3q-5.9-12.7-43-51.3 1.6-24.8 2.1-36.2c0.5-11.4-1-40.2-0.9-52.8q0.1-12.6-8.8-69.7l-11.8-73.2q-1.3-7.3-0.6-7.3 0.6 0 54.4-2.5 30.4-1.4 34.5-0.8c4.1 0.7 8.2 7.1 9.4 10.3q1.3 3.1 23.1 40.3 16.9 38 20.9 48.5c4 10.4 16.4 59.4 17.3 63.7 0.9 4.4 8.5 48.7 8.7 51.1 0.2 2.3 4.7 49.2 5.6 52.8 0.9 3.5 0.6 50.9 0 54.5-0.6 3.5-2.8 2.2-9.8 4.1q-7.8 2.8-8.6 2.8z"/>
				<g id="&lt;Group&gt;">
					<path id="&lt;Path&gt;" class="s1 w1" d="m417.1 430.9l-114.3 109.9q-83.1-40.3-102.2-99.5c-19-59.2-60.6-122.3-119.5-147.2l91.1-110.8q76.9 33.6 102.9 83.4c26 49.9 18 77.3 63.4 114q45.3 36.7 78.6 50.2z"/>
				</g>
				<path id="&lt;Path&gt;" class="s4 w1" d="m417.1 430.9l-114.3 109.9q-83.1-40.3-102.2-99.5c-19-59.2-60.6-122.3-119.5-147.2l91.1-110.8q76.9 33.6 102.9 83.4c26 49.9 18 77.3 63.4 114q45.3 36.7 78.6 50.2z"/>
				<path id="&lt;Path&gt;" class="s4 w1" d="m699.2 496c1.8-21.8 3-43.2 3-60.4q0-61.9-23.1-186.7l90.8-4.1q21.1 21.6 53.2 105.5 32.1 83.9 31.2 217.8l-128.6 34.1"/>
			</g>
		</g>
	</g>
</svg>