<svg version="1.2" xmlns="http://www.w3.org/2000/svg" viewBox="0 0 1746 550" width="1746" height="550">
	<title>Home Landing  Car (1)-ai</title>
	<style>
		.s0 { fill: #fff6de } 
		.s1 { fill: #ffe8ad } 
		.s2 { fill: #ffcf44 } 
		.s3 { fill: none;stroke: #000000;stroke-linecap: round;stroke-linejoin: round;stroke-width: 1.3 } 
		.s4 { fill: #fff8e1 } 
		.s5 { fill: #00bbd6 } 
		.s6 { fill: #00a4a7 } 
		.s7 { fill: #d84315 } 
		.s8 { fill: #ff7043 } 
		.s9 { fill: #362d32 } 
		.s10 { fill: #b2a8ac } 
		.s11 { fill: #2c211f } 
		.s12 { fill: #000000 } 
		.s13 { fill: #e0bd9b } 
		.s14 { fill: #a39497 } 
		.s15 { fill: #3c3438 } 
		.s16 { fill: #674f58 } 
		.s17 { fill: #654c55 } 
		.s18 { fill: #8d7e83 } 
		.s19 { fill: #98878b } 
		.s20 { fill: #6b545d } 
		.s21 { opacity: .4;fill: #ffcf44 } 
		.s22 { fill: none;stroke: #fff200;stroke-linecap: round;stroke-linejoin: round;stroke-width: 1.3 } 
		.s23 { fill: #fff200 } 
		.s24 { fill: none;stroke: #231f20;stroke-width: 1.3 } 
	</style>
	<g id="Layer 1">
		<g id="&lt;Group&gt;">
			<g id="&lt;Group&gt;">
				<circle id="&lt;Path&gt;" class="s0" cx="765.3" cy="142.6" r="125"/>
				<circle id="&lt;Path&gt;" class="s1" cx="765.3" cy="142.6" r="99.4"/>
				<circle id="&lt;Path&gt;" class="s2" cx="765.3" cy="142.6" r="61.2"/>
				<circle id="&lt;Path&gt;" class="s3" cx="765.3" cy="142.6" r="41.9"/>
			</g>
			<path id="&lt;Path&gt;" class="s4" d="m1377.6 202h-14.1c-12.8 0-72.8 0-128.4 0-42.6 0-82.7 0-96.9 0-55.6 0-115.7 0-128.4 0h-14.1q6-23.2 43-27.9c13-1.6 31.6 10.2 50.2 0.3 7.8-4.2 9.3-27.8 48.1-31.5 26.8-2.6 41.8 10.2 49.6 21.1 7.9-10.9 22.8-23.7 49.7-21.1 38.8 3.7 40.3 27.3 48.1 31.5 18.6 9.9 37.2-1.9 50.2-0.3q36.9 4.7 43 27.9z"/>
			<path id="&lt;Path&gt;" class="s4" d="m592 409.8h-14.1c-12.7 0-72.8 0-128.4 0-42.6 0-82.7 0-96.9 0-55.6 0-115.7 0-128.4 0h-14.1q6-23.2 43-27.9c13-1.6 31.6 10.2 50.2 0.3 7.8-4.2 9.3-27.8 48.1-31.5 26.8-2.6 41.8 10.2 49.6 21.1 7.9-10.9 22.9-23.7 49.7-21.1 38.8 3.7 40.3 27.3 48.1 31.5 18.6 9.9 37.2-1.9 50.2-0.3q36.9 4.7 43 27.9z"/>
			<path id="&lt;Path&gt;" class="s4" d="m270.3 468.1q42.8-141.1 231.5-148.8c188.6-7.7 148.2-162 292.4-196.3 144.2-34.4 149.9 104.8 233 72.2 83-32.7 210.2 12.6 225.8 72.6 15.7 60 42.9 80.2 141.7 88.4q98.9 8.3 137.4 112.8z"/>
			<path id="&lt;Path&gt;" class="s3" d="m642.6 259.1c44.4-49.7 63.7-115.2 151.6-136.1 41.3-9.9 71.3-5.5 95 5.1"/>
			<path id="&lt;Path&gt;" class="s3" d="m1253 267.8c-15.6-60-142.8-105.3-225.8-72.6"/>
			<path id="&lt;Path&gt;" class="s3" d=""/>
			<path id="&lt;Path&gt;" class="s3" d="m1394.7 356.2q98.9 8.3 137.4 112.8l-1261.8-0.9q34.3-113 176.7-142.3c16.7-3.4 34.9-5.7 54.8-6.5"/>
			<path id="&lt;Path&gt;" class="s5" d="m401.7 468.6c51.2 0 96.6-123.6 175.6-90.7 79 33 116.1 31.2 193.3-26 77.2-57.3 69.3-139 208.7-100.3 139.4 38.7 107.7 30.6 179.2 93.3 71.6 62.6 61.3 85.9 121.4 61.3q60.2-24.6 101.1 62.8z"/>
			<path id="&lt;Path&gt;" class="s3" d="m401.7 468.6c51.2 0 96.6-123.6 175.6-90.7 79 33 116.1 31.2 193.3-26 77.2-57.3 69.3-139 208.7-100.3 139.4 38.7 107.7 30.6 179.2 93.3 71.6 62.6 61.3 85.9 121.4 61.3q60.2-24.6 101.1 62.8z"/>
			<path id="&lt;Path&gt;" class="s3" d="m1605.1 469h-1431.9"/>
			<path id="&lt;Path&gt;" class="s4" d="m120.2 237.4q5.4-20.8 38.5-25c11.7-1.5 28.4 9.1 45.1 0.2 7-3.7 8.3-24.9 43.1-28.2q41-3.9 51.2 31.9 17.8-2.7 36.8 21.1c-29.5 0-181.9 0-202.1 0z"/>
			<path id="&lt;Path&gt;" class="s4" d="m1708.6 288.7c-9.3 0-79.6 0-93.2 0q8.8-11 17-9.7 4.7-16.6 23.6-14.8c16.1 1.6 16.7 11.4 19.9 13.1 7.7 4.1 15.4-0.8 20.8-0.1q15.3 1.9 17.8 11.5z"/>
			<path id="&lt;Path&gt;" class="s4" d="m1464.1 320.4c-13.6 0-116.2 0-136 0q12.8-16 24.7-14.2 6.9-24.1 34.5-21.5c23.4 2.3 24.3 16.5 29 19 11.3 6 22.5-1.1 30.4-0.1q22.3 2.8 25.9 16.8z"/>
			<path id="&lt;Path&gt;" class="s4" d="m121.9 341.4c-13.6 0-116.2 0-136.1 0q12.8-16 24.8-14.2 6.9-24.1 34.5-21.5c23.4 2.2 24.3 16.5 29 19 11.3 6 22.5-1.2 30.4-0.1q22.3 2.8 25.9 16.8z"/>
			<path id="&lt;Path&gt;" class="s4" d="m1583.2 167.1h-5.9c-5.2 0-30.1 0-53.1 0-17.6 0-34.2 0-40.1 0-23 0-47.8 0-53.1 0h-5.8q2.5-9.5 17.7-11.5c5.4-0.7 13.1 4.2 20.8 0.1 3.3-1.7 3.9-11.5 19.9-13 11.1-1.1 17.3 4.2 20.6 8.7 3.2-4.5 9.4-9.8 20.5-8.7 16.1 1.5 16.7 11.3 19.9 13 7.7 4.1 15.4-0.8 20.8-0.1q15.3 2 17.8 11.5z"/>
			<path id="&lt;Path&gt;" class="s4" d="m153.5 150.6h-5.8c-5.3 0-30.1 0-53.2 0-17.6 0-34.2 0-40.1 0-23 0-47.8 0-53.1 0h-5.8q2.5-9.6 17.8-11.5c5.3-0.7 13 4.2 20.7 0.1 3.3-1.7 3.9-11.5 20-13.1 11.1-1 17.3 4.3 20.5 8.8 3.2-4.5 9.4-9.8 20.5-8.8 16.1 1.6 16.7 11.4 19.9 13.1 7.7 4.1 15.4-0.8 20.8-0.1q15.3 1.9 17.8 11.5z"/>
			<g id="&lt;Group&gt;">
				<path id="&lt;Path&gt;" class="s6" d="m1283.2 409.1c0 22.9-18.6 41.4-41.5 41.4-22.8 0-41.4-18.5-41.4-41.4 0-15.7 8.8-29.4 21.7-36.4-3.6-4.4-5.7-10-5.7-16.1 0-14.1 11.4-25.5 25.4-25.5 14.1 0 25.5 11.4 25.5 25.5 0 6.1-2.1 11.7-5.7 16.1 12.9 7 21.7 20.7 21.7 36.4z"/>
				<path id="&lt;Path&gt;" class="s3" d="m1283.2 409.1c0 22.9-18.6 41.4-41.5 41.4-22.8 0-41.4-18.5-41.4-41.4 0-15.7 8.8-29.4 21.7-36.4-3.6-4.4-5.7-10-5.7-16.1 0-14.1 11.4-25.5 25.4-25.5 14.1 0 25.5 11.4 25.5 25.5 0 6.1-2.1 11.7-5.7 16.1 12.9 7 21.7 20.7 21.7 36.4z"/>
				<path id="&lt;Path&gt;" class="s3" d="m1241.7 469v-82"/>
				<path id="&lt;Path&gt;" class="s3" d="m1241.7 433.2l14.5-15.1"/>
				<path id="&lt;Path&gt;" class="s3" d="m1241.7 415.8l-7.3-5.8"/>
			</g>
			<g id="&lt;Group&gt;">
				<path id="&lt;Path&gt;" class="s6" d="m477.2 422.8c0 19.2-15.6 34.9-34.9 34.9-19.2 0-34.8-15.7-34.8-34.9 0-13.3 7.3-24.8 18.2-30.7-3-3.7-4.8-8.4-4.8-13.5 0-11.9 9.6-21.5 21.4-21.5 11.9 0 21.5 9.6 21.5 21.5 0 5.1-1.8 9.8-4.8 13.5 10.9 5.9 18.2 17.4 18.2 30.7z"/>
				<path id="&lt;Path&gt;" class="s3" d="m477.2 422.8c0 19.2-15.6 34.9-34.9 34.9-19.2 0-34.8-15.7-34.8-34.9 0-13.3 7.3-24.8 18.2-30.7-3-3.7-4.8-8.4-4.8-13.5 0-11.9 9.6-21.5 21.4-21.5 11.9 0 21.5 9.6 21.5 21.5 0 5.1-1.8 9.8-4.8 13.5 10.9 5.9 18.2 17.4 18.2 30.7z"/>
				<path id="&lt;Path&gt;" class="s3" d="m442.3 469v-59.5"/>
				<path id="&lt;Path&gt;" class="s3" d="m442.3 443l12.3-12.7"/>
				<path id="&lt;Path&gt;" class="s3" d="m442.3 428.4l-6.2-4.9"/>
			</g>
			<g id="&lt;Group&gt;">
				<path id="&lt;Path&gt;" class="s6" d="m826.2 383.4c0 47.3-38.3 85.6-85.6 85.6-47.3 0-85.6-38.3-85.6-85.6 0-32.5 18.1-60.8 44.8-75.3-7.4-9-11.9-20.6-11.9-33.2 0-29.1 23.6-52.7 52.7-52.7 29.1 0 52.7 23.6 52.7 52.7 0 12.6-4.5 24.2-11.8 33.2 26.6 14.5 44.7 42.8 44.7 75.3z"/>
				<path id="&lt;Path&gt;" class="s3" d="m826.2 383.4c0 47.3-38.3 85.6-85.6 85.6-47.3 0-85.6-38.3-85.6-85.6 0-32.5 18.1-60.8 44.8-75.3-7.4-9-11.9-20.6-11.9-33.2 0-29.1 23.6-52.7 52.7-52.7 29.1 0 52.7 23.6 52.7 52.7 0 12.6-4.5 24.2-11.8 33.2 26.6 14.5 44.7 42.8 44.7 75.3z"/>
				<path id="&lt;Path&gt;" class="s3" d="m740.6 469v-85.6"/>
				<path id="&lt;Path&gt;" class="s3" d="m740.6 433.2l30-31.2"/>
				<path id="&lt;Path&gt;" class="s3" d="m740.6 397.2l-15.2-12"/>
			</g>
			<g id="&lt;Group&gt;">
				<path id="&lt;Path&gt;" class="s7" d="m616.1 438.3q-16.8-2.6-29.9-6.7c-13.2-4.1-18.3-6.7-18.9-7.5q-0.5-0.9 5.6-8.8l-3.9-8.7 0.1-15 3.2-4.5-3-11.4 2-2.6q-0.8-16.4 2.3-24.2c3-7.8 16.4-21.2 29-26.5 12.7-5.3 46.1-15.2 70.1-17.8 24-2.5 55-4.2 58.9-5.3 3.9-1.1 43.6-27.9 70.2-38.4 26.5-10.6 73.2-22 106.4-24.3 33.2-2.4 111.8 4.3 131.8 5.2 20 0.9 64.4 6.9 76.1 8.3 11.6 1.5 8.5 7.6 6.3 10-2.2 2.4-4.5 9.4 3.8 15.3 8.3 5.9 29.4 17.6 40.4 23.8 11 6.2 13.2 11 12 15.4-1.2 4.5-2.3 7.5-0.9 11.3 1.5 3.7-0.2 8.4-0.8 13.1-0.5 4.6-0.7 8.1 2.7 12.4 3.4 4.3 3.6 10.7 3.4 17.2q-0.1 6.6-1 17.4 3.2 4.4 3.8 5.2c0.6 0.8 1 1.5 0.7 3.1-0.3 1.5-2.7 10.3-3.7 12.8-1 2.6-5.8 11.8-9 14.3-3.2 2.5-9.9 5.4-12.3 6.3-2.4 0.8-7.2 1.5-8.7 1.7-1.5 0.1-91.2-15.8-106.7-12.9-15.4 2.9-118.8 6.9-181.8 6.7-62.9-0.1-171.7 3.8-191 7.6q-19.3 3.8-52.8 1.6z"/>
				<path id="&lt;Path&gt;" class="s8" d="m961.8 347.1c-72.8 8.5-192.4 0.6-267.5-3q-58.6-2.8-123 29-0.8-16.4 2.3-24.2c3-7.8 16.4-21.2 29-26.5 12.7-5.3 46.1-15.2 70.1-17.8 24-2.5 55-4.2 58.9-5.3 3.9-1.1 43.6-27.9 70.2-38.4 26.5-10.6 73.2-22 106.4-24.3 33.2-2.4 111.8 4.3 131.8 5.2 20 0.9 64.4 6.9 76.1 8.3 11.6 1.5 8.5 7.6 6.3 10-2.2 2.4-4.5 9.4 3.8 15.3 8.3 5.9 29.4 17.6 40.4 23.8 11 6.2 13.2 11 12 15.4q-144 24-216.8 32.5z"/>
				<path id="&lt;Path&gt;" class="s9" d="m1035.8 268.5l15.6 20.8q8.6 12.5 9 12.9c0.4 0.3 0.2 1.5-1.5 1.5q-1.8-0.1-5.6 0.7l-41.1 3.3-40.1 2.1-38.2 1.8-32.2 1.6-28.4 0.9-25 0.4-13.4 0.4-21.9 1.5q-8.8 0.6-13.9 0.7c-5.1 0-16.4-0.6-18.2-0.5-1.9 0-18.9-2-21.6-2.5-2.8-0.5-11.1-2.1-11.8-2.2q-0.7-0.2-0.2-1.2 11.9-7.8 12.6-8.2 0.7-0.5 19.5-11.7l21.9-10.3 23-8.5 14.2-3.9q16.3-3.9 20.7-5.1 4.4-1.1 17.7-3.4 18.4-2.1 25.3-2.8 6.9-0.8 26.8-0.5l39.6 0.8 35.2 0.8 9 0.6q9.6 1.9 12.9 2.7c3.3 0.9 7.6 2.3 11.3 4.1z"/>
				<path id="&lt;Path&gt;" class="s10" d="m897.2 257.2q-16.2 2.1-23.5 2.9-7.3 0.7-26.3 5.7l-27.4 7.8q-16.6 6-20.9 7.5-4.3 1.5-25.2 12.6l-10.2 6.7-9.5 6q-6.1 3.7-7.1 4.5c-1.1 0.8-2.7 0.5-3.5 0-0.9-0.5-0.2-0.7 1.3-1.7 1.5-0.9 8.5-5.2 10.4-6.4 1.9-1.3 7.7-5 9.4-6 1.7-1.1 8-4.8 9.4-5.9 1.3-1.1 7.6-4.7 9.5-5.6 1.9-1 8.6-4.2 10.7-5.3 2.1-1.1 9.4-3.3 12.2-4.5 2.9-1.3 8.4-3.3 11.7-4.5 3.3-1.1 8.2-2.6 12.1-3.7 4-1.1 8.2-2.8 11-3.6 2.7-0.8 8-2.2 11.5-3.2 3.4-1 8-2 10.4-2.4 2.4-0.4 8.1-1.4 10.1-1.8 2-0.4 9.3-1.6 11.2-1.9 2-0.2 8.4-1.2 10.8-1.6 2.3-0.3 10.1-1.2 12.2-0.9 2.1 0.3 0.9 1.5 0.6 3-0.4 1.4-0.6 1-2 1.5z"/>
				<path id="&lt;Path&gt;" class="s10" d="m1086.1 292.5c0.5 1-0.2 1.3-1.3 0.2-1.1-1-6.7-4.8-8.4-6-1.6-1.2-14.4-9.9-15.9-11-1.4-1.1-13.8-7.3-14.7-7.8-0.9-0.5-7.2-2.8-12-4.3-4.9-1.4-17-4.3-21.3-5.1q-4.3-0.8-17.7-0.8l-19.6-0.3-20-0.5-17-0.3q-5.2-0.1-6.2-0.3c-1.1-0.2-1.5-1.6-1.1-3.1 0.5-1.4 1.3-1.1 3.5-1.2 2.2-0.1 8 0.2 10.9 0.2 2.9 0 15.3-0.2 17.4-0.2 2.1 0 14.9 0.5 17.1 0.5 2.3 0 14.9 0.6 17.4 0.9 2.4 0.2 11.4 0.7 13.6 0.9 2.2 0.3 9.8 0.8 11.8 1.1 2 0.4 4.6 1.1 7.9 2 3.3 0.8 10.7 3.4 14.3 5.2 3.5 1.8 13.4 6.2 14.7 6.9 1.4 0.8 4.4 2.5 6.5 3.7 2 1.1 6.7 4.5 8.4 5.7 1.7 1.1 5.2 4.5 6.3 5.7 1 1.3 3.1 3.8 4.3 5.6q0.6 1.2 1.1 2.3z"/>
				<path id="&lt;Path&gt;" class="s11" d="m895.1 313.4q-0.5 0-0.7-0.9 13.8-58.1 13.9-59.3c0.2-1.2 2-1.1 2-1.1q0 0 6-0.2 12.6 0 13.5 0c0.9 0 1.1 0.9 1.1 0.9q0 0.1-1.4 11.9l-4.6 42.2q-0.2 3.1-0.3 4c0 0.9-0.9 1.5-1.1 1.5q-0.1 0-1.9-0.1-25.9 1.2-26.5 1.1z"/>
				<path id="&lt;Path&gt;" class="s11" d="m1085.9 293.8c1.1 1.2 0.5 2.3-0.2 2.9-0.8 0.5-0.8 0.4-6.5 2.6-5.8 2.3-15 3.9-15.2 4-0.3 0-2.9 0.4-3 0.4 0 0-0.6-1.6-1.4-2.5q-0.8-0.8-10.5-15.1l-8.3-11.2q-7.8-10.2-8.2-10.6-0.3-0.5 1.7-0.6 8.2 3.1 10.3 3.9c2.1 0.9 7.3 3.2 10.1 4.7 2.9 1.4 8.5 5 12.9 7.9q4.3 2.9 13.6 9.9 3.7 2.5 4.7 3.7z"/>
				<path id="&lt;Path&gt;" class="s12" d="m1161.3 299.6c-5.6 0.1-12-0.5-15.8-1.6-3.7-1-7.3-1.9-9.6-3.7q-2.3-1.7-8.8-5.4l-16.4-11.4-13.5-10-1.3-1 0.6-0.8q7.8-2.4 11.8-3.5c4-1.1 10.3-3.5 12.1-4.4 1.8-0.9 2.3-1.2 2.9-1.6 0.6-0.4 1.2-0.7 1.1 0.1-0.2 0.8-0.5 2.1-1.2 3-0.6 0.9-1.8 2.1-2.2 4.2-0.4 2.2-0.6 3-0.1 4.5 0.5 1.6 1.2 3.1 2.1 4.3 1 1.3 4.9 4.5 7 5.6 2 1.2 8 5 9.9 6.1 1.8 1.1 9.5 5.3 11.1 6.4 1.7 1.1 9.6 4.9 11.8 6.4 2.3 1.5 3 2.6 2 2.7z"/>
				<path id="&lt;Path&gt;" class="s13" d="m1172 328.9c-1.3 0.4-1.5 0.3-2.9 0.4-1.3 0.1-17.1 0-18.3 0-1.2 0-1.7 0-2.2-0.2-0.5-0.2-3.9-2.1-5.1-2.7-1.1-0.6-0.2-1.3 0.7-2.4 0.8-1.2 11.1-10.4 12.1-11.6 1-1.2 1.6-1.6 3.2-2 1.6-0.4 14.9-2.3 16.3-2.4 1.3-0.2 2.4 1 2.8 2.4 0.4 1.5 0.3 2.5 0.2 3.6-0.2 1.1-1.2 4.5-1.5 6.6-0.2 2.2 0.2 4.5 0.3 5.5 0.2 1-0.4 1.1-1.8 1.6q-2.6 0.8-3.8 1.2z"/>
				<path id="&lt;Path&gt;" class="s12" d="m704.7 459.8c-1.7 0.8-3.7 1.6-3.4 1 0.3-0.6 2.4-1.9 4.7-4 2.3-2.1 7.4-7.9 10.3-12.3 2.9-4.4 5.4-12.4 5.8-14.2q0.5-1.8 1.1-1.2 1.9 1.2 2.7 1.8c0.9 0.5 2.4 1.5 2.4 2.7 0 1.3-2.1 6-4.5 9.5-2.3 3.4-7.1 8.9-10.2 11.3q-7.1 4.6-8.9 5.4z"/>
				<path id="&lt;Path&gt;" class="s14" d="m1186.2 391.7c0.9 1.2 0.3 3 0 4.1-0.2 1.2-1.1 5.9-2.8 9.9-1.8 4-4.9 10.2-6.5 12.2-1.5 2-8.7 7.3-14.3 9.4-5.5 2.1-15.9 2.6-19.2 3.3-3.4 0.7-9-0.4-9.8-0.5q-0.8-0.1-13.1-3.3l-96.5 12.9-3.4 1.2-20.6-1.6h-41.7-98l-58.9 0.3-55.8-0.3q-10.5 0.4-11.3 0.2-0.7-0.2-1.4-2.3-2.1-7.1-2.6-8.2c-0.4-1-9.5-4.8-11.3-4.5q-1.7 0.4-85.6 11.7-13.9 4.3-15 4.4c-1.1 0-1.6-1.1-1.9-1.8-0.4-0.6-6.2-1.4-8.8-2-2.6-0.6-17-3.9-18.9-4.4-1.9-0.5-10.8-3.5-12.6-4.1-1.8-0.7-7.9-3.3-8.6-3.7-0.6-0.4-0.1-0.6 0.3-1.8 0.4-1.3 3.1-5 3.8-6 0.8-1 0.7-0.9 0.8-2 0.1-1.1-0.5-2.3-1.2-3.3-0.6-1-0.2-1.1 0.4-1.1 0.6-0.1 1.5 0.6 4.5 1.4 3 0.8 7.8 1.2 8.4 1.6 0.6 0.3 6 4.5 7.6 5.8 1.5 1.2 1.6 0.7 3 1 1.3 0.3 3.1 0.8 5.2 1.5 2.2 0.8 2.4 0.6 2.3-0.6-0.1-1.3 0.1-3.6 0.6-6.8 0.5-3.2 1-7.6 1.6-10.1 0.7-2.4 4.2-11.1 5.2-13.1 0.9-1.9 4.4-7.7 6.2-9.9 1.7-2.2 5.8-7 7.9-9.4 2.1-2.5 8.6-7.2 10.3-8.3 1.6-1.1 8-4.2 10.2-5.6 2.1-1.4 9.6-3.5 11-3.8 1.3-0.4 8-1.6 10.2-2 2.2-0.4 7.4-0.3 10.9-0.2 3.4 0.1 9.7 0.9 11 1.3 1.2 0.4 6.7 1.9 9.9 3 3.2 1.1 10.5 4.7 11.7 5.6 1.3 0.9 4.9 2.9 7.7 5.3 2.9 2.5 9.3 8.3 11 10.8 1.7 2.6 6.6 9.4 7.8 11.9 1.1 2.6 3.5 7.9 4.5 11 1.1 3.1 2.5 10 2.9 12.9q0.4 2.9-1.4 5.1l14.3-2.6q61.1-4 61.2-4 0.1 0 58.3-3.5l37.5-2.5 21.7-1.1q14.3-1.1 15.5-1.2c1.2 0 6.1 0.2 7.8 0.4q1.7 0.2 29.2 5.6 19.4 3.9 20.8 4c1.5 0.2 1.6 0.2 1.7-0.7 0.1-0.9 0.2-3 0.6-5.1 0.4-2 1.6-6.9 4.4-13.3 2.7-6.4 6.6-11.7 9.5-15.6 2.8-4 7.7-9.1 12.9-12.8 5.3-3.8 10.2-6.7 16-8.9 5.8-2.1 14.5-4.3 19.6-4.7 5.2-0.4 15.5 0.4 22.6 2.1 7.1 1.8 14.7 5.6 19.2 8.2 4.4 2.5 9.3 7.2 12.2 9.6 2.9 2.3 8.3 9.3 9.7 11.5 1.4 2.2 5.3 10.4 5.6 11.2 0.4 0.8 1.1 2.3 1.4 2.3q0.3-0.1 0.7-0.3l2.8-0.7q14.5-4.7 15.5-4.9c1-0.2 3.8 0.2 5 0 1.2-0.2 7.6-1.8 9.2-2.7q1.6-0.8 5.2-3.1l2.1 3.1q1.3 1.4 2.1 2.6z"/>
				<path id="&lt;Path&gt;" class="s12" d="m1027.7 432c0.5-1.7 6.7 0.6 11.6 7.5 5 6.9 7 12 11.2 15 4.2 3 19.4 13.2 18.7 13.4-0.8 0.2-8.8-0.1-14.2-2.6-5.4-2.5-8.9-4.9-12.3-7.4-3.4-2.5-10.7-9.6-11.7-11.1-1-1.6-3.9-4.8-4.4-5.9-0.5-1.1-0.3-0.8 0.3-2.3q0.3-4.9 0.8-6.6z"/>
				<path id="&lt;Path&gt;" class="s12" d="m720.2 427.5c-0.9-0.7-0.8 4.2-1.9 0.3-1.1-4-2.3-19.1-7.8-30.3-5.4-11.2-17.4-17.1-28.2-22.3-10.8-5.3-26.6 2.5-39.4 11.9-12.8 9.4-8.4 16.8-11.2 28.7q-2.8 11.9-3.2 21.6l-3.5 1.4q-5.5 1.8-6.8 2.1c-1.2 0.3-1.3-0.6-2.3-2.9-1-2.4-2-8-2.4-10.7-0.5-2.6-1.2-11-0.3-15.1 0.8-4.1 2.4-11.3 2.9-12.9 0.5-1.6 1.4-4.3 3.2-7.6 1.9-3.3 6.5-10.1 7.6-11.5 1.1-1.3 3.7-3.9 6.2-6.3 2.5-2.4 13.2-8.9 14.7-9.7 1.6-0.7 4.3-1.8 7.2-2.8 2.9-1 5.8-1.5 8.4-2 2.6-0.5 10.6-1.4 13.3-1.2 2.8 0.2 15.6 3.4 16.7 3.8 1 0.4 6.3 2.6 8.3 3.7 2.1 1 5.6 3 9.2 6 3.7 3 9.6 9.6 12.5 13.2 2.9 3.7 6.5 12.7 7.6 15.7 1 3 2.8 12.5 2.8 14.3 0.1 1.8-0.7 13.9-0.8 15.2-0.1 1.4-1.8 1.5-3.7 2-1.9 0.5-2.5-0.7-3.7-1.4q-4.5-2.5-5.4-3.2z"/>
				<path id="&lt;Path&gt;" class="s12" d="m1031.8 437.3q0 0.6-0.5 1.2-7.6 2-8.1 2.1c-0.6 0.1-1.1-0.1-1.1-0.3 0-0.1-0.7-1.6-1.9-4.9-1.1-3.3-1.8-9.3-2.3-13.1-0.6-3.8 0.3-11.7 1.1-14.8 0.8-3.1 2.6-9.2 3.2-10.9 0.7-1.8 4.9-10.5 5.9-11.6 1-1.1 3.9-4.1 5.7-6.8 1.8-2.6 7.5-6.9 8.4-7.6 0.9-0.7 4.9-3.3 6.8-4.3 1.8-1.1 6.7-3.3 8.4-4 1.8-0.6 10-3.1 12.1-3 2.1 0 7.9-0.9 11.7-0.9 3.8 0 10.9 2.1 17 3.5 6 1.4 17.7 9.3 21.8 13.2 4.1 3.9 9.2 10.5 11.7 15.3 2.6 4.8 5.1 12.5 5.8 15.4 0.7 2.9 1.8 13.2 1.8 13.4q0 0.2-1.2 11.5l-0.9 0.7-4 0.9q-3.7-2.2-4.4-2.8-0.7-0.7-0.9-1.7-96.1 8.9-96.1 9.5z"/>
				<g id="&lt;Group&gt;">
					<circle id="&lt;Path&gt;" class="s15" cx="1078.5" cy="419.2" r="49.9"/>
					<circle id="&lt;Path&gt;" class="s11" cx="1078.5" cy="419.2" r="38.4"/>
					<circle id="&lt;Path&gt;" class="s16" cx="1078.5" cy="419.2" r="14.7"/>
					<circle id="&lt;Path&gt;" class="s3" cx="1078.5" cy="419.2" r="14.7"/>
					<circle id="&lt;Path&gt;" class="s17" cx="1078.5" cy="419.2" r="3.3"/>
					<circle id="&lt;Path&gt;" class="s3" cx="1078.5" cy="419.2" r="3.3"/>
					<g id="&lt;Group&gt;">
						<path id="&lt;Path&gt;" class="s18" d="m1065.3 455l11.3-26.9c0.7-1.7 3.1-1.7 3.8 0l11.2 26.9q-7.8 2.9-13.1 2.6c-5.4-0.4-7.9-1.1-9.9-1.5q-1.9-0.4-3.3-1.1z"/>
						<path id="&lt;Path&gt;" class="s3" d="m1065.3 455l11.3-26.9c0.7-1.7 3.1-1.7 3.8 0l11.2 26.9"/>
					</g>
					<g id="&lt;Group&gt;">
						<path id="&lt;Path&gt;" class="s18" d="m1102.9 448.5l-17.6-23.2c-1.1-1.5 0.1-3.6 1.9-3.3l28.9 3.7q-1.4 8.2-4.4 12.7c-3 4.4-4.9 6.3-6.2 7.7q-1.2 1.5-2.6 2.4z"/>
						<path id="&lt;Path&gt;" class="s3" d="m1102.9 448.5l-17.6-23.2c-1.1-1.5 0.1-3.6 1.9-3.3l28.9 3.7"/>
					</g>
					<g id="&lt;Group&gt;">
						<path id="&lt;Path&gt;" class="s18" d="m1116.1 412.6l-28.9 3.7c-1.8 0.3-3-1.8-1.9-3.3l17.6-23.2q6.5 5.3 8.8 10.1c2.4 4.9 3 7.5 3.7 9.3q0.6 1.9 0.7 3.4z"/>
						<path id="&lt;Path&gt;" class="s3" d="m1116.1 412.6l-28.9 3.7c-1.8 0.3-3-1.8-1.9-3.3l17.6-23.2"/>
					</g>
					<g id="&lt;Group&gt;">
						<path id="&lt;Path&gt;" class="s18" d="m1091.6 383.3l-11.2 26.9c-0.7 1.7-3.1 1.7-3.8 0l-11.3-26.9q7.8-2.9 13.2-2.6c5.3 0.4 7.9 1.2 9.8 1.5q1.9 0.4 3.3 1.1z"/>
						<path id="&lt;Path&gt;" class="s3" d="m1091.6 383.3l-11.2 26.9c-0.7 1.7-3.1 1.7-3.8 0l-11.3-26.9"/>
					</g>
					<g id="&lt;Group&gt;">
						<path id="&lt;Path&gt;" class="s18" d="m1054 389.8l17.7 23.2c1.1 1.5-0.1 3.6-1.9 3.3l-28.9-3.7q1.3-8.2 4.3-12.7c3-4.4 4.9-6.3 6.2-7.7q1.3-1.5 2.6-2.4z"/>
						<path id="&lt;Path&gt;" class="s3" d="m1054 389.8l17.7 23.2c1.1 1.5-0.1 3.6-1.9 3.3l-28.9-3.7"/>
					</g>
					<g id="&lt;Group&gt;">
						<path id="&lt;Path&gt;" class="s18" d="m1040.9 425.7l28.9-3.7c1.8-0.3 3 1.8 1.9 3.3l-17.7 23.2q-6.4-5.3-8.8-10.1c-2.3-4.9-3-7.5-3.6-9.3q-0.7-1.9-0.7-3.4z"/>
						<path id="&lt;Path&gt;" class="s3" d="m1040.9 425.7l28.9-3.7c1.8-0.3 3 1.8 1.9 3.3l-17.7 23.2"/>
					</g>
					<circle id="&lt;Path&gt;" class="s3" cx="1078.5" cy="419.2" r="38.4"/>
					<circle id="&lt;Path&gt;" class="s3" cx="1078.5" cy="419.2" r="49.9"/>
				</g>
				<g id="&lt;Group&gt;">
					<circle id="&lt;Path&gt;" class="s15" cx="673.3" cy="419.2" r="49.9"/>
					<circle id="&lt;Path&gt;" class="s11" cx="673.3" cy="419.2" r="38.4"/>
					<circle id="&lt;Path&gt;" class="s16" cx="673.3" cy="419.2" r="14.7"/>
					<circle id="&lt;Path&gt;" class="s3" cx="673.3" cy="419.2" r="14.7"/>
					<circle id="&lt;Path&gt;" class="s17" cx="673.3" cy="419.2" r="3.3"/>
					<circle id="&lt;Path&gt;" class="s3" cx="673.3" cy="419.2" r="3.3"/>
					<g id="&lt;Group&gt;">
						<path id="&lt;Path&gt;" class="s18" d="m660.1 455l11.3-26.9c0.7-1.7 3.1-1.7 3.8 0l11.3 26.9q-7.8 2.9-13.2 2.6c-5.4-0.4-7.9-1.1-9.8-1.5q-2-0.4-3.4-1.1z"/>
						<path id="&lt;Path&gt;" class="s3" d="m660.1 455l11.3-26.9c0.7-1.7 3.1-1.7 3.8 0l11.3 26.9"/>
					</g>
					<g id="&lt;Group&gt;">
						<path id="&lt;Path&gt;" class="s18" d="m697.8 448.5l-17.7-23.2c-1.1-1.5 0.1-3.6 1.9-3.3l28.9 3.7q-1.3 8.2-4.3 12.7c-3 4.4-5 6.3-6.2 7.7q-1.3 1.5-2.6 2.4z"/>
						<path id="&lt;Path&gt;" class="s3" d="m697.8 448.5l-17.7-23.2c-1.1-1.5 0.1-3.6 1.9-3.3l28.9 3.7"/>
					</g>
					<g id="&lt;Group&gt;">
						<path id="&lt;Path&gt;" class="s18" d="m710.9 412.6l-28.9 3.7c-1.8 0.3-3-1.8-1.9-3.3l17.7-23.2q6.4 5.3 8.8 10.1c2.3 4.9 3 7.5 3.6 9.3q0.7 1.9 0.7 3.4z"/>
						<path id="&lt;Path&gt;" class="s3" d="m710.9 412.6l-28.9 3.7c-1.8 0.3-3-1.8-1.9-3.3l17.7-23.2"/>
					</g>
					<g id="&lt;Group&gt;">
						<path id="&lt;Path&gt;" class="s18" d="m686.5 383.3l-11.3 26.9c-0.7 1.7-3.1 1.7-3.8 0l-11.3-26.9q7.8-2.9 13.2-2.6c5.4 0.4 7.9 1.2 9.8 1.5q2 0.4 3.4 1.1z"/>
						<path id="&lt;Path&gt;" class="s3" d="m686.5 383.3l-11.3 26.9c-0.7 1.7-3.1 1.7-3.8 0l-11.3-26.9"/>
					</g>
					<g id="&lt;Group&gt;">
						<path id="&lt;Path&gt;" class="s18" d="m648.8 389.8l17.7 23.2c1.1 1.5-0.1 3.6-1.9 3.3l-28.9-3.7q1.3-8.2 4.3-12.7c3-4.4 5-6.3 6.2-7.7q1.3-1.5 2.6-2.4z"/>
						<path id="&lt;Path&gt;" class="s3" d="m648.8 389.8l17.7 23.2c1.1 1.5-0.1 3.6-1.9 3.3l-28.9-3.7"/>
					</g>
					<g id="&lt;Group&gt;">
						<path id="&lt;Path&gt;" class="s18" d="m635.7 425.7l28.9-3.7c1.8-0.3 3 1.8 1.9 3.3l-17.7 23.2q-6.4-5.3-8.8-10.1c-2.3-4.9-3-7.5-3.6-9.3q-0.7-1.9-0.7-3.4z"/>
						<path id="&lt;Path&gt;" class="s3" d="m635.7 425.7l28.9-3.7c1.8-0.3 3 1.8 1.9 3.3l-17.7 23.2"/>
					</g>
					<circle id="&lt;Path&gt;" class="s3" cx="673.3" cy="419.2" r="38.4"/>
					<circle id="&lt;Path&gt;" class="s3" cx="673.3" cy="419.2" r="49.9"/>
				</g>
				<path id="&lt;Path&gt;" class="s3" d="m1032.3 438l-9.9 2.9q-4.3-8-4.5-21.7c0-33.5 27.1-60.6 60.5-60.6 33.5 0 60.6 27.1 60.6 60.6l-1 12-4.6 1.2-5.9-3.8"/>
				<path id="&lt;Path&gt;" class="s3" d="m627.2 438l-10 2.9q-4.2-8-4.4-21.7c0-33.5 27.1-60.6 60.5-60.6 33.4 0 60.5 27.1 60.5 60.6l-0.9 12-4.6 1.2-6-3.8"/>
				<path id="&lt;Path&gt;" class="s3" d="m571.3 410.3l13.7 3.1 8 6.4 9.8 2.5c0-38.9 31.6-70.5 70.5-70.5 37 0 67.3 28.5 70.3 64.7"/>
				<path id="&lt;Path&gt;" class="s14" d="m1184.6 402.2l-9.3 5.7-17.9-0.7q4.8-6 29.4-14.7"/>
				<path id="&lt;Path&gt;" class="s3" d="m1025.6 440q19.8 29 44 28.3"/>
				<path id="&lt;Path&gt;" class="s3" d="m1143.2 397.8l20.8-6.3q8 1.7 18-5.5l4.8 6.5q-0.9 8.7-6.5 20.4-5.6 11.7-21.9 15.8l-20.4 2.5"/>
				<path id="&lt;Path&gt;" class="s19" d="m755.7 423.2l4.6-3.4 193.6-12 39.8 8z"/>
				<path id="&lt;Path&gt;" class="s3" d="m743.6 416.5l205.5-12.5c3.7-0.3 7.5 0 11.2 0.7l49.5 9.5c3.8-34.5 33.1-61.4 68.6-61.4 29.7 0 55 18.7 64.8 45"/>
				<path id="&lt;Path&gt;" class="s3" d="m755.7 423.2l4.6-3.4 193.6-12 39.8 8z"/>
				<path id="&lt;Path&gt;" class="s20" d="m1010.1 427.8q-17.3 7.4-31 7.4c-13.7 0-210.5 0-217.6 0q-7 0-20.8-4.2z"/>
				<path id="&lt;Path&gt;" class="s3" d="m1010.1 427.8q-17.3 7.4-31 7.4c-13.7 0-210.5 0-217.6 0q-7 0-20.8-4.2z"/>
				<path id="&lt;Path&gt;" class="s3" d="m1022.4 440.9l-21.9-1.6h-266.9l-2.3-7.2"/>
				<path id="&lt;Path&gt;" class="s3" d="m1184.6 402.2l-9.3 5.7-17.9-0.7q4.8-6 29.4-14.7"/>
				<path id="&lt;Path&gt;" class="s3" d="m728.3 432.4q-3 24.4-43 35.2"/>
				<path id="&lt;Path&gt;" class="s3" d="m616.1 438.3q-16.8-2.6-29.9-6.7c-13.2-4.1-18.3-6.7-18.9-7.5q-0.5-0.9 5.6-8.8l-3.9-8.7 0.1-15 3.2-4.5-3-11.4 2-2.6q-0.8-16.4 2.3-24.2c3-7.8 16.4-21.2 29-26.5 12.7-5.3 46.1-15.2 70.1-17.8 24-2.5 55-4.2 58.9-5.3 3.9-1.1 43.6-27.9 70.2-38.4 26.5-10.6 73.2-22 106.4-24.3 33.2-2.4 111.8 4.3 131.8 5.2 20 0.9 64.4 6.9 76.1 8.3 11.6 1.5 8.5 7.6 6.3 10-2.2 2.4-4.5 9.4 3.8 15.3 8.3 5.9 29.4 17.6 40.4 23.8 11 6.2 13.2 11 12 15.4-1.2 4.5-2.3 7.5-0.9 11.3 1.5 3.7-0.2 8.4-0.8 13.1-0.5 4.6-0.7 8.1 2.7 12.4 3.4 4.3 3.6 10.7 3.4 17.2q-0.1 6.6-1 17.4"/>
				<path id="&lt;Path&gt;" class="s3" d="m1108.7 359.8l48.7-48.8 20-3"/>
				<path id="&lt;Path&gt;" class="s3" d="m1177.4 327l-6.6 2.3h-21.6l-6.6-3.4"/>
				<path id="&lt;Path&gt;" class="s3" d="m1166.6 299.2q-17 2.3-29.6-4.3-12.5-6.5-41.8-28.9 24.5-6 29.3-11"/>
				<path id="&lt;Path&gt;" class="s3" d="m1060.3 243.4q21.7 5.2 27.4 10.7 5.7 5.6 7.5 11.9"/>
				<path id="&lt;Path&gt;" class="s3" d="m1044.8 241.6q14.6-4.5 20.9-5-1.5 6.3 1.3 7.5"/>
				<path id="&lt;Path&gt;" class="s3" d="m900.4 407q-1.4-28.5 2.1-55.2 3.6-26.7 7.7-40l9.7-59.8"/>
				<path id="&lt;Path&gt;" class="s13" d="m611.3 337.7c1.3-0.1 1.6 0.3 1 1.5-0.6 1.2-6.8 6.4-7.5 7.2q-0.7 0.7-2.5 2.1l-4.5-0.2q-3.1 5.3-4.1 6.7c-0.9 1.5-5 7.4-6.9 8.8-1.9 1.3-4.3 2.8-6.3 2.7-2-0.1-2.1-1.2-3.1-3.3-1-2-2.8-12.1-3-13.9-0.2-1.7 0.4-2.1 1.2-4.2 0.8-2.1 4.7-5.6 5.4-6.6q0.8-0.9 2-1l22.9 0.2q4.1 0.2 5.4 0z"/>
				<path id="&lt;Path&gt;" class="s3" d="m750.5 416.1q0.4-31.7 0-60.1-0.4-28.4 4.9-42.8"/>
				<path id="&lt;Path&gt;" class="s3" d="m630.6 366.3l-22.8-23.1c5.8-7.4 14.9-9.8 31.3-13 16.4-3.3 45.2-5.6 61-6.1q15.7-0.6 28-13.3"/>
				<path id="&lt;Path&gt;" class="s3" d="m581.7 337.5l32.3 0.2"/>
				<path id="&lt;Path&gt;" class="s3" d="m607.8 343.2l-4.8 5.1h-5.2q-7.3 13.2-11.7 16c-4.3 2.8-7.4 3.5-8.8-1.4-1.5-4.9-2.7-11-3.1-15.4"/>
				<path id="&lt;Path&gt;" class="s3" d="m824.7 253l11.9 6q-11.4 3.7-31.9 12c-20.5 8.3-51.2 28-63.6 35.4-12.3 7.4-31 4.8-30.1 0.8q0.8-4 5.3-6.3"/>
				<path id="&lt;Path&gt;" class="s3" d="m1031.6 263q33.9 42.6 39 58.2 5 15.6 0 32.1"/>
				<g id="&lt;Group&gt;">
					<path id="&lt;Path&gt;" class="s3" d="m896.7 339.1l-31.6 0.7-1.8-2.6 2.6-3.5 29.4-1.4 3.8 3.1z"/>
					<path id="&lt;Path&gt;" class="s3" d="m887 339.3l-2.8 4h-10l-2.7-3.7"/>
					<path id="&lt;Path&gt;" class="s3" d="m872.3 333.4l4-3.9h9.3l2.2 3.1"/>
				</g>
				<g id="&lt;Group&gt;">
					<path id="&lt;Path&gt;" class="s3" d="m1057.1 333l-31.7 0.7-1.7-2.6 2.5-3.4 29.5-1.5 3.7 3.1z"/>
					<path id="&lt;Path&gt;" class="s3" d="m1047.3 333.2l-2.7 4h-10l-2.7-3.6"/>
					<path id="&lt;Path&gt;" class="s3" d="m1032.7 327.3l4-3.9h9.3l2.2 3.2"/>
				</g>
				<path id="&lt;Path&gt;" class="s3" d="m1007.1 308c-26.7 1.4-115.1 6.2-141.4 6.2-26.3 0-52.6 2.7-71.4 3q-18.7 0.3-52.3-6.4 30.6-19.4 45.8-27.3c15.2-8 43.5-17 60.2-21.6 16.7-4.7 48-9.9 55.8-9.9 7.8 0 37.3-0.2 49.7 0 12.3 0.3 56.6 1.3 70 3.7 13.4 2.3 30.5 10.8 42.2 17.3 11.7 6.5 24.2 20.8 20.4 23.4-3.8 2.6-16.2 5.7-23 7.1q-29.2 3-56 4.5z"/>
				<path id="&lt;Path&gt;" class="s3" d="m930.9 256.3q58.8 1.6 73.5 1.6c14.6 0 35.3 7.1 48.3 13.3q12.9 6.3 34 23.2"/>
				<path id="&lt;Path&gt;" class="s3" d="m930.9 251.9l-6.5 60.3"/>
				<path id="&lt;Path&gt;" class="s3" d="m908.7 252l-14.5 61.4"/>
				<path id="&lt;Path&gt;" class="s3" d="m745.9 311.6q23.7-16 39-23.7c28.2-14.2 57.2-20.8 74.4-25.1q17.3-4.2 48.4-6.5"/>
				<path id="&lt;Path&gt;" class="s3" d="m777.1 316.2q-1.4-8.9 0.6-15.3c2-6.4 5.3-8.3 10.4-8.2 5.1 0.1 11 3.6 11 8.8q0 2.2 0 6.5l-1.9 4.2h-8.8l-2.4 4.8"/>
				<path id="&lt;Path&gt;" class="s3" d="m788.4 312.2h-11.7c1.3-2 5.5-4.2 8.3-4.2q2.8 0 14.1 0"/>
			</g>
			<path id="&lt;Path&gt;" class="s21" d="m517.2 225.1h677.5v243.9h-677.5z"/>
			<path id="&lt;Path&gt;" class="s22" d="m517.2 225.1h677.5v243.9h-677.5z"/>
			<g id="&lt;Group&gt;">
				<circle id="&lt;Path&gt;" class="s23" cx="517.2" cy="225.1" r="7.4"/>
				<circle id="&lt;Path&gt;" class="s24" cx="517.2" cy="225.1" r="7.4"/>
			</g>
			<g id="&lt;Group&gt;">
				<circle id="&lt;Path&gt;" class="s23" cx="1194.7" cy="225.1" r="7.4"/>
				<circle id="&lt;Path&gt;" class="s24" cx="1194.7" cy="225.1" r="7.4"/>
			</g>
			<g id="&lt;Group&gt;">
				<circle id="&lt;Path&gt;" class="s23" cx="1194.7" cy="347.1" r="7.4"/>
				<circle id="&lt;Path&gt;" class="s24" cx="1194.7" cy="347.1" r="7.4"/>
			</g>
			<g id="&lt;Group&gt;">
				<circle id="&lt;Path&gt;" class="s23" cx="517.2" cy="347.1" r="7.4"/>
				<circle id="&lt;Path&gt;" class="s24" cx="517.2" cy="347.1" r="7.4"/>
			</g>
			<g id="&lt;Group&gt;">
				<circle id="&lt;Path&gt;" class="s23" cx="517.2" cy="469" r="7.4"/>
				<circle id="&lt;Path&gt;" class="s24" cx="517.2" cy="469" r="7.4"/>
			</g>
			<g id="&lt;Group&gt;">
				<circle id="&lt;Path&gt;" class="s23" cx="1194.7" cy="469" r="7.4"/>
				<circle id="&lt;Path&gt;" class="s24" cx="1194.7" cy="469" r="7.4"/>
			</g>
			<path id="&lt;Path&gt;" class="s1" d="m1388.8 134.4q-18.8 4-21.5 16.9-7.8-9.1-28.1-6 12.5-9.1 26.2-2.5 8.3-11.7 23.4-8.4z"/>
			<path id="&lt;Path&gt;" class="s2" d="m1468.2 205.6q-11.1 0.5-13.9 7.6-3.5-6-15.3-6.2 8-3.9 15.1 1.2 5.9-5.9 14.1-2.6z"/>
			<path id="&lt;Path&gt;" class="s1" d="m367.7 277q7.2-5.1 15.1-1.2-11.7 0.2-15.3 6.2-2.8-7.1-13.8-7.6 8.2-3.3 14 2.6z"/>
			<path id="&lt;Path&gt;" class="s2" d="m254.7 121q7.1-5.1 15.1-1.1-11.8 0.2-15.3 6.1-2.8-7.1-13.9-7.5 8.2-3.3 14.1 2.5z"/>
		</g>
	</g>
</svg>