<svg version="1.2" xmlns="http://www.w3.org/2000/svg" viewBox="0 0 2178 1038" width="2178" height="1038">
	<title>Image Sourcing-01-ai</title>
	<style>
		.s0 { fill: #fff6de } 
		.s1 { fill: #ffe8ad } 
		.s2 { fill: #ffcf44 } 
		.s3 { fill: none;stroke: #000000;stroke-linecap: round;stroke-linejoin: round;stroke-width: 2.6 } 
		.s4 { fill: #00bbd6 } 
		.s5 { fill: #00a4a7 } 
		.s6 { fill: #bcebf1 } 
		.s7 { fill: #ffffff } 
		.s8 { fill: #fc6140 } 
		.s9 { fill: #d84315 } 
		.s10 { fill: #ff7043 } 
		.s11 { fill: #362d32 } 
		.s12 { fill: #b2a8ac } 
		.s13 { fill: #2c211f } 
		.s14 { fill: #000000 } 
		.s15 { fill: #e0bd9b } 
		.s16 { fill: #a39497 } 
		.s17 { fill: #3c3438 } 
		.s18 { fill: #674f58 } 
		.s19 { fill: #654c55 } 
		.s20 { fill: #8d7e83 } 
		.s21 { fill: #98878b } 
		.s22 { fill: #6b545d } 
		.s23 { fill: #fff8e1 } 

		#front-wheel,#back-wheel{
			transform-box:fill-box;
			transform-origin:center;
			animation: wheel 2s linear infinite;
		}
		 .sun3{
 		 animation: sun1 3s linear infinite ;
 		 animation-delay: 2s;
		}	
		.sun2{
		  animation: sun2 3s linear infinite ;
		  animation-delay: 3s;
		}
		.sun1{
 		 animation: sun3 3s linear infinite ;
		  animation-delay: 6s;
		} 
		 .sun4{
		  animation: sun4 3s ease infinite ;
		} 
		.cloud{
			transform-box: fill-box;
  			transform-origin: top;
  			animation: cloud 5s linear infinite ;
		}
		@keyframes wheel{
			from{
				transform: rotate(0deg);
			}
			to{
				transform: rotate(-360deg)
			}
		}
		@keyframes sun1 {
  0%{
    opacity: 0;
  }
  50%{
    opacity: 1;
  }
  100%{
    opacity: 0;
  }
}
@keyframes sun2 {
  0%{
    opacity: 0;
  }
  50%{
    opacity: 1;
  }
  100%{
    opacity: 0;
  }
}
@keyframes sun3 {
  0%{
    opacity: 0;
  }
  50%{
    opacity: 1;
  }
  100%{
    opacity: 0;
  } 
} 
 @keyframes sun4 {
  0%{
    opacity: 0;
  }
  100%{
    opacity: 1;
  }
} 
@keyframes cloud {
  0%{
   
    opacity: 0.5;
  } 
  5%{
    opacity: 1;
  }
  50%{
    opacity: 1; 
  }
  94%{
    opacity: 0.8;
  }
  95%{
    opacity: 0; 
  }
   100%{
	
    opacity: 0;
	}
	}

	</style>
	<g id="Layer 1">
		<g id="&lt;Group&gt;">
			<g id="&lt;Group&gt;">
				<path id="&lt;Path&gt;" class="s0 sun1" d="m1354.7 404.7c0 138-111.9 249.9-249.9 249.9-138 0-249.9-111.9-249.9-249.9 0-138.1 111.9-250 249.9-250 138 0 249.9 111.9 249.9 250z"/>
				<path id="&lt;Path&gt;" class="s1 sun2" d="m1303.5 404.7c0 109.7-88.9 198.7-198.7 198.7-109.8 0-198.7-89-198.7-198.7 0-109.8 88.9-198.8 198.7-198.8 109.8 0 198.7 89 198.7 198.8z"/>
				<path id="&lt;Path&gt;" class="s2 sun3" d="m1227.3 404.7c0 67.6-54.9 122.5-122.5 122.5-67.6 0-122.5-54.9-122.5-122.5 0-67.7 54.9-122.5 122.5-122.5 67.6 0 122.5 54.8 122.5 122.5z"/>
				<path id="&lt;Path&gt;" class="s3 sun4" d="m1188.6 404.7c0 46.3-37.5 83.8-83.8 83.8-46.3 0-83.8-37.5-83.8-83.8 0-46.3 37.5-83.8 83.8-83.8 46.3 0 83.8 37.5 83.8 83.8z"/>
			</g>
			<g id="&lt;Group&gt;">
				<path id="&lt;Path&gt;" class="s4" d="m129.4 888.1c102.4 0 193.2-247.2 351.2-181.4 157.9 65.9 232.2 62.4 386.6-52.1 154.4-114.6 138.5-278.1 417.4-200.6 278.9 77.5 215.4 61.2 358.5 186.6 143.1 125.3 122.5 171.9 242.8 122.7 120.2-49.2 202.1 125.6 202.1 125.6z"/>
				<g id="&lt;Group&gt;">
					<path id="&lt;Path&gt;" class="s5" d="m1921.4 769.1c0 45.7-37.1 82.8-82.9 82.8-45.8 0-82.9-37.1-82.9-82.8 0-31.5 17.5-58.9 43.4-72.9-7.2-8.8-11.5-20-11.5-32.1 0-28.2 22.9-51 51-51 28.2 0 51 22.8 51 51 0 12.1-4.3 23.3-11.5 32.1 25.9 14 43.4 41.4 43.4 72.9z"/>
					<path id="&lt;Path&gt;" class="s3" d="m1921.4 769.1c0 45.7-37.1 82.8-82.9 82.8-45.8 0-82.9-37.1-82.9-82.8 0-31.5 17.5-58.9 43.4-72.9-7.2-8.8-11.5-20-11.5-32.1 0-28.2 22.9-51 51-51 28.2 0 51 22.8 51 51 0 12.1-4.3 23.3-11.5 32.1 25.9 14 43.4 41.4 43.4 72.9z"/>
					<path id="&lt;Path&gt;" class="s3" d="m1838.5 888.9v-164"/>
					<path id="&lt;Path&gt;" class="s3" d="m1838.5 817.2l29-30.2"/>
					<path id="&lt;Path&gt;" class="s3" d="m1838.5 782.5l-14.8-11.7"/>
				</g>
			</g>
			<path id="&lt;Path&gt;" class="s4" d="m624.8 887.7v-575.9h229.5v575.9z"/>
			<path id="&lt;Path&gt;" class="s6" d="m854.3 311.8h74.7v575.9h-74.7"/>
			<path id="&lt;Path&gt;" class="s7" d="m624.8 311.8h304.2v41.7h-304.2z"/>
			<path id="&lt;Path&gt;" class="s3" d="m624.8 887.7v-575.9h229.5v575.9z"/>
			<path id="&lt;Path&gt;" class="s3" d="m854.3 311.8h74.7v575.9h-74.7"/>
			<path id="&lt;Path&gt;" class="s3" d="m624.8 353.5h304.2"/>
			<g id="&lt;Group&gt;">
				<path id="&lt;Path&gt;" class="s1" d="m778.1 390h28.8v106.3h-28.8z"/>
				<path id="&lt;Path&gt;" class="s1" d="m681 390h28.9v106.3h-28.9z"/>
			</g>
			<g id="&lt;Group&gt;">
				<path id="&lt;Path&gt;" class="s1" d="m778.1 550.3h28.8v106.2h-28.8z"/>
				<path id="&lt;Path&gt;" class="s1" d="m681 550.3h28.9v106.2h-28.9z"/>
			</g>
			<g id="&lt;Group&gt;">
				<path id="&lt;Path&gt;" class="s3" d="m778.1 390h28.8v106.3h-28.8z"/>
				<path id="&lt;Path&gt;" class="s3" d="m681 390h28.9v106.3h-28.9z"/>
			</g>
			<g id="&lt;Group&gt;">
				<path id="&lt;Path&gt;" class="s3" d="m778.1 550.3h28.8v106.2h-28.8z"/>
				<path id="&lt;Path&gt;" class="s3" d="m681 550.3h28.9v106.2h-28.9z"/>
			</g>
			<path id="&lt;Path&gt;" class="s3" d="m854.3 390h40.6"/>
			<path id="&lt;Path&gt;" class="s3" d="m854.3 445.2h40.6"/>
			<path id="&lt;Path&gt;" class="s3" d="m854.3 500.4h40.6"/>
			<path id="&lt;Path&gt;" class="s3" d="m854.3 555.6h40.6"/>
			<path id="&lt;Path&gt;" class="s3" d="m854.3 610.8h40.6"/>
			<path id="&lt;Path&gt;" class="s3" d="m854.3 666h40.6"/>
			<path id="&lt;Path&gt;" class="s3" d="m854.3 721.2h40.6"/>
			<path id="&lt;Path&gt;" class="s3" d="m854.3 776.4h40.6"/>
			<g id="&lt;Group&gt;">
				<path id="&lt;Path&gt;" class="s2" d="m1662.5 887.5v-569.5h143.6v569.5z"/>
				<path id="&lt;Path&gt;" class="s2" d="m1671.1 353.9l-106.5-132.7c0 0 5.4-7.3 6.1-7.3 0.6 0 123.2 0 123.2 0l1.8 1.1c0 0 101.7 94.9 104.9 98 3.3 3 5.5 9.2-9 15.9z"/>
				<path id="&lt;Path&gt;" class="s3" d="m1662.5 887.5v-569.5h143.6v569.5z"/>
				<path id="&lt;Path&gt;" class="s8" d="m1662.5 887.5h-210.1v-569.5l112.2-104.1 97.9 104.1z"/>
				<path id="&lt;Path&gt;" class="s3" d="m1662.5 887.5h-210.1v-569.5l112.2-104.1 97.9 104.1z"/>
				<path id="&lt;Path&gt;" class="s3" d="m1564.6 213.9h129.9l111.6 104.1"/>
			</g>
			<g id="&lt;Group&gt;">
				<path id="&lt;Path&gt;" class="s9" d="m768.6 834.8c0 0-28.2-4.5-50.3-11.3-22.1-6.9-30.7-11.3-31.6-12.7-0.9-1.4 9.3-14.7 9.3-14.7l-6.5-14.6 0.1-25.2 5.3-7.6-5-19.2 3.5-4.4c0 0-1.4-27.5 3.7-40.5 5.2-13.1 27.6-35.7 48.9-44.6 21.3-8.9 77.4-25.5 117.7-29.8 40.3-4.3 92.4-7.1 98.9-9 6.5-1.9 73.3-46.8 117.9-64.5 44.6-17.8 123-37 178.8-40.9 55.8-3.9 187.9 7.3 221.5 8.8 33.6 1.5 108.2 11.5 127.8 14 19.6 2.4 14.4 12.6 10.6 16.7-3.7 4.2-7.6 15.9 6.4 25.8 14 9.9 49.4 29.5 67.9 39.9 18.5 10.5 22.2 18.5 20.1 26-2 7.4-3.9 12.5-1.4 18.8 2.4 6.4-0.4 14.2-1.4 22-0.9 7.9-1.3 13.6 4.5 20.9 5.8 7.3 6 17.9 5.8 28.9-0.2 11.1-1.7 29.2-1.7 29.2 0 0 5.3 7.5 6.3 8.8 1 1.3 1.8 2.6 1.3 5.2-0.5 2.6-4.6 17.3-6.3 21.6-1.7 4.2-9.8 19.7-15.2 23.9-5.3 4.2-16.6 9.1-20.6 10.6-4 1.4-12.1 2.6-14.6 2.8-2.6 0.3-153.3-26.5-179.2-21.6-26 4.8-199.7 11.5-305.5 11.3-105.7-0.2-288.5 6.3-320.9 12.7-32.5 6.4-88.7 2.7-88.7 2.7z"/>
				<path id="&lt;Path&gt;" class="s10" d="m1349.4 681.5c-122.4 14.2-323.2 1-449.4-5-98.5-4.7-206.6 48.6-206.6 48.6 0 0-1.4-27.5 3.7-40.5 5.2-13.1 27.6-35.7 48.9-44.6 21.3-8.9 77.4-25.5 117.7-29.8 40.3-4.3 92.4-7.1 98.9-9 6.5-1.9 73.3-46.8 117.9-64.5 44.6-17.8 123-37 178.8-40.9 55.8-3.9 187.9 7.3 221.5 8.8 33.6 1.5 108.2 11.5 127.8 14 19.6 2.4 14.4 12.6 10.6 16.7-3.7 4.2-7.6 15.9 6.4 25.8 14 9.9 49.4 29.5 67.9 39.9 18.5 10.5 22.2 18.5 20.1 26 0 0-241.9 40.2-364.2 54.5z"/>
				<path id="&lt;Path&gt;" class="s11" d="m1473.7 549.4l26.2 35c0 0 14.4 21 15.1 21.6 0.7 0.6 0.4 2.6-2.5 2.5-3 0-9.3 1.3-9.3 1.3l-69.2 5.5-67.3 3.6-64.2 2.9-54.1 2.7-47.7 1.5-42 0.8-22.5 0.7-36.8 2.4c0 0-14.8 1.1-23.3 1.1-8.6 0-27.6-0.9-30.7-0.8-3.1 0.1-31.7-3.4-36.3-4.1-4.6-0.8-18.5-3.6-19.7-3.8-1.2-0.2-0.3-2-0.3-2 0 0 19.9-13 21.1-13.8 1.2-0.8 32.8-19.6 32.8-19.6l36.8-17.4 38.7-14.2 23.7-6.5c0 0 27.4-6.6 34.8-8.5 7.3-1.9 29.8-5.8 29.8-5.8 0 0 30.9-3.5 42.4-4.7 11.6-1.3 45.1-0.9 45.1-0.9l66.6 1.4 59.1 1.3 15.1 1.1c0 0 16.1 3.1 21.7 4.6 5.6 1.4 12.7 3.8 19 6.8z"/>
				<path id="&lt;Path&gt;" class="s12" d="m1240.8 530.4c0 0-27.2 3.6-39.4 4.9-12.2 1.3-44.2 9.6-44.2 9.6l-46 13.1c0 0-27.9 10.1-35.1 12.6-7.3 2.6-42.4 21.2-42.4 21.2l-17.2 11.3-15.9 10c0 0-10.2 6.2-12 7.5-1.7 1.4-4.4 1-5.9 0.2-1.4-0.9-0.2-1.3 2.2-2.9 2.5-1.6 14.4-8.7 17.6-10.9 3.2-2.1 12.9-8.3 15.8-10.1 2.8-1.7 13.4-8 15.7-9.8 2.3-1.8 12.8-7.9 16-9.5 3.2-1.5 14.5-7 18-8.8 3.6-1.8 15.7-5.5 20.5-7.7 4.9-2.1 14.1-5.5 19.6-7.4 5.6-1.9 13.8-4.4 20.4-6.3 6.6-1.8 13.8-4.7 18.4-6 4.6-1.3 13.4-3.6 19.3-5.3 5.8-1.7 13.5-3.4 17.5-4.1 4-0.7 13.6-2.4 17-3.1 3.3-0.7 15.6-2.7 18.9-3.1 3.3-0.4 14.1-2.1 18-2.7 3.9-0.5 17-2 20.5-1.5 3.5 0.5 1.6 2.5 1 4.9-0.5 2.4-0.9 1.9-3.3 2.6z"/>
				<path id="&lt;Path&gt;" class="s12" d="m1558.2 589.7c0.9 1.7-0.2 2.2-2.2 0.4-1.9-1.7-11.2-8.1-14-10.1-2.8-2-24.3-16.6-26.7-18.5-2.5-1.8-23.2-12.3-24.7-13.1-1.5-0.8-12.2-4.6-20.3-7.1-8.1-2.5-28.6-7.2-35.8-8.7-7.2-1.4-29.6-1.3-29.6-1.3l-32.9-0.5-33.7-0.8-28.5-0.5c0 0-8.7-0.3-10.5-0.6-1.9-0.3-2.5-2.6-1.8-5.1 0.8-2.4 2.1-1.9 5.9-2.1 3.7-0.1 13.4 0.4 18.3 0.4 4.9 0 25.6-0.4 29.2-0.4 3.5 0 25 0.8 28.8 0.8 3.8 0 24.9 1.1 29.1 1.5 4.1 0.5 19.2 1.2 22.9 1.6 3.7 0.5 16.5 1.3 19.9 1.9 3.4 0.5 7.7 1.7 13.2 3.2 5.6 1.5 18 5.8 24 8.8 5.9 3 22.6 10.4 24.8 11.7 2.2 1.3 7.3 4.1 10.8 6.1 3.5 1.9 11.2 7.6 14.1 9.6 2.9 1.9 8.8 7.6 10.6 9.7 1.8 2 5.3 6.2 7.3 9.3 0 0 0.9 2.1 1.8 3.8z"/>
				<path id="&lt;Path&gt;" class="s13" d="m1237.4 625c-0.9-0.1-1.3-1.6-1.3-1.6 0 0 23.2-97.6 23.4-99.6 0.3-2 3.3-1.9 3.4-1.9 0 0 10-0.3 10-0.3 0 0 21.2-0.1 22.7-0.1 1.6 0 1.9 1.5 1.9 1.6 0.1 0.1-2.3 20-2.3 20l-7.7 70.8c0 0-0.5 5.2-0.6 6.7-0.1 1.6-1.6 2.6-1.8 2.6-0.3 0-3.3-0.2-3.3-0.2 0 0-43.5 2-44.4 2z"/>
				<path id="&lt;Path&gt;" class="s13" d="m1558 591.9c1.7 2 0.7 4-0.5 4.9-1.2 0.9-1.2 0.7-10.9 4.5-9.7 3.8-25.2 6.5-25.6 6.6-0.4 0.1-4.8 0.6-4.9 0.6-0.1 0-1.1-2.7-2.4-4.1-1.3-1.3-17.6-25.3-17.6-25.3l-13.9-18.9c0 0-13.1-17.1-13.8-17.9-0.6-0.8 2.8-0.9 2.8-0.9 0 0 13.8 5.2 17.3 6.6 3.5 1.4 12.3 5.4 17 7.8 4.8 2.4 14.3 8.5 21.6 13.3 7.3 4.9 22.9 16.6 22.9 16.6 0 0 6.2 4.2 8 6.2z"/>
				<path id="&lt;Path&gt;" class="s14" d="m1684.6 601.6c-9.5 0.3-20.3-0.7-26.5-2.5-6.2-1.8-12.3-3.3-16.2-6.3-3.9-2.9-14.7-9-14.7-9l-27.6-19.2-22.7-16.8-2.1-1.6 1-1.5c0 0 13-4 19.7-5.8 6.8-1.8 17.3-5.9 20.4-7.4 3.1-1.5 3.8-2 4.8-2.7 1-0.7 2-1.2 1.8 0.2-0.2 1.3-0.8 3.5-1.9 5-1 1.4-3 3.5-3.7 7.1-0.7 3.6-1 4.9-0.2 7.5 0.8 2.6 2 5.2 3.6 7.3 1.5 2.1 8.1 7.5 11.6 9.4 3.5 1.9 13.5 8.3 16.7 10.1 3.1 1.9 16 9.1 18.7 10.9 2.7 1.8 16.1 8.3 19.8 10.8 3.8 2.5 5 4.3 3.3 4.4z"/>
				<path id="&lt;Path&gt;" class="s15" d="m1702.5 650.9c-2.1 0.7-2.5 0.6-4.8 0.7-2.2 0.1-28.7 0-30.7 0-2 0-3-0.1-3.8-0.3-0.9-0.3-6.5-3.6-8.5-4.6-1.9-1-0.3-2.1 1.1-4.1 1.5-1.9 18.7-17.4 20.4-19.4 1.7-2.1 2.7-2.6 5.3-3.4 2.7-0.7 25.1-3.8 27.4-4 2.3-0.3 4.1 1.8 4.8 4.1 0.6 2.4 0.4 4.2 0.2 6-0.3 1.9-2 7.5-2.4 11.1-0.4 3.6 0.2 7.5 0.5 9.2 0.2 1.7-0.7 1.9-3.1 2.8 0 0-4.3 1.2-6.4 1.9z"/>
				<path id="&lt;Path&gt;" class="s14" d="m917.5 870.9c-2.9 1.3-6.2 2.6-5.8 1.6 0.5-1 4.1-3.2 8-6.7 3.8-3.5 12.3-13.3 17.2-20.6 4.9-7.4 9.1-20.9 9.8-24 0.8-3 1.8-1.9 1.8-1.9 0 0 3.1 2 4.6 3 1.4 0.9 4 2.5 4 4.6 0 2-3.6 10-7.5 15.8-4 5.9-12.1 15.1-17.2 19.1 0 0-12 7.7-14.9 9.1z"/>
				<path id="&lt;Path&gt;" class="s16" d="m1726.5 756.4c1.5 2.1 0.4 5.1 0 7-0.4 1.9-1.9 9.8-4.9 16.5-2.9 6.8-8.1 17.2-10.8 20.5-2.6 3.4-14.6 12.4-24 15.8-9.3 3.5-26.8 4.4-32.4 5.5-5.6 1.2-14.9-0.6-16.4-0.7-1.4-0.2-21.9-5.5-21.9-5.5l-162.2 21.5-5.6 2.1-34.7-2.7h-70.1-164.7l-98.9 0.5-93.8-0.5c0 0-17.7 0.7-18.9 0.4-1.3-0.4-2.3-4-2.3-4 0 0-3.6-11.9-4.4-13.7-0.8-1.7-16-8-19-7.5-2.9 0.6-143.8 19.6-143.8 19.6 0 0-23.4 7.3-25.2 7.3-1.9 0.1-2.7-1.7-3.3-2.9-0.5-1.1-10.4-2.4-14.7-3.3-4.4-1-28.7-6.6-31.8-7.5-3.1-0.9-18.1-5.9-21.2-6.9-3-1.1-13.2-5.5-14.4-6.2-1.1-0.7-0.2-1 0.5-3 0.7-2.1 5.2-8.4 6.4-10.1 1.3-1.6 1.2-1.5 1.4-3.3 0.2-1.9-0.9-3.9-2-5.5-1.1-1.7-0.4-1.9 0.6-2 1.1-0.1 2.6 1.1 7.6 2.4 4.9 1.4 13 2 14 2.6 1 0.6 10.1 7.7 12.8 9.8 2.6 2.1 2.8 1.1 5 1.7 2.3 0.5 5.2 1.4 8.8 2.6 3.7 1.2 4.1 1 3.9-1.1-0.2-2.1 0.1-5.9 0.9-11.4 0.9-5.4 1.7-12.8 2.8-16.9 1.1-4.2 7.1-18.7 8.7-22 1.5-3.3 7.4-13 10.4-16.7 2.9-3.7 9.8-11.8 13.3-15.9 3.6-4 14.5-12 17.3-13.9 2.7-1.8 13.4-6.9 17.1-9.3 3.6-2.4 16.2-5.9 18.4-6.5 2.3-0.6 13.6-2.6 17.3-3.3 3.6-0.7 12.4-0.4 18.2-0.3 5.8 0.2 16.4 1.4 18.5 2.1 2.1 0.7 11.4 3.3 16.7 5.1 5.4 1.8 17.6 7.8 19.7 9.4 2.1 1.5 8.2 4.9 12.9 9 4.8 4.1 15.5 13.9 18.4 18.1 2.8 4.3 11.2 15.7 13.1 20 1.9 4.3 5.9 13.3 7.7 18.4 1.8 5.2 4 16.9 4.7 21.8 0.7 4.8-2.3 8.4-2.3 8.4l24-4.3c0 0 102.7-6.7 102.9-6.7 0.1 0 98-5.9 98-5.9l62.9-4.2 36.5-1.9c0 0 24-1.8 26-1.9 2-0.1 10.3 0.3 13.1 0.7 2.8 0.3 49.1 9.3 49.1 9.3 0 0 32.7 6.6 35 6.8 2.4 0.2 2.6 0.2 2.8-1.2 0.2-1.5 0.3-5.1 1-8.6 0.6-3.4 2.8-11.6 7.4-22.4 4.6-10.7 11.1-19.5 15.9-26.2 4.8-6.6 13-15.3 21.8-21.5 8.8-6.3 17.1-11.3 26.9-14.9 9.7-3.6 24.3-7.2 32.9-7.9 8.6-0.7 26 0.6 38 3.6 11.9 3 24.6 9.4 32.1 13.6 7.5 4.3 15.6 12.3 20.5 16.1 4.9 3.9 14.1 15.8 16.4 19.5 2.3 3.7 8.9 17.5 9.4 18.8 0.6 1.2 1.8 3.9 2.3 3.7 0.5-0.1 1.3-0.3 1.3-0.3l4.6-1.2c0 0 24.4-8 26-8.3 1.7-0.3 6.5 0.4 8.5 0 2-0.3 12.7-3.1 15.4-4.5 2.6-1.4 8.8-5.3 8.8-5.3l3.5 5.3c0 0 2.1 2.3 3.6 4.3z"/>
				<path id="&lt;Path&gt;" class="s14" d="m1460.1 824.1c0.9-2.9 11.3 1 19.6 12.6 8.3 11.6 11.7 20.2 18.7 25.3 7.1 5.1 32.6 22.2 31.4 22.5-1.3 0.3-14.8-0.2-23.8-4.4-9.1-4.2-15-8.3-20.7-12.4-5.7-4.2-17.9-16.1-19.6-18.7-1.7-2.7-6.6-8.1-7.4-9.9-0.8-1.8-0.5-1.3 0.4-3.9 0 0 0.6-8.2 1.4-11.1z"/>
				<path id="&lt;Path&gt;" class="s14" d="m943.5 816.6c-1.5-1.2-1.3 7.1-3.2 0.4-1.9-6.6-3.9-32-13-50.9-9.2-18.8-29.3-28.6-47.5-37.4-18.1-8.9-44.6 4.2-66.2 20-21.5 15.8-14.2 28.3-18.8 48.3-4.6 20-5.4 36.2-5.4 36.2l-5.9 2.4c0 0-9.2 3-11.3 3.5-2.2 0.5-2.2-1-3.9-4.9-1.6-4-3.4-13.4-4.2-17.9-0.7-4.5-1.9-18.6-0.5-25.5 1.5-6.9 4.1-19 5-21.6 0.8-2.6 2.3-7.2 5.4-12.8 3.1-5.5 10.9-17 12.8-19.2 1.8-2.3 6.1-6.7 10.3-10.7 4.3-4 22.2-15 24.8-16.2 2.6-1.3 7.1-3 12-4.7 4.9-1.7 9.7-2.6 14.1-3.4 4.4-0.8 17.8-2.4 22.5-2 4.6 0.3 26.1 5.7 27.9 6.4 1.8 0.6 10.6 4.4 14 6.1 3.5 1.8 9.4 5.1 15.5 10.1 6.1 5.1 16.1 16.1 21 22.2 4.9 6.2 10.9 21.4 12.7 26.4 1.7 5.1 4.7 21 4.8 24 0.1 3.1-1.3 23.4-1.5 25.6-0.2 2.3-2.9 2.6-6.1 3.4-3.2 0.8-4.3-1.2-6.2-2.4 0 0-7.6-4.3-9.1-5.4z"/>
				<path id="&lt;Path&gt;" class="s14" d="m1467 833.1c0 0.9-0.9 2-0.9 2 0 0-12.7 3.3-13.6 3.5-0.9 0.2-1.9-0.2-1.8-0.5 0-0.2-1.2-2.6-3.1-8.2-1.9-5.6-3.1-15.7-4-22.1-0.9-6.3 0.6-19.6 1.9-24.8 1.3-5.2 4.3-15.4 5.4-18.4 1.2-3 8.2-17.6 9.9-19.4 1.6-1.8 6.5-6.9 9.6-11.4 3-4.5 12.6-11.6 14.1-12.8 1.5-1.1 8.3-5.5 11.3-7.3 3.1-1.8 11.4-5.5 14.3-6.6 2.9-1.1 16.6-5.2 20.2-5.1 3.5 0 13.4-1.4 19.7-1.4 6.3 0 18.2 3.4 28.5 5.8 10.2 2.3 29.7 15.7 36.6 22.2 6.9 6.5 15.5 17.7 19.8 25.7 4.3 8.1 8.4 20.9 9.7 25.8 1.2 4.9 3 22.1 3 22.5 0 0.3-2.1 19.3-2.1 19.3l-1.4 1.3-6.8 1.4c0 0-6.1-3.6-7.3-4.7-1.2-1.1-1.6-2.8-1.6-2.8 0 0-161.4 15-161.4 16z"/>
				<g id="back-wheel">
					<path id="&lt;Path&gt;" class="s17" d="m1629.2 802.6c0 46.3-37.5 83.8-83.8 83.8-46.3 0-83.8-37.5-83.8-83.8 0-46.3 37.5-83.9 83.8-83.9 46.3 0 83.8 37.6 83.8 83.9z"/>
					<path id="&lt;Path&gt;" class="s13" d="m1609.9 802.6c0 35.6-28.8 64.5-64.5 64.5-35.6 0-64.5-28.9-64.5-64.5 0-35.7 28.9-64.6 64.5-64.6 35.7 0 64.5 28.9 64.5 64.6z"/>
					<path id="&lt;Path&gt;" class="s18" d="m1570.2 802.6c0 13.6-11.1 24.7-24.8 24.7-13.7 0-24.7-11.1-24.7-24.7 0-13.7 11-24.8 24.7-24.8 13.7 0 24.8 11.1 24.8 24.8z"/>
					<path id="&lt;Path&gt;" class="s3" d="m1570.2 802.6c0 13.6-11.1 24.7-24.8 24.7-13.7 0-24.7-11.1-24.7-24.7 0-13.7 11-24.8 24.7-24.8 13.7 0 24.8 11.1 24.8 24.8z"/>
					<path id="&lt;Path&gt;" class="s19" d="m1551 802.6c0 3-2.5 5.5-5.6 5.5-3.1 0-5.6-2.5-5.6-5.5 0-3.1 2.5-5.6 5.6-5.6 3.1 0 5.6 2.5 5.6 5.6z"/>
					<path id="&lt;Path&gt;" class="s3" d="m1551 802.6c0 3-2.5 5.5-5.6 5.5-3.1 0-5.6-2.5-5.6-5.5 0-3.1 2.5-5.6 5.6-5.6 3.1 0 5.6 2.5 5.6 5.6z"/>
					<g id="&lt;Group&gt;">
						<path id="&lt;Path&gt;" class="s20" d="m1523.3 862.8l18.9-45.2c1.2-2.8 5.2-2.8 6.4 0l18.9 45.2c0 0-13.1 4.9-22.1 4.3-9-0.6-13.3-1.9-16.5-2.5-3.3-0.6-5.6-1.8-5.6-1.8z"/>
						<path id="&lt;Path&gt;" class="s3" d="m1523.3 862.8l18.9-45.2c1.2-2.8 5.2-2.8 6.4 0l18.9 45.2"/>
					</g>
					<g id="&lt;Group&gt;">
						<path id="&lt;Path&gt;" class="s20" d="m1586.5 851.8l-29.7-38.9c-1.8-2.5 0.2-6 3.3-5.6l48.5 6.2c0 0-2.3 13.9-7.3 21.3-5 7.5-8.3 10.6-10.4 13.1-2.2 2.5-4.4 3.9-4.4 3.9z"/>
						<path id="&lt;Path&gt;" class="s3" d="m1586.5 851.8l-29.7-38.9c-1.8-2.5 0.2-6 3.3-5.6l48.5 6.2"/>
					</g>
					<g id="&lt;Group&gt;">
						<path id="&lt;Path&gt;" class="s20" d="m1608.6 791.6l-48.5 6.2c-3.1 0.4-5.1-3.1-3.3-5.5l29.7-39c0 0 10.8 8.9 14.8 17 4 8.1 5 12.5 6.1 15.6 1.1 3.1 1.2 5.7 1.2 5.7z"/>
						<path id="&lt;Path&gt;" class="s3" d="m1608.6 791.6l-48.5 6.2c-3.1 0.4-5.1-3.1-3.3-5.5l29.7-39"/>
					</g>
					<g id="&lt;Group&gt;">
						<path id="&lt;Path&gt;" class="s20" d="m1567.5 742.4l-18.9 45.1c-1.2 2.9-5.2 2.9-6.4 0l-18.9-45.1c0 0 13.1-5 22.1-4.4 9 0.7 13.3 1.9 16.6 2.5 3.2 0.6 5.5 1.9 5.5 1.9z"/>
						<path id="&lt;Path&gt;" class="s3" d="m1567.5 742.4l-18.9 45.1c-1.2 2.9-5.2 2.9-6.4 0l-18.9-45.1"/>
					</g>
					<g id="&lt;Group&gt;">
						<path id="&lt;Path&gt;" class="s20" d="m1504.3 753.3l29.7 39c1.9 2.4-0.2 5.9-3.2 5.5l-48.6-6.2c0 0 2.3-13.8 7.3-21.3 5.1-7.5 8.3-10.6 10.5-13.1 2.1-2.5 4.3-3.9 4.3-3.9z"/>
						<path id="&lt;Path&gt;" class="s3" d="m1504.3 753.3l29.7 39c1.9 2.4-0.2 5.9-3.2 5.5l-48.6-6.2"/>
					</g>
					<g id="&lt;Group&gt;">
						<path id="&lt;Path&gt;" class="s20" d="m1482.2 813.5l48.6-6.2c3-0.4 5.1 3.1 3.2 5.6l-29.7 38.9c0 0-10.8-8.9-14.8-17-3.9-8.1-5-12.4-6.1-15.5-1.1-3.1-1.2-5.8-1.2-5.8z"/>
						<path id="&lt;Path&gt;" class="s3" d="m1482.2 813.5l48.6-6.2c3-0.4 5.1 3.1 3.2 5.6l-29.7 38.9"/>
					</g>
					<path id="&lt;Path&gt;" class="s3" d="m1609.9 802.6c0 35.6-28.8 64.5-64.5 64.5-35.6 0-64.5-28.9-64.5-64.5 0-35.7 28.9-64.6 64.5-64.6 35.7 0 64.5 28.9 64.5 64.6z"/>
					<path id="&lt;Path&gt;" class="s3" d="m1629.2 802.6c0 46.3-37.5 83.8-83.8 83.8-46.3 0-83.8-37.5-83.8-83.8 0-46.3 37.5-83.9 83.8-83.9 46.3 0 83.8 37.6 83.8 83.9z"/>
				</g>
				<g id="front-wheel">
					<path id="&lt;Path&gt;" class="s17" d="m948.5 802.6c0 46.3-37.5 83.8-83.8 83.8-46.3 0-83.8-37.5-83.8-83.8 0-46.3 37.5-83.9 83.8-83.9 46.3 0 83.8 37.6 83.8 83.9z"/>
					<path id="&lt;Path&gt;" class="s13" d="m929.2 802.6c0 35.6-28.9 64.5-64.5 64.5-35.6 0-64.5-28.9-64.5-64.5 0-35.7 28.9-64.6 64.5-64.6 35.6 0 64.5 28.9 64.5 64.6z"/>
					<path id="&lt;Path&gt;" class="s18" d="m889.4 802.6c0 13.6-11 24.7-24.7 24.7-13.7 0-24.8-11.1-24.8-24.7 0-13.7 11.1-24.8 24.8-24.8 13.7 0 24.7 11.1 24.7 24.8z"/>
					<path id="&lt;Path&gt;" class="s3" d="m889.4 802.6c0 13.6-11 24.7-24.7 24.7-13.7 0-24.8-11.1-24.8-24.7 0-13.7 11.1-24.8 24.8-24.8 13.7 0 24.7 11.1 24.7 24.8z"/>
					<path id="&lt;Path&gt;" class="s19" d="m870.3 802.6c0 3-2.5 5.5-5.6 5.5-3.1 0-5.6-2.5-5.6-5.5 0-3.1 2.5-5.6 5.6-5.6 3.1 0 5.6 2.5 5.6 5.6z"/>
					<path id="&lt;Path&gt;" class="s3" d="m870.3 802.6c0 3-2.5 5.5-5.6 5.5-3.1 0-5.6-2.5-5.6-5.5 0-3.1 2.5-5.6 5.6-5.6 3.1 0 5.6 2.5 5.6 5.6z"/>
					<g id="&lt;Group&gt;">
						<path id="&lt;Path&gt;" class="s20" d="m842.6 862.8l18.9-45.2c1.2-2.8 5.2-2.8 6.4 0l18.9 45.2c0 0-13.1 4.9-22.1 4.3-9-0.6-13.3-1.9-16.6-2.5-3.2-0.6-5.5-1.8-5.5-1.8z"/>
						<path id="&lt;Path&gt;" class="s3" d="m842.6 862.8l18.9-45.2c1.2-2.8 5.2-2.8 6.4 0l18.9 45.2"/>
					</g>
					<g id="&lt;Group&gt;">
						<path id="&lt;Path&gt;" class="s20" d="m905.8 851.8l-29.7-38.9c-1.9-2.5 0.2-6 3.2-5.6l48.6 6.2c0 0-2.3 13.9-7.3 21.3-5.1 7.5-8.3 10.6-10.4 13.1-2.2 2.5-4.4 3.9-4.4 3.9z"/>
						<path id="&lt;Path&gt;" class="s3" d="m905.8 851.8l-29.7-38.9c-1.9-2.5 0.2-6 3.2-5.6l48.6 6.2"/>
					</g>
					<g id="&lt;Group&gt;">
						<path id="&lt;Path&gt;" class="s20" d="m927.9 791.6l-48.6 6.2c-3 0.4-5.1-3.1-3.2-5.5l29.7-39c0 0 10.8 8.9 14.8 17 3.9 8.1 5 12.5 6.1 15.6 1.1 3.1 1.2 5.7 1.2 5.7z"/>
						<path id="&lt;Path&gt;" class="s3" d="m927.9 791.6l-48.6 6.2c-3 0.4-5.1-3.1-3.2-5.5l29.7-39"/>
					</g>
					<g id="&lt;Group&gt;">
						<path id="&lt;Path&gt;" class="s20" d="m886.8 742.4l-18.9 45.1c-1.2 2.9-5.2 2.9-6.4 0l-18.9-45.1c0 0 13.1-5 22.1-4.4 9 0.7 13.3 1.9 16.5 2.5 3.3 0.6 5.6 1.9 5.6 1.9z"/>
						<path id="&lt;Path&gt;" class="s3" d="m886.8 742.4l-18.9 45.1c-1.2 2.9-5.2 2.9-6.4 0l-18.9-45.1"/>
					</g>
					<g id="&lt;Group&gt;">
						<path id="&lt;Path&gt;" class="s20" d="m823.6 753.3l29.7 39c1.8 2.4-0.2 5.9-3.2 5.5l-48.6-6.2c0 0 2.3-13.8 7.3-21.3 5-7.5 8.3-10.6 10.4-13.1 2.2-2.5 4.4-3.9 4.4-3.9z"/>
						<path id="&lt;Path&gt;" class="s3" d="m823.6 753.3l29.7 39c1.8 2.4-0.2 5.9-3.2 5.5l-48.6-6.2"/>
					</g>
					<g id="&lt;Group&gt;">
						<path id="&lt;Path&gt;" class="s20" d="m801.5 813.5l48.6-6.2c3-0.4 5 3.1 3.2 5.6l-29.7 38.9c0 0-10.8-8.9-14.8-17-4-8.1-5-12.4-6.1-15.5-1.1-3.1-1.2-5.8-1.2-5.8z"/>
						<path id="&lt;Path&gt;" class="s3" d="m801.5 813.5l48.6-6.2c3-0.4 5 3.1 3.2 5.6l-29.7 38.9"/>
					</g>
					<path id="&lt;Path&gt;" class="s3" d="m929.2 802.6c0 35.6-28.9 64.5-64.5 64.5-35.6 0-64.5-28.9-64.5-64.5 0-35.7 28.9-64.6 64.5-64.6 35.6 0 64.5 28.9 64.5 64.6z"/>
					<path id="&lt;Path&gt;" class="s3" d="m948.5 802.6c0 46.3-37.5 83.8-83.8 83.8-46.3 0-83.8-37.5-83.8-83.8 0-46.3 37.5-83.9 83.8-83.9 46.3 0 83.8 37.6 83.8 83.9z"/>
				</g>
				<path id="&lt;Path&gt;" class="s3" d="m1467.8 834.3l-16.6 4.8c-7.2-13.5-7.6-36.5-7.6-36.5 0-56.2 45.6-101.8 101.7-101.8 56.2 0 101.8 45.6 101.8 101.8l-1.7 20.2-7.7 2-10-6.4"/>
				<path id="&lt;Path&gt;" class="s3" d="m787.2 834.3l-16.7 4.8c-7.1-13.5-7.5-36.5-7.5-36.5 0-56.2 45.5-101.8 101.7-101.8 56.2 0 101.7 45.6 101.7 101.8l-1.6 20.2-7.7 2-10-6.4"/>
				<path id="&lt;Path&gt;" class="s3" d="m693.4 787.7l22.9 5.3 13.5 10.7 16.5 4.2c0-65.4 53-118.4 118.4-118.4 62.1 0 113 47.8 118 108.6"/>
				<path id="&lt;Path&gt;" class="s16" d="m1723.6 774.1l-15.5 9.6-30-1.2c8-10.1 49.3-24.8 49.3-24.8"/>
				<path id="&lt;Path&gt;" class="s3" d="m1456.6 837.5c0 0 33.2 48.9 73.9 47.6"/>
				<path id="&lt;Path&gt;" class="s3" d="m1654.1 766.7l35-10.6c13.5 2.8 30.3-9.3 30.3-9.3l8 10.9c0 0-1.5 14.7-10.9 34.3-9.4 19.7-36.8 26.7-36.8 26.7l-34.3 4.1"/>
				<path id="&lt;Path&gt;" class="s21" d="m1003.2 809.4l7.6-5.7 325.3-20.2 66.9 13.5z"/>
				<path id="&lt;Path&gt;" class="s3" d="m982.7 798.1l345.3-21c6.3-0.4 12.7 0 18.9 1.2l83.1 16c6.4-58.1 55.6-103.2 115.3-103.2 49.9 0 92.4 31.4 108.8 75.6"/>
				<path id="&lt;Path&gt;" class="s3" d="m1003.2 809.4l7.6-5.7 325.3-20.2 66.9 13.5z"/>
				<path id="&lt;Path&gt;" class="s22" d="m1430.5 817c0 0-29 12.5-52 12.5-23.1 0-353.7 0-365.6 0-11.9 0-34.9-7-34.9-7z"/>
				<path id="&lt;Path&gt;" class="s3" d="m1430.5 817c0 0-29 12.5-52 12.5-23.1 0-353.7 0-365.6 0-11.9 0-34.9-7-34.9-7z"/>
				<path id="&lt;Path&gt;" class="s3" d="m1451.2 839.1l-36.7-2.7h-448.5l-3.8-12"/>
				<path id="&lt;Path&gt;" class="s3" d="m1723.6 774.1l-15.5 9.6-30-1.2c8-10.1 49.3-24.8 49.3-24.8"/>
				<path id="&lt;Path&gt;" class="s3" d="m957.1 824.8c0 0-5.1 40.9-72.3 59.2"/>
				<path id="&lt;Path&gt;" class="s3" d="m768.6 834.8c0 0-28.2-4.5-50.3-11.3-22.1-6.9-30.7-11.3-31.6-12.7-0.9-1.4 9.3-14.7 9.3-14.7l-6.5-14.6 0.1-25.2 5.3-7.6-5-19.2 3.5-4.4c0 0-1.4-27.5 3.7-40.5 5.2-13.1 27.6-35.7 48.9-44.6 21.3-8.9 77.4-25.5 117.7-29.8 40.3-4.3 92.4-7.1 98.9-9 6.5-1.9 73.3-46.8 117.9-64.5 44.6-17.8 123-37 178.8-40.9 55.8-3.9 187.9 7.3 221.5 8.8 33.6 1.5 108.2 11.5 127.8 14 19.6 2.4 14.4 12.6 10.6 16.7-3.7 4.2-7.6 15.9 6.4 25.8 14 9.9 49.4 29.5 67.9 39.9 18.5 10.5 22.2 18.5 20.1 26-2 7.4-3.9 12.5-1.4 18.8 2.4 6.4-0.4 14.2-1.4 22-0.9 7.9-1.3 13.6 4.5 20.9 5.8 7.3 6 17.9 5.8 28.9-0.2 11.1-1.7 29.2-1.7 29.2"/>
				<path id="&lt;Path&gt;" class="s3" d="m1596.1 702.8l82-81.9 33.6-5.1"/>
				<path id="&lt;Path&gt;" class="s3" d="m1711.7 647.7l-11.2 3.9h-36.3l-11.1-5.8"/>
				<path id="&lt;Path&gt;" class="s3" d="m1693.5 601c0 0-28.6 3.8-49.7-7.1-21.1-11-70.2-48.6-70.2-48.6 0 0 41.1-10.1 49.1-18.5"/>
				<path id="&lt;Path&gt;" class="s3" d="m1514.9 507.3c0 0 36.5 8.8 46.1 18 9.5 9.3 12.6 20 12.6 20"/>
				<path id="&lt;Path&gt;" class="s3" d="m1488.8 504.3c0 0 24.6-7.6 35.1-8.4 0 0-2.4 10.5 2.2 12.6"/>
				<path id="&lt;Path&gt;" class="s3" d="m1246.3 782.2c0 0-2.4-47.9 3.5-92.7 5.9-44.9 13-67.4 13-67.4l16.2-100.3"/>
				<path id="&lt;Path&gt;" class="s15" d="m760.5 665.8c2.2-0.2 2.7 0.5 1.7 2.5-1 1.9-11.4 10.7-12.6 12-1.1 1.2-4.1 3.5-4.1 3.5l-7.6-0.3c0 0-5.3 8.9-6.9 11.4-1.6 2.4-8.4 12.4-11.6 14.6-3.2 2.2-7.2 4.8-10.6 4.6-3.4-0.2-3.6-2.1-5.3-5.5-1.6-3.4-4.6-20.3-5-23.3-0.4-3 0.6-3.7 2.1-7.2 1.4-3.5 7.8-9.4 9-11 1.3-1.5 3.4-1.6 3.4-1.6l38.4 0.3c0 0 6.9 0.2 9.1 0z"/>
				<path id="&lt;Path&gt;" class="s3" d="m994.4 797.4c0 0 0.6-53.2 0-101-0.7-47.7 8.2-71.8 8.2-71.8"/>
				<path id="&lt;Path&gt;" class="s3" d="m792.9 713.7l-38.3-38.7c9.7-12.5 25-16.6 52.6-22 27.6-5.4 76-9.3 102.4-10.2 26.5-0.9 47.1-22.2 47.1-22.2"/>
				<path id="&lt;Path&gt;" class="s3" d="m710.7 665.5l54.3 0.3"/>
				<path id="&lt;Path&gt;" class="s3" d="m754.6 675l-8 8.5h-8.7c0 0-12.3 22.2-19.7 26.9-7.3 4.7-12.4 5.9-14.8-2.3-2.5-8.2-4.6-18.6-5.2-25.9"/>
				<path id="&lt;Path&gt;" class="s3" d="m1119.1 523.5l20 10.1c0 0-19.1 6.1-53.6 20-34.5 14-86.1 47-106.8 59.5-20.8 12.5-52.2 8.1-50.8 1.3 1.5-6.7 9.1-10.5 9.1-10.5"/>
				<path id="&lt;Path&gt;" class="s3" d="m1466.7 540.2c0 0 57 71.6 65.4 97.8 8.4 26.3 0 53.9 0 53.9"/>
				<g id="&lt;Group&gt;">
					<path id="&lt;Path&gt;" class="s3" d="m1240.1 668.1l-53.2 1.1-3-4.3 4.3-5.8 49.5-2.5 6.3 5.3z"/>
					<path id="&lt;Path&gt;" class="s3" d="m1223.7 668.4l-4.7 6.7h-16.8l-4.5-6.1"/>
					<path id="&lt;Path&gt;" class="s3" d="m1199.1 658.5l6.6-6.5h15.7l3.7 5.2"/>
				</g>
				<g id="&lt;Group&gt;">
					<path id="&lt;Path&gt;" class="s3" d="m1509.5 657.9l-53.2 1.1-3-4.3 4.3-5.8 49.6-2.6 6.2 5.4z"/>
					<path id="&lt;Path&gt;" class="s3" d="m1493.1 658.2l-4.6 6.7h-16.8l-4.6-6.1"/>
					<path id="&lt;Path&gt;" class="s3" d="m1468.5 648.3l6.7-6.5h15.6l3.7 5.2"/>
				</g>
				<path id="&lt;Path&gt;" class="s3" d="m1425.6 615.8c-44.9 2.4-193.4 10.4-237.7 10.4-44.2 0-88.4 4.5-119.9 5-31.5 0.6-87.8-10.6-87.8-10.6 0 0 51.3-32.7 76.8-46 25.6-13.3 73.1-28.5 101.2-36.3 28.1-7.7 80.7-16.5 93.7-16.5 13.1 0 62.7-0.5 83.5 0 20.7 0.4 95.1 2.2 117.6 6.1 22.5 4 51.3 18.1 70.9 29.1 19.7 11 40.6 34.9 34.3 39.3-6.4 4.4-27.2 9.6-38.7 11.9 0 0-49 5.1-93.9 7.6z"/>
				<path id="&lt;Path&gt;" class="s3" d="m1297.5 528.9c0 0 98.8 2.7 123.4 2.7 24.5 0 59.4 11.9 81.2 22.4 21.7 10.5 57.2 38.9 57.2 38.9"/>
				<path id="&lt;Path&gt;" class="s3" d="m1297.5 521.6l-11 101.2"/>
				<path id="&lt;Path&gt;" class="s3" d="m1260.3 521.8l-24.4 103.2"/>
				<path id="&lt;Path&gt;" class="s3" d="m986.7 621.8c0 0 39.8-26.8 65.5-39.7 47.4-23.9 96.1-35 125-42.2 29-7.2 81.4-11 81.4-11"/>
				<path id="&lt;Path&gt;" class="s3" d="m1039 629.6c0 0-2.3-15 1.1-25.8 3.3-10.7 8.9-13.9 17.5-13.7 8.6 0.2 18.5 6.1 18.5 14.8 0 3.7 0 11 0 11l-3.2 7h-14.8l-4.1 8"/>
				<path id="&lt;Path&gt;" class="s3" d="m1058.1 622.9h-19.7c2.2-3.4 9.2-7 14-7 4.7 0 23.7 0 23.7 0"/>
			</g>
			<path id="&lt;Path&gt;" class="s3" d="m2117.1 887.5h-2056.3"/>
			<g id="&lt;Group&gt;">
				<path id="&lt;Path&gt;" class="s5" d="m654.5 794.3c0 38.6-31.3 69.8-69.8 69.8-38.5 0-69.8-31.2-69.8-69.8 0-26.5 14.8-49.5 36.5-61.3-6-7.4-9.6-16.8-9.6-27.1 0-23.7 19.2-42.9 42.9-42.9 23.7 0 42.9 19.2 42.9 42.9 0 10.3-3.6 19.7-9.6 27.1 21.7 11.8 36.5 34.8 36.5 61.3z"/>
				<path id="&lt;Path&gt;" class="s3" d="m654.5 794.3c0 38.6-31.3 69.8-69.8 69.8-38.5 0-69.8-31.2-69.8-69.8 0-26.5 14.8-49.5 36.5-61.3-6-7.4-9.6-16.8-9.6-27.1 0-23.7 19.2-42.9 42.9-42.9 23.7 0 42.9 19.2 42.9 42.9 0 10.3-3.6 19.7-9.6 27.1 21.7 11.8 36.5 34.8 36.5 61.3z"/>
				<path id="&lt;Path&gt;" class="s3" d="m584.7 886.9v-119.1"/>
				<path id="&lt;Path&gt;" class="s3" d="m584.7 834.9l24.4-25.4"/>
				<path id="&lt;Path&gt;" class="s3" d="m584.7 805.6l-12.4-9.8"/>
			</g>
			<path id="&lt;Path&gt;" class="s23 cloud" d="m382.2 606.6c0 0 5.4-20.8 38.5-25 11.7-1.5 28.4 9.1 45.1 0.2 7-3.7 8.3-24.9 43.1-28.2 41-3.9 51.2 31.9 51.2 31.9 17.8-2.7 36.8 21.1 36.8 21.1-29.5 0-181.9 0-202.1 0z"/>
			<path id="&lt;Path&gt;" class="s23" d="m1318.4 181.4c0 0 5.4-20.8 38.6-25 11.6-1.5 28.3 9.1 45 0.2 7-3.7 8.3-24.9 43.2-28.2 40.9-3.9 51.1 31.9 51.1 31.9 17.8-2.7 36.8 21.1 36.8 21.1-29.4 0-181.9 0-202 0z"/>
		</g>
	</g>
</svg>