<svg version="1.2" xmlns="http://www.w3.org/2000/svg" viewBox="0 0 1400 1400" width="1400" height="1400">
	<title>Image &amp; Text Moderation-ai</title>
	<style>
		.s0 { fill: #fff8e1 } 
		.s1 { fill: #fc6140 } 
		.s2 { fill: #bcebf1 } 
		.s3 { fill: none;stroke: #000000;stroke-linecap: round;stroke-linejoin: round;stroke-width: 2.6 } 
		.s4 { fill: #ffffff } 
		.s5 { fill: #ffd740 } 
		.s6 { fill: #ffcf44 } 
		.s7 { fill: #362d46 } 
		.s8 { fill: #000000 } 
		.s9 { fill: #00bbd6 } 
	</style>
	<g id="Layer 1">
		<g id="&lt;Group&gt;">
			<g id="&lt;Group&gt;">
				<g id="&lt;Group&gt;">
					<path id="&lt;Path&gt;" class="s0" d="m115.1 1096.3c0 0-95.6-163-58.6-348 37-185.1 292.2-162.9 530-280.4 237.9-117.4 441.2-54.4 678.6 89.9 237.5 144.2 21.8 538.5 21.8 538.5z"/>
					<g id="&lt;Group&gt;">
						<g id="&lt;Group&gt;">
							<path id="&lt;Path&gt;" class="s1" d="m204.4 1089.7v-48.6h709.4v48.6c0 4.4-3.6 8-8 8h-693.5c-4.4 0-7.9-3.6-7.9-8z"/>
							<path id="&lt;Path&gt;" class="s2" d="m260.6 674.1h597c7.6 0 13.8 6.2 13.8 13.8v353.2h-624.6v-353.2c0-7.6 6.2-13.8 13.8-13.8z"/>
							<path id="&lt;Path&gt;" class="s3" d="m204.4 1089.7v-48.6h709.4v48.6c0 4.4-3.6 8-8 8h-693.5c-4.4 0-7.9-3.6-7.9-8z"/>
							<path id="&lt;Path&gt;" class="s3" d="m260.6 674.1h597c7.6 0 13.8 6.2 13.8 13.8v353.2h-624.6v-353.2c0-7.6 6.2-13.8 13.8-13.8z"/>
							<path id="&lt;Path&gt;" class="s4" d="m246.8 1041.1l139.4-94.8c104.4-70.9 241.4-70.9 345.7 0l139.5 94.8"/>
							<path id="&lt;Path&gt;" class="s3" d="m246.8 1041.1l139.4-94.8c104.4-70.9 241.4-70.9 345.7 0l139.5 94.8"/>
						</g>
						<g id="&lt;Group&gt;">
							<g id="&lt;Group&gt;">
								<path id="&lt;Path&gt;" class="s4" d="m612.3 304.7l74 45c4.1 2.5 6.9 6.7 7.7 11.5l53.9 336.5c3.1 19-9.8 36.8-28.7 39.8l-258.3 41.4c-19 3-36.8-9.8-39.8-28.8l-59.9-374c-3.1-18.9 9.8-36.7 28.7-39.8l211.2-33.8c3.8-0.6 7.8 0.2 11.2 2.2z"/>
								<path id="&lt;Path&gt;" class="s3" d="m612.3 304.7l74 45c4.1 2.5 6.9 6.7 7.7 11.5l53.9 336.5c3.1 19-9.8 36.8-28.7 39.8l-258.3 41.4c-19 3-36.8-9.8-39.8-28.8l-59.9-374c-3.1-18.9 9.8-36.7 28.7-39.8l211.2-33.8c3.8-0.6 7.8 0.2 11.2 2.2z"/>
							</g>
							<g id="&lt;Group&gt;">
								<path id="&lt;Path&gt;" class="s5" d="m420.5 515.6l-3.1-0.8-21.1-141.9 0.1-3.2c0 0 209.8-33.6 210.9-33.8 1.1-0.2 4 2.3 4 2.3l2.2 13.8c0 0 1.1 5.2 2.2 7.4 1 2.2 4.6 3.9 9.3 5.8 4.7 1.9 32.2-4.8 32.2-4.8l2.9 3.1 16.8 110z"/>
							</g>
							<path id="&lt;Path&gt;" class="s1" d="m439.5 512.5l36.8-129.6 68.1 112.8 43.3-6.9 24.2-80.9 51.1 68.8"/>
							<path id="&lt;Path&gt;" class="s3" d="m659 360.1l18.3 114.3-258.9 41.5-23.4-146 215.8-34.6"/>
							<path id="&lt;Path&gt;" class="s3" d="m439.5 512.5l36.8-129.6 68.1 112.8 43.3-6.9 24.2-80.9 51.1 68.8"/>
							<path id="&lt;Path&gt;" class="s4" d="m572.2 395.2c2.3 14.2-7.3 27.4-21.4 29.7-14.1 2.2-27.4-7.4-29.6-21.5-2.3-14.1 7.3-27.3 21.4-29.6 14.1-2.3 27.4 7.3 29.6 21.4z"/>
							<path id="&lt;Path&gt;" class="s3" d="m572.2 395.2c2.3 14.2-7.3 27.4-21.4 29.7-14.1 2.2-27.4-7.4-29.6-21.5-2.3-14.1 7.3-27.3 21.4-29.6 14.1-2.3 27.4 7.3 29.6 21.4z"/>
							<path id="&lt;Path&gt;" class="s3" d="m656.6 544.5l-128.3 20.6"/>
							<path id="&lt;Path&gt;" class="s3" d="m664.4 593l-128.4 20.6"/>
							<path id="&lt;Path&gt;" class="s3" d="m672.2 641.5l-128.4 20.6"/>
						</g>
						<g id="&lt;Group&gt;">
							<path id="&lt;Path&gt;" class="s0" d="m655.6 518.9c0 0-12.4-7.2-20.9-13.7-8.5-6.6-22.8-22.8-23.2-29.3-0.4-6.6 9.2-10.9 9.2-10.9 0 0-1.5-2.9 2.7-7.1 4.2-4.2 5.9-1.2 5.9-1.2 0 0-1.7-2.8 2.5-7.3 4.1-4.4 7.9-2.4 7.9-2.4 0 0-6-10.9-9.6-21-3.6-10-7.5-27.4-0.3-24.5 7.2 3 27 36.6 27 36.6 0 0 16.8 7.3 22.5 23.6 5.6 16.4 7.2 32.3 7.2 32.3"/>
							<path id="&lt;Path&gt;" class="s6" d="m1049.2 1097.7l-39.8-84.8-3.4 84.8-116-1.6 7.7-197.3c0 0 0.4-9.8-0.3-11.6-0.7-1.9 10.7-8.9 17.2-11.8 6.5-2.9 219.8-1.2 223.4-1.1 3.6 0.1 8.1 7.9 8.1 7.9l3 63 3.4 48.1 5.5 103.6z"/>
							<g id="&lt;Group&gt;">
								<path id="&lt;Path&gt;" class="s7" d="m1074.3 525.5c-26 0-130.8-8.1-136.9-9.8-6.1-1.7-18.7-8.6-22.3-12.3-3.6-3.8-5.3-9.2-5.4-14.3 0-5.1 3.8-9.8 6.4-14.4 2.6-4.6 6.4-12.9 9.1-17.7 2.7-4.9 6.5-12.7 6.5-12.7 0 0 7.8-16.3 10.3-21.9 2.4-5.6 5.6-12.8 7.5-17.6 2-4.8 4-12.5 5.3-15.6 1.2-3.1 6.2-15.7 8.2-21.5 2-5.8 4.4-11.5 7.7-17.1 3.4-5.5 10.9-14.1 13.6-16.4 2.8-2.2 12.6-9.2 16.5-10.9 4-1.8 16.1-5.7 19-6.2 2.9-0.5 11.7-2.1 19.8-0.6 8 1.4 19.4 5.9 24.1 8.6 4.6 2.8 13.6 9.4 16.7 13 3.1 3.5 8.1 11.1 11.1 16.3 3.1 5.3 8.5 22.4 10 26.5 1.6 4.1 8.1 21.3 9.4 25.1 1.4 3.8 11.3 27 13.5 32.2 2.1 5.1 8.5 18.4 9.6 21.4 1.1 3 8.7 13.9 10.6 17.4 1.8 3.5 4 8.3 4.3 11.3 0.4 3-0.8 8.7-3.1 12.5-2.2 3.8-7.8 9.1-14.4 11.6 0 0-31.2 13.1-57.1 13.1z"/>
								<path id="&lt;Path&gt;" class="s0" d="m1057.6 473.5c1.4 2.5 4.2 12.8 4.9 14 0.7 1.2 0.8 5.4-1.4 8.5-2.2 3-4.3 4.1-7.8 5.6-3.5 1.5-13.5 4.9-17.9 5.8-4.5 0.9-17.4-0.7-24.6-4-7.2-3.3-11.1-8.7-13.1-11.7-2-2.9-0.1-7.2 0.8-10.6 1-3.3 5.8-16.5 7-19.9 1.3-3.5 3.8-0.8 7.5 0.5 3.8 1.3 6.1 2 13.1 2.6 6.9 0.6 20.2-1.8 24-3 3.7-1.3 3.3 0.5 4.8 3.7 0 0 1.3 6 2.7 8.5z"/>
								<path id="&lt;Path&gt;" class="s3" d="m998.3 482.2c-18.6 61.7-103.9 31.1-85.8-1.2 44.5-78.8 42.9-105.5 57.9-131 20.5-34.8 59.1-33.7 59.1-33.7"/>
								<path id="&lt;Path&gt;" class="s3" d="m1029.5 316.3c0 0 38.5-1.1 59 33.7 15 25.5 13.4 52.2 57.9 131 18.2 32.3-67.4 62.9-86 1.2"/>
								<path id="&lt;Path&gt;" class="s0" d="m932.5 511.4c-0.3-1.3 0.3-2.4 3.2-3.5 3-1.1 9.3-2.7 15.8-4.2q-4.7 1.4-9.4 3c-3.5 1.2-6.7 2.8-9.6 4.7z"/>
								<path id="&lt;Path&gt;" class="s0" d="m1063 349.1c2 17.8 20.5 36.8 20.5 36.8 0 0 10.1 0.8 9.4 9.7-0.6 6.2-9.8 11.1-9.8 11.1-1.9 28.4-23.8 65.4-63.4 57.1-39.7-8.3-38-55.6-38-55.6 0 0-10.3-0.4-11.9-8.3-1.9-9.3 7.2-10.5 7.2-10.5 0 0 2-20.8 29.1-27.8 27.1-6.9 45.3-26.7 45.3-26.7l-11.6 31.7c8.3-0.3 23.2-17.5 23.2-17.5z"/>
								<path id="&lt;Path&gt;" class="s3" d="m1063 349.1c2 17.8 20.5 36.8 20.5 36.8 0 0 10.1 0.8 9.4 9.7-0.6 6.2-9.8 11.1-9.8 11.1-1.9 28.4-23.8 65.4-63.4 57.1-39.7-8.3-38-55.6-38-55.6 0 0-10.3-0.4-11.9-8.3-1.9-9.3 7.2-10.5 7.2-10.5 0 0 2-20.8 29.1-27.8 27.1-6.9 45.3-26.7 45.3-26.7l-11.6 31.7c8.3-0.3 23.2-17.5 23.2-17.5z"/>
								<path id="&lt;Path&gt;" class="s3" d="m1035.5 423.5c-3.4 0-6.2-2.7-6.2-6.1v-9.7"/>
								<path id="&lt;Path&gt;" class="s3" d="m1022.4 436.8c0 0 9.1 7.8 20.8 0"/>
								<path id="&lt;Path&gt;" class="s8" d="m1056.9 398.1c0 2.1-1.8 3.9-4 3.9-2.1 0-3.9-1.8-3.9-3.9 0-2.2 1.8-4 3.9-4 2.2 0 4 1.8 4 4z"/>
								<path id="&lt;Path&gt;" class="s8" d="m1012.2 398.1c0 2.1-1.8 3.9-3.9 3.9-2.2 0-4-1.8-4-3.9 0-2.2 1.8-4 4-4 2.1 0 3.9 1.8 3.9 4z"/>
								<path id="&lt;Path&gt;" class="s3" d="m995.4 391.7l-16.8-7.1"/>
								<path id="&lt;Path&gt;" class="s3" d="m1066.5 391.7l16.1-6.8"/>
								<path id="&lt;Path&gt;" class="s3" d="m1038.3 398.3h-14.3"/>
								<path id="&lt;Path&gt;" class="s3" d="m1064 376.2c0 0-9.4-4.8-22.2 1.1"/>
								<path id="&lt;Path&gt;" class="s3" d="m997.2 376.2c0 0 9.4-4.8 22.2 1.1"/>
								<path id="&lt;Path&gt;" class="s3" d="m1067.3 398.1c0 7.9-6.4 14.3-14.4 14.3-7.9 0-14.3-6.4-14.3-14.3 0-8 6.4-14.4 14.3-14.4 8 0 14.4 6.4 14.4 14.4z"/>
								<path id="&lt;Path&gt;" class="s3" d="m1022.6 398.1c0 7.9-6.4 14.3-14.3 14.3-8 0-14.4-6.4-14.4-14.3 0-8 6.4-14.4 14.4-14.4 7.9 0 14.3 6.4 14.3 14.4z"/>
							</g>
							<path id="&lt;Path&gt;" class="s1" d="m1162.6 533.6c5.9 4.4 10.5 8 11.6 13.8 1.2 5.9 0 25.7 0 25.7l-5.4 91.4c0 0-7.9 83.3-7.7 85.3 0.2 1.9-4.8 9.5-7.3 10.7-2.5 1.2-13.9 5.2-16.1 5.3-2.2 0.1-1.3 7.2-1.3 7.2l8.1 95.3c0 0 0.4 4.9 0.7 8.3 0.3 3.5-3.9 2.4-3.9 2.4l-226.5 4.8c0 0-12 0.9-14.4 0.3-2.4-0.5-2-1.7-1.4-10.3 0.7-8.7 2.1-20.9 2.2-21.8 0.1-0.9 8.8-69.6 8.8-69.6l12.9-103.5c0 0 6.2-49.3 6.3-50.1 0.1-0.7-0.1-5.4-1.4-5.6-1.4-0.3-34.5 35.7-34.5 35.7l-38.3 35.5-36.7 30.2c0 0-14.5 8.7-18.4 10.4-3.9 1.7-10.4 2.4-13.4-0.1-3.1-2.6-28.6-35.9-28.6-35.9l-80.5-118.4c0 0-29.9-46.6-30.3-46.9-0.3-0.3-2.1-4.4-1.9-6.5 0.2-2.1 7.2-6.6 7.2-6.6 0 0 41.3-31.6 42.4-32.2 1.1-0.5 6.6 2.7 6.6 2.7l11 16.7 47.1 63.2 30.8 41.2c0 0 10.3 15.3 11.9 17.5 1.6 2.2 2.6 2.5 4.4-0.1 1.8-2.6 27.9-38.7 27.9-38.7l25.1-35.9c0 0 25.9-32.9 29-35.8 3.1-3 6.4-6.5 10.3-8.7 3.8-2.1 19.8-7.6 26.1-9.1 6.2-1.4 21.4-6.1 31.2-8.8 9.7-2.7 29.4-8.5 34.7-8.5 5.4 0 3.2 3.2 5.9 6.8 2.7 3.6 8 9.8 10 11 2 1.2 13.6 5.3 22.1 5.2 8.6-0.1 14.4-1.2 20.7-3.6 6.4-2.4 10.6-6.4 14-9.8 3.3-3.4 5.1-2.4 8.6-2.3 3.5 0.1 16.8 5.1 24.6 8.2 7.8 3.1 36.2 16 43.1 19.6 0 0 16.8 10 22.7 14.4z"/>
							<path id="&lt;Path&gt;" class="s3" d="m1135.8 765.8l9.6 113.1-247.1 5.2c0 0 1.3-21.2 4.4-44.2 3.1-23 27.4-218.6 27.4-218.6 0 0-121.7 130.5-142.9 114.1-21.3-16.3-143.4-208-143.4-208l54.4-40.7 106.2 146.1c0 0 76.1-112 91.6-120.8 15.5-8.9 96.3-28.8 96.3-28.8"/>
							<path id="&lt;Path&gt;" class="s6" d="m964 780.3l-1.2 5.4-113.9-24.6 33.4-154.7 113.9 24.6-12.1 56.3c-3-1.2-13.2-0.6-16.7-1.1-13.1-2.1-21.8 0.3-35-1.7-0.2 0-0.7 0.2-0.9 0.2 0 0-1.7-0.7-1.7-0.7-0.7-0.1-2.1 0-2.7 0-0.5 0-1.7-0.3-2.1-0.3-0.4 0-1.3-0.4-1.7-0.3-0.6 0.1 4 3.6 3.5 3.7q-0.6 0.2-1.1 0.4-0.5 0.2-1 0.5-0.5 0.2-1 0.5-0.7 0.5-1.3 1.1-0.4 0.3-0.7 0.6-0.5 0.4-0.8 0.8-0.4 0.5-0.7 1-0.5 0.7-0.9 1.5-0.2 0.3-0.3 0.6-0.6 1.3-1 2.6 0 0 0 0-0.2 0.8-0.3 1.5 0 0.2 0 0.3-0.2 1.5-0.2 2.9 0 0.1 0 0.1 0.1 0.2 0.1 0.3c-0.5 0.6-0.9 1.2-1.3 1.9-3.4 6.7-5.7 14.1-8.1 21.3-1.3 0.3-2.5 1-3.3 2.3-2.3 3.5-1.2 7.4-2.6 11.2-0.8 2 4.1 1.4 8.3 2.5 3.4 0.9 57 6.2 60.3 7.1 0 0-1.8 8.4-2.4 11.1q-1.9 8.7-1.9 8.7c0 0-0.1 0.7-2.6 12.4z"/>
							<path id="&lt;Path&gt;" class="s3" d="m971 747.7l-8.2 38-113.9-24.6 33.4-154.7 113.9 24.6-12.1 56.3"/>
							<g id="&lt;Group&gt;">
								<path id="&lt;Path&gt;" class="s6" d="m870.2 678.4c0 0 7.3 7.2 9.8 6.6 2.5-0.6 3.3-3.4 4.6-11.5 1.3-8.1 3.9-13.7 6.4-12.6 4.3 1.9 1.3 7.2 3.8 16.7 2.4 9.6 7.4 12.5 17.1 15.6"/>
								<path id="&lt;Path&gt;" class="s6" d="m869 677.9c0 0-9.9 7.1-5 12.5"/>
								<path id="&lt;Path&gt;" class="s6" d="m861.4 691.1c0 0-3.5 8.3 1.2 9.9"/>
								<path id="&lt;Path&gt;" class="s6" d="m860.9 703c0 0-2.8 6.5 3 9.5"/>
								<path id="&lt;Path&gt;" class="s6" d="m870.8 720.9c0 0-11.5-2.4-9.8-11.1"/>
								<path id="&lt;Path&gt;" class="s6" d="m904.3 725.4c0 0 3.7 0.2-3.5-0.2-7.3-0.3-30.6-4.5-30.6-4.5"/>
							</g>
							<g id="&lt;Group&gt;">
								<path id="&lt;Path&gt;" class="s0" d="m916.6 688.2c1.2 0.6 2.5 4.8 1.6 13.6-0.9 8.9-1.8 19.1-3.1 25.1-1.2 6-4 8.8-9.6 9.1-5.6 0.3-24.6-1.2-30.2-1.3-5.7-0.2-19.5-5.5-23.8-8.9-4.3-3.5-3-14.5-3.2-17.1-0.1-2.5-1.1-9.6-1.2-13.7-0.2-4.1 3.4-10.1 3.5-12.2 0-2.2 2.2-7.6 5.1-9.8 2.9-2.3 10 3.5 13.2 5.2 3.1 1.8 5.4 1.2 8-1.9 2.7-3 5.4-20.9 6.9-25.7 1.5-4.8 4-7 6.6-3.9 2.5 3 0.8 8.2 1.1 12.5 0.3 4.4 4.3 13.8 6 17.3 1.6 3.6 8.7 6.8 14.1 10.3 0 0 3.9 0.8 5 1.4z"/>
								<path id="&lt;Path&gt;" class="s3" d="m858 670.8c0 0 12.9 10.3 16.3 9.3 3.5-1 4.5-5.2 5.7-16.8 1.2-11.6 4.6-19.8 8.2-18.5 6.3 2.3 2.4 10.2 6.6 23.6 4.3 13.5 11.7 17.3 25.7 20.9"/>
								<path id="&lt;Path&gt;" class="s3" d="m858 670.8c0 0-13.4 11.9-4.2 21.4"/>
								<path id="&lt;Path&gt;" class="s3" d="m849.6 686.7c0 0-6.3 12 2.8 22.7"/>
								<path id="&lt;Path&gt;" class="s3" d="m848.9 705.8c0 0-4 11 4.5 14.9"/>
								<path id="&lt;Path&gt;" class="s3" d="m864 732.1c0 0-16.7-2.5-15-15.1"/>
								<path id="&lt;Path&gt;" class="s3" d="m912.2 736c0 0 5.3-0.1-5.1 0-10.4 0.1-44.1-4.1-44.1-4.1"/>
							</g>
							<path id="&lt;Path&gt;" class="s1" d="m924.1 742.5c0 0-11-1.2-15.5-2.2-4.5-1.1-5.9 0-5.3-3.4 0.5-3.4 10.1-49.6 11.3-52.7 1.2-3.1 8.9-0.5 8.9-0.5 0 0 4.4 2.2 10.1 5.9z"/>
							<path id="&lt;Path&gt;" class="s3" d="m993.1 483.2c0 0 5.9 22.9 36.2 24.3 23.2 1.2 36.9-16.7 36.9-16.7 23 4.4 106.7 35.8 108.9 60.1 1.7 19.2-9.6 143-14.5 194.7-1.2 12.5-12.4 21.6-24.8 20.2l-233.5-25.7 12.1-57.3 173.9 11.1 6.7-98.7"/>
							<path id="&lt;Path&gt;" class="s3" d="m898.3 884.1l-8.3 213.6"/>
							<path id="&lt;Path&gt;" class="s3" d="m1145.4 878.9l12.1 218.8"/>
							<path id="&lt;Path&gt;" class="s3" d="m1049.2 1097.7l-39.8-84.8"/>
							<path id="&lt;Path&gt;" class="s3" d="m1011.8 954.6l-5.8 143.1"/>
							<path id="&lt;Path&gt;" class="s3" d="m655.6 518.9c0 0-12.4-7.2-20.9-13.7-8.5-6.6-22.8-22.8-23.2-29.3-0.4-6.6 9.2-10.9 9.2-10.9 0 0-1.5-2.9 2.7-7.1 4.2-4.2 5.9-1.2 5.9-1.2 0 0-1.7-2.8 2.5-7.3 4.1-4.4 7.9-2.4 7.9-2.4 0 0-6-10.9-9.6-21-3.6-10-7.5-27.4-0.3-24.5 7.2 3 27 36.6 27 36.6 0 0 16.8 7.3 22.5 23.6 5.6 16.4 7.2 32.3 7.2 32.3"/>
							<path id="&lt;Path&gt;" class="s3" d="m629.9 457.9l3.2 3.8"/>
							<path id="&lt;Path&gt;" class="s3" d="m621.6 465.8l3.5 3.6"/>
							<path id="&lt;Path&gt;" class="s3" d="m1053.3 459c0 0 4.1 22.7 12.4 32.4"/>
							<path id="&lt;Path&gt;" class="s3" d="m1005 459c0 0-2.1 18.4-10.4 28.1"/>
						</g>
						<g id="&lt;Group&gt;">
							<path id="&lt;Path&gt;" class="s9" d="m338.1 842.7c0 50.4-40.9 91.3-91.3 91.3-50.4 0-91.3-40.9-91.3-91.3 0-50.4 40.9-91.2 91.3-91.2 50.4 0 91.3 40.8 91.3 91.2z"/>
							<path id="&lt;Path&gt;" class="s3" d="m338.1 842.7c0 50.4-40.9 91.3-91.3 91.3-50.4 0-91.3-40.9-91.3-91.3 0-50.4 40.9-91.2 91.3-91.2 50.4 0 91.3 40.8 91.3 91.2z"/>
							<path id="&lt;Path&gt;" class="s4" d="m296.9 842.5c0 7-5.7 12.7-12.7 12.7h-24.7v24.7c0 7-5.7 12.7-12.7 12.7-7 0-12.7-5.7-12.7-12.7v-24.7h-24.7c-7 0-12.7-5.7-12.7-12.7 0-7 5.7-12.7 12.7-12.7h24.7v-24.7c0-7 5.7-12.7 12.7-12.7 7 0 12.7 5.7 12.7 12.7v24.7h24.7c7 0 12.7 5.7 12.7 12.7z"/>
							<path id="&lt;Path&gt;" class="s3" d="m296.9 842.5c0 7-5.7 12.7-12.7 12.7h-24.7v24.7c0 7-5.7 12.7-12.7 12.7-7 0-12.7-5.7-12.7-12.7v-24.7h-24.7c-7 0-12.7-5.7-12.7-12.7 0-7 5.7-12.7 12.7-12.7h24.7v-24.7c0-7 5.7-12.7 12.7-12.7 7 0 12.7 5.7 12.7 12.7v24.7h24.7c7 0 12.7 5.7 12.7 12.7z"/>
						</g>
						<g id="&lt;Group&gt;">
							<path id="&lt;Path&gt;" class="s0" d="m23.4 528h203.7v103.2h-203.7z"/>
							<path id="&lt;Path&gt;" class="s3" d="m23.4 528h203.7v103.2h-203.7z"/>
							<path id="&lt;Path&gt;" class="s1" d="m104.5 579.6c0 14.6-11.8 26.4-26.4 26.4-14.7 0-26.5-11.8-26.5-26.4 0-14.7 11.8-26.5 26.5-26.5 14.6 0 26.4 11.8 26.4 26.5z"/>
							<path id="&lt;Path&gt;" class="s3" d="m104.5 579.6c0 14.6-11.8 26.4-26.4 26.4-14.7 0-26.5-11.8-26.5-26.4 0-14.7 11.8-26.5 26.5-26.5 14.6 0 26.4 11.8 26.4 26.5z"/>
							<path id="&lt;Path&gt;" class="s3" d="m129.3 555.7h73.4"/>
							<path id="&lt;Path&gt;" class="s3" d="m129.3 579.6h73.4"/>
							<path id="&lt;Path&gt;" class="s3" d="m129.3 603.4h73.4"/>
						</g>
						<g id="&lt;Group&gt;">
							<path id="&lt;Path&gt;" class="s0" d="m1092.9 931.6h203.7v103.2h-203.7z"/>
							<path id="&lt;Path&gt;" class="s3" d="m1092.9 931.6h203.7v103.2h-203.7z"/>
							<path id="&lt;Path&gt;" class="s1" d="m1174 983.2c0 14.6-11.8 26.5-26.4 26.5-14.6 0-26.5-11.9-26.5-26.5 0-14.6 11.9-26.5 26.5-26.5 14.6 0 26.4 11.9 26.4 26.5z"/>
							<path id="&lt;Path&gt;" class="s3" d="m1174 983.2c0 14.6-11.8 26.5-26.4 26.5-14.6 0-26.5-11.9-26.5-26.5 0-14.6 11.9-26.5 26.5-26.5 14.6 0 26.4 11.9 26.4 26.5z"/>
							<path id="&lt;Path&gt;" class="s3" d="m1198.8 959.3h73.4"/>
							<path id="&lt;Path&gt;" class="s3" d="m1198.8 983.2h73.4"/>
							<path id="&lt;Path&gt;" class="s3" d="m1198.8 1007.1h73.4"/>
						</g>
						<path id="&lt;Path&gt;" class="s3" d="m1370.3 1097.7h-1346.9"/>
						<path id="&lt;Path&gt;" class="s3" d="m818.5 806.3h-266.6"/>
						<path id="&lt;Path&gt;" class="s3" d="m756.8 833.4h-266.6"/>
						<path id="&lt;Path&gt;" class="s3" d="m695.1 860.6h-266.6"/>
					</g>
				</g>
				<path id="&lt;Path&gt;" class="s3" d="m690.3 355.1l-62.2 10c-6.7 1.1-13-3.5-14.1-10.2l-8.2-51.3"/>
			</g>
			<path id="&lt;Path&gt;" class="s3" d="m360.7 1004h129.5"/>
			<path id="&lt;Path&gt;" class="s3" d="m416.9 1019.4h129.4"/>
		</g>
	</g>
</svg>