<svg version="1.2" xmlns="http://www.w3.org/2000/svg" viewBox="0 0 800 800" width="800" height="800">
	<title>Keypoints-ai</title>
	<style>
		.s0 { fill: #fff8e1 } 
		.s1 { fill: none;stroke: #000000;stroke-linecap: round;stroke-linejoin: round;stroke-width: 5.2 } 
		.s2 { fill: #ffffff } 
		.s3 { fill: #fc6140 } 
		.s4 { fill: #ffd740 } 
	</style>
	<g id="Layer 1">
		<g id="&lt;Group&gt;">
			<path id="&lt;Path&gt;" class="s0" d="m605.7 532.6l-282.6 108.6-163.8-263 213.4-206 264.9 71.2z"/>
			<path id="&lt;Path&gt;" class="s1" d="m605.7 532.6l-282.6 108.6-163.8-263 213.4-206 264.9 71.2z"/>
			<path id="&lt;Path&gt;" class="s1" d="m637.6 243.4l-203.7 178.2-274.6-43.4"/>
			<path id="&lt;Path&gt;" class="s1" d="m433.9 421.6l171.8 111"/>
			<circle id="&lt;Path&gt;" class="s2" cx="433.9" cy="421.6" r="42.6"/>
			<circle id="&lt;Path&gt;" class="s1" cx="433.9" cy="421.6" r="42.6"/>
			<circle id="&lt;Path&gt;" class="s3" cx="605.7" cy="532.6" r="42.2"/>
			<circle id="&lt;Path&gt;" class="s1" cx="605.7" cy="532.6" r="42.2"/>
			<g id="&lt;Group&gt;">
				<circle id="&lt;Path&gt;" class="s4" cx="323.1" cy="641.2" r="46.8"/>
			</g>
			<circle id="&lt;Path&gt;" class="s1" cx="323.1" cy="641.2" r="46.8"/>
			<circle id="&lt;Path&gt;" class="s3" cx="159.3" cy="378.2" r="47.5"/>
			<circle id="&lt;Path&gt;" class="s1" cx="159.3" cy="378.2" r="47.5"/>
			<g id="&lt;Group&gt;">
				<circle id="&lt;Path&gt;" class="s4" cx="372.7" cy="172.2" r="60.2"/>
			</g>
			<circle id="&lt;Path&gt;" class="s1" cx="372.7" cy="172.2" r="60.2"/>
			<g id="&lt;Group&gt;">
				<circle id="&lt;Path&gt;" class="s4" cx="637.6" cy="243.4" r="50.6"/>
			</g>
			<circle id="&lt;Path&gt;" class="s1" cx="637.6" cy="243.4" r="50.6"/>
		</g>
	</g>
</svg>