<svg version="1.2" xmlns="http://www.w3.org/2000/svg" viewBox="0 0 800 800" width="800" height="800">
	<title>Launch Sample Job-ai</title>
	<style>
		.s0 { fill: #fc6140 } 
		.s1 { fill: #fff8e1 } 
		.s2 { fill: none;stroke: #000000;stroke-linecap: round;stroke-linejoin: round;stroke-width: 5.2 } 
		.s3 { fill: #ffffff } 
		.s4 { fill: #ffd740 } 
.r1,.s4{
  transform-box: fill-box;
  transform-origin: top;
  animation: top 2s linear infinite ;;
  }
		@keyframes top {
  0% {
    -webkit-transform: translateY(0);
            transform: translateY(0);
  }
  100% {
    -webkit-transform: translateY(-100px);
            transform: translateY(-100px);
  }
}

	</style>
	<g id="Layer 1">
		<g id="&lt;Group&gt;">
			<path id="&lt;Path&gt;" class="s0" d="m101.1 634v-31.8h597.8v31.8c0 8.8-7.1 15.9-15.9 15.9h-566c-8.8 0-15.9-7.1-15.9-15.9z"/>
			<path id="&lt;Path&gt;" class="s1" d="m164.4 293h471.2c15.2 0 27.6 12.3 27.6 27.5v281.7h-526.4v-281.7c0-15.2 12.4-27.5 27.6-27.5z"/>
			<path id="&lt;Path&gt;" class="s2" d="m101.1 634v-31.8h597.8v31.8c0 8.8-7.1 15.9-15.9 15.9h-566c-8.8 0-15.9-7.1-15.9-15.9z"/>
			<path id="&lt;Path&gt;" class="s3" d="m446.3 307l44.6 82.5-4.9 38.3-42.9-40.3q-7.7-4-11.3 3.2c-3.7 7.1-8.1 8.6-4.4 16.5 3.6 7.9 11.9 27.4 13.7 32.8 1.9 5.5 3 4.1-11.5 4.1-14.5 0-65.3 0.3-68.1 0.1-2.8-0.1-1.3-6.3 1.3-13.9 2.6-7.6 6.6-16.2 8-19.3 1.5-3.1 2.4-10.7 0.2-14.9-2.1-4.1-9.8-12.9-15.4-7.3-5.6 5.7-22.3 22.5-29.1 29.3-6.7 6.7-8.8 9.3-12-1.2-3.2-10.6-6.4-25.3-3.8-30.7 2.7-5.5 25.2-51.6 27.6-56.3 2.3-4.8 7.8-12.3 14.2-12.7q6.4-0.3 93.8-10.2z"/>
			<path id="&lt;Path&gt;" class="s2" d="m164.4 293h471.2c15.2 0 27.6 12.3 27.6 27.5v281.7h-526.4v-281.7c0-15.2 12.4-27.5 27.6-27.5z"/>
			<path id="&lt;Path&gt;" class="s3" d="m136.8 602.2l117.5-79.8c88-59.8 203.4-59.8 291.4 0l117.5 79.8"/>
			<g id="&lt;Group&gt;">
				<g id="&lt;Group&gt; ">
					<path id="&lt;Path&gt;" class="s4" d="m400 150.1q102.8 115.8 25.3 252.7h-50.6q-77.5-136.9 25.3-252.7z"/>
				</g>
				<path id="&lt;Path&gt;" class="s2 r1 " d="m400 150.1q102.8 115.8 25.3 252.7h-50.6q-77.5-136.9 25.3-252.7z"/>
				<path id="&lt;Path&gt;" class="s2 r1" d="m425.3 402.8l19.1 41.3h-44.4"/>
				<path id="&lt;Path&gt;" class="s2 r1" d="m400 444.1h-44.4l19.1-41.3"/>
				<path id="&lt;Path&gt;" class="s2 r1" d="m454.6 315.3l36.3 74.2-5.3 40.8-48.4-48.7"/>
				<path id="&lt;Path&gt;" class="s2 r1" d="m362.8 381.6l-48.4 48.7-5.3-40.8 36.3-74.2"/>
				<circle id="&lt;Path&gt;" class="s1 r1 " cx="400" cy="293" r="24.3"/>
				<circle id="&lt;Path&gt;" class="s2 r1" cx="400" cy="293" r="24.3"/>
				<path id="&lt;Path&gt;" class="s2 r1" d="m359.1 222.9h80.9"/>
			</g>
			<path id="&lt;Path&gt;" class="s2" d="m136.8 602.2l117.5-79.8c88-59.8 203.4-59.8 291.4 0l117.5 79.8"/>
		</g>
	</g>
</svg>