<svg version="1.2" xmlns="http://www.w3.org/2000/svg" viewBox="0 0 800 800" width="800" height="800">
	<title>Line _ Polyline-ai</title>
	<style>
		.s0 { fill: #fff8e1 } 
		.s1 { fill: none;stroke: #000000;stroke-linecap: round;stroke-linejoin: round;stroke-width: 5.2 } 
		.s2 { fill: #ffffff } 
		.s3 { fill: #362d46 } 
		.s4 { fill: #fc6140 } 
	</style>
	<g id="Layer 1">
		<g id="&lt;Group&gt;">
			<g id="&lt;Group&gt;">
				<g id="&lt;Group&gt;">
					<path id="&lt;Path&gt;" class="s0" d="m233.9 663.9c-31.6 0-62.9-2.4-92.8-7.4-17.4-2.9-29.2-19.4-26.2-36.8 2.9-17.5 19.4-29.2 36.8-26.3 79 13.2 172.9 6.3 257.4-19.1 85.2-25.5 123.1-58.7 127-73.6 1.4-5.2-11.4-17.9-43.9-29.6-128.7-46.1-209.8-133.3-197.3-211.8 4.2-26.2 20.9-63 76.7-89.4 42.8-20.3 102.9-31.6 178.6-33.7 17.6-0.6 32.3 13.4 32.8 31.1 0.5 17.6-13.4 32.3-31.1 32.8-135.3 3.8-188.8 38.3-193.8 69.3-6.2 38.9 51.6 104.1 155.7 141.5 89 31.9 91 80.1 84.2 106-21.2 81.4-196.8 147-364.1 147z"/>
				</g>
				<g id="&lt;Group&gt;">
					<path id="&lt;Path&gt;" class="s1" d="m233.9 663.9c-31.6 0-62.9-2.4-92.8-7.4-17.4-2.9-29.2-19.4-26.2-36.8 2.9-17.5 19.4-29.2 36.8-26.3 79 13.2 172.9 6.3 257.4-19.1 85.2-25.5 123.1-58.7 127-73.6 1.4-5.2-11.4-17.9-43.9-29.6-128.7-46.1-209.8-133.3-197.3-211.8 4.2-26.2 20.9-63 76.7-89.4 42.8-20.3 102.9-31.6 178.6-33.7 17.6-0.6 32.3 13.4 32.8 31.1 0.5 17.6-13.4 32.3-31.1 32.8-135.3 3.8-188.8 38.3-193.8 69.3-6.2 38.9 51.6 104.1 155.7 141.5 89 31.9 91 80.1 84.2 106-21.2 81.4-196.8 147-364.1 147z"/>
				</g>
			</g>
			<g id="&lt;Group&gt;">
				<path id="&lt;Path&gt;" class="s2" d="m257.2 532.8l-109.2-12.7 68.8-85.8"/>
				<path id="&lt;Path&gt;" class="s3" d="m176.2 490.8l11.5 30q-1.1 3.8-1.4 3.7-0.3 0-35-4.1l-2.4-3.4 20.9-25.5z"/>
				<path id="&lt;Path&gt;" class="s2" d="m216.8 434.3l428.4-175.6 40.4 98.5-428.4 175.6z"/>
				<path id="&lt;Path&gt;" class="s1" d="m216.8 434.3l428.4-175.6 40.4 98.5-428.4 175.6z"/>
				<path id="&lt;Path&gt;" class="s1" d="m257.2 532.8l-109.2-12.7 68.8-85.8"/>
				<path id="&lt;Path&gt;" class="s1" d="m190.2 525l-15.6-38.1"/>
				<path id="&lt;Path&gt;" class="s4" d="m526.5 307.3l53.5-21.9 40.4 98.5-53.5 21.9z"/>
				<path id="&lt;Path&gt;" class="s1" d="m526.5 307.3l53.5-21.9 40.4 98.5-53.5 21.9z"/>
			</g>
		</g>
	</g>
</svg>