<svg version="1.2" xmlns="http://www.w3.org/2000/svg" viewBox="0 0 800 800" width="800" height="800">
	<title>Lunch Production Job-ai</title>
	<style>
		.s0 { fill: #ffffff } 
		.s1 { fill: #ffd740 } 
		.s2 { fill: none;stroke: #000000;stroke-linecap: round;stroke-linejoin: round;stroke-width: 5.2 } 
		.s3 { fill: #fff8e1 } 
	</style>
	<g id="Layer 1">
		<g id="&lt;Group&gt;">
			<g id="&lt;Group&gt;">
				<path id="&lt;Path&gt;" class="s0" d="m456.9 344.4l55.7 103.1-6.2 47.8-53.5-50.3q-9.6-5-14.2 4c-4.6 8.9-10 10.7-5.5 20.6 4.6 9.8 14.9 34.2 17.2 41 2.4 6.8 3.8 5.1-14.3 5.1-18.1 0-81.6 0.4-85.1 0.2-3.6-0.2-1.7-7.9 1.6-17.4 3.3-9.5 8.2-20.2 10-24.1 1.8-3.9 2.9-13.5 0.3-18.6-2.7-5.2-12.3-16.1-19.3-9.1-7 7-27.9 28.1-36.3 36.5-8.4 8.4-11.1 11.7-15.1-1.5-4-13.2-8-31.6-4.7-38.4 3.3-6.7 31.5-64.4 34.4-70.3 2.9-5.9 9.9-15.3 17.8-15.8q8-0.4 117.2-12.8z"/>
				<g id="&lt;Group&gt;">
					<g id="&lt;Group&gt;">
						<path id="&lt;Path&gt;" class="s1" d="m400 148.7q128.4 144.7 31.7 315.6h-63.4q-96.7-170.9 31.7-315.6z"/>
					</g>
					<path id="&lt;Path&gt;" class="s2" d="m400 148.7q128.4 144.7 31.7 315.6h-63.4q-96.7-170.9 31.7-315.6z"/>
					<path id="&lt;Path&gt;" class="s2" d="m431.7 464.3l23.8 51.6h-55.5"/>
					<path id="&lt;Path&gt;" class="s2" d="m400 515.9h-55.5l23.8-51.6"/>
					<path id="&lt;Path&gt;" class="s2" d="m468.2 355.1l45.3 92.6-6.5 51.1-60.5-60.9"/>
					<path id="&lt;Path&gt;" class="s2" d="m353.5 437.9l-60.5 60.9-6.5-51.1 45.3-92.6"/>
					<circle id="&lt;Path&gt;" class="s3" cx="400" cy="327.2" r="30.3"/>
					<circle id="&lt;Path&gt;" class="s2" cx="400" cy="327.2" r="30.3"/>
					<path id="&lt;Path&gt;" class="s2" d="m348.9 239.7h101.1"/>
				</g>
			</g>
			<g id="&lt;Group&gt;">
				<g id="&lt;Group&gt;">
					<path id="&lt;Path&gt;" class="s2" d="m433.9 565.1q65.2-8.8 78.7 52.2"/>
					<path id="&lt;Path&gt;" class="s2" d="m495.9 584.7q61-61.9 122 6.3"/>
					<path id="&lt;Path&gt;" class="s2" d="m580.5 563.6q11.3-78.6 87.7-73.5"/>
					<path id="&lt;Path&gt;" class="s2" d="m673.8 558.9q-69 10.4-83.9 92.4"/>
				</g>
				<g id="&lt;Group&gt;">
					<path id="&lt;Path&gt;" class="s2" d="m366.1 565.1q-65.2-8.8-78.7 52.2"/>
					<path id="&lt;Path&gt;" class="s2" d="m304.1 584.7q-61-61.9-122 6.3"/>
					<path id="&lt;Path&gt;" class="s2" d="m219.5 563.6q-11.3-78.6-87.7-73.5"/>
					<path id="&lt;Path&gt;" class="s2" d="m126.2 558.9q69 10.4 83.9 92.4"/>
				</g>
			</g>
			<path id="&lt;Path&gt;" class="s2" d="m433.9 549.4v34"/>
			<path id="&lt;Path&gt;" class="s2" d="m366.1 549.4v34"/>
			<path id="&lt;Path&gt;" class="s2" d="m476.2 611.8v23.3"/>
			<path id="&lt;Path&gt;" class="s2" d="m250.5 602.3v22.9"/>
			<path id="&lt;Path&gt;" class="s2" d="m151.3 446.5v22.9"/>
			<path id="&lt;Path&gt;" class="s2" d="m631.9 530.2v22.9"/>
			<path id="&lt;Path&gt;" class="s2" d="m563.8 498.8v22.8"/>
			<path id="&lt;Path&gt;" class="s2" d="m624.3 626.5v22.9"/>
		</g>
	</g>
</svg>