<svg version="1.2" xmlns="http://www.w3.org/2000/svg" viewBox="0 0 1600 1200" width="1600" height="1200">
	<title>Manufacturing-ai</title>
	<style>
		.s0 { fill: #fc6140 } 
		.s1 { fill: #ffe8ad } 
		.s2 { fill: #ffffff } 
		.s3 { fill: #ffd740 } 
		.s4 { fill: none;stroke: #000000;stroke-linecap: round;stroke-linejoin: round;stroke-width: 5.2 } 
		.s5 { fill: none;stroke: #000000;stroke-linecap: round;stroke-linejoin: round;stroke-width: 5.5 } 

.w1,.w3{
  transform-box: fill-box;
  transform-origin: top;
  animation: righttree 3s linear infinite ;;
}
		@keyframes righttree {
  0%{
    transform: rotate(10deg);
  }
  50%{
    transform: rotate(-15deg);
  }
  100%{
    transform: rotate(10deg);
  }}

.w2{
  transform-box: fill-box;
  transform-origin: top;
  animation: fade-out 3s linear infinite ;;
}
@keyframes fade-out {
  0% {
    opacity: 1;
  }
  100% {
    opacity: 0;
  }
}


	</style>
	<g id="Layer 1">
		<path id="&lt;Path&gt;" class="s0" d="m1600 1200h-1600v-1200h1600z"/>
		<g id="&lt;Group&gt;">
			<g id="&lt;Group&gt;">
				<path id="&lt;Path&gt;" class="s1 w1" d="m1014.6 429.2l-21.2-15-38 24.4-6.6-17.8 49.5-39.1 34 25.4"/>
				<g id="&lt;Group&gt;">
					<path id="&lt;Path&gt;" class="s2" d="m1019.1 461.3l-15.4 4.7-5.3-14.9 13.8-5.2"/>
				</g>
				<path id="&lt;Path&gt;" class="s1 w1" d="m1061.8 477.3l-10.6 46.9-66.4 9.5 1.9-19.2 40.3-13.2 3.3-25.7"/>
				<path id="&lt;Path&gt;" class="s0" d="m1214.9 410q-116.5 42.1-121.9 44.2c-5.3 2.2-4.4-1.1-4.2-3.6 0.2-2.4 0.7-8.8-1.5-19.3-2.2-10.5-14.6-22.6-16.9-25.6-2.2-2.9 3.4-4.5 7.6-6.6 4.3-2.1 101.7-37.3 105.5-39.2 3.8-1.8 15.1 1.6 20.8 0z"/>
				<path id="&lt;Path&gt;" class="s3" d="m1357 575.9q-4.2 7.5-19.8-10l-62.4-74.1q-78-96.3-80.9-104.6c-2.9-8.2-4.3-18.1-3.9-20.8 0.4-2.8 8.9-29.6 14-34.8 5.1-5.1 17-17.5 29.8-19.5 12.8-1.9 26.7 0.3 27.8 5 1.1 4.7 0.3 55.3 9.9 68 9.6 12.7 111.3 143.3 107.1 167.1q-4.1 23.8-21.6 23.7z"/>
				<g id="&lt;Group&gt;">
					<path id="&lt;Path&gt;" class="s2" d="m1427.1 515c-24.1 5.6-39.6 21.8-54.1 28.4-14.4 6.7-20.7-3-24-6.8q-3.3-3.8-70.9-93.2-24.7-30.9-28.7-35.5c-4-4.6-11.3-28.8-10.5-35.5 0.7-6.7 9.2-19.3 12.8-23.6 3.6-4.3 15.3-10.5 22.8-12.8 7.5-2.3 22.3 2.7 30.7 7.6q8.3 4.9 40.1 38.3 114.2 110 117.2 113.4c2.9 3.3 0.8 4.5-3.9 7.3q-7.3 6.9-31.5 12.4z"/>
				</g>
				<path id="&lt;Path&gt;" class="s1" d="m1274.1 337.1c-7.2 1.1-16.1 5.6-22.1 10.2-5.9 4.6-11.8 21.2-13.1 27-1.3 5.8 0.7 14-0.5 18.5-1.2 4.4-10.9-19.2-12.9-30.1-2-10.9 5.9-23.2 10.7-31.5 4.7-8.2 12.5-12.9 22.3-17.4 9.7-4.4 19.5 3.8 26.9 9.9 7.3 6.1 13.3 14.5 8.6 14.4q-12.6-2.1-19.9-1z"/>
				<path id="&lt;Path&gt;" class="s3" d="m1434.8 501.8q13.1-0.5 15.2-1.4c2.2-0.8 0.1 5.1-3.7 6.5-3.8 1.5-13.1 6.6-23.3 17.3q-10.2 10.8-29 44.5l-49.9 91.1-42.9 77.4q-30.4 53-31.5 53.4c-1.1 0.3-6.7 16.6-9.6 23.9-2.8 7.3-5.9 28.1-6.3 35.9-0.4 7.9 1.3 13.3 2.9 22.8 1.6 9.4-11.7 7.6-26.3 7.3-14.6-0.3-22.1-4.2-23-9.5-0.9-5.2-1.9-28.1-0.3-39.3 1.6-11.1 11.9-35.4 14.3-40.3q2.5-5 42.6-77.1l71.5-129.5q35.3-62.1 39.5-66.4c4.2-4.4 17.2-13.4 23.8-16.4 6.6-3 23-0.7 35.8-0.7"/>
				<path id="&lt;Path&gt;" class="s1" d="m1256.7 873.2c-1.3-4.2-1.3-4.2-2.2-19.4-0.8-15.1 4.8-40.2 7-45.9q2.2-5.7 47-86.1l78.8-139.2q26.7-47.5 29.1-50.7c2.5-3.2 16.1-16.5 19.1-18.8 3-2.3 16.3-8.1 26.1-9.6 9.8-1.4 13.7 7.9 18.1 15 4.4 7.1 9.7 24.9 10.5 28.7 0.8 3.8 2.3 16.4 0.6 33q-1.8 16.6-57.3 134.8l-69 148.7q-3.6 11.4-5.1 15.1-101.4-1.4-102.7-5.6z"/>
				<path id="&lt;Path&gt;" class="s4" d="m1208.3 876.3c-1.6-8.3-2.3-16.3-2.3-23.8 0-22.5 6.2-44.5 17.1-64.2l133.2-241.1-109.1-142.9c-12.4-16.1-11.6-38.6 1.8-53.9 16.1-18.2 44.2-19.3 61.6-2.3l152.7 149c28.7 28.1 36.7 71.2 20 107.7l-123.6 269.3"/>
				<path id="&lt;Path&gt;" class="s4" d="m1258.2 876.3c-4.5-7.4-4.9-21.1-4-33.7 1.2-16.3 6.1-32 14.1-46.2 27.8-50 105.8-190.1 131-237.7q36.4-68.6 71.1-53.9"/>
				<path id="&lt;Path&gt;" class="s4" d="m1356.3 547.2c22.8-41.2 42.7-45.9 56.2-45.9q13.5 0 54.8 0"/>
				<ellipse id="&lt;Path&gt;" class="s3" cx="1457.2" cy="563.7" rx="23.8" ry="36.9"/>
				<ellipse id="&lt;Path&gt;" class="s4" cx="1457.2" cy="563.7" rx="23.8" ry="36.9"/>
				<ellipse id="&lt;Path&gt;" class="s3" cx="1281.8" cy="381.7" rx="24.3" ry="28.7"/>
				<ellipse id="&lt;Path&gt;" class="s4" cx="1281.8" cy="381.7" rx="24.3" ry="28.7"/>
				<path id="&lt;Path&gt;" class="s4" d="m1342.5 572.2q-127.1-148.2-147.4-182.8c-14-23.7 3.1-58.8 25.5-72.2 1.9-1.1 4.3-2.2 7-3.1 7.2-2.4 11.4-4.1 23.6-4l15.6 2.8"/>
				<path id="&lt;Path&gt;" class="s4" d="m1249.3 407.1c-11.1-14.4-31.2-42.3-21-64.3 10.2-22 30.6-37.3 47.8-26.5q9.1 5.7 34.5 31.8"/>
				<path id="&lt;Path&gt;" class="s4 w1" d="m1191.6 357.4l-127 46.6"/>
				<path id="&lt;Path&gt;" class="s4 w1" d="m1210.9 412.1l-125.2 46"/>
				<g id="&lt;Group&gt;">
					<circle id="&lt;Path&gt;" class="s2 w1" cx="1051.2" cy="440.4" r="38.3"/>
				</g>
				<circle id="&lt;Path&gt;" class="s5 w1" cx="1051.2" cy="440.4" r="38.3"/>
				<path id="&lt;Path&gt;" class="s5 w1" d="m1014.6 429.2l-21.2-15-38 24.4-6.6-17.8 49.5-39.1 34 25.4"/>
				<path id="&lt;Path&gt;" class="s5 w1" d="m1061.8 477.3l-10.6 46.9-66.4 9.5 1.9-19.2 40.3-13.2 3.3-25.7"/>
				<path id="&lt;Path&gt;" class="s5 w1" d="m1019.1 461.3l-15.4 4.7-5.3-14.9 13.8-5.2"/>
				<path id="&lt;Path&gt;" class="s3 w1" d="m1265.4 876.3c-2-11.8-3-40.3 8.9-55.8 11.8-15.5 49.8-19.7 60.1 5q8.9 21.5 7 49.5"/>
				<g id="&lt;Group&gt;">
					<path id="&lt;Path&gt;" class="s2" d="m1291.4 876.3c-5.9-40.8 18.9-52.6 28.4-35.5q9.6 17.1 4.3 35.5"/>
				</g>
				<path id="&lt;Path&gt;" class="s5" d="m1291.4 876.3c-5.9-40.8 18.9-52.6 28.4-35.5q9.6 17.1 4.3 35.5"/>
				<path id="&lt;Path&gt;" class="s5" d="m1265.4 876.3c-2-11.8-3-40.3 8.9-55.8 11.8-15.5 49.8-19.7 60.1 5q8.9 21.5 7 49.5"/>
			</g>
			<g id="&lt;Group&gt;">
				<path id="&lt;Path&gt;" class="s1 w3" d="m567.7 407.1l34-25.4 49.5 39.1-6.6 17.8-38-24.4-21.2 15"/>
				<g id="&lt;Group&gt;">
					<path id="&lt;Path&gt;" class="s2" d="m587.8 445.9l13.8 5.2-5.3 14.9-15.4-4.7"/>
				</g>
				<path id="&lt;Path&gt;" class="s1 w3" d="m569.7 475.6l3.3 25.7 40.3 13.2 1.9 19.2-66.4-9.5-10.6-46.9"/>
				<path id="&lt;Path&gt;" class="s0" d="m395.7 359.9c5.7 1.6 17-1.8 20.8 0 3.8 1.9 101.2 37.1 105.5 39.2 4.2 2.1 9.8 3.7 7.6 6.6-2.3 3-14.7 15.1-16.9 25.6-2.2 10.5-1.7 16.9-1.5 19.3 0.2 2.5 1.1 5.8-4.2 3.6q-5.4-2.1-121.9-44.2z"/>
				<path id="&lt;Path&gt;" class="s3" d="m221.4 552.2c-4.2-23.8 97.5-154.4 107.1-167.1 9.6-12.7 8.8-63.3 9.9-68 1.1-4.7 15-6.9 27.8-5 12.8 2 24.7 14.4 29.8 19.5 5.1 5.2 13.6 32 14 34.8 0.4 2.7-1 12.6-3.9 20.8q-2.9 8.3-80.9 104.6l-62.4 74.1q-15.6 17.5-19.8 10-17.5 0.1-21.6-23.7z"/>
				<g id="&lt;Group&gt;">
					<path id="&lt;Path&gt;" class="s2" d="m141.4 502.6c-4.7-2.8-6.8-4-3.9-7.3q3-3.4 117.2-113.4 31.8-33.4 40.1-38.3c8.4-4.9 23.2-9.9 30.7-7.6 7.5 2.3 19.2 8.5 22.8 12.8 3.6 4.3 12.1 16.9 12.8 23.6 0.8 6.7-6.5 30.9-10.5 35.5q-4 4.6-28.7 35.5-67.6 89.4-70.9 93.2c-3.3 3.8-9.6 13.5-24 6.8-14.5-6.6-30-22.8-54.1-28.4q-24.2-5.5-31.5-12.4z"/>
				</g>
				<path id="&lt;Path&gt;" class="s1" d="m306 338.1c-4.7 0.1 1.3-8.3 8.6-14.4 7.4-6.1 17.2-14.3 26.9-9.9 9.8 4.5 17.6 9.2 22.3 17.4 4.8 8.3 12.7 20.6 10.7 31.5-2 10.9-11.7 34.5-12.9 30.1-1.2-4.5 0.8-12.7-0.5-18.5-1.3-5.8-7.2-22.4-13.1-27-6-4.6-14.9-9.1-22.1-10.2q-7.3-1.1-19.9 1z"/>
				<path id="&lt;Path&gt;" class="s3" d="m165.4 501.3c12.8 0 29.2-2.3 35.8 0.7 6.6 3 19.6 12 23.8 16.4q4.2 4.3 39.5 66.4l71.5 129.5q40.1 72.1 42.6 77.1c2.4 4.9 12.7 29.2 14.3 40.3 1.6 11.2 0.6 34.1-0.3 39.3-0.9 5.3-8.4 9.2-23 9.5-14.6 0.3-27.9 2.1-26.3-7.3 1.6-9.5 3.3-14.9 2.9-22.8-0.4-7.8-3.5-28.6-6.3-35.9-2.9-7.3-8.5-23.6-9.6-23.9q-1.1-0.4-31.5-53.4l-42.9-77.4-49.9-91.1q-18.8-33.7-29-44.5c-10.2-10.7-19.5-15.8-23.3-17.3-3.8-1.4-5.9-7.3-3.7-6.5q2.1 0.9 15.2 1.4"/>
				<path id="&lt;Path&gt;" class="s1" d="m240.6 878.8q-1.5-3.7-5.1-15.1l-69-148.7q-55.5-118.2-57.3-134.8c-1.7-16.6-0.2-29.2 0.6-33 0.8-3.8 6.1-21.6 10.5-28.7 4.4-7.1 8.3-16.4 18.1-15 9.8 1.5 23.1 7.3 26.1 9.6 3 2.3 16.6 15.6 19.1 18.8q2.4 3.2 29.1 50.7l78.8 139.2q44.8 80.4 47 86.1c2.2 5.7 7.8 30.8 7 45.9-0.9 15.2-0.9 15.2-2.2 19.4q-1.3 4.2-102.7 5.6z"/>
				<path id="&lt;Path&gt;" class="s4" d="m240.3 874.1l-123.6-269.3c-16.7-36.5-8.7-79.6 20-107.7l152.7-149c17.4-17 45.5-15.9 61.6 2.3 13.4 15.3 14.2 37.8 1.8 53.9l-109.1 142.9 133.2 241.1c10.9 19.7 17.1 41.7 17.1 64.2 0 7.5-0.7 15.5-2.3 23.8"/>
				<path id="&lt;Path&gt;" class="s4" d="m129.6 504.8q34.7-14.7 71.1 53.9c25.2 47.6 103.2 187.7 131 237.7 8 14.2 12.9 29.9 14.1 46.2 0.9 12.6 0.5 26.3-4 33.7"/>
				<path id="&lt;Path&gt;" class="s4" d="m132.7 501.3q41.3 0 54.8 0c13.5 0 33.4 4.7 56.2 45.9"/>
				<ellipse id="&lt;Path&gt;" class="s3" cx="142.8" cy="563.7" rx="23.8" ry="36.9"/>
				<ellipse id="&lt;Path&gt;" class="s4" cx="142.8" cy="563.7" rx="23.8" ry="36.9"/>
				<ellipse id="&lt;Path&gt;" class="s3" cx="318.2" cy="381.7" rx="24.3" ry="28.7"/>
				<ellipse id="&lt;Path&gt;" class="s4" cx="318.2" cy="381.7" rx="24.3" ry="28.7"/>
				<path id="&lt;Path&gt;" class="s4" d="m333.2 312.9l15.6-2.8c12.2-0.1 16.4 1.6 23.6 4 2.7 0.9 5.1 2 7 3.1 22.4 13.4 39.5 48.5 25.5 72.2q-20.3 34.6-147.4 182.8"/>
				<path id="&lt;Path&gt;" class="s4" d="m289.4 348.1q25.4-26.1 34.5-31.8c17.2-10.8 37.6 4.5 47.8 26.5 10.2 22-9.9 49.9-21 64.3"/>
				<path id="&lt;Path&gt;" class="s4 w3" d="m408.4 357.4l127 46.6"/>
				<path id="&lt;Path&gt;" class="s4 w3" d="m389.1 412.1l125.2 46"/>
				<g id="&lt;Group&gt;">
					<circle id="&lt;Path&gt;" class="s2 w3" cx="548.8" cy="440.4" r="38.3"/>
				</g>
				<circle id="&lt;Path&gt;" class="s5 w3" cx="548.8" cy="440.4" r="38.3"/>
				<path id="&lt;Path&gt;" class="s5 w3" d="m567.7 407.1l34-25.4 49.5 39.1-6.6 17.8-38-24.4-21.2 15"/>
				<path id="&lt;Path&gt;" class="s5 w3" d="m569.7 475.6l3.3 25.7 40.3 13.2 1.9 19.2-66.4-9.5-10.6-46.9"/>
				<path id="&lt;Path&gt;" class="s5 w3" d="m587.8 445.9l13.8 5.2-5.3 14.9-15.4-4.7"/>
				<path id="&lt;Path&gt;" class="s3 w3" d="m258.6 875q-1.9-28 7-49.5c10.3-24.7 48.3-20.5 60.1-5 11.9 15.5 10.9 44 8.9 55.8"/>
				<g id="&lt;Group&gt;">
					<path id="&lt;Path&gt;" class="s2" d="m275.9 876.3q-5.3-18.4 4.3-35.5c9.5-17.1 34.3-5.3 28.4 35.5"/>
				</g>
				<path id="&lt;Path&gt;" class="s5" d="m275.9 876.3q-5.3-18.4 4.3-35.5c9.5-17.1 34.3-5.3 28.4 35.5"/>
				<path id="&lt;Path&gt;" class="s5" d="m258.6 875q-1.9-28 7-49.5c10.3-24.7 48.3-20.5 60.1-5 11.9 15.5 10.9 44 8.9 55.8"/>
			</g>
			<g id="&lt;Group&gt;">
				<g id="&lt;Group&gt;">
					<path id="&lt;Path&gt;" class="s3" d="m1177.4 781.6c-0.7 1-1.3 1-3.9 0.6-2.6-0.4-110.1 0.7-111.7 0.8-1.5 0.2-3.7-0.7-5.1-1.8-1.3-1.1-14.8-23.2-14.3-26.2 0.5-2.9 5.3-1.8 7.4-1.9q2.1-0.1 109.2 0.1l5 1.6 13.1 22.9q1 3 0.3 3.9z"/>
				</g>
				<path id="&lt;Path&gt;" class="s3" d="m1160.6 874.8q-118 0.9-118.9 0.7c-0.8-0.2-2.3-2.7-2.4-3.4-0.1-0.7-0.6-106.4 0.5-110.4q1-4 5.2 0 8.6 15.7 8.9 16.1 0.2 0.4 9.3 6.5h96.9l3.4 1.5v87.2z"/>
				<path id="&lt;Path&gt;" class="s1" d="m957.2 875.4c-0.4-0.1-2.4-0.4-3.4-5.6q-0.9-5.2-1-82.3 2.7-4.2 5-5.1c2.2-0.8 61.3-0.9 65.3-3 4-2.1 7.4-12.1 9.4-17.6 2-5.6 5.5-3.1 6.2 0 0.8 3 0 108.7-0.2 110.6-0.3 2-5.9 4.7-7.2 4.9q-73.7-1.8-74.1-1.9z"/>
				<path id="&lt;Path&gt;" class="s3" d="m1019.6 782.4h-73.1l-6.8-3.2q10.1-17.5 12.2-21.1 2-3.5 2.9-5.1 72.8 0.8 76.9 0.9 4.1 0.1 3.5 4.1l-10.3 20.5z"/>
				<path id="&lt;Path&gt;" class="s5" d="m1038.7 876.3v-123.6l18.7 30.9h106.1v92.7z"/>
				<path id="&lt;Path&gt;" class="s5" d="m1038.7 752.7h124.8l16.9 30.9h-16.9"/>
				<path id="&lt;Path&gt;" class="s5" d="m1023.1 782.4h-86l15.4-29.7h84.1z"/>
				<path id="&lt;Path&gt;" class="s5" d="m1038.7 876.3h-85.3v-93.9"/>
			</g>
			<g id="&lt;Group&gt;">
				<g id="&lt;Group&gt;">
					<path id="&lt;Path&gt;" class="s3" d="m873.5 781.6c-0.7 1-1.4 1-4 0.6-2.6-0.4-110 0.7-111.6 0.8-1.6 0.2-3.8-0.7-5.1-1.8-1.3-1.1-14.8-23.2-14.3-26.2 0.5-2.9 5.3-1.8 7.3-1.9q2.1-0.1 109.3 0.1l5 1.6 13.1 22.9q1 3 0.3 3.9z"/>
				</g>
				<path id="&lt;Path&gt;" class="s3" d="m856.7 874.8q-118.1 0.9-118.9 0.7c-0.9-0.2-2.4-2.7-2.5-3.4-0.1-0.7-0.5-106.4 0.6-110.4q1-4 5.2 0 8.6 15.7 8.8 16.1 0.3 0.4 9.3 6.5h97l3.4 1.5v87.2z"/>
				<path id="&lt;Path&gt;" class="s1" d="m653.3 875.4c-0.4-0.1-2.5-0.4-3.4-5.6q-0.9-5.2-1.1-82.3 2.8-4.2 5-5.1c2.2-0.8 61.3-0.9 65.4-3 4-2.1 7.4-12.1 9.4-17.6 2-5.6 5.4-3.1 6.2 0 0.8 3 0 108.7-0.2 110.6-0.3 2-5.9 4.7-7.2 4.9q-73.8-1.8-74.1-1.9z"/>
				<path id="&lt;Path&gt;" class="s3" d="m715.6 782.4h-73.1l-6.7-3.2q10.1-17.5 12.1-21.1 2.1-3.5 3-5.1 72.8 0.8 76.9 0.9 4.1 0.1 3.5 4.1l-10.3 20.5z"/>
				<path id="&lt;Path&gt;" class="s5" d="m734.8 876.3v-123.6l18.7 30.9h106.1v92.7z"/>
				<path id="&lt;Path&gt;" class="s5" d="m734.8 752.7h124.8l16.8 30.9h-16.8"/>
				<path id="&lt;Path&gt;" class="s5" d="m719.2 782.4h-86l15.3-29.7h84.2z"/>
				<path id="&lt;Path&gt;" class="s5" d="m734.8 876.3h-85.4v-93.9"/>
			</g>
			<g id="&lt;Group&gt;">
				<g id="&lt;Group&gt;">
					<path id="&lt;Path&gt;" class="s3" d="m569.5 781.6c-0.6 1-1.3 1-3.9 0.6-2.6-0.4-110.1 0.7-111.6 0.8-1.6 0.2-3.8-0.7-5.1-1.8-1.4-1.1-14.8-23.2-14.3-26.2 0.4-2.9 5.2-1.8 7.3-1.9q2.1-0.1 109.3 0.1l5 1.6 13.1 22.9q0.9 3 0.2 3.9z"/>
				</g>
				<path id="&lt;Path&gt;" class="s3" d="m552.8 874.8q-118.1 0.9-118.9 0.7c-0.9-0.2-2.4-2.7-2.5-3.4-0.1-0.7-0.5-106.4 0.5-110.4q1.1-4 5.3 0 8.6 15.7 8.8 16.1 0.2 0.4 9.3 6.5h97l3.4 1.5v87.2z"/>
				<path id="&lt;Path&gt;" class="s1" d="m349.3 875.4c-0.3-0.1-2.4-0.4-3.3-5.6q-0.9-5.2-1.1-82.3 2.8-4.2 5-5.1c2.2-0.8 61.3-0.9 65.3-3 4.1-2.1 7.5-12.1 9.5-17.6 1.9-5.6 5.4-3.1 6.2 0 0.8 3 0 108.7-0.3 110.6-0.2 2-5.8 4.7-7.1 4.9q-73.8-1.8-74.2-1.9z"/>
				<path id="&lt;Path&gt;" class="s3" d="m411.7 782.4h-73.1l-6.7-3.2q10.1-17.5 12.1-21.1 2.1-3.5 2.9-5.1 72.9 0.8 77 0.9 4 0.1 3.5 4.1l-10.4 20.5z"/>
				<path id="&lt;Path&gt;" class="s5" d="m430.9 876.3v-123.6l18.6 30.9h106.2v92.7z"/>
				<path id="&lt;Path&gt;" class="s5" d="m430.9 752.7h124.8l16.8 30.9h-16.8"/>
				<path id="&lt;Path&gt;" class="s5" d="m415.3 782.4h-86l15.3-29.7h84.2z"/>
				<path id="&lt;Path&gt;" class="s5" d="m430.9 876.3h-85.4v-93.9"/>
			</g>
			<g id="&lt;Group&gt;">
				<rect id="&lt;Path&gt;" class="s2" x="147.1" y="874.5" width="1321.3" height="146.5" rx="73.3"></rect>
			</g>
			<rect id="&lt;Path&gt;" class="s4" x="147.1" y="874.5" width="1321.3" height="146.5" rx="73.3"></rect>
			<g id="&lt;Group&gt;">
				<g id="&lt;Group&gt;">
					<circle id="&lt;Path&gt;" class="s3" cx="445.3" cy="945.8" r="48.8"/>
					<circle id="&lt;Path&gt;" class="s4" cx="445.3" cy="945.8" r="48.8"/>
				</g>
				<g id="&lt;Group&gt;">
					<circle id="&lt;Path&gt;" class="s3" cx="621.3" cy="945.8" r="48.8"/>
					<circle id="&lt;Path&gt;" class="s4" cx="621.3" cy="945.8" r="48.8"/>
				</g>
				<g id="&lt;Group&gt;">
					<circle id="&lt;Path&gt;" class="s3" cx="797.4" cy="945.8" r="48.8"/>
					<circle id="&lt;Path&gt;" class="s4" cx="797.4" cy="945.8" r="48.8"/>
				</g>
				<g id="&lt;Group&gt;">
					<circle id="&lt;Path&gt;" class="s3" cx="973.4" cy="945.8" r="48.8"/>
					<circle id="&lt;Path&gt;" class="s4" cx="973.4" cy="945.8" r="48.8"/>
				</g>
				<g id="&lt;Group&gt;">
					<circle id="&lt;Path&gt;" class="s3" cx="1149.5" cy="945.8" r="48.8"/>
					<circle id="&lt;Path&gt;" class="s4" cx="1149.5" cy="945.8" r="48.8"/>
				</g>
			</g>
			<path id="&lt;Path&gt;" class="s4 w2" d="m1023.3 312.7l78-45.6"/>
			<path id="&lt;Path&gt;" class="s4 w2" d="m457.6 606.1l-38.7-28.4"/>
			<path id="&lt;Path&gt;" class="s4 w2" d="m1257.5 577.7l-42.6 45.3"/>
			<path id="&lt;Path&gt;" class="s4 w2" d="m692 646.8l-21.8-33.9"/>
			<path id="&lt;Path&gt;" class="s4 w2" d="m418.9 241.7l8.5-62.7"/>
			<path id="&lt;Path&gt;" class="s4 w2" d="m756.2 572.2l20.3-68.8"/>
		</g>
	</g>
</svg>