<svg version="1.2" xmlns="http://www.w3.org/2000/svg" viewBox="0 0 800 800" width="800" height="800">
	<title>Medical Imaging-ai</title>
	<style>
		.s0 { fill: #ffd740 } 
		.s1 { fill: none;stroke: #000000;stroke-linecap: round;stroke-linejoin: round;stroke-width: 5.2 } 
		.s2 { fill: #fff8e1 } 
	</style>
	<g id="Layer 1">
		<g id="&lt;Group&gt;">
			<g id="&lt;Group&gt;">
				<path id="&lt;Path&gt;" class="s0" d="m76.9 298.8h646.2v355.7h-646.2z"/>
			</g>
			<path id="&lt;Path&gt;" class="s1" d="m76.9 298.8h646.2v355.7h-646.2z"/>
			<path id="&lt;Path&gt;" class="s2" d="m109.6 621.8v-290.4h580.8v290.4z"/>
			<path id="&lt;Path&gt;" class="s1" d="m109.6 621.8v-290.4h580.8v290.4z"/>
			<path id="&lt;Path&gt;" class="s1" d="m419.8 370v228.6"/>
			<path id="&lt;Path&gt;" class="s1" d="m459.7 386.7q77.5 3.2 87.5 16.8c13.5 18.3-21.1 39.9-127.4 39.9"/>
			<path id="&lt;Path&gt;" class="s1" d="m526.3 431.1q15.7 22.4 4.2 33c-11.4 10.6-54 14.9-110.7 14.9"/>
			<path id="&lt;Path&gt;" class="s1" d="m516.9 470.8q10.3 21.3-13.2 31.8c-23.5 10.4-51.3 14.3-83.9 14.3"/>
			<path id="&lt;Path&gt;" class="s1" d="m421.5 544.8h47q27-11.5 38.7-6c18 8.5 19.9 27.4 10.9 41.7-9.1 14.3-34.1 15.3-52.5 3.6h-44.1"/>
			<path id="&lt;Path&gt;" class="s1" d="m497.5 564.7h-20.3"/>
			<path id="&lt;Path&gt;" class="s1" d="m419.8 443.4c-106.4 0-140.9-21.6-127.4-39.9q10-13.6 87.4-16.8"/>
			<path id="&lt;Path&gt;" class="s1" d="m419.8 479c-56.8 0-99.3-4.3-110.8-14.9q-11.4-10.6 4.3-33"/>
			<path id="&lt;Path&gt;" class="s1" d="m419.8 516.9c-32.7 0-60.5-3.9-84-14.3q-23.5-10.5-13.1-31.8"/>
			<path id="&lt;Path&gt;" class="s1" d="m418 584.1h-44.1c-18.3 11.7-43.4 10.7-52.5-3.6-9-14.3-7.1-33.2 10.9-41.7q11.7-5.5 38.7 6h47"/>
			<path id="&lt;Path&gt;" class="s1" d="m342.1 564.7h20.2"/>
			<g id="&lt;Group&gt;">
				<path id="&lt;Path&gt;" class="s1" d="m442.9 251.8q51.8 0 97.6 0 45.8 0 56.5 47"/>
				<path id="&lt;Path&gt;" class="s1" d="m203 298.8q10.7-47 56.5-47 45.8 0 97.6 0"/>
			</g>
			<g id="&lt;Group&gt;">
				<path id="&lt;Path&gt;" class="s1" d="m453.6 251.8v-32.3"/>
				<path id="&lt;Path&gt;" class="s1" d="m346.1 251.8v-32.3"/>
			</g>
			<path id="&lt;Path&gt;" class="s1" d="m475.3 145.5q0 36.1 0 48c0 11.9-11.9 26-40.7 26q-28.9 0-34.8 0h0.2q-5.9 0-34.7 0c-28.8 0-40.8-14.1-40.8-26q0-11.9 0-48"/>
			<path id="&lt;Path&gt;" class="s1" d="m663.1 435.6v92.7"/>
			<path id="&lt;Path&gt;" class="s1" d="m630.4 519.2v42.9"/>
			<path id="&lt;Path&gt;" class="s1" d="m158.1 592.1h87"/>
			<path id="&lt;Path&gt;" class="s1" d="m181 569h-54.4"/>
		</g>
	</g>
</svg>