<svg version="1.2" xmlns="http://www.w3.org/2000/svg" viewBox="0 0 800 800" width="800" height="800">
	<title>Named Entity Recognition-ai</title>
	<style>
		.s0 { fill: #fff8e1 } 
		.s1 { fill: #ffd740 } 
		.s2 { fill: none;stroke: #000000;stroke-linecap: round;stroke-linejoin: round;stroke-width: 5.2 } 
	</style>
	<g id="Layer 1">
		<g id="&lt;Group&gt;">
			<path id="&lt;Path&gt;" class="s0" d="m711.4 673.7h-235.3v-142h235.3z"/>
			<path id="&lt;Path&gt;" class="s0" d="m323.9 673.7h-235.3v-142h235.3z"/>
			<g id="&lt;Group&gt;">
				<path id="&lt;Path&gt;" class="s1" d="m589.9 319.4h-379.8v-193.1h379.8z"/>
			</g>
			<path id="&lt;Path&gt;" class="s2" d="m589.9 319.4h-379.8v-193.1h379.8z"/>
			<path id="&lt;Path&gt;" class="s2" d="m711.4 673.7h-235.3v-142h235.3z"/>
			<path id="&lt;Path&gt;" class="s2" d="m323.9 673.7h-235.3v-142h235.3z"/>
			<path id="&lt;Path&gt;" class="s2" d="m447.5 435.1h146.2v70.2"/>
			<path id="&lt;Path&gt;" class="s0" d="m446.1 468.8h-92.2v-67.3h92.2z"/>
			<path id="&lt;Path&gt;" class="s2" d="m206.3 505.3v-70.2h145.9"/>
			<path id="&lt;Path&gt;" class="s2" d="m446.1 468.8h-92.2v-67.3h92.2z"/>
			<path id="&lt;Path&gt;" class="s2" d="m400 401.5v-39.1"/>
			<g id="&lt;Group&gt;">
				<path id="&lt;Path&gt;" class="s2" d="m238.3 577.4l24.6 25.3-24.6 25.2"/>
				<path id="&lt;Path&gt;" class="s2" d="m173.4 627.9l-24.6-25.2 24.6-25.3"/>
				<path id="&lt;Path&gt;" class="s2" d="m219.4 577.4l-25.3 50.5"/>
			</g>
			<g id="&lt;Group&gt;">
				<path id="&lt;Path&gt;" class="s2" d="m454 180.8l41.1 42.1-41.1 42.1"/>
				<path id="&lt;Path&gt;" class="s2" d="m346 265l-41.1-42.1 41.1-42.1"/>
			</g>
			<g id="&lt;Group&gt;">
				<path id="&lt;Path&gt;" class="s2" d="m636.6 577.4l24.6 25.3-24.6 25.2"/>
				<path id="&lt;Path&gt;" class="s2" d="m571.7 627.9l-24.6-25.2 24.6-25.3"/>
				<path id="&lt;Path&gt;" class="s2" d="m617.7 577.4l-25.3 50.5"/>
			</g>
		</g>
	</g>
</svg>