<svg version="1.2" xmlns="http://www.w3.org/2000/svg" viewBox="0 0 1600 1200" width="1600" height="1200">
	<title>News _ Media-ai</title>
	<style>
		.s0 { fill: #ffd740 } 
		.s1 { fill: #bcebf1 } 
		.s2 { fill: #3c3438 } 
		.s3 { fill: #ffffff } 
		.s4 { fill: #d43b20 } 
		.s5 { fill: #fc6140 } 
		.s6 { fill: none;stroke: #000000;stroke-linecap: round;stroke-linejoin: round;stroke-width: 5.2 } 
	</style>
	<g id="Layer 1">
		<g id="&lt;Group&gt;">
			<path id="&lt;Path&gt;" class="s0" d="m1600 1200h-1600v-1200h1600z"/>
		</g>
		<g id="&lt;Group&gt;">
			<path id="&lt;Path&gt;" class="s1" d="m999.1 368.7l-2.3 4.8-194.2 114.8-6 1.1-195.4-118.5q1.3-3.3 2.1-3.1 0.8 0.2 190.2-105.6h7.2l196.1 105.8z"/>
			<path id="&lt;Path&gt;" class="s2" d="m790.6 1022.6l-388-228.1-19.1-20.4 3.1-7.5 19-9 413.8 203 384.7-190.7 5.8-0.1 6.6 5.3q1 8.8 1 9.3z"/>
			<path id="&lt;Path&gt;" class="s3" d="m800.8 1084.5l-4.8 1-413.4-236.1-2.3-5.4v-68.4l4.1-1.5 415.2 238.2 2.4 5.4z"/>
			<path id="&lt;Path&gt;" class="s3" d="m800.8 991.5l-4.8 1.1-413.4-236.2-2.3-5.4v-68.3l4.1-1.6 415.2 238.3 2.4 5.3z"/>
			<path id="&lt;Path&gt;" class="s4" d="m803.5 920.5l-8.4-1.7-411.6-236.2 1.2-5.1 209-119.4h3.7l407.5 4.5 211.6 122.6q-1.3 3.7-1.5 3.8z"/>
			<path id="&lt;Path&gt;" class="s2" d="m996.3 613.2l-193.5 110.6-7.1-0.9-194.7-110.8 1.1-4.6 23.2-15.2 7.8-0.3 164.5 91.5 6.5-0.6 162.9-92.5h4.5l27.1 16.5z"/>
			<path id="&lt;Path&gt;" class="s2" d="m996.3 492.3l-197.5 115.7-3.1-6-194.7-110.9 1.1-4.6 23.2-15.1 7.8-0.4 164.5 91.5 6.5-0.6 162.9-92.5h4.5l27.1 16.5z"/>
			<path id="&lt;Path&gt;" class="s3" d="m798.3 680.3l-2.3 2.3-195.5-110.2-1.8-3.8-0.3-73.8 4.4-1.8 194.5 111.8 2.3 4.8 0.4 65.6z"/>
			<path id="&lt;Path&gt;" class="s3" d="m798.3 799.4l-2.3 2.3-195.5-110.2-1.8-3.8-0.3-73.8 4.4-1.8 194.5 111.8 2.3 4.7 0.4 65.7z"/>
			<path id="&lt;Path&gt;" class="s3" d="m798.3 561.9l-2.3 2.3-195.5-110.2-1.8-3.8-0.3-73.8 4.4-1.8 194.5 111.8 2.3 4.8 0.4 65.6z"/>
			<path id="&lt;Path&gt;" class="s5" d="m1000.6 690.6l-197.7 111-2.5-0.7-0.4-71.7 3.3-4.6 196.7-112.4 2.1 3.1 0.5 72.1z"/>
			<path id="&lt;Path&gt;" class="s5" d="m1000.6 569.8l-197.7 110.9-2.5-0.7-0.4-71.7 3.3-4.5 196.7-112.5 2.1 3.1 0.5 72.1z"/>
			<path id="&lt;Path&gt;" class="s5" d="m1000.6 452.7l-197.7 110.9-2.5-0.7-0.4-71.7 3.3-4.6 196.7-112.4 2.1 3.1 0.5 72.1z"/>
			<path id="&lt;Path&gt;" class="s5" d="m1219.1 850.7l-0.9 3-415.4 234.4-2-2.3 0.7-69 2.4-4 413.5-232.6 2.3 2.9z"/>
			<path id="&lt;Path&gt;" class="s5" d="m1219.1 756.3l0.6 5-416.9 232.3-2-2.2 0.7-69.1 2.4-3.9 413.5-232.6 2.3 2.8z"/>
			<path id="&lt;Path&gt;" class="s6" d="m1002.7 561.4l217 125-420.1 235-419.3-240.7 215.1-124.1"/>
			<path id="&lt;Path&gt;" class="s6" d="m970 589.4l32.1 20.5v80.8l-202.5 112.8-201.7-111.5v-82.1l31.6-18.4"/>
			<path id="&lt;Path&gt;" class="s6" d="m969.3 471.7l32.8 18.4v80.8l-202.5 114.5-201.7-113.2v-82.1l31.6-18.4"/>
			<path id="&lt;Path&gt;" class="s6" d="m799.6 565.6v-75.5l202.5-119.8v80.8l-202.5 114.5-201.7-113.2v-82.1l31.6-18.4 168.8-91.3 203.8 109.7"/>
			<path id="&lt;Path&gt;" class="s6" d="m1002.1 609.9l-202.5 115.7-201.7-115.7"/>
			<path id="&lt;Path&gt;" class="s6" d="m1002.1 490.1l-202.5 117.1-201.7-117.1"/>
			<path id="&lt;Path&gt;" class="s6" d="m799.6 725.6v77.9"/>
			<path id="&lt;Path&gt;" class="s6" d="m799.6 685.4v-78.2"/>
			<path id="&lt;Path&gt;" class="s6" d="m799.6 490.1l-201.7-119.8"/>
			<path id="&lt;Path&gt;" class="s6" d="m1219.7 686.4v75.5l-420.1 231.1v-71.6"/>
			<g id="&lt;Group&gt;">
				<g id="&lt;Group&gt;">
					<path id="&lt;Path&gt;" class="s0" d="m629.1 353.3v-213.2c0-15.5 12.6-28.1 28.1-28.1h269.5c15.5 0 28.1 12.6 28.1 28.1v36.3 176.9c0 15.5-12.6 28-28.1 28h-269.5c-15.5 0-28.1-12.5-28.1-28z"/>
				</g>
				<path id="&lt;Path&gt;" class="s3" d="m649.7 176.7q-7.3 0.7-12.4 0.3-5.1-0.5-10-9.1l1.1-27q0.7-8.9 2.1-13c1.5-4.2 6-6.8 12.2-11.9 6.2-5.1 7.3-2.5 14.5-4q7.1-1.5 251 0 17.4-1.8 27.5 1.5c10.1 3.2 11.2 5.4 15.9 12.2q4.6 6.8 3.5 46l-1.6 4.4-8.1 0.3z"/>
				<path id="&lt;Path&gt;" class="s6" d="m629.1 353.3v-213.2c0-15.5 12.6-28.1 28.1-28.1h269.5c15.5 0 28.1 12.6 28.1 28.1v36.3 176.9c0 15.5-12.6 28-28.1 28h-269.5c-15.5 0-28.1-12.5-28.1-28z"/>
				<path id="&lt;Path&gt;" class="s6" d="m954.8 176.4h-325.7"/>
				<path id="&lt;Path&gt;" class="s5" d="m837.2 274l-72.5 41.8c-2.7 1.6-6.1-0.4-6.1-3.5v-83.8c0-3.1 3.4-5.1 6.1-3.5l72.5 41.8c2.8 1.6 2.8 5.6 0 7.2z"/>
				<path id="&lt;Path&gt;" class="s6" d="m837.2 274l-72.5 41.8c-2.7 1.6-6.1-0.4-6.1-3.5v-83.8c0-3.1 3.4-5.1 6.1-3.5l72.5 41.8c2.8 1.6 2.8 5.6 0 7.2z"/>
				<path id="&lt;Path&gt;" class="s6" d="m656.7 146.3h16.9"/>
				<path id="&lt;Path&gt;" class="s6" d="m693.4 146.3h16.9"/>
				<path id="&lt;Path&gt;" class="s6" d="m730.2 146.3h16.9"/>
			</g>
			<path id="&lt;Path&gt;" class="s6" d="m799.6 993l-419.3-236.1v-76.2"/>
			<path id="&lt;Path&gt;" class="s6" d="m1208.3 768.2l11.4 10.8-418.2 234.5-421.2-241.8 10.7-8.7"/>
			<path id="&lt;Path&gt;" class="s6" d="m1219.7 779v73.9l-419.7 235.8-419.7-240.7v-76.3"/>
			<path id="&lt;Path&gt;" class="s6" d="m801.5 1013.5l-1.5 75.2"/>
		</g>
	</g>
</svg>