<svg version="1.2" xmlns="http://www.w3.org/2000/svg" viewBox="0 0 800 800" width="800" height="800">
	<title>Project Initiation and Consultation-ai</title>
	<style>
		.s0 { fill: #ffd740 } 
		.s1 { fill: #fc6140 } 
		.s2 { fill: none;stroke: #000000;stroke-linecap: round;stroke-linejoin: round;stroke-width: 5.2 } 
		.s3 { fill: #fff8e1 } 
		.s4 { fill: #ffffff } 
	</style>
	<g id="Layer 1">
		<g id="&lt;Group&gt;">
			<g id="&lt;Group&gt;">
				<rect id="&lt;Path&gt;" class="s0" x="127.1" y="212.1" width="545.8" height="291.9" rx="15.2"></rect>
			</g>
			<path id="&lt;Path&gt;" class="s1" d="m110.2 504.1h579.6c9.1 0 16.4 7.3 16.4 16.4v24.8c0 23.5-19 42.6-42.5 42.6h-527.4c-23.5 0-42.5-19.1-42.5-42.6v-24.8c0-9.1 7.3-16.4 16.4-16.4z"/>
			<path id="&lt;Path&gt;" class="s2" d="m110.2 504.1h579.6c9.1 0 16.4 7.3 16.4 16.4v24.8c0 23.5-19 42.6-42.5 42.6h-527.4c-23.5 0-42.5-19.1-42.5-42.6v-24.8c0-9.1 7.3-16.4 16.4-16.4z"/>
			<rect id="&lt;Path&gt;" class="s3" x="180.8" y="245.2" width="438.5" height="225.8" rx="8.3"></rect>
			<rect id="&lt;Path&gt;" class="s2" x="127.1" y="212.1" width="545.8" height="291.9" rx="15.2"></rect>
			<path id="&lt;Path&gt;" class="s4" d="m198.8 518.4v-14.3h402.4v14.3c0 10.3-8.3 18.5-18.5 18.5h-365.4c-10.2 0-18.5-8.2-18.5-18.5z"/>
			<g id="&lt;Group&gt;">
				<g id="&lt;Group&gt;">
					<path id="&lt;Path&gt;" class="s4" d="m465 312h60.3c10 0 18.1 8.1 18.1 18v15.3h-96.5v-15.3c0-9.9 8.1-18 18.1-18z"/>
					<path id="&lt;Path&gt;" class="s4" d="m478.8 312c-6.2-4.8-10.2-12.4-10.2-20.9 0-14.7 11.9-26.5 26.6-26.5 14.6 0 26.5 11.8 26.5 26.5 0 8.5-4 16.1-10.1 20.9"/>
				</g>
				<g id="&lt;Group&gt;">
					<path id="&lt;Path&gt;" class="s4" d="m274.7 312h60.3c10 0 18.1 8.1 18.1 18v15.3h-96.5v-15.3c0-9.9 8.1-18 18.1-18z"/>
					<path id="&lt;Path&gt;" class="s4" d="m288.5 312c-6.2-4.8-10.2-12.4-10.2-20.9 0-14.7 11.8-26.5 26.5-26.5 14.7 0 26.6 11.8 26.6 26.5 0 8.5-4 16.1-10.2 20.9"/>
				</g>
				<g id="&lt;Group&gt;">
					<path id="&lt;Path&gt;" class="s4" d="m465 422.1h60.3c10 0 18.1 8 18.1 18v15.3h-96.5v-15.3c0-10 8.1-18 18.1-18z"/>
					<path id="&lt;Path&gt;" class="s4" d="m478.8 422.1c-6.2-4.9-10.2-12.4-10.2-20.9 0-14.7 11.9-26.6 26.6-26.6 14.6 0 26.5 11.9 26.5 26.6 0 8.5-4 16-10.1 20.9"/>
				</g>
				<g id="&lt;Group&gt;">
					<path id="&lt;Path&gt;" class="s4" d="m274.7 422.1h60.3c10 0 18.1 8 18.1 18v15.3h-96.5v-15.3c0-10 8.1-18 18.1-18z"/>
					<path id="&lt;Path&gt;" class="s4" d="m288.5 422.1c-6.2-4.9-10.2-12.4-10.2-20.9 0-14.7 11.8-26.6 26.5-26.6 14.7 0 26.6 11.9 26.6 26.6 0 8.5-4 16-10.2 20.9"/>
				</g>
			</g>
			<path id="&lt;Path&gt;" class="s2" d="m198.8 518.4v-14.3h402.4v14.3c0 10.3-8.3 18.5-18.5 18.5h-365.4c-10.2 0-18.5-8.2-18.5-18.5z"/>
			<g id="&lt;Group&gt;">
				<g id="&lt;Group&gt;">
					<path id="&lt;Path&gt;" class="s2" d="m465 312h60.3c10 0 18.1 8.1 18.1 18v15.3h-96.5v-15.3c0-9.9 8.1-18 18.1-18z"/>
					<path id="&lt;Path&gt;" class="s2" d="m478.8 312c-6.2-4.8-10.2-12.4-10.2-20.9 0-14.7 11.9-26.5 26.6-26.5 14.6 0 26.5 11.8 26.5 26.5 0 8.5-4 16.1-10.1 20.9"/>
				</g>
				<g id="&lt;Group&gt;">
					<path id="&lt;Path&gt;" class="s2" d="m274.7 312h60.3c10 0 18.1 8.1 18.1 18v15.3h-96.5v-15.3c0-9.9 8.1-18 18.1-18z"/>
					<path id="&lt;Path&gt;" class="s2" d="m288.5 312c-6.2-4.8-10.2-12.4-10.2-20.9 0-14.7 11.8-26.5 26.5-26.5 14.7 0 26.6 11.8 26.6 26.5 0 8.5-4 16.1-10.2 20.9"/>
				</g>
				<g id="&lt;Group&gt;">
					<path id="&lt;Path&gt;" class="s2" d="m465 422.1h60.3c10 0 18.1 8 18.1 18v15.3h-96.5v-15.3c0-10 8.1-18 18.1-18z"/>
					<path id="&lt;Path&gt;" class="s2" d="m478.8 422.1c-6.2-4.9-10.2-12.4-10.2-20.9 0-14.7 11.9-26.6 26.6-26.6 14.6 0 26.5 11.9 26.5 26.6 0 8.5-4 16-10.1 20.9"/>
				</g>
				<g id="&lt;Group&gt;">
					<path id="&lt;Path&gt;" class="s2" d="m274.7 422.1h60.3c10 0 18.1 8 18.1 18v15.3h-96.5v-15.3c0-10 8.1-18 18.1-18z"/>
					<path id="&lt;Path&gt;" class="s2" d="m288.5 422.1c-6.2-4.9-10.2-12.4-10.2-20.9 0-14.7 11.8-26.6 26.5-26.6 14.7 0 26.6 11.9 26.6 26.6 0 8.5-4 16-10.2 20.9"/>
				</g>
			</g>
			<rect id="&lt;Path&gt;" class="s2" x="180.8" y="245.2" width="438.5" height="225.8" rx="8.3"></rect>
		</g>
	</g>
</svg>