<svg version="1.2" xmlns="http://www.w3.org/2000/svg" viewBox="0 0 1400 1400" width="1400" height="1400">
	<title>Video Moderation-ai</title>
	<style>
		.s0 { fill: #fff8e1 } 
		.s1 { fill: #ffcf44 } 
		.s2 { fill: none;stroke: #000000;stroke-linecap: round;stroke-linejoin: round;stroke-width: 2.6 } 
		.s3 { fill: #fc6140 } 
		.s4 { fill: #00bbd6 } 
		.s5 { fill: #ffffff } 
		.s6 { fill: #ffd740 } 
		.s7 { fill: #ffe8ad } 
	</style>
	<g id="Layer 1">
		<g id="&lt;Group&gt;">
			<path id="&lt;Path&gt;" class="s0" d="m173.1 1112.6c0 0 88.2-38.3 10.2-245.4-96.4-255.7 191.8-270.9 524.1-437.6 156.6-78.5 347.5 120 471.1 213.8 154.7 117.4 106.3 318.1 27.4 469.2z"/>
			<g id="&lt;Group&gt;">
				<path id="&lt;Path&gt;" class="s1" d="m1047.7 968h-694.2c-20.8 0-37.7-16.9-37.7-37.7v-437.8c0-20.9 16.9-37.8 37.7-37.8h694.2c20.9 0 37.8 16.9 37.8 37.8v437.8c0 20.8-16.9 37.7-37.8 37.7z"/>
				<path id="&lt;Path&gt;" class="s2" d="m1047.7 968h-694.2c-20.8 0-37.7-16.9-37.7-37.7v-437.8c0-20.9 16.9-37.8 37.7-37.8h694.2c20.9 0 37.8 16.9 37.8 37.8v437.8c0 20.8-16.9 37.7-37.8 37.7z"/>
				<path id="&lt;Path&gt;" class="s3" d="m375.4 938c-16.4 0-29.6-13.3-29.6-29.6v-394c0-16.4 13.2-29.7 29.6-29.7h650.5c16.3 0 29.6 13.3 29.6 29.7v394c0 16.3-13.3 29.6-29.6 29.6z"/>
				<g id="&lt;Group&gt;">
					<path id="&lt;Path&gt;" class="s2" d="m767.2 968.2l28.4 52.8"/>
					<path id="&lt;Path&gt;" class="s2" d="m733.9 968.2l28.3 52.8"/>
					<path id="&lt;Path&gt;" class="s2" d="m635.8 968.2l-28.4 52.8"/>
					<path id="&lt;Path&gt;" class="s2" d="m669.1 968.2l-28.3 52.8"/>
				</g>
				<path id="&lt;Path&gt;" class="s4" d="m565.1 1020.8h271c51.3 0 92.9 41.6 92.9 92.9h-456.7c0-51.3 41.6-92.9 92.8-92.9z"/>
				<path id="&lt;Path&gt;" class="s2" d="m565.1 1020.8h271c51.3 0 92.9 41.6 92.9 92.9h-456.7c0-51.3 41.6-92.9 92.8-92.9z"/>
			</g>
			<path id="&lt;Path&gt;" class="s5" d="m1052.6 728.7c2.8 0 3.2 4.1 3.1 4.5-0.2 0.4-0.5 121.2-0.5 121.2l0.5 49c0 0-0.3 7.6-0.7 10.5-0.4 2.8-2.9 8.3-5.2 11.9-2.2 3.5-10.5 9.6-14.6 10.7-4.1 1.1-14.6 1.5-14.6 1.5h-620.5c0 0-18.7 0.6-19.8 0.4-1.1-0.2-12.4-0.8-16.8-2.9-4.4-2.1-5.6-3.2-8.4-5.6-2.9-2.3-5.3-6.7-7.3-10.7-1.9-3.9-2-13.2-2-13.2 0 0 0-173 0-174.9 0-1.8 1.6-2.3 4-2.6 2.4-0.4 15.1 0.4 24.5 2 9.4 1.5 19 4.5 25.1 7.6 6.1 3.2 17.9 10.5 21.7 13.4 3.8 2.9 15.1 13.6 17.9 16.9 2.8 3.3 11.8 17.5 13.4 20.9 1.6 3.4 6.6 12.5 7.7 15.8 1.2 3.3 5.5 16.1 5.8 16.9 0.3 0.8 3.9 0.8 11-0.9 7.2-1.8 19.2-3.3 24.7-3.3 5.6 0.1 21.5 2.8 27.6 4.9 6.1 2.1 20.4 8.9 24.1 11.6 3.7 2.7 19.3 14.3 21.1 15.7 1.8 1.4 1.8 0.9 3.5-0.4 1.7-1.4 10.8-8.6 13.8-10.6 3.1-2 17.7-8 17.7-8 0 0 10-2.7 15.1-3.5 5.1-0.7 26-1.7 28.7-1.8 2.8-0.1 3.5-1.7 3.5-1.7l-0.5-65.1 88.5-1.7-0.4 58.3c0 0 0.4 7.6 0.4 8.9 0 1.3 2.7 1.6 6 1.4 3.3-0.2 12-0.5 16.1 0.4 4.1 0.9 15.3 2.4 18.8 3.2 3.4 0.9 19.8 7.6 21 8.3 1.2 0.6 12.2 8.1 14.2 9.8 1.9 1.7 3.9 3.8 5.9 1.6 1.9-2.3 6.2-4.3 10.5-7.6 4.4-3.3 22.7-13.4 26-14.8 3.2-1.5 11.6-4.2 20.2-6.5 8.7-2.2 28-1.5 31.9-1 4 0.5 13.4 3.5 17.1 4.3 3.7 0.7 3.1-2.3 3.8-4.8 0.7-2.5 2.7-8.2 4.9-13.8 2.2-5.6 11.1-22.1 14.9-27 3.8-4.9 13.4-16.4 16.5-20.5 3.1-4 14.9-13.3 19.7-15.6 4.9-2.4 12.3-5.7 19.8-8 7.6-2.3 17.4-3.9 30-5 0 0 7.8-0.1 10.6-0.1z"/>
			<path id="&lt;Path&gt;" class="s2" d="m375.4 938c-16.4 0-29.6-13.3-29.6-29.6v-394c0-16.4 13.2-29.7 29.6-29.7h650.5c16.3 0 29.6 13.3 29.6 29.7v394c0 16.3-13.3 29.6-29.6 29.6z"/>
			<g id="&lt;Group&gt;">
				<g id="&lt;Group&gt;">
					<path id="&lt;Path&gt;" class="s5" d="m782.4 540.1l64.3 133.6-7.3 66.5-79.2-79.5c0 0-3.3 3.3-9.3 14.9-6 11.6-13 14-7.1 26.8 5.9 12.8 22.8 44.9 25.9 53.7 3.1 8.8 1.2 6-22.2 6-23.5 0-111.8 0.6-116.4 0.4-4.6-0.3 3.8-10.3 8.1-22.6 4.3-12.3 16.9-36.6 19.2-41.6 2.3-5-2.4-7.1-5.8-13.8-3.5-6.7-7-29.7-16.1-20.6-9.1 9.2-45.1 45.2-56 56.1-6.3 6.4-15 19.6-18.1 18.5-2.2-0.7-1.5-13.3-2.7-20.7-2.9-18.2-8.1-39.8-3.8-48.6 4.3-8.7 51.7-105.8 55.5-113.4 3.7-7.7 0.9 1.5 11.2 0.9 10.3-0.5 159.8-16.6 159.8-16.6z"/>
					<g id="&lt;Group&gt;">
						<g id="&lt;Group&gt;">
							<path id="&lt;Path&gt;" class="s6" d="m700.7 286.3c0 0 166.4 187.6 41.1 409.3h-82.1c-125.4-221.7 41-409.3 41-409.3z"/>
						</g>
						<path id="&lt;Path&gt;" class="s7" d="m639.3 404.7c-1.8 0.1-4.1-1.7-4.1-2.4-0.1-0.7 5.2-13.7 7.5-20.2 2.3-6.5 16.1-31.9 16.1-31.9l16.1-28.3c0 0 17.9-25.7 19.3-28.1 1.5-2.4 5.6-5.9 6.3-5.9 0.7 0 2 0.5 6 5.5 4 4.9 9.9 12.6 11.8 16 1.8 3.4 10.2 14.6 12.2 17.8 1.9 3.2 10 18.4 12.1 22.1 2 3.8 9.7 19.4 10.9 22.1 1.3 2.7 12.2 27.2 12.5 30.2 0.4 3.1 0.6 3.2-5.6 3.1 0 0-119.2-0.1-121.1 0z"/>
						<path id="&lt;Path&gt;" class="s2" d="m700.7 286.3c0 0 166.4 187.6 41.1 409.3h-82.1c-125.4-221.7 41-409.3 41-409.3z"/>
						<path id="&lt;Path&gt;" class="s2" d="m741.8 695.6l30.8 66.9h-71.9"/>
						<path id="&lt;Path&gt;" class="s2" d="m700.7 762.5h-71.9l30.9-66.9"/>
						<path id="&lt;Path&gt;" class="s2" d="m789.2 553.9l58.7 120.2-8.5 66.1-78.4-78.9"/>
						<path id="&lt;Path&gt;" class="s2" d="m640.5 661.3l-78.5 78.9-8.5-66.1 59.9-122.4"/>
						<path id="&lt;Path&gt;" class="s5" d="m740 517.7c0 21.8-17.6 39.4-39.3 39.4-21.7 0-39.3-17.6-39.3-39.4 0-21.7 17.6-39.3 39.3-39.3 21.7 0 39.3 17.6 39.3 39.3z"/>
						<path id="&lt;Path&gt;" class="s2" d="m740 517.7c0 21.8-17.6 39.4-39.3 39.4-21.7 0-39.3-17.6-39.3-39.4 0-21.7 17.6-39.3 39.3-39.3 21.7 0 39.3 17.6 39.3 39.3z"/>
						<path id="&lt;Path&gt;" class="s2" d="m634.4 404.3h131.2"/>
					</g>
				</g>
				<g id="&lt;Group&gt;">
					<g id="&lt;Group&gt;">
						<path id="&lt;Path&gt;" class="s2" d="m744.7 826.3c0 0 84.5-11.5 102 67.6"/>
						<path id="&lt;Path&gt;" class="s2" d="m825 851.6c0 0 79.1-80.3 158.2 8.2"/>
						<path id="&lt;Path&gt;" class="s2" d="m934.7 824.3c0 0 21.8-102 120.8-95.3"/>
						<path id="&lt;Path&gt;" class="s2" d="m1055.7 818.3c0 0-89.4 13.4-108.7 119.7"/>
					</g>
					<g id="&lt;Group&gt;">
						<path id="&lt;Path&gt;" class="s2" d="m656.7 826.3c0 0-84.5-11.5-102 67.6"/>
						<path id="&lt;Path&gt;" class="s2" d="m576.4 851.6c0 0-79.1-80.3-158.2 8.2"/>
						<path id="&lt;Path&gt;" class="s2" d="m466.7 824.3c0 0-23.2-102-122.3-95.3"/>
						<path id="&lt;Path&gt;" class="s2" d="m345.8 818.3c0 0 89.3 13.4 108.7 119.7"/>
					</g>
				</g>
				<path id="&lt;Path&gt;" class="s2" d="m744.7 762.1v87.8"/>
				<path id="&lt;Path&gt;" class="s2" d="m656.7 762.5v87.4"/>
				<path id="&lt;Path&gt;" class="s2" d="m799.6 886.8v30.2"/>
				<path id="&lt;Path&gt;" class="s2" d="m506.9 874.5v29.6"/>
				<path id="&lt;Path&gt;" class="s2" d="m378.2 672.5v29.6"/>
				<path id="&lt;Path&gt;" class="s2" d="m1001.3 781v29.7"/>
				<path id="&lt;Path&gt;" class="s2" d="m913.1 740.2v29.7"/>
				<path id="&lt;Path&gt;" class="s2" d="m991.6 905.8v29.7"/>
			</g>
			<path id="&lt;Path&gt;" class="s3" d="m726.3 522.4l-35 20.2c-3.5 2-8-0.5-8-4.7v-40.3c0-4.2 4.5-6.7 8-4.7l35 20.2c3.6 2.1 3.6 7.2 0 9.3z"/>
			<g id="&lt;Group&gt;">
				<path id="&lt;Path&gt;" class="s3" d="m973 352.5c6.3 25.5-9.2 51.2-34.7 57.5-25.4 6.3-51.1-9.3-57.4-34.7-6.3-25.5 9.2-51.2 34.7-57.5 25.4-6.2 51.2 9.3 57.4 34.7z"/>
				<g id="&lt;Group&gt;">
					<path id="&lt;Path&gt;" class="s7" d="m955.8 349.8c0.3 1.5 0 2.9-0.9 4-0.2 0.3-0.1 0.6 0 0.8q0.8 0.8 1 1.9l0.2 0.6c0.3 1.5 0 2.9-0.9 4-0.1 0.2-0.1 0.6 0.1 0.8q0.7 0.8 0.9 1.9l0.2 0.6c0.4 1.4 0.1 3.5-0.7 4.6-0.2 0.2-0.2 0.6 0 0.8q0.7 0.8 1 1.9c0.7 2.8-1 5.7-3.9 6.4l-2.8 0.7-7 1.8-9.7 2.4c-2.2 0.5-4.4-0.1-6-1.4q-0.3-0.2-0.6-0.2l-6.2 1.6c-0.3 0.1-0.6-0.1-0.7-0.5l-5.6-22.4c0-0.3 0.1-0.6 0.4-0.7 1.7-0.8 2.8-1.7 4.3-2.7 2-1.5 3-3.6 3.5-5.9 0.7-3.3 0-6.7-0.4-10-0.4-2.8-0.6-6.4 2.8-7.2 1.5-0.4 3.1 0.1 4.3 1.1 1 0.8 1.7 2.1 2.2 3.4 0.5 1.4 0.8 2.8 1.1 4 0.5 2.3 1.1 4.7 1 7 0 0.4 0.3 0.7 0.7 0.6l5.4-1.3 2.8-0.7 7-1.7c2.9-0.7 5.8 1 6.5 3.8z"/>
					<path id="&lt;Path&gt;" class="s7" d="m912 387.5l-1.3 0.4c-3 0.7-5.9-1.1-6.7-4.1l-4.4-17.8c-0.7-2.9 1.1-5.9 4-6.6l1.4-0.4c2.9-0.7 5.9 1.1 6.6 4.1l4.4 17.8c0.7 2.9-1 5.9-4 6.6z"/>
				</g>
			</g>
			<g id="&lt;Group&gt;">
				<path id="&lt;Path&gt;" class="s3" d="m464.3 854.4c6.3 25.4-9.3 51.1-34.7 57.4-25.4 6.3-51.2-9.3-57.4-34.7-6.3-25.5 9.2-51.2 34.7-57.5 25.4-6.2 51.1 9.3 57.4 34.8z"/>
				<g id="&lt;Group&gt;">
					<path id="&lt;Path&gt;" class="s7" d="m447 851.7c0.4 1.4 0 2.9-0.8 4-0.2 0.2-0.2 0.5 0 0.7q0.7 0.8 1 1.9l0.2 0.6c0.3 1.5-0.1 2.9-0.9 4-0.2 0.3-0.2 0.6 0 0.8q0.7 0.8 1 1.9l0.2 0.6c0.3 1.4 0.1 3.5-0.7 4.6-0.2 0.3-0.2 0.6 0 0.8q0.7 0.8 1 1.9c0.7 2.9-1.1 5.8-3.9 6.5l-2.8 0.6-7 1.8-9.7 2.4c-2.2 0.5-4.4-0.1-6.1-1.4q-0.2-0.2-0.5-0.1l-6.2 1.5c-0.3 0.1-0.7-0.1-0.7-0.5l-5.6-22.4c-0.1-0.3 0.1-0.6 0.3-0.7 1.8-0.8 2.9-1.6 4.4-2.7 2-1.5 3-3.6 3.5-5.9 0.7-3.3 0-6.7-0.4-10-0.4-2.8-0.7-6.4 2.8-7.2 1.5-0.4 3 0.1 4.2 1.1 1.1 0.8 1.8 2.1 2.3 3.4 0.4 1.4 0.7 2.8 1 4 0.6 2.3 1.1 4.7 1 7 0 0.4 0.4 0.7 0.8 0.6l5.4-1.3 2.8-0.7 7-1.7c2.8-0.7 5.7 1 6.4 3.9z"/>
					<path id="&lt;Path&gt;" class="s7" d="m403.3 889.3l-1.4 0.4c-2.9 0.7-5.9-1.1-6.6-4.1l-4.4-17.8c-0.7-2.9 1.1-5.9 4-6.6l1.3-0.3c3-0.8 6 1 6.7 4l4.4 17.8c0.7 2.9-1.1 5.9-4 6.6z"/>
				</g>
			</g>
			<g id="&lt;Group&gt;">
				<path id="&lt;Path&gt;" class="s3" d="m1204.2 593.8c0 26.2-21.2 47.5-47.4 47.5-26.2 0-47.5-21.3-47.5-47.5 0-26.2 21.3-47.4 47.5-47.4 26.2 0 47.4 21.2 47.4 47.4z"/>
				<path id="&lt;Path&gt;" class="s7" d="m1150.3 624.9q0 0 0 0 0 0 0 0 0 0 0 0 0 0 0 0c-25.4-23.6-20.3-43.1-19.8-45q0-0.1 0-0.2c2.3-8.8 10.8-15.2 20.4-12.7 7.6 2 10.6 8.6 10.8 14.1 2.8-4.7 8.7-9 16.3-7 9.5 2.5 13.8 12.2 11.5 21q0 0.1 0 0.1c-0.5 2-5.6 21.5-39.2 29.7z"/>
			</g>
			<g id="&lt;Group&gt;">
				<path id="&lt;Path&gt;" class="s3" d="m532.2 358.4c12.8 22.8 4.7 51.8-18.2 64.6-22.8 12.8-51.8 4.7-64.6-18.2-12.8-22.8-4.7-51.7 18.1-64.6 22.9-12.8 51.8-4.7 64.7 18.2z"/>
				<path id="&lt;Path&gt;" class="s7" d="m500.3 411.9q0 0 0 0 0 0 0 0 0 0 0 0 0 0 0 0c-33.7-8.2-38.8-27.7-39.3-29.6q0-0.1 0-0.1c-2.3-8.8 1.9-18.6 11.5-21.1 7.6-2 13.5 2.3 16.3 7 0.2-5.5 3.2-12.1 10.8-14.1 9.5-2.5 18 3.9 20.3 12.7q0.1 0.1 0.1 0.1c0.5 1.9 5.6 21.4-19.7 45.1z"/>
			</g>
			<path id="&lt;Path&gt;" class="s2" d="m1280 1113.7h-1160"/>
			<path id="&lt;Path&gt;" class="s3" d="m1174 818.3c0 7.7-6.3 14-14.1 14-7.7 0-14-6.3-14-14 0-7.8 6.3-14.1 14-14.1 7.8 0 14.1 6.3 14.1 14.1z"/>
			<path id="&lt;Path&gt;" class="s3" d="m284.2 1033.1c0 7.7-6.3 14-14 14-7.8 0-14.1-6.3-14.1-14 0-7.8 6.3-14.1 14.1-14.1 7.7 0 14 6.3 14 14.1z"/>
			<path id="&lt;Path&gt;" class="s3" d="m358.5 387.5c0 7.8-6.3 14.1-14.1 14.1-7.7 0-14-6.3-14-14.1 0-7.8 6.3-14 14-14 7.8 0 14.1 6.2 14.1 14z"/>
			<path id="&lt;Path&gt;" class="s1" d="m463 1033.1c0 3.8-3.2 7-7.1 7-3.8 0-7-3.2-7-7 0-3.9 3.2-7.1 7-7.1 3.9 0 7.1 3.2 7.1 7.1z"/>
			<path id="&lt;Path&gt;" class="s1" d="m231.1 665.4c0 3.9-3.2 7.1-7.1 7.1-3.8 0-7-3.2-7-7.1 0-3.8 3.2-7 7-7 3.9 0 7.1 3.2 7.1 7z"/>
			<path id="&lt;Path&gt;" class="s1" d="m1204.2 735.4c0 3.9-3.2 7.1-7 7.1-3.9 0-7.1-3.2-7.1-7.1 0-3.8 3.2-7 7.1-7 3.8 0 7 3.2 7 7z"/>
		</g>
	</g>
</svg>