<svg version="1.2" xmlns="http://www.w3.org/2000/svg" viewBox="0 0 1400 1400" width="1400" height="1400">
	<title>Video Sourcing (1)-ai</title>
	<style>
		.s0 { fill: #fff8e1 } 
		.s1 { fill: #ffffff } 
		.s2 { fill: #ffcf44 } 
		.s3 { fill: none;stroke: #000000;stroke-linecap: round;stroke-linejoin: round;stroke-width: 2.6 } 
		.s4 { fill: #fc6140 } 
		.s5 { fill: #ffe8ad } 
	</style>
	<g id="Layer 1">
		<g id="&lt;Group&gt;">
			<path id="&lt;Path&gt;" class="s0" d="m162.7 1061.1c0 0 94.4-38.3 10.9-245.5-103.1-255.7 205.2-270.9 560.7-437.6 167.5-78.5 371.7 120.1 503.9 213.9 165.5 117.4 113.8 318 29.3 469.2z"/>
			<g id="&lt;Group&gt;">
				<path id="&lt;Path&gt;" class="s1" d="m549.1 1023.1l31.3-70.9 11.5-11 88.6 3.6 29.8 68.2 0.9 5v2.8z"/>
				<path id="&lt;Path&gt;" class="s2" d="m247.8 433.3h768.8c22.4 0 40.6 18.2 40.6 40.6v435.7c0 22.4-18.2 40.6-40.6 40.6h-768.8c-22.4 0-40.5-18.2-40.5-40.6v-435.7c0-22.4 18.1-40.6 40.5-40.6z"/>
				<path id="&lt;Path&gt;" class="s3" d="m247.8 433.3h768.8c22.4 0 40.6 18.2 40.6 40.6v435.7c0 22.4-18.2 40.6-40.6 40.6h-768.8c-22.4 0-40.5-18.2-40.5-40.6v-435.7c0-22.4 18.1-40.6 40.5-40.6z"/>
				<path id="&lt;Path&gt;" class="s1" d="m276.2 461.4h717.3c15.2 0 27.6 12.4 27.6 27.6v316.2c0 15.3-12.4 27.7-27.6 27.7h-717.3c-15.2 0-27.6-12.4-27.6-27.7v-316.2c0-15.2 12.4-27.6 27.6-27.6z"/>
				<path id="&lt;Path&gt;" class="s3" d="m1057.2 859h-849.9"/>
				<path id="&lt;Path&gt;" class="s3" d="m276.2 461.4h717.3c15.2 0 27.6 12.4 27.6 27.6v316.2c0 15.3-12.4 27.7-27.6 27.7h-717.3c-15.2 0-27.6-12.4-27.6-27.7v-316.2c0-15.2 12.4-27.6 27.6-27.6z"/>
				<path id="&lt;Path&gt;" class="s4" d="m653.1 905.5c0 11.5-9.4 20.8-20.9 20.8-11.5 0-20.8-9.3-20.8-20.8 0-11.5 9.3-20.9 20.8-20.9 11.5 0 20.9 9.4 20.9 20.9z"/>
				<path id="&lt;Path&gt;" class="s3" d="m653.1 905.5c0 11.5-9.4 20.8-20.9 20.8-11.5 0-20.8-9.3-20.8-20.8 0-11.5 9.3-20.9 20.8-20.9 11.5 0 20.9 9.4 20.9 20.9z"/>
				<g id="&lt;Group&gt;">
					<path id="&lt;Path&gt;" class="s3" d="m683.2 950.2l28 64.8"/>
					<path id="&lt;Path&gt;" class="s3" d="m581.3 950.2l-28 64.8"/>
				</g>
				<path id="&lt;Path&gt;" class="s4" d="m404.4 1061.1c0-25.5 20.6-46.1 46-46.1h363.6c25.4 0 46 20.6 46 46.1h-455.6z"/>
				<path id="&lt;Path&gt;" class="s3" d="m404.4 1061.1c0-25.5 20.6-46.1 46-46.1h363.6c25.4 0 46 20.6 46 46.1h-455.6z"/>
			</g>
			<path id="&lt;Path&gt;" class="s3" d="m961.1 646.8h-712.5"/>
			<path id="&lt;Path&gt;" class="s3" d="m632.2 461.4v371.5"/>
			<path id="&lt;Path&gt;" class="s3" d="m709.4 646.8c0 42.6-34.6 77.2-77.2 77.2-42.6 0-77.1-34.6-77.1-77.2 0-42.6 34.5-77.1 77.1-77.1 42.6 0 77.2 34.5 77.2 77.1z"/>
			<path id="&lt;Path&gt;" class="s3" d="m726.1 646.8c0 51.8-42 93.9-93.9 93.9-51.8 0-93.8-42.1-93.8-93.9 0-51.8 42-93.8 93.8-93.8 51.9 0 93.9 42 93.9 93.8z"/>
			<path id="&lt;Path&gt;" class="s3" d="m37.5 1061.1h1325"/>
			<g id="&lt;Group&gt;">
				<path id="&lt;Path&gt;" class="s5" d="m841 519.2l-37.3 19.5v-71.1l37.3 19.6"/>
				<path id="&lt;Path&gt;" class="s4" d="m1140.4 519.2h-299.4v-32h299.4z"/>
				<path id="&lt;Path&gt;" class="s2" d="m1296.8 566.7h17.4v153h-17.4z"/>
				<path id="&lt;Path&gt;" class="s5" d="m1296.8 737.4h-33.5v-188.4h33.5z"/>
				<path id="&lt;Path&gt;" class="s4" d="m1205 579.5l58.3-23.7v174.8l-58.3-23.7"/>
				<path id="&lt;Path&gt;" class="s2" d="m1205 706.9h-64.6v-127.4h64.6z"/>
				<path id="&lt;Path&gt;" class="s4" d="m825.4 720.1v-153.7c0-8.5 6.8-15.3 15.2-15.3h284.5c8.4 0 15.3 6.8 15.3 15.3v153.7c0 8.4-6.9 15.2-15.3 15.2h-284.5c-8.4 0-15.2-6.8-15.2-15.2z"/>
				<path id="&lt;Path&gt;" class="s3" d="m825.4 720.1v-153.7c0-8.5 6.8-15.3 15.2-15.3h284.5c8.4 0 15.3 6.8 15.3 15.3v153.7c0 8.4-6.9 15.2-15.3 15.2h-284.5c-8.4 0-15.2-6.8-15.2-15.2z"/>
				<path id="&lt;Path&gt;" class="s3" d="m1205 706.9h-64.6v-127.4h64.6z"/>
				<path id="&lt;Path&gt;" class="s3" d="m1205 579.5l58.3-23.7v174.8l-58.3-23.7"/>
				<path id="&lt;Path&gt;" class="s3" d="m1296.8 737.4h-33.5v-188.4h33.5z"/>
				<path id="&lt;Path&gt;" class="s3" d="m1296.8 566.7h17.4v153h-17.4z"/>
				<path id="&lt;Path&gt;" class="s3" d="m1140.4 519.2h-299.4v-32h299.4z"/>
				<path id="&lt;Path&gt;" class="s5" d="m1140.4 477.4h93.7v51.5h-93.7z"/>
				<path id="&lt;Path&gt;" class="s3" d="m1140.4 477.4h93.7v51.5h-93.7z"/>
				<path id="&lt;Path&gt;" class="s3" d="m841 519.2l-37.3 19.5v-71.1l37.3 19.6"/>
				<g id="&lt;Group&gt;">
					<path id="&lt;Path&gt;" class="s3" d="m935.1 519.2l-19.9 31.9"/>
					<path id="&lt;Path&gt;" class="s3" d="m901.4 519.2l-19.9 31.9"/>
				</g>
				<g id="&lt;Group&gt;">
					<path id="&lt;Path&gt;" class="s3" d="m1089.2 519.2l-19.9 31.9"/>
					<path id="&lt;Path&gt;" class="s3" d="m1055.5 519.2l-19.9 31.9"/>
				</g>
				<path id="&lt;Path&gt;" class="s3" d="m941 551.1v184.2"/>
				<path id="&lt;Path&gt;" class="s3" d="m897.8 551.1v184.2"/>
				<path id="&lt;Path&gt;" class="s3" d="m849.4 551.1v184.2"/>
			</g>
			<path id="&lt;Path&gt;" class="s3" d="m1055.5 762.2h149.5"/>
			<path id="&lt;Path&gt;" class="s3" d="m398.3 982.6h-165.1"/>
			<path id="&lt;Path&gt;" class="s3" d="m382 403.2h-294.3"/>
			<path id="&lt;Path&gt;" class="s3" d="m867.4 403.2h102.1"/>
			<path id="&lt;Path&gt;" class="s4" d="m1157.2 912.9c0 9.3-7.5 16.8-16.8 16.8-9.3 0-16.9-7.5-16.9-16.8 0-9.3 7.6-16.9 16.9-16.9 9.3 0 16.8 7.6 16.8 16.9z"/>
			<path id="&lt;Path&gt;" class="s2" d="m122.3 580c0 5.9-4.8 10.6-10.6 10.6-5.8 0-10.5-4.7-10.5-10.6 0-5.8 4.7-10.5 10.5-10.5 5.8 0 10.6 4.7 10.6 10.5z"/>
			<path id="&lt;Path&gt;" class="s2" d="m935.7 1038c0 5.9-4.7 10.6-10.5 10.6-5.9 0-10.6-4.7-10.6-10.6 0-5.8 4.7-10.5 10.6-10.5 5.8 0 10.5 4.7 10.5 10.5z"/>
			<path id="&lt;Path&gt;" class="s2" d="m633.7 349.5c0 5.8-4.7 10.5-10.5 10.5-5.8 0-10.6-4.7-10.6-10.5 0-5.8 4.8-10.6 10.6-10.6 5.8 0 10.5 4.8 10.5 10.6z"/>
		</g>
	</g>
</svg>